<?xml version="1.0" encoding="utf-8" standalone="no"?>
<!DOCTYPE svg PUBLIC "-//W3C//DTD SVG 1.1//EN"
  "http://www.w3.org/Graphics/SVG/1.1/DTD/svg11.dtd">
<svg xmlns:xlink="http://www.w3.org/1999/xlink" width="397.089231pt" height="425.907231pt" viewBox="0 0 397.089231 425.907231" xmlns="http://www.w3.org/2000/svg" version="1.1">
 <metadata>
  <rdf:RDF xmlns:dc="http://purl.org/dc/elements/1.1/" xmlns:cc="http://creativecommons.org/ns#" xmlns:rdf="http://www.w3.org/1999/02/22-rdf-syntax-ns#">
   <cc:Work>
    <dc:type rdf:resource="http://purl.org/dc/dcmitype/StillImage"/>
    <dc:date>2026-03-19T04:26:29.565656</dc:date>
    <dc:format>image/svg+xml</dc:format>
    <dc:creator>
     <cc:Agent>
      <dc:title>Matplotlib v3.10.8, https://matplotlib.org/</dc:title>
     </cc:Agent>
    </dc:creator>
   </cc:Work>
  </rdf:RDF>
 </metadata>
 <defs>
  <style type="text/css">*{stroke-linejoin: round; stroke-linecap: butt}</style>
 </defs>
 <g id="figure_1">
  <g id="patch_1">
   <path d="M 0 425.907231 
L 397.089231 425.907231 
L 397.089231 0 
L 0 0 
z
" style="fill: #ffffff"/>
  </g>
  <g id="axes_1">
   <g id="patch_2">
    <path d="M 206.992593 351.814756 
Q 270.986816 327.070519 312.530952 276.022624 
" style="fill: none; stroke: #e74c3c; stroke-width: 2.5; stroke-linecap: round"/>
    <path d="M 308.454882 277.86264 
L 312.530952 276.022624 
L 311.557323 280.387489 
z
" style="fill: #e74c3c; stroke: #e74c3c; stroke-width: 2.5; stroke-linecap: round"/>
   </g>
   <g id="text_1">
    <g id="patch_3">
     <path d="M 253.604102 325.070559 
L 278.907852 325.070559 
Q 279.547852 325.070559 279.547852 324.430559 
L 279.547852 316.688059 
Q 279.547852 316.048059 278.907852 316.048059 
L 253.604102 316.048059 
Q 252.964102 316.048059 252.964102 316.688059 
L 252.964102 324.430559 
Q 252.964102 325.070559 253.604102 325.070559 
z
" style="fill: #ffffff; opacity: 0.8"/>
    </g>
    <!-- 1.085 -->
    <g style="fill: #c0392b" transform="translate(253.604102 322.766809) scale(0.08 -0.08)">
     <defs>
      <path id="DejaVuSans-Bold-31" d="M 750 831 
L 1813 831 
L 1813 3847 
L 722 3622 
L 722 4441 
L 1806 4666 
L 2950 4666 
L 2950 831 
L 4013 831 
L 4013 0 
L 750 0 
L 750 831 
z
" transform="scale(0.015625)"/>
      <path id="DejaVuSans-Bold-2e" d="M 653 1209 
L 1778 1209 
L 1778 0 
L 653 0 
L 653 1209 
z
" transform="scale(0.015625)"/>
      <path id="DejaVuSans-Bold-30" d="M 2944 2338 
Q 2944 3213 2780 3570 
Q 2616 3928 2228 3928 
Q 1841 3928 1675 3570 
Q 1509 3213 1509 2338 
Q 1509 1453 1675 1090 
Q 1841 728 2228 728 
Q 2613 728 2778 1090 
Q 2944 1453 2944 2338 
z
M 4147 2328 
Q 4147 1169 3647 539 
Q 3147 -91 2228 -91 
Q 1306 -91 806 539 
Q 306 1169 306 2328 
Q 306 3491 806 4120 
Q 1306 4750 2228 4750 
Q 3147 4750 3647 4120 
Q 4147 3491 4147 2328 
z
" transform="scale(0.015625)"/>
      <path id="DejaVuSans-Bold-38" d="M 2228 2088 
Q 1891 2088 1709 1903 
Q 1528 1719 1528 1375 
Q 1528 1031 1709 848 
Q 1891 666 2228 666 
Q 2563 666 2741 848 
Q 2919 1031 2919 1375 
Q 2919 1722 2741 1905 
Q 2563 2088 2228 2088 
z
M 1350 2484 
Q 925 2613 709 2878 
Q 494 3144 494 3541 
Q 494 4131 934 4440 
Q 1375 4750 2228 4750 
Q 3075 4750 3515 4442 
Q 3956 4134 3956 3541 
Q 3956 3144 3739 2878 
Q 3522 2613 3097 2484 
Q 3572 2353 3814 2058 
Q 4056 1763 4056 1313 
Q 4056 619 3595 264 
Q 3134 -91 2228 -91 
Q 1319 -91 855 264 
Q 391 619 391 1313 
Q 391 1763 633 2058 
Q 875 2353 1350 2484 
z
M 1631 3419 
Q 1631 3141 1786 2991 
Q 1941 2841 2228 2841 
Q 2509 2841 2662 2991 
Q 2816 3141 2816 3419 
Q 2816 3697 2662 3845 
Q 2509 3994 2228 3994 
Q 1941 3994 1786 3844 
Q 1631 3694 1631 3419 
z
" transform="scale(0.015625)"/>
      <path id="DejaVuSans-Bold-35" d="M 678 4666 
L 3669 4666 
L 3669 3781 
L 1638 3781 
L 1638 3059 
Q 1775 3097 1914 3117 
Q 2053 3138 2203 3138 
Q 3056 3138 3531 2711 
Q 4006 2284 4006 1522 
Q 4006 766 3489 337 
Q 2972 -91 2053 -91 
Q 1656 -91 1267 -14 
Q 878 63 494 219 
L 494 1166 
Q 875 947 1217 837 
Q 1559 728 1863 728 
Q 2300 728 2551 942 
Q 2803 1156 2803 1522 
Q 2803 1891 2551 2103 
Q 2300 2316 1863 2316 
Q 1603 2316 1309 2248 
Q 1016 2181 678 2041 
L 678 4666 
z
" transform="scale(0.015625)"/>
     </defs>
     <use xlink:href="#DejaVuSans-Bold-31"/>
     <use xlink:href="#DejaVuSans-Bold-2e" transform="translate(69.580078 0)"/>
     <use xlink:href="#DejaVuSans-Bold-30" transform="translate(107.568359 0)"/>
     <use xlink:href="#DejaVuSans-Bold-38" transform="translate(177.148438 0)"/>
     <use xlink:href="#DejaVuSans-Bold-35" transform="translate(246.728516 0)"/>
    </g>
   </g>
   <g id="patch_4">
    <path d="M 311.416333 269.892711 
Q 247.42211 294.636947 204.678256 347.159012 
" style="fill: none; stroke: #bdc3c7; stroke-width: 0.8; stroke-linecap: round"/>
    <path d="M 208.754325 345.318996 
L 204.678256 347.159012 
L 205.651885 342.794147 
z
" style="fill: #bdc3c7; stroke: #bdc3c7; stroke-width: 0.8; stroke-linecap: round"/>
   </g>
   <g id="text_2">
    <g id="patch_5">
     <path d="M 239.906231 305.095501 
L 264.399668 305.095501 
Q 264.959668 305.095501 264.959668 304.535501 
L 264.959668 297.760814 
Q 264.959668 297.200814 264.399668 297.200814 
L 239.906231 297.200814 
Q 239.346231 297.200814 239.346231 297.760814 
L 239.346231 304.535501 
Q 239.346231 305.095501 239.906231 305.095501 
z
" style="fill: #ffffff; opacity: 0.8"/>
    </g>
    <!-- 0.9217 -->
    <g style="fill: #555555" transform="translate(239.906231 303.07972) scale(0.07 -0.07)">
     <defs>
      <path id="DejaVuSans-30" d="M 2034 4250 
Q 1547 4250 1301 3770 
Q 1056 3291 1056 2328 
Q 1056 1369 1301 889 
Q 1547 409 2034 409 
Q 2525 409 2770 889 
Q 3016 1369 3016 2328 
Q 3016 3291 2770 3770 
Q 2525 4250 2034 4250 
z
M 2034 4750 
Q 2819 4750 3233 4129 
Q 3647 3509 3647 2328 
Q 3647 1150 3233 529 
Q 2819 -91 2034 -91 
Q 1250 -91 836 529 
Q 422 1150 422 2328 
Q 422 3509 836 4129 
Q 1250 4750 2034 4750 
z
" transform="scale(0.015625)"/>
      <path id="DejaVuSans-2e" d="M 684 794 
L 1344 794 
L 1344 0 
L 684 0 
L 684 794 
z
" transform="scale(0.015625)"/>
      <path id="DejaVuSans-39" d="M 703 97 
L 703 672 
Q 941 559 1184 500 
Q 1428 441 1663 441 
Q 2288 441 2617 861 
Q 2947 1281 2994 2138 
Q 2813 1869 2534 1725 
Q 2256 1581 1919 1581 
Q 1219 1581 811 2004 
Q 403 2428 403 3163 
Q 403 3881 828 4315 
Q 1253 4750 1959 4750 
Q 2769 4750 3195 4129 
Q 3622 3509 3622 2328 
Q 3622 1225 3098 567 
Q 2575 -91 1691 -91 
Q 1453 -91 1209 -44 
Q 966 3 703 97 
z
M 1959 2075 
Q 2384 2075 2632 2365 
Q 2881 2656 2881 3163 
Q 2881 3666 2632 3958 
Q 2384 4250 1959 4250 
Q 1534 4250 1286 3958 
Q 1038 3666 1038 3163 
Q 1038 2656 1286 2365 
Q 1534 2075 1959 2075 
z
" transform="scale(0.015625)"/>
      <path id="DejaVuSans-32" d="M 1228 531 
L 3431 531 
L 3431 0 
L 469 0 
L 469 531 
Q 828 903 1448 1529 
Q 2069 2156 2228 2338 
Q 2531 2678 2651 2914 
Q 2772 3150 2772 3378 
Q 2772 3750 2511 3984 
Q 2250 4219 1831 4219 
Q 1534 4219 1204 4116 
Q 875 4013 500 3803 
L 500 4441 
Q 881 4594 1212 4672 
Q 1544 4750 1819 4750 
Q 2544 4750 2975 4387 
Q 3406 4025 3406 3419 
Q 3406 3131 3298 2873 
Q 3191 2616 2906 2266 
Q 2828 2175 2409 1742 
Q 1991 1309 1228 531 
z
" transform="scale(0.015625)"/>
      <path id="DejaVuSans-31" d="M 794 531 
L 1825 531 
L 1825 4091 
L 703 3866 
L 703 4441 
L 1819 4666 
L 2450 4666 
L 2450 531 
L 3481 531 
L 3481 0 
L 794 0 
L 794 531 
z
" transform="scale(0.015625)"/>
      <path id="DejaVuSans-37" d="M 525 4666 
L 3525 4666 
L 3525 4397 
L 1831 0 
L 1172 0 
L 2766 4134 
L 525 4134 
L 525 4666 
z
" transform="scale(0.015625)"/>
     </defs>
     <use xlink:href="#DejaVuSans-30"/>
     <use xlink:href="#DejaVuSans-2e" transform="translate(63.623047 0)"/>
     <use xlink:href="#DejaVuSans-39" transform="translate(95.410156 0)"/>
     <use xlink:href="#DejaVuSans-32" transform="translate(159.033203 0)"/>
     <use xlink:href="#DejaVuSans-31" transform="translate(222.65625 0)"/>
     <use xlink:href="#DejaVuSans-37" transform="translate(286.279297 0)"/>
    </g>
   </g>
   <g id="patch_6">
    <path d="M 203.594788 347.476634 
Q 268.270603 250.017459 273.193646 134.04938 
" style="fill: none; stroke: #bdc3c7; stroke-width: 0.8; stroke-linecap: round"/>
    <path d="M 271.025792 137.960954 
L 273.193646 134.04938 
L 275.022192 138.130608 
z
" style="fill: #bdc3c7; stroke: #bdc3c7; stroke-width: 0.8; stroke-linecap: round"/>
   </g>
   <g id="text_3">
    <g id="patch_7">
     <path d="M 244.475721 249.489525 
L 264.515409 249.489525 
Q 265.075409 249.489525 265.075409 248.929525 
L 265.075409 242.154837 
Q 265.075409 241.594837 264.515409 241.594837 
L 244.475721 241.594837 
Q 243.915721 241.594837 243.915721 242.154837 
L 243.915721 248.929525 
Q 243.915721 249.489525 244.475721 249.489525 
z
" style="fill: #ffffff; opacity: 0.8"/>
    </g>
    <!-- 0.857 -->
    <g style="fill: #555555" transform="translate(244.475721 247.473743) scale(0.07 -0.07)">
     <defs>
      <path id="DejaVuSans-38" d="M 2034 2216 
Q 1584 2216 1326 1975 
Q 1069 1734 1069 1313 
Q 1069 891 1326 650 
Q 1584 409 2034 409 
Q 2484 409 2743 651 
Q 3003 894 3003 1313 
Q 3003 1734 2745 1975 
Q 2488 2216 2034 2216 
z
M 1403 2484 
Q 997 2584 770 2862 
Q 544 3141 544 3541 
Q 544 4100 942 4425 
Q 1341 4750 2034 4750 
Q 2731 4750 3128 4425 
Q 3525 4100 3525 3541 
Q 3525 3141 3298 2862 
Q 3072 2584 2669 2484 
Q 3125 2378 3379 2068 
Q 3634 1759 3634 1313 
Q 3634 634 3220 271 
Q 2806 -91 2034 -91 
Q 1263 -91 848 271 
Q 434 634 434 1313 
Q 434 1759 690 2068 
Q 947 2378 1403 2484 
z
M 1172 3481 
Q 1172 3119 1398 2916 
Q 1625 2713 2034 2713 
Q 2441 2713 2670 2916 
Q 2900 3119 2900 3481 
Q 2900 3844 2670 4047 
Q 2441 4250 2034 4250 
Q 1625 4250 1398 4047 
Q 1172 3844 1172 3481 
z
" transform="scale(0.015625)"/>
      <path id="DejaVuSans-35" d="M 691 4666 
L 3169 4666 
L 3169 4134 
L 1269 4134 
L 1269 2991 
Q 1406 3038 1543 3061 
Q 1681 3084 1819 3084 
Q 2600 3084 3056 2656 
Q 3513 2228 3513 1497 
Q 3513 744 3044 326 
Q 2575 -91 1722 -91 
Q 1428 -91 1123 -41 
Q 819 9 494 109 
L 494 744 
Q 775 591 1075 516 
Q 1375 441 1709 441 
Q 2250 441 2565 725 
Q 2881 1009 2881 1497 
Q 2881 1984 2565 2268 
Q 2250 2553 1709 2553 
Q 1456 2553 1204 2497 
Q 953 2441 691 2322 
L 691 4666 
z
" transform="scale(0.015625)"/>
     </defs>
     <use xlink:href="#DejaVuSans-30"/>
     <use xlink:href="#DejaVuSans-2e" transform="translate(63.623047 0)"/>
     <use xlink:href="#DejaVuSans-38" transform="translate(95.410156 0)"/>
     <use xlink:href="#DejaVuSans-35" transform="translate(159.033203 0)"/>
     <use xlink:href="#DejaVuSans-37" transform="translate(222.65625 0)"/>
    </g>
   </g>
   <g id="patch_8">
    <path d="M 268.474138 131.610977 
Q 203.798323 229.070152 198.87528 345.03823 
" style="fill: none; stroke: #bdc3c7; stroke-width: 0.8; stroke-linecap: round"/>
    <path d="M 201.043134 341.126657 
L 198.87528 345.03823 
L 197.046734 340.957003 
z
" style="fill: #bdc3c7; stroke: #bdc3c7; stroke-width: 0.8; stroke-linecap: round"/>
   </g>
   <g id="text_4">
    <g id="patch_9">
     <path d="M 205.326642 237.492773 
L 229.82008 237.492773 
Q 230.38008 237.492773 230.38008 236.932773 
L 230.38008 230.158086 
Q 230.38008 229.598086 229.82008 229.598086 
L 205.326642 229.598086 
Q 204.766642 229.598086 204.766642 230.158086 
L 204.766642 236.932773 
Q 204.766642 237.492773 205.326642 237.492773 
z
" style="fill: #ffffff; opacity: 0.8"/>
    </g>
    <!-- 1.1669 -->
    <g style="fill: #555555" transform="translate(205.326642 235.476992) scale(0.07 -0.07)">
     <defs>
      <path id="DejaVuSans-36" d="M 2113 2584 
Q 1688 2584 1439 2293 
Q 1191 2003 1191 1497 
Q 1191 994 1439 701 
Q 1688 409 2113 409 
Q 2538 409 2786 701 
Q 3034 994 3034 1497 
Q 3034 2003 2786 2293 
Q 2538 2584 2113 2584 
z
M 3366 4563 
L 3366 3988 
Q 3128 4100 2886 4159 
Q 2644 4219 2406 4219 
Q 1781 4219 1451 3797 
Q 1122 3375 1075 2522 
Q 1259 2794 1537 2939 
Q 1816 3084 2150 3084 
Q 2853 3084 3261 2657 
Q 3669 2231 3669 1497 
Q 3669 778 3244 343 
Q 2819 -91 2113 -91 
Q 1303 -91 875 529 
Q 447 1150 447 2328 
Q 447 3434 972 4092 
Q 1497 4750 2381 4750 
Q 2619 4750 2861 4703 
Q 3103 4656 3366 4563 
z
" transform="scale(0.015625)"/>
     </defs>
     <use xlink:href="#DejaVuSans-31"/>
     <use xlink:href="#DejaVuSans-2e" transform="translate(63.623047 0)"/>
     <use xlink:href="#DejaVuSans-31" transform="translate(95.410156 0)"/>
     <use xlink:href="#DejaVuSans-36" transform="translate(159.033203 0)"/>
     <use xlink:href="#DejaVuSans-36" transform="translate(222.65625 0)"/>
     <use xlink:href="#DejaVuSans-39" transform="translate(286.279297 0)"/>
    </g>
   </g>
   <g id="patch_10">
    <path d="M 198.251844 345.93086 
Q 193.290612 229.069242 129.109111 132.355403 
" style="fill: none; stroke: #bdc3c7; stroke-width: 0.8; stroke-linecap: round"/>
    <path d="M 129.654445 136.794165 
L 129.109111 132.355403 
L 132.987321 134.582393 
z
" style="fill: #bdc3c7; stroke: #bdc3c7; stroke-width: 0.8; stroke-linecap: round"/>
   </g>
   <g id="text_5">
    <g id="patch_11">
     <path d="M 169.496026 237.492773 
L 189.535713 237.492773 
Q 190.095713 237.492773 190.095713 236.932773 
L 190.095713 230.158086 
Q 190.095713 229.598086 189.535713 229.598086 
L 169.496026 229.598086 
Q 168.936026 229.598086 168.936026 230.158086 
L 168.936026 236.932773 
Q 168.936026 237.492773 169.496026 237.492773 
z
" style="fill: #ffffff; opacity: 0.8"/>
    </g>
    <!-- 163.2 -->
    <g style="fill: #555555" transform="translate(169.496026 235.476992) scale(0.07 -0.07)">
     <defs>
      <path id="DejaVuSans-33" d="M 2597 2516 
Q 3050 2419 3304 2112 
Q 3559 1806 3559 1356 
Q 3559 666 3084 287 
Q 2609 -91 1734 -91 
Q 1441 -91 1130 -33 
Q 819 25 488 141 
L 488 750 
Q 750 597 1062 519 
Q 1375 441 1716 441 
Q 2309 441 2620 675 
Q 2931 909 2931 1356 
Q 2931 1769 2642 2001 
Q 2353 2234 1838 2234 
L 1294 2234 
L 1294 2753 
L 1863 2753 
Q 2328 2753 2575 2939 
Q 2822 3125 2822 3475 
Q 2822 3834 2567 4026 
Q 2313 4219 1838 4219 
Q 1578 4219 1281 4162 
Q 984 4106 628 3988 
L 628 4550 
Q 988 4650 1302 4700 
Q 1616 4750 1894 4750 
Q 2613 4750 3031 4423 
Q 3450 4097 3450 3541 
Q 3450 3153 3228 2886 
Q 3006 2619 2597 2516 
z
" transform="scale(0.015625)"/>
     </defs>
     <use xlink:href="#DejaVuSans-31"/>
     <use xlink:href="#DejaVuSans-36" transform="translate(63.623047 0)"/>
     <use xlink:href="#DejaVuSans-33" transform="translate(127.246094 0)"/>
     <use xlink:href="#DejaVuSans-2e" transform="translate(190.869141 0)"/>
     <use xlink:href="#DejaVuSans-32" transform="translate(222.65625 0)"/>
    </g>
   </g>
   <g id="patch_12">
    <path d="M 123.857691 133.15675 
Q 128.818924 250.018369 193.000424 346.732208 
" style="fill: none; stroke: #bdc3c7; stroke-width: 0.8; stroke-linecap: round"/>
    <path d="M 192.45509 342.293445 
L 193.000424 346.732208 
L 189.122214 344.505218 
z
" style="fill: #bdc3c7; stroke: #bdc3c7; stroke-width: 0.8; stroke-linecap: round"/>
   </g>
   <g id="text_6">
    <g id="patch_13">
     <path d="M 128.120072 249.489525 
L 157.06726 249.489525 
Q 157.62726 249.489525 157.62726 248.929525 
L 157.62726 242.154837 
Q 157.62726 241.594837 157.06726 241.594837 
L 128.120072 241.594837 
Q 127.560072 241.594837 127.560072 242.154837 
L 127.560072 248.929525 
Q 127.560072 249.489525 128.120072 249.489525 
z
" style="fill: #ffffff; opacity: 0.8"/>
    </g>
    <!-- 0.00613 -->
    <g style="fill: #555555" transform="translate(128.120072 247.473743) scale(0.07 -0.07)">
     <use xlink:href="#DejaVuSans-30"/>
     <use xlink:href="#DejaVuSans-2e" transform="translate(63.623047 0)"/>
     <use xlink:href="#DejaVuSans-30" transform="translate(95.410156 0)"/>
     <use xlink:href="#DejaVuSans-30" transform="translate(159.033203 0)"/>
     <use xlink:href="#DejaVuSans-36" transform="translate(222.65625 0)"/>
     <use xlink:href="#DejaVuSans-31" transform="translate(286.279297 0)"/>
     <use xlink:href="#DejaVuSans-33" transform="translate(349.902344 0)"/>
    </g>
   </g>
   <g id="patch_14">
    <path d="M 192.97537 347.85252 
Q 149.6669 294.636787 86.506871 270.215177 
" style="fill: none; stroke: #bdc3c7; stroke-width: 0.8; stroke-linecap: round"/>
    <path d="M 89.516405 273.523153 
L 86.506871 270.215177 
L 90.958972 269.792335 
z
" style="fill: #bdc3c7; stroke: #bdc3c7; stroke-width: 0.8; stroke-linecap: round"/>
   </g>
   <g id="text_7">
    <g id="patch_15">
     <path d="M 134.916437 305.095501 
L 154.956125 305.095501 
Q 155.516125 305.095501 155.516125 304.535501 
L 155.516125 297.760814 
Q 155.516125 297.200814 154.956125 297.200814 
L 134.916437 297.200814 
Q 134.356437 297.200814 134.356437 297.760814 
L 134.356437 304.535501 
Q 134.356437 305.095501 134.916437 305.095501 
z
" style="fill: #ffffff; opacity: 0.8"/>
    </g>
    <!-- 0.952 -->
    <g style="fill: #555555" transform="translate(134.916437 303.07972) scale(0.07 -0.07)">
     <use xlink:href="#DejaVuSans-30"/>
     <use xlink:href="#DejaVuSans-2e" transform="translate(63.623047 0)"/>
     <use xlink:href="#DejaVuSans-39" transform="translate(95.410156 0)"/>
     <use xlink:href="#DejaVuSans-35" transform="translate(159.033203 0)"/>
     <use xlink:href="#DejaVuSans-32" transform="translate(222.65625 0)"/>
    </g>
   </g>
   <g id="patch_16">
    <path d="M 82.794165 273.854946 
Q 126.102635 327.070679 187.489912 350.806833 
" style="fill: none; stroke: #e74c3c; stroke-width: 2.5; stroke-linecap: round"/>
    <path d="M 184.480378 347.498857 
L 187.489912 350.806833 
L 183.037811 351.229675 
z
" style="fill: #e74c3c; stroke: #e74c3c; stroke-width: 2.5; stroke-linecap: round"/>
   </g>
   <g id="text_8">
    <g id="patch_17">
     <path d="M 115.398254 325.070559 
L 146.268254 325.070559 
Q 146.908254 325.070559 146.908254 324.430559 
L 146.908254 316.688059 
Q 146.908254 316.048059 146.268254 316.048059 
L 115.398254 316.048059 
Q 114.758254 316.048059 114.758254 316.688059 
L 114.758254 324.430559 
Q 114.758254 325.070559 115.398254 325.070559 
z
" style="fill: #ffffff; opacity: 0.8"/>
    </g>
    <!-- 1.0504 -->
    <g style="fill: #c0392b" transform="translate(115.398254 322.766809) scale(0.08 -0.08)">
     <defs>
      <path id="DejaVuSans-Bold-34" d="M 2356 3675 
L 1038 1722 
L 2356 1722 
L 2356 3675 
z
M 2156 4666 
L 3494 4666 
L 3494 1722 
L 4159 1722 
L 4159 850 
L 3494 850 
L 3494 0 
L 2356 0 
L 2356 850 
L 288 850 
L 288 1881 
L 2156 4666 
z
" transform="scale(0.015625)"/>
     </defs>
     <use xlink:href="#DejaVuSans-Bold-31"/>
     <use xlink:href="#DejaVuSans-Bold-2e" transform="translate(69.580078 0)"/>
     <use xlink:href="#DejaVuSans-Bold-30" transform="translate(107.568359 0)"/>
     <use xlink:href="#DejaVuSans-Bold-35" transform="translate(177.148438 0)"/>
     <use xlink:href="#DejaVuSans-Bold-30" transform="translate(246.728516 0)"/>
     <use xlink:href="#DejaVuSans-Bold-34" transform="translate(316.308594 0)"/>
    </g>
   </g>
   <g id="patch_18">
    <path d="M 319.516203 257.785937 
Q 315.758338 189.277425 279.015464 132.395394 
" style="fill: none; stroke: #bdc3c7; stroke-width: 0.8; stroke-linecap: round"/>
    <path d="M 279.505848 136.840562 
L 279.015464 132.395394 
L 282.865829 134.670187 
z
" style="fill: #bdc3c7; stroke: #bdc3c7; stroke-width: 0.8; stroke-linecap: round"/>
   </g>
   <g id="text_9">
    <g id="patch_19">
     <path d="M 298.084056 195.71199 
L 318.123743 195.71199 
Q 318.683743 195.71199 318.683743 195.15199 
L 318.683743 188.377302 
Q 318.683743 187.817302 318.123743 187.817302 
L 298.084056 187.817302 
Q 297.524056 187.817302 297.524056 188.377302 
L 297.524056 195.15199 
Q 297.524056 195.71199 298.084056 195.71199 
z
" style="fill: #ffffff; opacity: 0.8"/>
    </g>
    <!-- 0.789 -->
    <g style="fill: #555555" transform="translate(298.084056 193.696209) scale(0.07 -0.07)">
     <use xlink:href="#DejaVuSans-30"/>
     <use xlink:href="#DejaVuSans-2e" transform="translate(63.623047 0)"/>
     <use xlink:href="#DejaVuSans-37" transform="translate(95.410156 0)"/>
     <use xlink:href="#DejaVuSans-38" transform="translate(159.033203 0)"/>
     <use xlink:href="#DejaVuSans-39" transform="translate(222.65625 0)"/>
    </g>
   </g>
   <g id="patch_20">
    <path d="M 273.872419 133.157755 
Q 277.630284 201.666267 314.373158 258.548299 
" style="fill: none; stroke: #bdc3c7; stroke-width: 0.8; stroke-linecap: round"/>
    <path d="M 313.882773 254.10313 
L 314.373158 258.548299 
L 310.522792 256.273505 
z
" style="fill: #bdc3c7; stroke: #bdc3c7; stroke-width: 0.8; stroke-linecap: round"/>
   </g>
   <g id="text_10">
    <g id="patch_21">
     <path d="M 275.264879 203.12639 
L 295.304566 203.12639 
Q 295.864566 203.12639 295.864566 202.56639 
L 295.864566 195.791702 
Q 295.864566 195.231702 295.304566 195.231702 
L 275.264879 195.231702 
Q 274.704879 195.231702 274.704879 195.791702 
L 274.704879 202.56639 
Q 274.704879 203.12639 275.264879 203.12639 
z
" style="fill: #ffffff; opacity: 0.8"/>
    </g>
    <!-- 1.267 -->
    <g style="fill: #555555" transform="translate(275.264879 201.110609) scale(0.07 -0.07)">
     <use xlink:href="#DejaVuSans-31"/>
     <use xlink:href="#DejaVuSans-2e" transform="translate(63.623047 0)"/>
     <use xlink:href="#DejaVuSans-32" transform="translate(95.410156 0)"/>
     <use xlink:href="#DejaVuSans-36" transform="translate(159.033203 0)"/>
     <use xlink:href="#DejaVuSans-37" transform="translate(222.65625 0)"/>
    </g>
   </g>
   <g id="patch_22">
    <path d="M 314.340425 259.676888 
Q 241.637167 168.049992 132.866274 127.531793 
" style="fill: none; stroke: #bdc3c7; stroke-width: 0.8; stroke-linecap: round"/>
    <path d="M 135.916498 130.802288 
L 132.866274 127.531793 
L 137.312804 127.053911 
z
" style="fill: #bdc3c7; stroke: #bdc3c7; stroke-width: 0.8; stroke-linecap: round"/>
   </g>
   <g id="text_11">
    <g id="patch_23">
     <path d="M 223.10436 183.715239 
L 243.144048 183.715239 
Q 243.704048 183.715239 243.704048 183.155239 
L 243.704048 176.380551 
Q 243.704048 175.820551 243.144048 175.820551 
L 223.10436 175.820551 
Q 222.54436 175.820551 222.54436 176.380551 
L 222.54436 183.155239 
Q 222.54436 183.715239 223.10436 183.715239 
z
" style="fill: #ffffff; opacity: 0.8"/>
    </g>
    <!-- 150.4 -->
    <g style="fill: #555555" transform="translate(223.10436 181.699457) scale(0.07 -0.07)">
     <defs>
      <path id="DejaVuSans-34" d="M 2419 4116 
L 825 1625 
L 2419 1625 
L 2419 4116 
z
M 2253 4666 
L 3047 4666 
L 3047 1625 
L 3713 1625 
L 3713 1100 
L 3047 1100 
L 3047 0 
L 2419 0 
L 2419 1100 
L 313 1100 
L 313 1709 
L 2253 4666 
z
" transform="scale(0.015625)"/>
     </defs>
     <use xlink:href="#DejaVuSans-31"/>
     <use xlink:href="#DejaVuSans-35" transform="translate(63.623047 0)"/>
     <use xlink:href="#DejaVuSans-30" transform="translate(127.246094 0)"/>
     <use xlink:href="#DejaVuSans-2e" transform="translate(190.869141 0)"/>
     <use xlink:href="#DejaVuSans-34" transform="translate(222.65625 0)"/>
    </g>
   </g>
   <g id="patch_24">
    <path d="M 129.088806 131.266804 
Q 201.792064 222.8937 310.562957 263.411899 
" style="fill: none; stroke: #bdc3c7; stroke-width: 0.8; stroke-linecap: round"/>
    <path d="M 307.512733 260.141405 
L 310.562957 263.411899 
L 306.116427 263.889782 
z
" style="fill: #bdc3c7; stroke: #bdc3c7; stroke-width: 0.8; stroke-linecap: round"/>
   </g>
   <g id="text_12">
    <g id="patch_25">
     <path d="M 195.831433 215.123141 
L 224.778621 215.123141 
Q 225.338621 215.123141 225.338621 214.563141 
L 225.338621 207.788454 
Q 225.338621 207.228454 224.778621 207.228454 
L 195.831433 207.228454 
Q 195.271433 207.228454 195.271433 207.788454 
L 195.271433 214.563141 
Q 195.271433 215.123141 195.831433 215.123141 
z
" style="fill: #ffffff; opacity: 0.8"/>
    </g>
    <!-- 0.00665 -->
    <g style="fill: #555555" transform="translate(195.831433 213.10736) scale(0.07 -0.07)">
     <use xlink:href="#DejaVuSans-30"/>
     <use xlink:href="#DejaVuSans-2e" transform="translate(63.623047 0)"/>
     <use xlink:href="#DejaVuSans-30" transform="translate(95.410156 0)"/>
     <use xlink:href="#DejaVuSans-30" transform="translate(159.033203 0)"/>
     <use xlink:href="#DejaVuSans-36" transform="translate(222.65625 0)"/>
     <use xlink:href="#DejaVuSans-36" transform="translate(286.279297 0)"/>
     <use xlink:href="#DejaVuSans-35" transform="translate(349.902344 0)"/>
    </g>
   </g>
   <g id="patch_26">
    <path d="M 264.86119 121.713122 
Q 198.544479 104.11677 133.09228 121.483805 
" style="fill: none; stroke: #bdc3c7; stroke-width: 0.8; stroke-linecap: round"/>
    <path d="M 137.471424 122.391054 
L 133.09228 121.483805 
L 136.445565 118.52484 
z
" style="fill: #bdc3c7; stroke: #bdc3c7; stroke-width: 0.8; stroke-linecap: round"/>
   </g>
   <g id="text_13">
    <g id="patch_27">
     <path d="M 188.524772 116.112511 
L 208.564459 116.112511 
Q 209.124459 116.112511 209.124459 115.552511 
L 209.124459 108.777823 
Q 209.124459 108.217823 208.564459 108.217823 
L 188.524772 108.217823 
Q 187.964772 108.217823 187.964772 108.777823 
L 187.964772 115.552511 
Q 187.964772 116.112511 188.524772 116.112511 
z
" style="fill: #ffffff; opacity: 0.8"/>
    </g>
    <!-- 190.6 -->
    <g style="fill: #555555" transform="translate(188.524772 114.09673) scale(0.07 -0.07)">
     <use xlink:href="#DejaVuSans-31"/>
     <use xlink:href="#DejaVuSans-39" transform="translate(63.623047 0)"/>
     <use xlink:href="#DejaVuSans-30" transform="translate(127.246094 0)"/>
     <use xlink:href="#DejaVuSans-2e" transform="translate(190.869141 0)"/>
     <use xlink:href="#DejaVuSans-36" transform="translate(222.65625 0)"/>
    </g>
   </g>
   <g id="patch_28">
    <path d="M 132.22804 126.610714 
Q 198.544751 144.207067 263.996951 126.840031 
" style="fill: none; stroke: #bdc3c7; stroke-width: 0.8; stroke-linecap: round"/>
    <path d="M 259.617807 125.932782 
L 263.996951 126.840031 
L 260.643665 129.798997 
z
" style="fill: #bdc3c7; stroke: #bdc3c7; stroke-width: 0.8; stroke-linecap: round"/>
   </g>
   <g id="text_14">
    <g id="patch_29">
     <path d="M 184.071022 140.106013 
L 213.018209 140.106013 
Q 213.578209 140.106013 213.578209 139.546013 
L 213.578209 132.771326 
Q 213.578209 132.211326 213.018209 132.211326 
L 184.071022 132.211326 
Q 183.511022 132.211326 183.511022 132.771326 
L 183.511022 139.546013 
Q 183.511022 140.106013 184.071022 140.106013 
z
" style="fill: #ffffff; opacity: 0.8"/>
    </g>
    <!-- 0.00525 -->
    <g style="fill: #555555" transform="translate(184.071022 138.090232) scale(0.07 -0.07)">
     <use xlink:href="#DejaVuSans-30"/>
     <use xlink:href="#DejaVuSans-2e" transform="translate(63.623047 0)"/>
     <use xlink:href="#DejaVuSans-30" transform="translate(95.410156 0)"/>
     <use xlink:href="#DejaVuSans-30" transform="translate(159.033203 0)"/>
     <use xlink:href="#DejaVuSans-35" transform="translate(222.65625 0)"/>
     <use xlink:href="#DejaVuSans-32" transform="translate(286.279297 0)"/>
     <use xlink:href="#DejaVuSans-35" transform="translate(349.902344 0)"/>
    </g>
   </g>
   <g id="patch_30">
    <path d="M 311.219246 264.28066 
Q 198.544137 232.886846 88.561553 263.530722 
" style="fill: none; stroke: #e74c3c; stroke-width: 2.5; stroke-linecap: round"/>
    <path d="M 92.951585 264.383731 
L 88.561553 263.530722 
L 91.87798 260.530502 
z
" style="fill: #e74c3c; stroke: #e74c3c; stroke-width: 2.5; stroke-linecap: round"/>
   </g>
   <g id="text_15">
    <g id="patch_31">
     <path d="M 185.89274 251.881873 
L 211.19649 251.881873 
Q 211.83649 251.881873 211.83649 251.241873 
L 211.83649 243.499373 
Q 211.83649 242.859373 211.19649 242.859373 
L 185.89274 242.859373 
Q 185.25274 242.859373 185.25274 243.499373 
L 185.25274 251.241873 
Q 185.25274 251.881873 185.89274 251.881873 
z
" style="fill: #ffffff; opacity: 0.8"/>
    </g>
    <!-- 0.899 -->
    <g style="fill: #c0392b" transform="translate(185.89274 249.578123) scale(0.08 -0.08)">
     <defs>
      <path id="DejaVuSans-Bold-39" d="M 641 103 
L 641 966 
Q 928 831 1190 764 
Q 1453 697 1709 697 
Q 2247 697 2547 995 
Q 2847 1294 2900 1881 
Q 2688 1725 2447 1647 
Q 2206 1569 1925 1569 
Q 1209 1569 770 1986 
Q 331 2403 331 3084 
Q 331 3838 820 4291 
Q 1309 4744 2131 4744 
Q 3044 4744 3544 4128 
Q 4044 3513 4044 2388 
Q 4044 1231 3459 570 
Q 2875 -91 1856 -91 
Q 1528 -91 1228 -42 
Q 928 6 641 103 
z
M 2125 2350 
Q 2441 2350 2600 2554 
Q 2759 2759 2759 3169 
Q 2759 3575 2600 3781 
Q 2441 3988 2125 3988 
Q 1809 3988 1650 3781 
Q 1491 3575 1491 3169 
Q 1491 2759 1650 2554 
Q 1809 2350 2125 2350 
z
" transform="scale(0.015625)"/>
     </defs>
     <use xlink:href="#DejaVuSans-Bold-30"/>
     <use xlink:href="#DejaVuSans-Bold-2e" transform="translate(69.580078 0)"/>
     <use xlink:href="#DejaVuSans-Bold-38" transform="translate(107.568359 0)"/>
     <use xlink:href="#DejaVuSans-Bold-39" transform="translate(177.148438 0)"/>
     <use xlink:href="#DejaVuSans-Bold-39" transform="translate(246.728516 0)"/>
    </g>
   </g>
   <g id="patch_32">
    <path d="M 85.869985 269.282888 
Q 198.545094 300.676702 310.358595 269.522687 
" style="fill: none; stroke: #bdc3c7; stroke-width: 0.8; stroke-linecap: round"/>
    <path d="M 305.968563 268.669678 
L 310.358595 269.522687 
L 307.042169 272.522907 
z
" style="fill: #bdc3c7; stroke: #bdc3c7; stroke-width: 0.8; stroke-linecap: round"/>
   </g>
   <g id="text_16">
    <g id="patch_33">
     <path d="M 188.524772 290.140269 
L 208.564459 290.140269 
Q 209.124459 290.140269 209.124459 289.580269 
L 209.124459 282.805582 
Q 209.124459 282.245582 208.564459 282.245582 
L 188.524772 282.245582 
Q 187.964772 282.245582 187.964772 282.805582 
L 187.964772 289.580269 
Q 187.964772 290.140269 188.524772 290.140269 
z
" style="fill: #ffffff; opacity: 0.8"/>
    </g>
    <!-- 1.115 -->
    <g style="fill: #555555" transform="translate(188.524772 288.124488) scale(0.07 -0.07)">
     <use xlink:href="#DejaVuSans-31"/>
     <use xlink:href="#DejaVuSans-2e" transform="translate(63.623047 0)"/>
     <use xlink:href="#DejaVuSans-31" transform="translate(95.410156 0)"/>
     <use xlink:href="#DejaVuSans-31" transform="translate(159.033203 0)"/>
     <use xlink:href="#DejaVuSans-35" transform="translate(222.65625 0)"/>
    </g>
   </g>
   <g id="patch_34">
    <path d="M 198.544615 367.682 
C 201.927628 367.682 205.172536 366.337915 207.564687 363.945764 
C 209.956838 361.553613 211.300923 358.308705 211.300923 354.925692 
C 211.300923 351.54268 209.956838 348.297772 207.564687 345.905621 
C 205.172536 343.51347 201.927628 342.169385 198.544615 342.169385 
C 195.161603 342.169385 191.916695 343.51347 189.524544 345.905621 
C 187.132393 348.297772 185.788308 351.54268 185.788308 354.925692 
C 185.788308 358.308705 187.132393 361.553613 189.524544 363.945764 
C 191.916695 366.337915 195.161603 367.682 198.544615 367.682 
z
" clip-path="url(#pc5d69ea4b2)" style="fill: #2c3e50; stroke: #2c3e50; stroke-linejoin: miter"/>
   </g>
   <g id="patch_35">
    <path d="M 319.864311 279.538082 
C 323.247323 279.538082 326.492232 278.193997 328.884383 275.801846 
C 331.276534 273.409695 332.620619 270.164786 332.620619 266.781774 
C 332.620619 263.398762 331.276534 260.153853 328.884383 257.761702 
C 326.492232 255.369551 323.247323 254.025466 319.864311 254.025466 
C 316.481299 254.025466 313.23639 255.369551 310.844239 257.761702 
C 308.452088 260.153853 307.108003 263.398762 307.108003 266.781774 
C 307.108003 270.164786 308.452088 273.409695 310.844239 275.801846 
C 313.23639 278.193997 316.481299 279.538082 319.864311 279.538082 
z
" clip-path="url(#pc5d69ea4b2)" style="fill: #2c3e50; stroke: #2c3e50; stroke-linejoin: miter"/>
   </g>
   <g id="patch_36">
    <path d="M 273.524311 136.918226 
C 276.907323 136.918226 280.152231 135.574141 282.544382 133.18199 
C 284.936533 130.789839 286.280618 127.544931 286.280618 124.161918 
C 286.280618 120.778906 284.936533 117.533998 282.544382 115.141847 
C 280.152231 112.749696 276.907323 111.405611 273.524311 111.405611 
C 270.141298 111.405611 266.89639 112.749696 264.504239 115.141847 
C 262.112088 117.533998 260.768003 120.778906 260.768003 124.161918 
C 260.768003 127.544931 262.112088 130.789839 264.504239 133.18199 
C 266.89639 135.574141 270.141298 136.918226 273.524311 136.918226 
z
" clip-path="url(#pc5d69ea4b2)" style="fill: #2c3e50; stroke: #2c3e50; stroke-linejoin: miter"/>
   </g>
   <g id="patch_37">
    <path d="M 123.56492 136.918226 
C 126.947932 136.918226 130.192841 135.574141 132.584992 133.18199 
C 134.977143 130.789839 136.321228 127.544931 136.321228 124.161918 
C 136.321228 120.778906 134.977143 117.533998 132.584992 115.141847 
C 130.192841 112.749696 126.947932 111.405611 123.56492 111.405611 
C 120.181908 111.405611 116.936999 112.749696 114.544848 115.141847 
C 112.152697 117.533998 110.808612 120.778906 110.808612 124.161918 
C 110.808612 127.544931 112.152697 130.789839 114.544848 133.18199 
C 116.936999 135.574141 120.181908 136.918226 123.56492 136.918226 
z
" clip-path="url(#pc5d69ea4b2)" style="fill: #2c3e50; stroke: #2c3e50; stroke-linejoin: miter"/>
   </g>
   <g id="patch_38">
    <path d="M 77.22492 279.538082 
C 80.607932 279.538082 83.852841 278.193997 86.244992 275.801846 
C 88.637142 273.409695 89.981228 270.164786 89.981228 266.781774 
C 89.981228 263.398762 88.637142 260.153853 86.244992 257.761702 
C 83.852841 255.369551 80.607932 254.025466 77.22492 254.025466 
C 73.841907 254.025466 70.596999 255.369551 68.204848 257.761702 
C 65.812697 260.153853 64.468612 263.398762 64.468612 266.781774 
C 64.468612 270.164786 65.812697 273.409695 68.204848 275.801846 
C 70.596999 278.193997 73.841907 279.538082 77.22492 279.538082 
z
" clip-path="url(#pc5d69ea4b2)" style="fill: #2c3e50; stroke: #2c3e50; stroke-linejoin: miter"/>
   </g>
   <g id="text_17">
    <!-- Währungsgraph mit Arbitrage-Zyklus -->
    <g transform="translate(72.399303 16.486875) scale(0.12 -0.12)">
     <defs>
      <path id="DejaVuSans-Bold-57" d="M 191 4666 
L 1344 4666 
L 2150 1275 
L 2950 4666 
L 4109 4666 
L 4909 1275 
L 5716 4666 
L 6859 4666 
L 5759 0 
L 4372 0 
L 3525 3547 
L 2688 0 
L 1300 0 
L 191 4666 
z
" transform="scale(0.015625)"/>
      <path id="DejaVuSans-Bold-e4" d="M 2106 1575 
Q 1756 1575 1579 1456 
Q 1403 1338 1403 1106 
Q 1403 894 1545 773 
Q 1688 653 1941 653 
Q 2256 653 2472 879 
Q 2688 1106 2688 1447 
L 2688 1575 
L 2106 1575 
z
M 3816 1997 
L 3816 0 
L 2688 0 
L 2688 519 
Q 2463 200 2181 54 
Q 1900 -91 1497 -91 
Q 953 -91 614 226 
Q 275 544 275 1050 
Q 275 1666 698 1953 
Q 1122 2241 2028 2241 
L 2688 2241 
L 2688 2328 
Q 2688 2594 2478 2717 
Q 2269 2841 1825 2841 
Q 1466 2841 1156 2769 
Q 847 2697 581 2553 
L 581 3406 
Q 941 3494 1303 3539 
Q 1666 3584 2028 3584 
Q 2975 3584 3395 3211 
Q 3816 2838 3816 1997 
z
M 1200 4953 
L 1934 4953 
L 1934 4184 
L 1200 4184 
L 1200 4953 
z
M 2434 4953 
L 3168 4953 
L 3168 4184 
L 2434 4184 
L 2434 4953 
z
" transform="scale(0.015625)"/>
      <path id="DejaVuSans-Bold-68" d="M 4056 2131 
L 4056 0 
L 2931 0 
L 2931 347 
L 2931 1625 
Q 2931 2084 2911 2256 
Q 2891 2428 2841 2509 
Q 2775 2619 2662 2680 
Q 2550 2741 2406 2741 
Q 2056 2741 1856 2470 
Q 1656 2200 1656 1722 
L 1656 0 
L 538 0 
L 538 4863 
L 1656 4863 
L 1656 2988 
Q 1909 3294 2193 3439 
Q 2478 3584 2822 3584 
Q 3428 3584 3742 3212 
Q 4056 2841 4056 2131 
z
" transform="scale(0.015625)"/>
      <path id="DejaVuSans-Bold-72" d="M 3138 2547 
Q 2991 2616 2845 2648 
Q 2700 2681 2553 2681 
Q 2122 2681 1889 2404 
Q 1656 2128 1656 1613 
L 1656 0 
L 538 0 
L 538 3500 
L 1656 3500 
L 1656 2925 
Q 1872 3269 2151 3426 
Q 2431 3584 2822 3584 
Q 2878 3584 2943 3579 
Q 3009 3575 3134 3559 
L 3138 2547 
z
" transform="scale(0.015625)"/>
      <path id="DejaVuSans-Bold-75" d="M 500 1363 
L 500 3500 
L 1625 3500 
L 1625 3150 
Q 1625 2866 1622 2436 
Q 1619 2006 1619 1863 
Q 1619 1441 1641 1255 
Q 1663 1069 1716 984 
Q 1784 875 1895 815 
Q 2006 756 2150 756 
Q 2500 756 2700 1025 
Q 2900 1294 2900 1772 
L 2900 3500 
L 4019 3500 
L 4019 0 
L 2900 0 
L 2900 506 
Q 2647 200 2364 54 
Q 2081 -91 1741 -91 
Q 1134 -91 817 281 
Q 500 653 500 1363 
z
" transform="scale(0.015625)"/>
      <path id="DejaVuSans-Bold-6e" d="M 4056 2131 
L 4056 0 
L 2931 0 
L 2931 347 
L 2931 1631 
Q 2931 2084 2911 2256 
Q 2891 2428 2841 2509 
Q 2775 2619 2662 2680 
Q 2550 2741 2406 2741 
Q 2056 2741 1856 2470 
Q 1656 2200 1656 1722 
L 1656 0 
L 538 0 
L 538 3500 
L 1656 3500 
L 1656 2988 
Q 1909 3294 2193 3439 
Q 2478 3584 2822 3584 
Q 3428 3584 3742 3212 
Q 4056 2841 4056 2131 
z
" transform="scale(0.015625)"/>
      <path id="DejaVuSans-Bold-67" d="M 2919 594 
Q 2688 288 2409 144 
Q 2131 0 1766 0 
Q 1125 0 706 504 
Q 288 1009 288 1791 
Q 288 2575 706 3076 
Q 1125 3578 1766 3578 
Q 2131 3578 2409 3434 
Q 2688 3291 2919 2981 
L 2919 3500 
L 4044 3500 
L 4044 353 
Q 4044 -491 3511 -936 
Q 2978 -1381 1966 -1381 
Q 1638 -1381 1331 -1331 
Q 1025 -1281 716 -1178 
L 716 -306 
Q 1009 -475 1290 -558 
Q 1572 -641 1856 -641 
Q 2406 -641 2662 -400 
Q 2919 -159 2919 353 
L 2919 594 
z
M 2181 2772 
Q 1834 2772 1640 2515 
Q 1447 2259 1447 1791 
Q 1447 1309 1634 1061 
Q 1822 813 2181 813 
Q 2531 813 2725 1069 
Q 2919 1325 2919 1791 
Q 2919 2259 2725 2515 
Q 2531 2772 2181 2772 
z
" transform="scale(0.015625)"/>
      <path id="DejaVuSans-Bold-73" d="M 3272 3391 
L 3272 2541 
Q 2913 2691 2578 2766 
Q 2244 2841 1947 2841 
Q 1628 2841 1473 2761 
Q 1319 2681 1319 2516 
Q 1319 2381 1436 2309 
Q 1553 2238 1856 2203 
L 2053 2175 
Q 2913 2066 3209 1816 
Q 3506 1566 3506 1031 
Q 3506 472 3093 190 
Q 2681 -91 1863 -91 
Q 1516 -91 1145 -36 
Q 775 19 384 128 
L 384 978 
Q 719 816 1070 734 
Q 1422 653 1784 653 
Q 2113 653 2278 743 
Q 2444 834 2444 1013 
Q 2444 1163 2330 1236 
Q 2216 1309 1875 1350 
L 1678 1375 
Q 931 1469 631 1722 
Q 331 1975 331 2491 
Q 331 3047 712 3315 
Q 1094 3584 1881 3584 
Q 2191 3584 2531 3537 
Q 2872 3491 3272 3391 
z
" transform="scale(0.015625)"/>
      <path id="DejaVuSans-Bold-61" d="M 2106 1575 
Q 1756 1575 1579 1456 
Q 1403 1338 1403 1106 
Q 1403 894 1545 773 
Q 1688 653 1941 653 
Q 2256 653 2472 879 
Q 2688 1106 2688 1447 
L 2688 1575 
L 2106 1575 
z
M 3816 1997 
L 3816 0 
L 2688 0 
L 2688 519 
Q 2463 200 2181 54 
Q 1900 -91 1497 -91 
Q 953 -91 614 226 
Q 275 544 275 1050 
Q 275 1666 698 1953 
Q 1122 2241 2028 2241 
L 2688 2241 
L 2688 2328 
Q 2688 2594 2478 2717 
Q 2269 2841 1825 2841 
Q 1466 2841 1156 2769 
Q 847 2697 581 2553 
L 581 3406 
Q 941 3494 1303 3539 
Q 1666 3584 2028 3584 
Q 2975 3584 3395 3211 
Q 3816 2838 3816 1997 
z
" transform="scale(0.015625)"/>
      <path id="DejaVuSans-Bold-70" d="M 1656 506 
L 1656 -1331 
L 538 -1331 
L 538 3500 
L 1656 3500 
L 1656 2988 
Q 1888 3294 2169 3439 
Q 2450 3584 2816 3584 
Q 3463 3584 3878 3070 
Q 4294 2556 4294 1747 
Q 4294 938 3878 423 
Q 3463 -91 2816 -91 
Q 2450 -91 2169 54 
Q 1888 200 1656 506 
z
M 2400 2772 
Q 2041 2772 1848 2508 
Q 1656 2244 1656 1747 
Q 1656 1250 1848 986 
Q 2041 722 2400 722 
Q 2759 722 2948 984 
Q 3138 1247 3138 1747 
Q 3138 2247 2948 2509 
Q 2759 2772 2400 2772 
z
" transform="scale(0.015625)"/>
      <path id="DejaVuSans-Bold-20" transform="scale(0.015625)"/>
      <path id="DejaVuSans-Bold-6d" d="M 3781 2919 
Q 3994 3244 4286 3414 
Q 4578 3584 4928 3584 
Q 5531 3584 5847 3212 
Q 6163 2841 6163 2131 
L 6163 0 
L 5038 0 
L 5038 1825 
Q 5041 1866 5042 1909 
Q 5044 1953 5044 2034 
Q 5044 2406 4934 2573 
Q 4825 2741 4581 2741 
Q 4263 2741 4089 2478 
Q 3916 2216 3909 1719 
L 3909 0 
L 2784 0 
L 2784 1825 
Q 2784 2406 2684 2573 
Q 2584 2741 2328 2741 
Q 2006 2741 1831 2477 
Q 1656 2213 1656 1722 
L 1656 0 
L 531 0 
L 531 3500 
L 1656 3500 
L 1656 2988 
Q 1863 3284 2130 3434 
Q 2397 3584 2719 3584 
Q 3081 3584 3359 3409 
Q 3638 3234 3781 2919 
z
" transform="scale(0.015625)"/>
      <path id="DejaVuSans-Bold-69" d="M 538 3500 
L 1656 3500 
L 1656 0 
L 538 0 
L 538 3500 
z
M 538 4863 
L 1656 4863 
L 1656 3950 
L 538 3950 
L 538 4863 
z
" transform="scale(0.015625)"/>
      <path id="DejaVuSans-Bold-74" d="M 1759 4494 
L 1759 3500 
L 2913 3500 
L 2913 2700 
L 1759 2700 
L 1759 1216 
Q 1759 972 1856 886 
Q 1953 800 2241 800 
L 2816 800 
L 2816 0 
L 1856 0 
Q 1194 0 917 276 
Q 641 553 641 1216 
L 641 2700 
L 84 2700 
L 84 3500 
L 641 3500 
L 641 4494 
L 1759 4494 
z
" transform="scale(0.015625)"/>
      <path id="DejaVuSans-Bold-41" d="M 3419 850 
L 1538 850 
L 1241 0 
L 31 0 
L 1759 4666 
L 3194 4666 
L 4922 0 
L 3713 0 
L 3419 850 
z
M 1838 1716 
L 3116 1716 
L 2478 3572 
L 1838 1716 
z
" transform="scale(0.015625)"/>
      <path id="DejaVuSans-Bold-62" d="M 2400 722 
Q 2759 722 2948 984 
Q 3138 1247 3138 1747 
Q 3138 2247 2948 2509 
Q 2759 2772 2400 2772 
Q 2041 2772 1848 2508 
Q 1656 2244 1656 1747 
Q 1656 1250 1848 986 
Q 2041 722 2400 722 
z
M 1656 2988 
Q 1888 3294 2169 3439 
Q 2450 3584 2816 3584 
Q 3463 3584 3878 3070 
Q 4294 2556 4294 1747 
Q 4294 938 3878 423 
Q 3463 -91 2816 -91 
Q 2450 -91 2169 54 
Q 1888 200 1656 506 
L 1656 0 
L 538 0 
L 538 4863 
L 1656 4863 
L 1656 2988 
z
" transform="scale(0.015625)"/>
      <path id="DejaVuSans-Bold-65" d="M 4031 1759 
L 4031 1441 
L 1416 1441 
Q 1456 1047 1700 850 
Q 1944 653 2381 653 
Q 2734 653 3104 758 
Q 3475 863 3866 1075 
L 3866 213 
Q 3469 63 3072 -14 
Q 2675 -91 2278 -91 
Q 1328 -91 801 392 
Q 275 875 275 1747 
Q 275 2603 792 3093 
Q 1309 3584 2216 3584 
Q 3041 3584 3536 3087 
Q 4031 2591 4031 1759 
z
M 2881 2131 
Q 2881 2450 2695 2645 
Q 2509 2841 2209 2841 
Q 1884 2841 1681 2658 
Q 1478 2475 1428 2131 
L 2881 2131 
z
" transform="scale(0.015625)"/>
      <path id="DejaVuSans-Bold-2d" d="M 347 2297 
L 2309 2297 
L 2309 1388 
L 347 1388 
L 347 2297 
z
" transform="scale(0.015625)"/>
      <path id="DejaVuSans-Bold-5a" d="M 359 4666 
L 4281 4666 
L 4281 3938 
L 1778 909 
L 4353 909 
L 4353 0 
L 288 0 
L 288 728 
L 2791 3756 
L 359 3756 
L 359 4666 
z
" transform="scale(0.015625)"/>
      <path id="DejaVuSans-Bold-79" d="M 78 3500 
L 1197 3500 
L 2138 1125 
L 2938 3500 
L 4056 3500 
L 2584 -331 
Q 2363 -916 2067 -1148 
Q 1772 -1381 1288 -1381 
L 641 -1381 
L 641 -647 
L 991 -647 
Q 1275 -647 1404 -556 
Q 1534 -466 1606 -231 
L 1638 -134 
L 78 3500 
z
" transform="scale(0.015625)"/>
      <path id="DejaVuSans-Bold-6b" d="M 538 4863 
L 1656 4863 
L 1656 2216 
L 2944 3500 
L 4244 3500 
L 2534 1894 
L 4378 0 
L 3022 0 
L 1656 1459 
L 1656 0 
L 538 0 
L 538 4863 
z
" transform="scale(0.015625)"/>
      <path id="DejaVuSans-Bold-6c" d="M 538 4863 
L 1656 4863 
L 1656 0 
L 538 0 
L 538 4863 
z
" transform="scale(0.015625)"/>
     </defs>
     <use xlink:href="#DejaVuSans-Bold-57"/>
     <use xlink:href="#DejaVuSans-Bold-e4" transform="translate(106.677734 0)"/>
     <use xlink:href="#DejaVuSans-Bold-68" transform="translate(174.158203 0)"/>
     <use xlink:href="#DejaVuSans-Bold-72" transform="translate(245.349609 0)"/>
     <use xlink:href="#DejaVuSans-Bold-75" transform="translate(294.666016 0)"/>
     <use xlink:href="#DejaVuSans-Bold-6e" transform="translate(365.857422 0)"/>
     <use xlink:href="#DejaVuSans-Bold-67" transform="translate(437.048828 0)"/>
     <use xlink:href="#DejaVuSans-Bold-73" transform="translate(508.630859 0)"/>
     <use xlink:href="#DejaVuSans-Bold-67" transform="translate(568.152344 0)"/>
     <use xlink:href="#DejaVuSans-Bold-72" transform="translate(639.734375 0)"/>
     <use xlink:href="#DejaVuSans-Bold-61" transform="translate(689.050781 0)"/>
     <use xlink:href="#DejaVuSans-Bold-70" transform="translate(756.53125 0)"/>
     <use xlink:href="#DejaVuSans-Bold-68" transform="translate(828.113281 0)"/>
     <use xlink:href="#DejaVuSans-Bold-20" transform="translate(899.304688 0)"/>
     <use xlink:href="#DejaVuSans-Bold-6d" transform="translate(934.119141 0)"/>
     <use xlink:href="#DejaVuSans-Bold-69" transform="translate(1038.318359 0)"/>
     <use xlink:href="#DejaVuSans-Bold-74" transform="translate(1072.595703 0)"/>
     <use xlink:href="#DejaVuSans-Bold-20" transform="translate(1120.398438 0)"/>
     <use xlink:href="#DejaVuSans-Bold-41" transform="translate(1155.212891 0)"/>
     <use xlink:href="#DejaVuSans-Bold-72" transform="translate(1232.605469 0)"/>
     <use xlink:href="#DejaVuSans-Bold-62" transform="translate(1281.921875 0)"/>
     <use xlink:href="#DejaVuSans-Bold-69" transform="translate(1353.503906 0)"/>
     <use xlink:href="#DejaVuSans-Bold-74" transform="translate(1387.78125 0)"/>
     <use xlink:href="#DejaVuSans-Bold-72" transform="translate(1435.583984 0)"/>
     <use xlink:href="#DejaVuSans-Bold-61" transform="translate(1484.900391 0)"/>
     <use xlink:href="#DejaVuSans-Bold-67" transform="translate(1552.380859 0)"/>
     <use xlink:href="#DejaVuSans-Bold-65" transform="translate(1623.962891 0)"/>
     <use xlink:href="#DejaVuSans-Bold-2d" transform="translate(1691.785156 0)"/>
     <use xlink:href="#DejaVuSans-Bold-5a" transform="translate(1733.289062 0)"/>
     <use xlink:href="#DejaVuSans-Bold-79" transform="translate(1805.798828 0)"/>
     <use xlink:href="#DejaVuSans-Bold-6b" transform="translate(1870.984375 0)"/>
     <use xlink:href="#DejaVuSans-Bold-6c" transform="translate(1937.488281 0)"/>
     <use xlink:href="#DejaVuSans-Bold-75" transform="translate(1971.765625 0)"/>
     <use xlink:href="#DejaVuSans-Bold-73" transform="translate(2042.957031 0)"/>
    </g>
    <!-- EUR→USD→CHF→EUR  (Faktor 1.2707×) -->
    <g transform="translate(66.916803 30.018) scale(0.12 -0.12)">
     <defs>
      <path id="DejaVuSans-Bold-45" d="M 588 4666 
L 3834 4666 
L 3834 3756 
L 1791 3756 
L 1791 2888 
L 3713 2888 
L 3713 1978 
L 1791 1978 
L 1791 909 
L 3903 909 
L 3903 0 
L 588 0 
L 588 4666 
z
" transform="scale(0.015625)"/>
      <path id="DejaVuSans-Bold-55" d="M 588 4666 
L 1791 4666 
L 1791 1869 
Q 1791 1291 1980 1042 
Q 2169 794 2597 794 
Q 3028 794 3217 1042 
Q 3406 1291 3406 1869 
L 3406 4666 
L 4609 4666 
L 4609 1869 
Q 4609 878 4112 393 
Q 3616 -91 2597 -91 
Q 1581 -91 1084 393 
Q 588 878 588 1869 
L 588 4666 
z
" transform="scale(0.015625)"/>
      <path id="DejaVuSans-Bold-52" d="M 2297 2597 
Q 2675 2597 2839 2737 
Q 3003 2878 3003 3200 
Q 3003 3519 2839 3656 
Q 2675 3794 2297 3794 
L 1791 3794 
L 1791 2597 
L 2297 2597 
z
M 1791 1766 
L 1791 0 
L 588 0 
L 588 4666 
L 2425 4666 
Q 3347 4666 3776 4356 
Q 4206 4047 4206 3378 
Q 4206 2916 3982 2619 
Q 3759 2322 3309 2181 
Q 3556 2125 3751 1926 
Q 3947 1728 4147 1325 
L 4800 0 
L 3519 0 
L 2950 1159 
Q 2778 1509 2601 1637 
Q 2425 1766 2131 1766 
L 1791 1766 
z
" transform="scale(0.015625)"/>
      <path id="DejaVuSans-Bold-2192" d="M 5050 2225 
L 5050 1788 
L 3822 559 
L 3369 1013 
L 3988 1631 
L 366 1631 
L 366 2381 
L 3988 2381 
L 3369 3000 
L 3822 3453 
L 5050 2225 
z
" transform="scale(0.015625)"/>
      <path id="DejaVuSans-Bold-53" d="M 3834 4519 
L 3834 3531 
Q 3450 3703 3084 3790 
Q 2719 3878 2394 3878 
Q 1963 3878 1756 3759 
Q 1550 3641 1550 3391 
Q 1550 3203 1689 3098 
Q 1828 2994 2194 2919 
L 2706 2816 
Q 3484 2659 3812 2340 
Q 4141 2022 4141 1434 
Q 4141 663 3683 286 
Q 3225 -91 2284 -91 
Q 1841 -91 1394 -6 
Q 947 78 500 244 
L 500 1259 
Q 947 1022 1364 901 
Q 1781 781 2169 781 
Q 2563 781 2772 912 
Q 2981 1044 2981 1288 
Q 2981 1506 2839 1625 
Q 2697 1744 2272 1838 
L 1806 1941 
Q 1106 2091 782 2419 
Q 459 2747 459 3303 
Q 459 4000 909 4375 
Q 1359 4750 2203 4750 
Q 2588 4750 2994 4692 
Q 3400 4634 3834 4519 
z
" transform="scale(0.015625)"/>
      <path id="DejaVuSans-Bold-44" d="M 1791 3756 
L 1791 909 
L 2222 909 
Q 2959 909 3348 1275 
Q 3738 1641 3738 2338 
Q 3738 3031 3350 3393 
Q 2963 3756 2222 3756 
L 1791 3756 
z
M 588 4666 
L 1856 4666 
Q 2919 4666 3439 4514 
Q 3959 4363 4331 4000 
Q 4659 3684 4818 3271 
Q 4978 2859 4978 2338 
Q 4978 1809 4818 1395 
Q 4659 981 4331 666 
Q 3956 303 3431 151 
Q 2906 0 1856 0 
L 588 0 
L 588 4666 
z
" transform="scale(0.015625)"/>
      <path id="DejaVuSans-Bold-43" d="M 4288 256 
Q 3956 84 3597 -3 
Q 3238 -91 2847 -91 
Q 1681 -91 1000 561 
Q 319 1213 319 2328 
Q 319 3447 1000 4098 
Q 1681 4750 2847 4750 
Q 3238 4750 3597 4662 
Q 3956 4575 4288 4403 
L 4288 3438 
Q 3953 3666 3628 3772 
Q 3303 3878 2944 3878 
Q 2300 3878 1931 3465 
Q 1563 3053 1563 2328 
Q 1563 1606 1931 1193 
Q 2300 781 2944 781 
Q 3303 781 3628 887 
Q 3953 994 4288 1222 
L 4288 256 
z
" transform="scale(0.015625)"/>
      <path id="DejaVuSans-Bold-48" d="M 588 4666 
L 1791 4666 
L 1791 2888 
L 3566 2888 
L 3566 4666 
L 4769 4666 
L 4769 0 
L 3566 0 
L 3566 1978 
L 1791 1978 
L 1791 0 
L 588 0 
L 588 4666 
z
" transform="scale(0.015625)"/>
      <path id="DejaVuSans-Bold-46" d="M 588 4666 
L 3834 4666 
L 3834 3756 
L 1791 3756 
L 1791 2888 
L 3713 2888 
L 3713 1978 
L 1791 1978 
L 1791 0 
L 588 0 
L 588 4666 
z
" transform="scale(0.015625)"/>
      <path id="DejaVuSans-Bold-28" d="M 2413 -844 
L 1484 -844 
Q 1006 -72 778 623 
Q 550 1319 550 2003 
Q 550 2688 779 3389 
Q 1009 4091 1484 4856 
L 2413 4856 
Q 2013 4116 1813 3408 
Q 1613 2700 1613 2009 
Q 1613 1319 1811 609 
Q 2009 -100 2413 -844 
z
" transform="scale(0.015625)"/>
      <path id="DejaVuSans-Bold-6f" d="M 2203 2784 
Q 1831 2784 1636 2517 
Q 1441 2250 1441 1747 
Q 1441 1244 1636 976 
Q 1831 709 2203 709 
Q 2569 709 2762 976 
Q 2956 1244 2956 1747 
Q 2956 2250 2762 2517 
Q 2569 2784 2203 2784 
z
M 2203 3584 
Q 3106 3584 3614 3096 
Q 4122 2609 4122 1747 
Q 4122 884 3614 396 
Q 3106 -91 2203 -91 
Q 1297 -91 786 396 
Q 275 884 275 1747 
Q 275 2609 786 3096 
Q 1297 3584 2203 3584 
z
" transform="scale(0.015625)"/>
      <path id="DejaVuSans-Bold-32" d="M 1844 884 
L 3897 884 
L 3897 0 
L 506 0 
L 506 884 
L 2209 2388 
Q 2438 2594 2547 2791 
Q 2656 2988 2656 3200 
Q 2656 3528 2436 3728 
Q 2216 3928 1850 3928 
Q 1569 3928 1234 3808 
Q 900 3688 519 3450 
L 519 4475 
Q 925 4609 1322 4679 
Q 1719 4750 2100 4750 
Q 2938 4750 3402 4381 
Q 3866 4013 3866 3353 
Q 3866 2972 3669 2642 
Q 3472 2313 2841 1759 
L 1844 884 
z
" transform="scale(0.015625)"/>
      <path id="DejaVuSans-Bold-37" d="M 428 4666 
L 3944 4666 
L 3944 3988 
L 2125 0 
L 953 0 
L 2675 3781 
L 428 3781 
L 428 4666 
z
" transform="scale(0.015625)"/>
      <path id="DejaVuSans-Bold-d7" d="M 4563 3359 
L 3206 2003 
L 4563 653 
L 4038 128 
L 2681 1478 
L 1325 128 
L 800 653 
L 2156 2003 
L 800 3359 
L 1325 3884 
L 2681 2528 
L 4038 3884 
L 4563 3359 
z
" transform="scale(0.015625)"/>
      <path id="DejaVuSans-Bold-29" d="M 513 -844 
Q 913 -100 1113 609 
Q 1313 1319 1313 2009 
Q 1313 2700 1113 3408 
Q 913 4116 513 4856 
L 1441 4856 
Q 1916 4091 2145 3389 
Q 2375 2688 2375 2003 
Q 2375 1319 2147 623 
Q 1919 -72 1441 -844 
L 513 -844 
z
" transform="scale(0.015625)"/>
     </defs>
     <use xlink:href="#DejaVuSans-Bold-45"/>
     <use xlink:href="#DejaVuSans-Bold-55" transform="translate(68.310547 0)"/>
     <use xlink:href="#DejaVuSans-Bold-52" transform="translate(149.511719 0)"/>
     <use xlink:href="#DejaVuSans-Bold-2192" transform="translate(226.513672 0)"/>
     <use xlink:href="#DejaVuSans-Bold-55" transform="translate(310.302734 0)"/>
     <use xlink:href="#DejaVuSans-Bold-53" transform="translate(391.503906 0)"/>
     <use xlink:href="#DejaVuSans-Bold-44" transform="translate(463.525391 0)"/>
     <use xlink:href="#DejaVuSans-Bold-2192" transform="translate(546.533203 0)"/>
     <use xlink:href="#DejaVuSans-Bold-43" transform="translate(630.322266 0)"/>
     <use xlink:href="#DejaVuSans-Bold-48" transform="translate(703.710938 0)"/>
     <use xlink:href="#DejaVuSans-Bold-46" transform="translate(787.402344 0)"/>
     <use xlink:href="#DejaVuSans-Bold-2192" transform="translate(855.712891 0)"/>
     <use xlink:href="#DejaVuSans-Bold-45" transform="translate(939.501953 0)"/>
     <use xlink:href="#DejaVuSans-Bold-55" transform="translate(1007.8125 0)"/>
     <use xlink:href="#DejaVuSans-Bold-52" transform="translate(1089.013672 0)"/>
     <use xlink:href="#DejaVuSans-Bold-20" transform="translate(1166.015625 0)"/>
     <use xlink:href="#DejaVuSans-Bold-20" transform="translate(1200.830078 0)"/>
     <use xlink:href="#DejaVuSans-Bold-28" transform="translate(1235.644531 0)"/>
     <use xlink:href="#DejaVuSans-Bold-46" transform="translate(1281.347656 0)"/>
     <use xlink:href="#DejaVuSans-Bold-61" transform="translate(1343.783203 0)"/>
     <use xlink:href="#DejaVuSans-Bold-6b" transform="translate(1411.263672 0)"/>
     <use xlink:href="#DejaVuSans-Bold-74" transform="translate(1477.767578 0)"/>
     <use xlink:href="#DejaVuSans-Bold-6f" transform="translate(1525.570312 0)"/>
     <use xlink:href="#DejaVuSans-Bold-72" transform="translate(1594.271484 0)"/>
     <use xlink:href="#DejaVuSans-Bold-20" transform="translate(1643.587891 0)"/>
     <use xlink:href="#DejaVuSans-Bold-31" transform="translate(1678.402344 0)"/>
     <use xlink:href="#DejaVuSans-Bold-2e" transform="translate(1747.982422 0)"/>
     <use xlink:href="#DejaVuSans-Bold-32" transform="translate(1785.970703 0)"/>
     <use xlink:href="#DejaVuSans-Bold-37" transform="translate(1855.550781 0)"/>
     <use xlink:href="#DejaVuSans-Bold-30" transform="translate(1925.130859 0)"/>
     <use xlink:href="#DejaVuSans-Bold-37" transform="translate(1994.710938 0)"/>
     <use xlink:href="#DejaVuSans-Bold-d7" transform="translate(2064.291016 0)"/>
     <use xlink:href="#DejaVuSans-Bold-29" transform="translate(2148.080078 0)"/>
    </g>
   </g>
   <g id="text_18">
    <!-- EUR -->
    <g style="fill: #ffffff" transform="translate(188.351412 357.40913) scale(0.09 -0.09)">
     <use xlink:href="#DejaVuSans-Bold-45"/>
     <use xlink:href="#DejaVuSans-Bold-55" transform="translate(68.310547 0)"/>
     <use xlink:href="#DejaVuSans-Bold-52" transform="translate(149.511719 0)"/>
    </g>
   </g>
   <g id="text_19">
    <!-- USD -->
    <g style="fill: #ffffff" transform="translate(309.233764 269.265212) scale(0.09 -0.09)">
     <use xlink:href="#DejaVuSans-Bold-55"/>
     <use xlink:href="#DejaVuSans-Bold-53" transform="translate(81.201172 0)"/>
     <use xlink:href="#DejaVuSans-Bold-44" transform="translate(153.222656 0)"/>
    </g>
   </g>
   <g id="text_20">
    <!-- GBP -->
    <g style="fill: #ffffff" transform="translate(263.102592 126.645356) scale(0.09 -0.09)">
     <defs>
      <path id="DejaVuSans-Bold-47" d="M 4781 347 
Q 4331 128 3847 18 
Q 3363 -91 2847 -91 
Q 1681 -91 1000 561 
Q 319 1213 319 2328 
Q 319 3456 1012 4103 
Q 1706 4750 2913 4750 
Q 3378 4750 3804 4662 
Q 4231 4575 4609 4403 
L 4609 3438 
Q 4219 3659 3833 3768 
Q 3447 3878 3059 3878 
Q 2341 3878 1952 3476 
Q 1563 3075 1563 2328 
Q 1563 1588 1938 1184 
Q 2313 781 3003 781 
Q 3191 781 3352 804 
Q 3513 828 3641 878 
L 3641 1784 
L 2906 1784 
L 2906 2591 
L 4781 2591 
L 4781 347 
z
" transform="scale(0.015625)"/>
      <path id="DejaVuSans-Bold-42" d="M 2456 2859 
Q 2741 2859 2887 2984 
Q 3034 3109 3034 3353 
Q 3034 3594 2887 3720 
Q 2741 3847 2456 3847 
L 1791 3847 
L 1791 2859 
L 2456 2859 
z
M 2497 819 
Q 2859 819 3042 972 
Q 3225 1125 3225 1434 
Q 3225 1738 3044 1889 
Q 2863 2041 2497 2041 
L 1791 2041 
L 1791 819 
L 2497 819 
z
M 3616 2497 
Q 4003 2384 4215 2081 
Q 4428 1778 4428 1338 
Q 4428 663 3972 331 
Q 3516 0 2584 0 
L 588 0 
L 588 4666 
L 2394 4666 
Q 3366 4666 3802 4372 
Q 4238 4078 4238 3431 
Q 4238 3091 4078 2852 
Q 3919 2613 3616 2497 
z
" transform="scale(0.015625)"/>
      <path id="DejaVuSans-Bold-50" d="M 588 4666 
L 2584 4666 
Q 3475 4666 3951 4270 
Q 4428 3875 4428 3144 
Q 4428 2409 3951 2014 
Q 3475 1619 2584 1619 
L 1791 1619 
L 1791 0 
L 588 0 
L 588 4666 
z
M 1791 3794 
L 1791 2491 
L 2456 2491 
Q 2806 2491 2997 2661 
Q 3188 2831 3188 3144 
Q 3188 3456 2997 3625 
Q 2806 3794 2456 3794 
L 1791 3794 
z
" transform="scale(0.015625)"/>
     </defs>
     <use xlink:href="#DejaVuSans-Bold-47"/>
     <use xlink:href="#DejaVuSans-Bold-42" transform="translate(82.080078 0)"/>
     <use xlink:href="#DejaVuSans-Bold-50" transform="translate(158.300781 0)"/>
    </g>
   </g>
   <g id="text_21">
    <!-- JPY -->
    <g style="fill: #ffffff" transform="translate(115.334139 126.645356) scale(0.09 -0.09)">
     <defs>
      <path id="DejaVuSans-Bold-4a" d="M 588 4666 
L 1791 4666 
L 1791 453 
Q 1791 -419 1317 -850 
Q 844 -1281 -116 -1281 
L -359 -1281 
L -359 -372 
L -172 -372 
Q 203 -372 395 -162 
Q 588 47 588 453 
L 588 4666 
z
" transform="scale(0.015625)"/>
      <path id="DejaVuSans-Bold-59" d="M -63 4666 
L 1253 4666 
L 2316 3003 
L 3378 4666 
L 4697 4666 
L 2919 1966 
L 2919 0 
L 1716 0 
L 1716 1966 
L -63 4666 
z
" transform="scale(0.015625)"/>
     </defs>
     <use xlink:href="#DejaVuSans-Bold-4a"/>
     <use xlink:href="#DejaVuSans-Bold-50" transform="translate(37.207031 0)"/>
     <use xlink:href="#DejaVuSans-Bold-59" transform="translate(110.498047 0)"/>
    </g>
   </g>
   <g id="text_22">
    <!-- CHF -->
    <g style="fill: #ffffff" transform="translate(67.082342 269.265212) scale(0.09 -0.09)">
     <use xlink:href="#DejaVuSans-Bold-43"/>
     <use xlink:href="#DejaVuSans-Bold-48" transform="translate(73.388672 0)"/>
     <use xlink:href="#DejaVuSans-Bold-46" transform="translate(157.080078 0)"/>
    </g>
   </g>
   <g id="legend_1">
    <g id="patch_39">
     <path d="M 267.657981 413.707231 
L 382.889231 413.707231 
Q 384.889231 413.707231 384.889231 411.707231 
L 384.889231 383.350981 
Q 384.889231 381.350981 382.889231 381.350981 
L 267.657981 381.350981 
Q 265.657981 381.350981 265.657981 383.350981 
L 265.657981 411.707231 
Q 265.657981 413.707231 267.657981 413.707231 
z
" style="fill: #ffffff; opacity: 0.8; stroke: #cccccc; stroke-linejoin: miter"/>
    </g>
    <g id="patch_40">
     <path d="M 269.657981 392.949418 
L 289.657981 392.949418 
L 289.657981 385.949418 
L 269.657981 385.949418 
z
" style="fill: #bdc3c7; stroke: #bdc3c7; stroke-linejoin: miter"/>
    </g>
    <g id="text_23">
     <!-- Normaler Kurs -->
     <g transform="translate(297.657981 392.949418) scale(0.1 -0.1)">
      <defs>
       <path id="DejaVuSans-4e" d="M 628 4666 
L 1478 4666 
L 3547 763 
L 3547 4666 
L 4159 4666 
L 4159 0 
L 3309 0 
L 1241 3903 
L 1241 0 
L 628 0 
L 628 4666 
z
" transform="scale(0.015625)"/>
       <path id="DejaVuSans-6f" d="M 1959 3097 
Q 1497 3097 1228 2736 
Q 959 2375 959 1747 
Q 959 1119 1226 758 
Q 1494 397 1959 397 
Q 2419 397 2687 759 
Q 2956 1122 2956 1747 
Q 2956 2369 2687 2733 
Q 2419 3097 1959 3097 
z
M 1959 3584 
Q 2709 3584 3137 3096 
Q 3566 2609 3566 1747 
Q 3566 888 3137 398 
Q 2709 -91 1959 -91 
Q 1206 -91 779 398 
Q 353 888 353 1747 
Q 353 2609 779 3096 
Q 1206 3584 1959 3584 
z
" transform="scale(0.015625)"/>
       <path id="DejaVuSans-72" d="M 2631 2963 
Q 2534 3019 2420 3045 
Q 2306 3072 2169 3072 
Q 1681 3072 1420 2755 
Q 1159 2438 1159 1844 
L 1159 0 
L 581 0 
L 581 3500 
L 1159 3500 
L 1159 2956 
Q 1341 3275 1631 3429 
Q 1922 3584 2338 3584 
Q 2397 3584 2469 3576 
Q 2541 3569 2628 3553 
L 2631 2963 
z
" transform="scale(0.015625)"/>
       <path id="DejaVuSans-6d" d="M 3328 2828 
Q 3544 3216 3844 3400 
Q 4144 3584 4550 3584 
Q 5097 3584 5394 3201 
Q 5691 2819 5691 2113 
L 5691 0 
L 5113 0 
L 5113 2094 
Q 5113 2597 4934 2840 
Q 4756 3084 4391 3084 
Q 3944 3084 3684 2787 
Q 3425 2491 3425 1978 
L 3425 0 
L 2847 0 
L 2847 2094 
Q 2847 2600 2669 2842 
Q 2491 3084 2119 3084 
Q 1678 3084 1418 2786 
Q 1159 2488 1159 1978 
L 1159 0 
L 581 0 
L 581 3500 
L 1159 3500 
L 1159 2956 
Q 1356 3278 1631 3431 
Q 1906 3584 2284 3584 
Q 2666 3584 2933 3390 
Q 3200 3197 3328 2828 
z
" transform="scale(0.015625)"/>
       <path id="DejaVuSans-61" d="M 2194 1759 
Q 1497 1759 1228 1600 
Q 959 1441 959 1056 
Q 959 750 1161 570 
Q 1363 391 1709 391 
Q 2188 391 2477 730 
Q 2766 1069 2766 1631 
L 2766 1759 
L 2194 1759 
z
M 3341 1997 
L 3341 0 
L 2766 0 
L 2766 531 
Q 2569 213 2275 61 
Q 1981 -91 1556 -91 
Q 1019 -91 701 211 
Q 384 513 384 1019 
Q 384 1609 779 1909 
Q 1175 2209 1959 2209 
L 2766 2209 
L 2766 2266 
Q 2766 2663 2505 2880 
Q 2244 3097 1772 3097 
Q 1472 3097 1187 3025 
Q 903 2953 641 2809 
L 641 3341 
Q 956 3463 1253 3523 
Q 1550 3584 1831 3584 
Q 2591 3584 2966 3190 
Q 3341 2797 3341 1997 
z
" transform="scale(0.015625)"/>
       <path id="DejaVuSans-6c" d="M 603 4863 
L 1178 4863 
L 1178 0 
L 603 0 
L 603 4863 
z
" transform="scale(0.015625)"/>
       <path id="DejaVuSans-65" d="M 3597 1894 
L 3597 1613 
L 953 1613 
Q 991 1019 1311 708 
Q 1631 397 2203 397 
Q 2534 397 2845 478 
Q 3156 559 3463 722 
L 3463 178 
Q 3153 47 2828 -22 
Q 2503 -91 2169 -91 
Q 1331 -91 842 396 
Q 353 884 353 1716 
Q 353 2575 817 3079 
Q 1281 3584 2069 3584 
Q 2775 3584 3186 3129 
Q 3597 2675 3597 1894 
z
M 3022 2063 
Q 3016 2534 2758 2815 
Q 2500 3097 2075 3097 
Q 1594 3097 1305 2825 
Q 1016 2553 972 2059 
L 3022 2063 
z
" transform="scale(0.015625)"/>
       <path id="DejaVuSans-20" transform="scale(0.015625)"/>
       <path id="DejaVuSans-4b" d="M 628 4666 
L 1259 4666 
L 1259 2694 
L 3353 4666 
L 4166 4666 
L 1850 2491 
L 4331 0 
L 3500 0 
L 1259 2247 
L 1259 0 
L 628 0 
L 628 4666 
z
" transform="scale(0.015625)"/>
       <path id="DejaVuSans-75" d="M 544 1381 
L 544 3500 
L 1119 3500 
L 1119 1403 
Q 1119 906 1312 657 
Q 1506 409 1894 409 
Q 2359 409 2629 706 
Q 2900 1003 2900 1516 
L 2900 3500 
L 3475 3500 
L 3475 0 
L 2900 0 
L 2900 538 
Q 2691 219 2414 64 
Q 2138 -91 1772 -91 
Q 1169 -91 856 284 
Q 544 659 544 1381 
z
M 1991 3584 
L 1991 3584 
z
" transform="scale(0.015625)"/>
       <path id="DejaVuSans-73" d="M 2834 3397 
L 2834 2853 
Q 2591 2978 2328 3040 
Q 2066 3103 1784 3103 
Q 1356 3103 1142 2972 
Q 928 2841 928 2578 
Q 928 2378 1081 2264 
Q 1234 2150 1697 2047 
L 1894 2003 
Q 2506 1872 2764 1633 
Q 3022 1394 3022 966 
Q 3022 478 2636 193 
Q 2250 -91 1575 -91 
Q 1294 -91 989 -36 
Q 684 19 347 128 
L 347 722 
Q 666 556 975 473 
Q 1284 391 1588 391 
Q 1994 391 2212 530 
Q 2431 669 2431 922 
Q 2431 1156 2273 1281 
Q 2116 1406 1581 1522 
L 1381 1569 
Q 847 1681 609 1914 
Q 372 2147 372 2553 
Q 372 3047 722 3315 
Q 1072 3584 1716 3584 
Q 2034 3584 2315 3537 
Q 2597 3491 2834 3397 
z
" transform="scale(0.015625)"/>
      </defs>
      <use xlink:href="#DejaVuSans-4e"/>
      <use xlink:href="#DejaVuSans-6f" transform="translate(74.804688 0)"/>
      <use xlink:href="#DejaVuSans-72" transform="translate(135.986328 0)"/>
      <use xlink:href="#DejaVuSans-6d" transform="translate(175.349609 0)"/>
      <use xlink:href="#DejaVuSans-61" transform="translate(272.761719 0)"/>
      <use xlink:href="#DejaVuSans-6c" transform="translate(334.041016 0)"/>
      <use xlink:href="#DejaVuSans-65" transform="translate(361.824219 0)"/>
      <use xlink:href="#DejaVuSans-72" transform="translate(423.347656 0)"/>
      <use xlink:href="#DejaVuSans-20" transform="translate(464.460938 0)"/>
      <use xlink:href="#DejaVuSans-4b" transform="translate(496.248047 0)"/>
      <use xlink:href="#DejaVuSans-75" transform="translate(556.824219 0)"/>
      <use xlink:href="#DejaVuSans-72" transform="translate(620.203125 0)"/>
      <use xlink:href="#DejaVuSans-73" transform="translate(661.316406 0)"/>
     </g>
    </g>
    <g id="patch_41">
     <path d="M 269.657981 407.627543 
L 289.657981 407.627543 
L 289.657981 400.627543 
L 269.657981 400.627543 
z
" style="fill: #e74c3c; stroke: #e74c3c; stroke-linejoin: miter"/>
    </g>
    <g id="text_24">
     <!-- Arbitrage-Zyklus -->
     <g transform="translate(297.657981 407.627543) scale(0.1 -0.1)">
      <defs>
       <path id="DejaVuSans-41" d="M 2188 4044 
L 1331 1722 
L 3047 1722 
L 2188 4044 
z
M 1831 4666 
L 2547 4666 
L 4325 0 
L 3669 0 
L 3244 1197 
L 1141 1197 
L 716 0 
L 50 0 
L 1831 4666 
z
" transform="scale(0.015625)"/>
       <path id="DejaVuSans-62" d="M 3116 1747 
Q 3116 2381 2855 2742 
Q 2594 3103 2138 3103 
Q 1681 3103 1420 2742 
Q 1159 2381 1159 1747 
Q 1159 1113 1420 752 
Q 1681 391 2138 391 
Q 2594 391 2855 752 
Q 3116 1113 3116 1747 
z
M 1159 2969 
Q 1341 3281 1617 3432 
Q 1894 3584 2278 3584 
Q 2916 3584 3314 3078 
Q 3713 2572 3713 1747 
Q 3713 922 3314 415 
Q 2916 -91 2278 -91 
Q 1894 -91 1617 61 
Q 1341 213 1159 525 
L 1159 0 
L 581 0 
L 581 4863 
L 1159 4863 
L 1159 2969 
z
" transform="scale(0.015625)"/>
       <path id="DejaVuSans-69" d="M 603 3500 
L 1178 3500 
L 1178 0 
L 603 0 
L 603 3500 
z
M 603 4863 
L 1178 4863 
L 1178 4134 
L 603 4134 
L 603 4863 
z
" transform="scale(0.015625)"/>
       <path id="DejaVuSans-74" d="M 1172 4494 
L 1172 3500 
L 2356 3500 
L 2356 3053 
L 1172 3053 
L 1172 1153 
Q 1172 725 1289 603 
Q 1406 481 1766 481 
L 2356 481 
L 2356 0 
L 1766 0 
Q 1100 0 847 248 
Q 594 497 594 1153 
L 594 3053 
L 172 3053 
L 172 3500 
L 594 3500 
L 594 4494 
L 1172 4494 
z
" transform="scale(0.015625)"/>
       <path id="DejaVuSans-67" d="M 2906 1791 
Q 2906 2416 2648 2759 
Q 2391 3103 1925 3103 
Q 1463 3103 1205 2759 
Q 947 2416 947 1791 
Q 947 1169 1205 825 
Q 1463 481 1925 481 
Q 2391 481 2648 825 
Q 2906 1169 2906 1791 
z
M 3481 434 
Q 3481 -459 3084 -895 
Q 2688 -1331 1869 -1331 
Q 1566 -1331 1297 -1286 
Q 1028 -1241 775 -1147 
L 775 -588 
Q 1028 -725 1275 -790 
Q 1522 -856 1778 -856 
Q 2344 -856 2625 -561 
Q 2906 -266 2906 331 
L 2906 616 
Q 2728 306 2450 153 
Q 2172 0 1784 0 
Q 1141 0 747 490 
Q 353 981 353 1791 
Q 353 2603 747 3093 
Q 1141 3584 1784 3584 
Q 2172 3584 2450 3431 
Q 2728 3278 2906 2969 
L 2906 3500 
L 3481 3500 
L 3481 434 
z
" transform="scale(0.015625)"/>
       <path id="DejaVuSans-2d" d="M 313 2009 
L 1997 2009 
L 1997 1497 
L 313 1497 
L 313 2009 
z
" transform="scale(0.015625)"/>
       <path id="DejaVuSans-5a" d="M 359 4666 
L 4025 4666 
L 4025 4184 
L 1075 531 
L 4097 531 
L 4097 0 
L 288 0 
L 288 481 
L 3238 4134 
L 359 4134 
L 359 4666 
z
" transform="scale(0.015625)"/>
       <path id="DejaVuSans-79" d="M 2059 -325 
Q 1816 -950 1584 -1140 
Q 1353 -1331 966 -1331 
L 506 -1331 
L 506 -850 
L 844 -850 
Q 1081 -850 1212 -737 
Q 1344 -625 1503 -206 
L 1606 56 
L 191 3500 
L 800 3500 
L 1894 763 
L 2988 3500 
L 3597 3500 
L 2059 -325 
z
" transform="scale(0.015625)"/>
       <path id="DejaVuSans-6b" d="M 581 4863 
L 1159 4863 
L 1159 1991 
L 2875 3500 
L 3609 3500 
L 1753 1863 
L 3688 0 
L 2938 0 
L 1159 1709 
L 1159 0 
L 581 0 
L 581 4863 
z
" transform="scale(0.015625)"/>
      </defs>
      <use xlink:href="#DejaVuSans-41"/>
      <use xlink:href="#DejaVuSans-72" transform="translate(68.408203 0)"/>
      <use xlink:href="#DejaVuSans-62" transform="translate(109.521484 0)"/>
      <use xlink:href="#DejaVuSans-69" transform="translate(172.998047 0)"/>
      <use xlink:href="#DejaVuSans-74" transform="translate(200.78125 0)"/>
      <use xlink:href="#DejaVuSans-72" transform="translate(239.990234 0)"/>
      <use xlink:href="#DejaVuSans-61" transform="translate(281.103516 0)"/>
      <use xlink:href="#DejaVuSans-67" transform="translate(342.382812 0)"/>
      <use xlink:href="#DejaVuSans-65" transform="translate(405.859375 0)"/>
      <use xlink:href="#DejaVuSans-2d" transform="translate(467.382812 0)"/>
      <use xlink:href="#DejaVuSans-5a" transform="translate(503.466797 0)"/>
      <use xlink:href="#DejaVuSans-79" transform="translate(571.972656 0)"/>
      <use xlink:href="#DejaVuSans-6b" transform="translate(631.152344 0)"/>
      <use xlink:href="#DejaVuSans-6c" transform="translate(689.0625 0)"/>
      <use xlink:href="#DejaVuSans-75" transform="translate(716.845703 0)"/>
      <use xlink:href="#DejaVuSans-73" transform="translate(780.224609 0)"/>
     </g>
    </g>
   </g>
  </g>
 </g>
 <defs>
  <clipPath id="pc5d69ea4b2">
   <rect x="7.2" y="36.018" width="382.689231" height="382.689231"/>
  </clipPath>
 </defs>
</svg>
