<?xml version="1.0" encoding="utf-8" standalone="no"?>
<!DOCTYPE svg PUBLIC "-//W3C//DTD SVG 1.1//EN"
  "http://www.w3.org/Graphics/SVG/1.1/DTD/svg11.dtd">
<svg xmlns:xlink="http://www.w3.org/1999/xlink" width="739.105594pt" height="356.4pt" viewBox="0 0 739.105594 356.4" xmlns="http://www.w3.org/2000/svg" version="1.1">
 <metadata>
  <rdf:RDF xmlns:dc="http://purl.org/dc/elements/1.1/" xmlns:cc="http://creativecommons.org/ns#" xmlns:rdf="http://www.w3.org/1999/02/22-rdf-syntax-ns#">
   <cc:Work>
    <dc:type rdf:resource="http://purl.org/dc/dcmitype/StillImage"/>
    <dc:date>2026-03-19T04:26:29.951290</dc:date>
    <dc:format>image/svg+xml</dc:format>
    <dc:creator>
     <cc:Agent>
      <dc:title>Matplotlib v3.10.8, https://matplotlib.org/</dc:title>
     </cc:Agent>
    </dc:creator>
   </cc:Work>
  </rdf:RDF>
 </metadata>
 <defs>
  <style type="text/css">*{stroke-linejoin: round; stroke-linecap: butt}</style>
 </defs>
 <g id="figure_1">
  <g id="patch_1">
   <path d="M 0 356.4 
L 739.105594 356.4 
L 739.105594 0 
L 0 0 
z
" style="fill: #ffffff"/>
  </g>
  <g id="axes_1">
   <g id="patch_2">
    <path d="M 159.577859 297.416058 
Q 216.435724 270.065938 243.058684 214.719176 
" style="fill: none; stroke: #e74c3c; stroke-width: 1.5; stroke-linecap: round"/>
    <path d="M 239.522441 217.456874 
L 243.058684 214.719176 
L 243.127096 219.190789 
z
" style="fill: #e74c3c; stroke: #e74c3c; stroke-width: 1.5; stroke-linecap: round"/>
   </g>
   <g id="text_1">
    <g id="patch_3">
     <path d="M 202.391548 269.866849 
L 219.570298 269.866849 
Q 220.470298 269.866849 220.470298 268.966849 
L 220.470298 260.256536 
Q 220.470298 259.356536 219.570298 259.356536 
L 202.391548 259.356536 
Q 201.491548 259.356536 201.491548 260.256536 
L 201.491548 268.966849 
Q 201.491548 269.866849 202.391548 269.866849 
z
" style="fill: #fff3f3; opacity: 0.9; stroke: #e74c3c; stroke-width: 0.5; stroke-linejoin: miter"/>
    </g>
    <!-- 30€ -->
    <g transform="translate(202.391548 267.09513) scale(0.09 -0.09)">
     <defs>
      <path id="DejaVuSans-33" d="M 2597 2516 
Q 3050 2419 3304 2112 
Q 3559 1806 3559 1356 
Q 3559 666 3084 287 
Q 2609 -91 1734 -91 
Q 1441 -91 1130 -33 
Q 819 25 488 141 
L 488 750 
Q 750 597 1062 519 
Q 1375 441 1716 441 
Q 2309 441 2620 675 
Q 2931 909 2931 1356 
Q 2931 1769 2642 2001 
Q 2353 2234 1838 2234 
L 1294 2234 
L 1294 2753 
L 1863 2753 
Q 2328 2753 2575 2939 
Q 2822 3125 2822 3475 
Q 2822 3834 2567 4026 
Q 2313 4219 1838 4219 
Q 1578 4219 1281 4162 
Q 984 4106 628 3988 
L 628 4550 
Q 988 4650 1302 4700 
Q 1616 4750 1894 4750 
Q 2613 4750 3031 4423 
Q 3450 4097 3450 3541 
Q 3450 3153 3228 2886 
Q 3006 2619 2597 2516 
z
" transform="scale(0.015625)"/>
      <path id="DejaVuSans-30" d="M 2034 4250 
Q 1547 4250 1301 3770 
Q 1056 3291 1056 2328 
Q 1056 1369 1301 889 
Q 1547 409 2034 409 
Q 2525 409 2770 889 
Q 3016 1369 3016 2328 
Q 3016 3291 2770 3770 
Q 2525 4250 2034 4250 
z
M 2034 4750 
Q 2819 4750 3233 4129 
Q 3647 3509 3647 2328 
Q 3647 1150 3233 529 
Q 2819 -91 2034 -91 
Q 1250 -91 836 529 
Q 422 1150 422 2328 
Q 422 3509 836 4129 
Q 1250 4750 2034 4750 
z
" transform="scale(0.015625)"/>
      <path id="DejaVuSans-20ac" d="M 3647 4306 
L 3647 3641 
Q 3363 3969 3098 4109 
Q 2834 4250 2516 4250 
Q 2025 4250 1709 3937 
Q 1394 3625 1294 3041 
L 3097 3041 
L 2925 2656 
L 1244 2656 
Q 1238 2581 1236 2509 
Q 1234 2438 1234 2328 
Q 1234 2228 1236 2156 
Q 1238 2084 1244 2009 
L 2638 2009 
L 2463 1625 
L 1294 1625 
Q 1394 1041 1709 725 
Q 2025 409 2516 409 
Q 2834 409 3098 550 
Q 3363 691 3647 1019 
L 3647 359 
Q 3369 134 3080 21 
Q 2791 -91 2491 -91 
Q 1750 -91 1267 362 
Q 784 816 659 1625 
L 0 1625 
L 172 2009 
L 606 2009 
Q 606 2081 604 2154 
Q 603 2228 603 2328 
Q 603 2438 604 2511 
Q 606 2584 606 2656 
L 0 2656 
L 172 3041 
L 659 3041 
Q 784 3844 1268 4297 
Q 1753 4750 2491 4750 
Q 2797 4750 3086 4639 
Q 3375 4528 3647 4306 
z
" transform="scale(0.015625)"/>
     </defs>
     <use xlink:href="#DejaVuSans-33"/>
     <use xlink:href="#DejaVuSans-30" transform="translate(63.623047 0)"/>
     <use xlink:href="#DejaVuSans-20ac" transform="translate(127.246094 0)"/>
    </g>
   </g>
   <g id="patch_4">
    <path d="M 154.599379 292.734146 
Q 186.618557 205.016825 155.175468 118.874886 
" style="fill: none; stroke: #e74c3c; stroke-width: 1.5; stroke-linecap: round"/>
    <path d="M 154.668261 123.318167 
L 155.175468 118.874886 
L 158.425768 121.946621 
z
" style="fill: #e74c3c; stroke: #e74c3c; stroke-width: 1.5; stroke-linecap: round"/>
   </g>
   <g id="text_2">
    <g id="patch_5">
     <path d="M 165.864779 210.270541 
L 183.043529 210.270541 
Q 183.943529 210.270541 183.943529 209.370541 
L 183.943529 200.660228 
Q 183.943529 199.760228 183.043529 199.760228 
L 165.864779 199.760228 
Q 164.964779 199.760228 164.964779 200.660228 
L 164.964779 209.370541 
Q 164.964779 210.270541 165.864779 210.270541 
z
" style="fill: #fff3f3; opacity: 0.9; stroke: #e74c3c; stroke-width: 0.5; stroke-linejoin: miter"/>
    </g>
    <!-- 20€ -->
    <g transform="translate(165.864779 207.498822) scale(0.09 -0.09)">
     <defs>
      <path id="DejaVuSans-32" d="M 1228 531 
L 3431 531 
L 3431 0 
L 469 0 
L 469 531 
Q 828 903 1448 1529 
Q 2069 2156 2228 2338 
Q 2531 2678 2651 2914 
Q 2772 3150 2772 3378 
Q 2772 3750 2511 3984 
Q 2250 4219 1831 4219 
Q 1534 4219 1204 4116 
Q 875 4013 500 3803 
L 500 4441 
Q 881 4594 1212 4672 
Q 1544 4750 1819 4750 
Q 2544 4750 2975 4387 
Q 3406 4025 3406 3419 
Q 3406 3131 3298 2873 
Q 3191 2616 2906 2266 
Q 2828 2175 2409 1742 
Q 1991 1309 1228 531 
z
" transform="scale(0.015625)"/>
     </defs>
     <use xlink:href="#DejaVuSans-32"/>
     <use xlink:href="#DejaVuSans-30" transform="translate(63.623047 0)"/>
     <use xlink:href="#DejaVuSans-20ac" transform="translate(127.246094 0)"/>
    </g>
   </g>
   <g id="patch_6">
    <path d="M 243.785289 196.822141 
Q 216.435169 139.964276 161.088407 113.341316 
" style="fill: none; stroke: #e74c3c; stroke-width: 1.5; stroke-linecap: round"/>
    <path d="M 163.826105 116.877559 
L 161.088407 113.341316 
L 165.56002 113.272904 
z
" style="fill: #e74c3c; stroke: #e74c3c; stroke-width: 1.5; stroke-linecap: round"/>
   </g>
   <g id="text_3">
    <g id="patch_7">
     <path d="M 202.391548 150.674233 
L 219.570298 150.674233 
Q 220.470298 150.674233 220.470298 149.774233 
L 220.470298 141.063921 
Q 220.470298 140.163921 219.570298 140.163921 
L 202.391548 140.163921 
Q 201.491548 140.163921 201.491548 141.063921 
L 201.491548 149.774233 
Q 201.491548 150.674233 202.391548 150.674233 
z
" style="fill: #fff3f3; opacity: 0.9; stroke: #e74c3c; stroke-width: 0.5; stroke-linejoin: miter"/>
    </g>
    <!-- 10€ -->
    <g transform="translate(202.391548 147.902514) scale(0.09 -0.09)">
     <defs>
      <path id="DejaVuSans-31" d="M 794 531 
L 1825 531 
L 1825 4091 
L 703 3866 
L 703 4441 
L 1819 4666 
L 2450 4666 
L 2450 531 
L 3481 531 
L 3481 0 
L 794 0 
L 794 531 
z
" transform="scale(0.015625)"/>
     </defs>
     <use xlink:href="#DejaVuSans-31"/>
     <use xlink:href="#DejaVuSans-30" transform="translate(63.623047 0)"/>
     <use xlink:href="#DejaVuSans-20ac" transform="translate(127.246094 0)"/>
    </g>
   </g>
   <g id="patch_8">
    <path d="M 143.191371 112.614711 
Q 86.333507 139.964831 59.710547 195.311593 
" style="fill: none; stroke: #e74c3c; stroke-width: 1.5; stroke-linecap: round"/>
    <path d="M 63.24679 192.573895 
L 59.710547 195.311593 
L 59.642135 190.83998 
z
" style="fill: #e74c3c; stroke: #e74c3c; stroke-width: 1.5; stroke-linecap: round"/>
   </g>
   <g id="text_4">
    <g id="patch_9">
     <path d="M 83.198933 150.674233 
L 100.377683 150.674233 
Q 101.277683 150.674233 101.277683 149.774233 
L 101.277683 141.063921 
Q 101.277683 140.163921 100.377683 140.163921 
L 83.198933 140.163921 
Q 82.298933 140.163921 82.298933 141.063921 
L 82.298933 149.774233 
Q 82.298933 150.674233 83.198933 150.674233 
z
" style="fill: #fff3f3; opacity: 0.9; stroke: #e74c3c; stroke-width: 0.5; stroke-linejoin: miter"/>
    </g>
    <!-- 40€ -->
    <g transform="translate(83.198933 147.902514) scale(0.09 -0.09)">
     <defs>
      <path id="DejaVuSans-34" d="M 2419 4116 
L 825 1625 
L 2419 1625 
L 2419 4116 
z
M 2253 4666 
L 3047 4666 
L 3047 1625 
L 3713 1625 
L 3713 1100 
L 3047 1100 
L 3047 0 
L 2419 0 
L 2419 1100 
L 313 1100 
L 313 1709 
L 2253 4666 
z
" transform="scale(0.015625)"/>
     </defs>
     <use xlink:href="#DejaVuSans-34"/>
     <use xlink:href="#DejaVuSans-30" transform="translate(63.623047 0)"/>
     <use xlink:href="#DejaVuSans-20ac" transform="translate(127.246094 0)"/>
    </g>
   </g>
   <g id="patch_10">
    <path d="M 58.983942 213.208629 
Q 86.334062 270.066493 141.680824 296.689453 
" style="fill: none; stroke: #e74c3c; stroke-width: 1.5; stroke-linecap: round"/>
    <path d="M 138.943126 293.15321 
L 141.680824 296.689453 
L 137.209211 296.757865 
z
" style="fill: #e74c3c; stroke: #e74c3c; stroke-width: 1.5; stroke-linecap: round"/>
   </g>
   <g id="text_5">
    <g id="patch_11">
     <path d="M 83.198933 269.866849 
L 100.377683 269.866849 
Q 101.277683 269.866849 101.277683 268.966849 
L 101.277683 260.256536 
Q 101.277683 259.356536 100.377683 259.356536 
L 83.198933 259.356536 
Q 82.298933 259.356536 82.298933 260.256536 
L 82.298933 268.966849 
Q 82.298933 269.866849 83.198933 269.866849 
z
" style="fill: #fff3f3; opacity: 0.9; stroke: #e74c3c; stroke-width: 0.5; stroke-linejoin: miter"/>
    </g>
    <!-- 25€ -->
    <g transform="translate(83.198933 267.09513) scale(0.09 -0.09)">
     <defs>
      <path id="DejaVuSans-35" d="M 691 4666 
L 3169 4666 
L 3169 4134 
L 1269 4134 
L 1269 2991 
Q 1406 3038 1543 3061 
Q 1681 3084 1819 3084 
Q 2600 3084 3056 2656 
Q 3513 2228 3513 1497 
Q 3513 744 3044 326 
Q 2575 -91 1722 -91 
Q 1428 -91 1123 -41 
Q 819 9 494 109 
L 494 744 
Q 775 591 1075 516 
Q 1375 441 1709 441 
Q 2250 441 2565 725 
Q 2881 1009 2881 1497 
Q 2881 1984 2565 2268 
Q 2250 2553 1709 2553 
Q 1456 2553 1204 2497 
Q 953 2441 691 2322 
L 691 4666 
z
" transform="scale(0.015625)"/>
     </defs>
     <use xlink:href="#DejaVuSans-32"/>
     <use xlink:href="#DejaVuSans-35" transform="translate(63.623047 0)"/>
     <use xlink:href="#DejaVuSans-20ac" transform="translate(127.246094 0)"/>
    </g>
   </g>
   <g id="patch_12">
    <path d="M 151.384615 314.595692 
C 154.953515 314.595692 158.376722 313.177754 160.900315 310.654161 
C 163.423907 308.130568 164.841846 304.707361 164.841846 301.138462 
C 164.841846 297.569562 163.423907 294.146355 160.900315 291.622762 
C 158.376722 289.099169 154.953515 287.681231 151.384615 287.681231 
C 147.815716 287.681231 144.392509 289.099169 141.868916 291.622762 
C 139.345323 294.146355 137.927385 297.569562 137.927385 301.138462 
C 137.927385 304.707361 139.345323 308.130568 141.868916 310.654161 
C 144.392509 313.177754 147.815716 314.595692 151.384615 314.595692 
z
" clip-path="url(#pc827b01cee)" style="fill: #2c3e50; stroke: #2c3e50; stroke-linejoin: miter"/>
   </g>
   <g id="patch_13">
    <path d="M 247.507692 218.472615 
C 251.076592 218.472615 254.499799 217.054677 257.023391 214.531084 
C 259.546984 212.007491 260.964923 208.584284 260.964923 205.015385 
C 260.964923 201.446485 259.546984 198.023278 257.023391 195.499685 
C 254.499799 192.976093 251.076592 191.558154 247.507692 191.558154 
C 243.938793 191.558154 240.515586 192.976093 237.991993 195.499685 
C 235.4684 198.023278 234.050462 201.446485 234.050462 205.015385 
C 234.050462 208.584284 235.4684 212.007491 237.991993 214.531084 
C 240.515586 217.054677 243.938793 218.472615 247.507692 218.472615 
z
" clip-path="url(#pc827b01cee)" style="fill: #2c3e50; stroke: #2c3e50; stroke-linejoin: miter"/>
   </g>
   <g id="patch_14">
    <path d="M 151.384615 122.349538 
C 154.953515 122.349538 158.376722 120.9316 160.900315 118.408007 
C 163.423907 115.884414 164.841846 112.461207 164.841846 108.892308 
C 164.841846 105.323408 163.423907 101.900201 160.900315 99.376609 
C 158.376722 96.853016 154.953515 95.435077 151.384615 95.435077 
C 147.815716 95.435077 144.392509 96.853016 141.868916 99.376609 
C 139.345323 101.900201 137.927385 105.323408 137.927385 108.892308 
C 137.927385 112.461207 139.345323 115.884414 141.868916 118.408007 
C 144.392509 120.9316 147.815716 122.349538 151.384615 122.349538 
z
" clip-path="url(#pc827b01cee)" style="fill: #2c3e50; stroke: #2c3e50; stroke-linejoin: miter"/>
   </g>
   <g id="patch_15">
    <path d="M 55.261538 218.472615 
C 58.830438 218.472615 62.253645 217.054677 64.777238 214.531084 
C 67.300831 212.007491 68.718769 208.584284 68.718769 205.015385 
C 68.718769 201.446485 67.300831 198.023278 64.777238 195.499685 
C 62.253645 192.976093 58.830438 191.558154 55.261538 191.558154 
C 51.692639 191.558154 48.269432 192.976093 45.745839 195.499685 
C 43.222246 198.023278 41.804308 201.446485 41.804308 205.015385 
C 41.804308 208.584284 43.222246 212.007491 45.745839 214.531084 
C 48.269432 217.054677 51.692639 218.472615 55.261538 218.472615 
z
" clip-path="url(#pc827b01cee)" style="fill: #2c3e50; stroke: #2c3e50; stroke-linejoin: miter"/>
   </g>
   <g id="text_6">
    <!-- Vor Vereinfachung -->
    <g transform="translate(94.049694 42.427238) scale(0.11 -0.11)">
     <defs>
      <path id="DejaVuSans-Bold-56" d="M 31 4666 
L 1241 4666 
L 2478 1222 
L 3713 4666 
L 4922 4666 
L 3194 0 
L 1759 0 
L 31 4666 
z
" transform="scale(0.015625)"/>
      <path id="DejaVuSans-Bold-6f" d="M 2203 2784 
Q 1831 2784 1636 2517 
Q 1441 2250 1441 1747 
Q 1441 1244 1636 976 
Q 1831 709 2203 709 
Q 2569 709 2762 976 
Q 2956 1244 2956 1747 
Q 2956 2250 2762 2517 
Q 2569 2784 2203 2784 
z
M 2203 3584 
Q 3106 3584 3614 3096 
Q 4122 2609 4122 1747 
Q 4122 884 3614 396 
Q 3106 -91 2203 -91 
Q 1297 -91 786 396 
Q 275 884 275 1747 
Q 275 2609 786 3096 
Q 1297 3584 2203 3584 
z
" transform="scale(0.015625)"/>
      <path id="DejaVuSans-Bold-72" d="M 3138 2547 
Q 2991 2616 2845 2648 
Q 2700 2681 2553 2681 
Q 2122 2681 1889 2404 
Q 1656 2128 1656 1613 
L 1656 0 
L 538 0 
L 538 3500 
L 1656 3500 
L 1656 2925 
Q 1872 3269 2151 3426 
Q 2431 3584 2822 3584 
Q 2878 3584 2943 3579 
Q 3009 3575 3134 3559 
L 3138 2547 
z
" transform="scale(0.015625)"/>
      <path id="DejaVuSans-Bold-20" transform="scale(0.015625)"/>
      <path id="DejaVuSans-Bold-65" d="M 4031 1759 
L 4031 1441 
L 1416 1441 
Q 1456 1047 1700 850 
Q 1944 653 2381 653 
Q 2734 653 3104 758 
Q 3475 863 3866 1075 
L 3866 213 
Q 3469 63 3072 -14 
Q 2675 -91 2278 -91 
Q 1328 -91 801 392 
Q 275 875 275 1747 
Q 275 2603 792 3093 
Q 1309 3584 2216 3584 
Q 3041 3584 3536 3087 
Q 4031 2591 4031 1759 
z
M 2881 2131 
Q 2881 2450 2695 2645 
Q 2509 2841 2209 2841 
Q 1884 2841 1681 2658 
Q 1478 2475 1428 2131 
L 2881 2131 
z
" transform="scale(0.015625)"/>
      <path id="DejaVuSans-Bold-69" d="M 538 3500 
L 1656 3500 
L 1656 0 
L 538 0 
L 538 3500 
z
M 538 4863 
L 1656 4863 
L 1656 3950 
L 538 3950 
L 538 4863 
z
" transform="scale(0.015625)"/>
      <path id="DejaVuSans-Bold-6e" d="M 4056 2131 
L 4056 0 
L 2931 0 
L 2931 347 
L 2931 1631 
Q 2931 2084 2911 2256 
Q 2891 2428 2841 2509 
Q 2775 2619 2662 2680 
Q 2550 2741 2406 2741 
Q 2056 2741 1856 2470 
Q 1656 2200 1656 1722 
L 1656 0 
L 538 0 
L 538 3500 
L 1656 3500 
L 1656 2988 
Q 1909 3294 2193 3439 
Q 2478 3584 2822 3584 
Q 3428 3584 3742 3212 
Q 4056 2841 4056 2131 
z
" transform="scale(0.015625)"/>
      <path id="DejaVuSans-Bold-66" d="M 2841 4863 
L 2841 4128 
L 2222 4128 
Q 1984 4128 1890 4042 
Q 1797 3956 1797 3744 
L 1797 3500 
L 2753 3500 
L 2753 2700 
L 1797 2700 
L 1797 0 
L 678 0 
L 678 2700 
L 122 2700 
L 122 3500 
L 678 3500 
L 678 3744 
Q 678 4316 997 4589 
Q 1316 4863 1984 4863 
L 2841 4863 
z
" transform="scale(0.015625)"/>
      <path id="DejaVuSans-Bold-61" d="M 2106 1575 
Q 1756 1575 1579 1456 
Q 1403 1338 1403 1106 
Q 1403 894 1545 773 
Q 1688 653 1941 653 
Q 2256 653 2472 879 
Q 2688 1106 2688 1447 
L 2688 1575 
L 2106 1575 
z
M 3816 1997 
L 3816 0 
L 2688 0 
L 2688 519 
Q 2463 200 2181 54 
Q 1900 -91 1497 -91 
Q 953 -91 614 226 
Q 275 544 275 1050 
Q 275 1666 698 1953 
Q 1122 2241 2028 2241 
L 2688 2241 
L 2688 2328 
Q 2688 2594 2478 2717 
Q 2269 2841 1825 2841 
Q 1466 2841 1156 2769 
Q 847 2697 581 2553 
L 581 3406 
Q 941 3494 1303 3539 
Q 1666 3584 2028 3584 
Q 2975 3584 3395 3211 
Q 3816 2838 3816 1997 
z
" transform="scale(0.015625)"/>
      <path id="DejaVuSans-Bold-63" d="M 3366 3391 
L 3366 2478 
Q 3138 2634 2908 2709 
Q 2678 2784 2431 2784 
Q 1963 2784 1702 2511 
Q 1441 2238 1441 1747 
Q 1441 1256 1702 982 
Q 1963 709 2431 709 
Q 2694 709 2930 787 
Q 3166 866 3366 1019 
L 3366 103 
Q 3103 6 2833 -42 
Q 2563 -91 2291 -91 
Q 1344 -91 809 395 
Q 275 881 275 1747 
Q 275 2613 809 3098 
Q 1344 3584 2291 3584 
Q 2566 3584 2833 3536 
Q 3100 3488 3366 3391 
z
" transform="scale(0.015625)"/>
      <path id="DejaVuSans-Bold-68" d="M 4056 2131 
L 4056 0 
L 2931 0 
L 2931 347 
L 2931 1625 
Q 2931 2084 2911 2256 
Q 2891 2428 2841 2509 
Q 2775 2619 2662 2680 
Q 2550 2741 2406 2741 
Q 2056 2741 1856 2470 
Q 1656 2200 1656 1722 
L 1656 0 
L 538 0 
L 538 4863 
L 1656 4863 
L 1656 2988 
Q 1909 3294 2193 3439 
Q 2478 3584 2822 3584 
Q 3428 3584 3742 3212 
Q 4056 2841 4056 2131 
z
" transform="scale(0.015625)"/>
      <path id="DejaVuSans-Bold-75" d="M 500 1363 
L 500 3500 
L 1625 3500 
L 1625 3150 
Q 1625 2866 1622 2436 
Q 1619 2006 1619 1863 
Q 1619 1441 1641 1255 
Q 1663 1069 1716 984 
Q 1784 875 1895 815 
Q 2006 756 2150 756 
Q 2500 756 2700 1025 
Q 2900 1294 2900 1772 
L 2900 3500 
L 4019 3500 
L 4019 0 
L 2900 0 
L 2900 506 
Q 2647 200 2364 54 
Q 2081 -91 1741 -91 
Q 1134 -91 817 281 
Q 500 653 500 1363 
z
" transform="scale(0.015625)"/>
      <path id="DejaVuSans-Bold-67" d="M 2919 594 
Q 2688 288 2409 144 
Q 2131 0 1766 0 
Q 1125 0 706 504 
Q 288 1009 288 1791 
Q 288 2575 706 3076 
Q 1125 3578 1766 3578 
Q 2131 3578 2409 3434 
Q 2688 3291 2919 2981 
L 2919 3500 
L 4044 3500 
L 4044 353 
Q 4044 -491 3511 -936 
Q 2978 -1381 1966 -1381 
Q 1638 -1381 1331 -1331 
Q 1025 -1281 716 -1178 
L 716 -306 
Q 1009 -475 1290 -558 
Q 1572 -641 1856 -641 
Q 2406 -641 2662 -400 
Q 2919 -159 2919 353 
L 2919 594 
z
M 2181 2772 
Q 1834 2772 1640 2515 
Q 1447 2259 1447 1791 
Q 1447 1309 1634 1061 
Q 1822 813 2181 813 
Q 2531 813 2725 1069 
Q 2919 1325 2919 1791 
Q 2919 2259 2725 2515 
Q 2531 2772 2181 2772 
z
" transform="scale(0.015625)"/>
     </defs>
     <use xlink:href="#DejaVuSans-Bold-56"/>
     <use xlink:href="#DejaVuSans-Bold-6f" transform="translate(71.892578 0)"/>
     <use xlink:href="#DejaVuSans-Bold-72" transform="translate(140.59375 0)"/>
     <use xlink:href="#DejaVuSans-Bold-20" transform="translate(189.910156 0)"/>
     <use xlink:href="#DejaVuSans-Bold-56" transform="translate(224.724609 0)"/>
     <use xlink:href="#DejaVuSans-Bold-65" transform="translate(296.617188 0)"/>
     <use xlink:href="#DejaVuSans-Bold-72" transform="translate(364.439453 0)"/>
     <use xlink:href="#DejaVuSans-Bold-65" transform="translate(413.755859 0)"/>
     <use xlink:href="#DejaVuSans-Bold-69" transform="translate(481.578125 0)"/>
     <use xlink:href="#DejaVuSans-Bold-6e" transform="translate(515.855469 0)"/>
     <use xlink:href="#DejaVuSans-Bold-66" transform="translate(587.046875 0)"/>
     <use xlink:href="#DejaVuSans-Bold-61" transform="translate(630.552734 0)"/>
     <use xlink:href="#DejaVuSans-Bold-63" transform="translate(698.033203 0)"/>
     <use xlink:href="#DejaVuSans-Bold-68" transform="translate(757.310547 0)"/>
     <use xlink:href="#DejaVuSans-Bold-75" transform="translate(828.501953 0)"/>
     <use xlink:href="#DejaVuSans-Bold-6e" transform="translate(899.693359 0)"/>
     <use xlink:href="#DejaVuSans-Bold-67" transform="translate(970.884766 0)"/>
    </g>
    <!-- (5 Transaktionen) -->
    <g transform="translate(96.632975 54.830769) scale(0.11 -0.11)">
     <defs>
      <path id="DejaVuSans-Bold-28" d="M 2413 -844 
L 1484 -844 
Q 1006 -72 778 623 
Q 550 1319 550 2003 
Q 550 2688 779 3389 
Q 1009 4091 1484 4856 
L 2413 4856 
Q 2013 4116 1813 3408 
Q 1613 2700 1613 2009 
Q 1613 1319 1811 609 
Q 2009 -100 2413 -844 
z
" transform="scale(0.015625)"/>
      <path id="DejaVuSans-Bold-35" d="M 678 4666 
L 3669 4666 
L 3669 3781 
L 1638 3781 
L 1638 3059 
Q 1775 3097 1914 3117 
Q 2053 3138 2203 3138 
Q 3056 3138 3531 2711 
Q 4006 2284 4006 1522 
Q 4006 766 3489 337 
Q 2972 -91 2053 -91 
Q 1656 -91 1267 -14 
Q 878 63 494 219 
L 494 1166 
Q 875 947 1217 837 
Q 1559 728 1863 728 
Q 2300 728 2551 942 
Q 2803 1156 2803 1522 
Q 2803 1891 2551 2103 
Q 2300 2316 1863 2316 
Q 1603 2316 1309 2248 
Q 1016 2181 678 2041 
L 678 4666 
z
" transform="scale(0.015625)"/>
      <path id="DejaVuSans-Bold-54" d="M 31 4666 
L 4331 4666 
L 4331 3756 
L 2784 3756 
L 2784 0 
L 1581 0 
L 1581 3756 
L 31 3756 
L 31 4666 
z
" transform="scale(0.015625)"/>
      <path id="DejaVuSans-Bold-73" d="M 3272 3391 
L 3272 2541 
Q 2913 2691 2578 2766 
Q 2244 2841 1947 2841 
Q 1628 2841 1473 2761 
Q 1319 2681 1319 2516 
Q 1319 2381 1436 2309 
Q 1553 2238 1856 2203 
L 2053 2175 
Q 2913 2066 3209 1816 
Q 3506 1566 3506 1031 
Q 3506 472 3093 190 
Q 2681 -91 1863 -91 
Q 1516 -91 1145 -36 
Q 775 19 384 128 
L 384 978 
Q 719 816 1070 734 
Q 1422 653 1784 653 
Q 2113 653 2278 743 
Q 2444 834 2444 1013 
Q 2444 1163 2330 1236 
Q 2216 1309 1875 1350 
L 1678 1375 
Q 931 1469 631 1722 
Q 331 1975 331 2491 
Q 331 3047 712 3315 
Q 1094 3584 1881 3584 
Q 2191 3584 2531 3537 
Q 2872 3491 3272 3391 
z
" transform="scale(0.015625)"/>
      <path id="DejaVuSans-Bold-6b" d="M 538 4863 
L 1656 4863 
L 1656 2216 
L 2944 3500 
L 4244 3500 
L 2534 1894 
L 4378 0 
L 3022 0 
L 1656 1459 
L 1656 0 
L 538 0 
L 538 4863 
z
" transform="scale(0.015625)"/>
      <path id="DejaVuSans-Bold-74" d="M 1759 4494 
L 1759 3500 
L 2913 3500 
L 2913 2700 
L 1759 2700 
L 1759 1216 
Q 1759 972 1856 886 
Q 1953 800 2241 800 
L 2816 800 
L 2816 0 
L 1856 0 
Q 1194 0 917 276 
Q 641 553 641 1216 
L 641 2700 
L 84 2700 
L 84 3500 
L 641 3500 
L 641 4494 
L 1759 4494 
z
" transform="scale(0.015625)"/>
      <path id="DejaVuSans-Bold-29" d="M 513 -844 
Q 913 -100 1113 609 
Q 1313 1319 1313 2009 
Q 1313 2700 1113 3408 
Q 913 4116 513 4856 
L 1441 4856 
Q 1916 4091 2145 3389 
Q 2375 2688 2375 2003 
Q 2375 1319 2147 623 
Q 1919 -72 1441 -844 
L 513 -844 
z
" transform="scale(0.015625)"/>
     </defs>
     <use xlink:href="#DejaVuSans-Bold-28"/>
     <use xlink:href="#DejaVuSans-Bold-35" transform="translate(45.703125 0)"/>
     <use xlink:href="#DejaVuSans-Bold-20" transform="translate(115.283203 0)"/>
     <use xlink:href="#DejaVuSans-Bold-54" transform="translate(150.097656 0)"/>
     <use xlink:href="#DejaVuSans-Bold-72" transform="translate(207.310547 0)"/>
     <use xlink:href="#DejaVuSans-Bold-61" transform="translate(256.626953 0)"/>
     <use xlink:href="#DejaVuSans-Bold-6e" transform="translate(324.107422 0)"/>
     <use xlink:href="#DejaVuSans-Bold-73" transform="translate(395.298828 0)"/>
     <use xlink:href="#DejaVuSans-Bold-61" transform="translate(454.820312 0)"/>
     <use xlink:href="#DejaVuSans-Bold-6b" transform="translate(522.300781 0)"/>
     <use xlink:href="#DejaVuSans-Bold-74" transform="translate(588.804688 0)"/>
     <use xlink:href="#DejaVuSans-Bold-69" transform="translate(636.607422 0)"/>
     <use xlink:href="#DejaVuSans-Bold-6f" transform="translate(670.884766 0)"/>
     <use xlink:href="#DejaVuSans-Bold-6e" transform="translate(739.585938 0)"/>
     <use xlink:href="#DejaVuSans-Bold-65" transform="translate(810.777344 0)"/>
     <use xlink:href="#DejaVuSans-Bold-6e" transform="translate(878.599609 0)"/>
     <use xlink:href="#DejaVuSans-Bold-29" transform="translate(949.791016 0)"/>
    </g>
   </g>
   <g id="text_7">
    <!-- Alice -->
    <g style="fill: #ffffff" transform="translate(137.73149 303.897837) scale(0.1 -0.1)">
     <defs>
      <path id="DejaVuSans-Bold-41" d="M 3419 850 
L 1538 850 
L 1241 0 
L 31 0 
L 1759 4666 
L 3194 4666 
L 4922 0 
L 3713 0 
L 3419 850 
z
M 1838 1716 
L 3116 1716 
L 2478 3572 
L 1838 1716 
z
" transform="scale(0.015625)"/>
      <path id="DejaVuSans-Bold-6c" d="M 538 4863 
L 1656 4863 
L 1656 0 
L 538 0 
L 538 4863 
z
" transform="scale(0.015625)"/>
     </defs>
     <use xlink:href="#DejaVuSans-Bold-41"/>
     <use xlink:href="#DejaVuSans-Bold-6c" transform="translate(77.392578 0)"/>
     <use xlink:href="#DejaVuSans-Bold-69" transform="translate(111.669922 0)"/>
     <use xlink:href="#DejaVuSans-Bold-63" transform="translate(145.947266 0)"/>
     <use xlink:href="#DejaVuSans-Bold-65" transform="translate(205.224609 0)"/>
    </g>
   </g>
   <g id="text_8">
    <!-- Bob -->
    <g style="fill: #ffffff" transform="translate(236.682692 207.77476) scale(0.1 -0.1)">
     <defs>
      <path id="DejaVuSans-Bold-42" d="M 2456 2859 
Q 2741 2859 2887 2984 
Q 3034 3109 3034 3353 
Q 3034 3594 2887 3720 
Q 2741 3847 2456 3847 
L 1791 3847 
L 1791 2859 
L 2456 2859 
z
M 2497 819 
Q 2859 819 3042 972 
Q 3225 1125 3225 1434 
Q 3225 1738 3044 1889 
Q 2863 2041 2497 2041 
L 1791 2041 
L 1791 819 
L 2497 819 
z
M 3616 2497 
Q 4003 2384 4215 2081 
Q 4428 1778 4428 1338 
Q 4428 663 3972 331 
Q 3516 0 2584 0 
L 588 0 
L 588 4666 
L 2394 4666 
Q 3366 4666 3802 4372 
Q 4238 4078 4238 3431 
Q 4238 3091 4078 2852 
Q 3919 2613 3616 2497 
z
" transform="scale(0.015625)"/>
      <path id="DejaVuSans-Bold-62" d="M 2400 722 
Q 2759 722 2948 984 
Q 3138 1247 3138 1747 
Q 3138 2247 2948 2509 
Q 2759 2772 2400 2772 
Q 2041 2772 1848 2508 
Q 1656 2244 1656 1747 
Q 1656 1250 1848 986 
Q 2041 722 2400 722 
z
M 1656 2988 
Q 1888 3294 2169 3439 
Q 2450 3584 2816 3584 
Q 3463 3584 3878 3070 
Q 4294 2556 4294 1747 
Q 4294 938 3878 423 
Q 3463 -91 2816 -91 
Q 2450 -91 2169 54 
Q 1888 200 1656 506 
L 1656 0 
L 538 0 
L 538 4863 
L 1656 4863 
L 1656 2988 
z
" transform="scale(0.015625)"/>
     </defs>
     <use xlink:href="#DejaVuSans-Bold-42"/>
     <use xlink:href="#DejaVuSans-Bold-6f" transform="translate(76.220703 0)"/>
     <use xlink:href="#DejaVuSans-Bold-62" transform="translate(144.921875 0)"/>
    </g>
   </g>
   <g id="text_9">
    <!-- Carol -->
    <g style="fill: #ffffff" transform="translate(136.726022 111.651683) scale(0.1 -0.1)">
     <defs>
      <path id="DejaVuSans-Bold-43" d="M 4288 256 
Q 3956 84 3597 -3 
Q 3238 -91 2847 -91 
Q 1681 -91 1000 561 
Q 319 1213 319 2328 
Q 319 3447 1000 4098 
Q 1681 4750 2847 4750 
Q 3238 4750 3597 4662 
Q 3956 4575 4288 4403 
L 4288 3438 
Q 3953 3666 3628 3772 
Q 3303 3878 2944 3878 
Q 2300 3878 1931 3465 
Q 1563 3053 1563 2328 
Q 1563 1606 1931 1193 
Q 2300 781 2944 781 
Q 3303 781 3628 887 
Q 3953 994 4288 1222 
L 4288 256 
z
" transform="scale(0.015625)"/>
     </defs>
     <use xlink:href="#DejaVuSans-Bold-43"/>
     <use xlink:href="#DejaVuSans-Bold-61" transform="translate(73.388672 0)"/>
     <use xlink:href="#DejaVuSans-Bold-72" transform="translate(140.869141 0)"/>
     <use xlink:href="#DejaVuSans-Bold-6f" transform="translate(190.185547 0)"/>
     <use xlink:href="#DejaVuSans-Bold-6c" transform="translate(258.886719 0)"/>
    </g>
   </g>
   <g id="text_10">
    <!-- Dave -->
    <g style="fill: #ffffff" transform="translate(41.085757 207.77476) scale(0.1 -0.1)">
     <defs>
      <path id="DejaVuSans-Bold-44" d="M 1791 3756 
L 1791 909 
L 2222 909 
Q 2959 909 3348 1275 
Q 3738 1641 3738 2338 
Q 3738 3031 3350 3393 
Q 2963 3756 2222 3756 
L 1791 3756 
z
M 588 4666 
L 1856 4666 
Q 2919 4666 3439 4514 
Q 3959 4363 4331 4000 
Q 4659 3684 4818 3271 
Q 4978 2859 4978 2338 
Q 4978 1809 4818 1395 
Q 4659 981 4331 666 
Q 3956 303 3431 151 
Q 2906 0 1856 0 
L 588 0 
L 588 4666 
z
" transform="scale(0.015625)"/>
      <path id="DejaVuSans-Bold-76" d="M 97 3500 
L 1216 3500 
L 2088 1081 
L 2956 3500 
L 4078 3500 
L 2700 0 
L 1472 0 
L 97 3500 
z
" transform="scale(0.015625)"/>
     </defs>
     <use xlink:href="#DejaVuSans-Bold-44"/>
     <use xlink:href="#DejaVuSans-Bold-61" transform="translate(83.007812 0)"/>
     <use xlink:href="#DejaVuSans-Bold-76" transform="translate(150.488281 0)"/>
     <use xlink:href="#DejaVuSans-Bold-65" transform="translate(215.673828 0)"/>
    </g>
   </g>
  </g>
  <g id="axes_2">
   <g id="patch_16">
    <path d="M 595.914223 297.416058 
Q 652.772088 270.065938 679.395047 214.719176 
" style="fill: none; stroke: #e74c3c; stroke-width: 1.5; stroke-linecap: round"/>
    <path d="M 675.858804 217.456874 
L 679.395047 214.719176 
L 679.46346 219.190789 
z
" style="fill: #e74c3c; stroke: #e74c3c; stroke-width: 1.5; stroke-linecap: round"/>
   </g>
   <g id="text_11">
    <g id="patch_17">
     <path d="M 638.727912 269.866849 
L 655.906662 269.866849 
Q 656.806662 269.866849 656.806662 268.966849 
L 656.806662 260.256536 
Q 656.806662 259.356536 655.906662 259.356536 
L 638.727912 259.356536 
Q 637.827912 259.356536 637.827912 260.256536 
L 637.827912 268.966849 
Q 637.827912 269.866849 638.727912 269.866849 
z
" style="fill: #fff3f3; opacity: 0.9; stroke: #e74c3c; stroke-width: 0.5; stroke-linejoin: miter"/>
    </g>
    <!-- 20€ -->
    <g transform="translate(638.727912 267.09513) scale(0.09 -0.09)">
     <use xlink:href="#DejaVuSans-32"/>
     <use xlink:href="#DejaVuSans-30" transform="translate(63.623047 0)"/>
     <use xlink:href="#DejaVuSans-20ac" transform="translate(127.246094 0)"/>
    </g>
   </g>
   <g id="patch_18">
    <path d="M 583.998576 292.945217 
Q 556.648455 236.087353 501.301694 209.464393 
" style="fill: none; stroke: #e74c3c; stroke-width: 1.5; stroke-linecap: round"/>
    <path d="M 504.039391 213.000636 
L 501.301694 209.464393 
L 505.773307 209.395981 
z
" style="fill: #e74c3c; stroke: #e74c3c; stroke-width: 1.5; stroke-linecap: round"/>
   </g>
   <g id="text_12">
    <g id="patch_19">
     <path d="M 545.46796 246.79731 
L 556.92046 246.79731 
Q 557.82046 246.79731 557.82046 245.89731 
L 557.82046 237.186998 
Q 557.82046 236.286998 556.92046 236.286998 
L 545.46796 236.286998 
Q 544.56796 236.286998 544.56796 237.186998 
L 544.56796 245.89731 
Q 544.56796 246.79731 545.46796 246.79731 
z
" style="fill: #fff3f3; opacity: 0.9; stroke: #e74c3c; stroke-width: 0.5; stroke-linejoin: miter"/>
    </g>
    <!-- 5€ -->
    <g transform="translate(545.46796 244.025591) scale(0.09 -0.09)">
     <use xlink:href="#DejaVuSans-35"/>
     <use xlink:href="#DejaVuSans-20ac" transform="translate(63.623047 0)"/>
    </g>
   </g>
   <g id="patch_20">
    <path d="M 579.527735 112.614711 
Q 522.669871 139.964831 496.046911 195.311593 
" style="fill: none; stroke: #e74c3c; stroke-width: 1.5; stroke-linecap: round"/>
    <path d="M 499.583154 192.573895 
L 496.046911 195.311593 
L 495.978498 190.83998 
z
" style="fill: #e74c3c; stroke: #e74c3c; stroke-width: 1.5; stroke-linecap: round"/>
   </g>
   <g id="text_13">
    <g id="patch_21">
     <path d="M 519.535296 150.674233 
L 536.714046 150.674233 
Q 537.614046 150.674233 537.614046 149.774233 
L 537.614046 141.063921 
Q 537.614046 140.163921 536.714046 140.163921 
L 519.535296 140.163921 
Q 518.635296 140.163921 518.635296 141.063921 
L 518.635296 149.774233 
Q 518.635296 150.674233 519.535296 150.674233 
z
" style="fill: #fff3f3; opacity: 0.9; stroke: #e74c3c; stroke-width: 0.5; stroke-linejoin: miter"/>
    </g>
    <!-- 10€ -->
    <g transform="translate(519.535296 147.902514) scale(0.09 -0.09)">
     <use xlink:href="#DejaVuSans-31"/>
     <use xlink:href="#DejaVuSans-30" transform="translate(63.623047 0)"/>
     <use xlink:href="#DejaVuSans-20ac" transform="translate(127.246094 0)"/>
    </g>
   </g>
   <g id="patch_22">
    <path d="M 587.720979 314.595692 
C 591.289878 314.595692 594.713085 313.177754 597.236678 310.654161 
C 599.760271 308.130568 601.17821 304.707361 601.17821 301.138462 
C 601.17821 297.569562 599.760271 294.146355 597.236678 291.622762 
C 594.713085 289.099169 591.289878 287.681231 587.720979 287.681231 
C 584.15208 287.681231 580.728873 289.099169 578.20528 291.622762 
C 575.681687 294.146355 574.263748 297.569562 574.263748 301.138462 
C 574.263748 304.707361 575.681687 308.130568 578.20528 310.654161 
C 580.728873 313.177754 584.15208 314.595692 587.720979 314.595692 
z
" clip-path="url(#pad757dafc8)" style="fill: #2c3e50; stroke: #2c3e50; stroke-linejoin: miter"/>
   </g>
   <g id="patch_23">
    <path d="M 683.844056 218.472615 
C 687.412955 218.472615 690.836162 217.054677 693.359755 214.531084 
C 695.883348 212.007491 697.301287 208.584284 697.301287 205.015385 
C 697.301287 201.446485 695.883348 198.023278 693.359755 195.499685 
C 690.836162 192.976093 687.412955 191.558154 683.844056 191.558154 
C 680.275157 191.558154 676.85195 192.976093 674.328357 195.499685 
C 671.804764 198.023278 670.386825 201.446485 670.386825 205.015385 
C 670.386825 208.584284 671.804764 212.007491 674.328357 214.531084 
C 676.85195 217.054677 680.275157 218.472615 683.844056 218.472615 
z
" clip-path="url(#pad757dafc8)" style="fill: #2c3e50; stroke: #2c3e50; stroke-linejoin: miter"/>
   </g>
   <g id="patch_24">
    <path d="M 587.720979 122.349538 
C 591.289878 122.349538 594.713085 120.9316 597.236678 118.408007 
C 599.760271 115.884414 601.17821 112.461207 601.17821 108.892308 
C 601.17821 105.323408 599.760271 101.900201 597.236678 99.376609 
C 594.713085 96.853016 591.289878 95.435077 587.720979 95.435077 
C 584.15208 95.435077 580.728873 96.853016 578.20528 99.376609 
C 575.681687 101.900201 574.263748 105.323408 574.263748 108.892308 
C 574.263748 112.461207 575.681687 115.884414 578.20528 118.408007 
C 580.728873 120.9316 584.15208 122.349538 587.720979 122.349538 
z
" clip-path="url(#pad757dafc8)" style="fill: #2c3e50; stroke: #2c3e50; stroke-linejoin: miter"/>
   </g>
   <g id="patch_25">
    <path d="M 491.597902 218.472615 
C 495.166801 218.472615 498.590008 217.054677 501.113601 214.531084 
C 503.637194 212.007491 505.055133 208.584284 505.055133 205.015385 
C 505.055133 201.446485 503.637194 198.023278 501.113601 195.499685 
C 498.590008 192.976093 495.166801 191.558154 491.597902 191.558154 
C 488.029003 191.558154 484.605796 192.976093 482.082203 195.499685 
C 479.55861 198.023278 478.140671 201.446485 478.140671 205.015385 
C 478.140671 208.584284 479.55861 212.007491 482.082203 214.531084 
C 484.605796 217.054677 488.029003 218.472615 491.597902 218.472615 
z
" clip-path="url(#pad757dafc8)" style="fill: #2c3e50; stroke: #2c3e50; stroke-linejoin: miter"/>
   </g>
   <g id="text_14">
    <!-- Nach Greedy-Vereinfachung -->
    <g transform="translate(501.247229 42.427238) scale(0.11 -0.11)">
     <defs>
      <path id="DejaVuSans-Bold-4e" d="M 588 4666 
L 1931 4666 
L 3628 1466 
L 3628 4666 
L 4769 4666 
L 4769 0 
L 3425 0 
L 1728 3200 
L 1728 0 
L 588 0 
L 588 4666 
z
" transform="scale(0.015625)"/>
      <path id="DejaVuSans-Bold-47" d="M 4781 347 
Q 4331 128 3847 18 
Q 3363 -91 2847 -91 
Q 1681 -91 1000 561 
Q 319 1213 319 2328 
Q 319 3456 1012 4103 
Q 1706 4750 2913 4750 
Q 3378 4750 3804 4662 
Q 4231 4575 4609 4403 
L 4609 3438 
Q 4219 3659 3833 3768 
Q 3447 3878 3059 3878 
Q 2341 3878 1952 3476 
Q 1563 3075 1563 2328 
Q 1563 1588 1938 1184 
Q 2313 781 3003 781 
Q 3191 781 3352 804 
Q 3513 828 3641 878 
L 3641 1784 
L 2906 1784 
L 2906 2591 
L 4781 2591 
L 4781 347 
z
" transform="scale(0.015625)"/>
      <path id="DejaVuSans-Bold-64" d="M 2919 2988 
L 2919 4863 
L 4044 4863 
L 4044 0 
L 2919 0 
L 2919 506 
Q 2688 197 2409 53 
Q 2131 -91 1766 -91 
Q 1119 -91 703 423 
Q 288 938 288 1747 
Q 288 2556 703 3070 
Q 1119 3584 1766 3584 
Q 2128 3584 2408 3439 
Q 2688 3294 2919 2988 
z
M 2181 722 
Q 2541 722 2730 984 
Q 2919 1247 2919 1747 
Q 2919 2247 2730 2509 
Q 2541 2772 2181 2772 
Q 1825 2772 1636 2509 
Q 1447 2247 1447 1747 
Q 1447 1247 1636 984 
Q 1825 722 2181 722 
z
" transform="scale(0.015625)"/>
      <path id="DejaVuSans-Bold-79" d="M 78 3500 
L 1197 3500 
L 2138 1125 
L 2938 3500 
L 4056 3500 
L 2584 -331 
Q 2363 -916 2067 -1148 
Q 1772 -1381 1288 -1381 
L 641 -1381 
L 641 -647 
L 991 -647 
Q 1275 -647 1404 -556 
Q 1534 -466 1606 -231 
L 1638 -134 
L 78 3500 
z
" transform="scale(0.015625)"/>
      <path id="DejaVuSans-Bold-2d" d="M 347 2297 
L 2309 2297 
L 2309 1388 
L 347 1388 
L 347 2297 
z
" transform="scale(0.015625)"/>
     </defs>
     <use xlink:href="#DejaVuSans-Bold-4e"/>
     <use xlink:href="#DejaVuSans-Bold-61" transform="translate(83.691406 0)"/>
     <use xlink:href="#DejaVuSans-Bold-63" transform="translate(151.171875 0)"/>
     <use xlink:href="#DejaVuSans-Bold-68" transform="translate(210.449219 0)"/>
     <use xlink:href="#DejaVuSans-Bold-20" transform="translate(281.640625 0)"/>
     <use xlink:href="#DejaVuSans-Bold-47" transform="translate(316.455078 0)"/>
     <use xlink:href="#DejaVuSans-Bold-72" transform="translate(398.535156 0)"/>
     <use xlink:href="#DejaVuSans-Bold-65" transform="translate(447.851562 0)"/>
     <use xlink:href="#DejaVuSans-Bold-65" transform="translate(515.673828 0)"/>
     <use xlink:href="#DejaVuSans-Bold-64" transform="translate(583.496094 0)"/>
     <use xlink:href="#DejaVuSans-Bold-79" transform="translate(655.078125 0)"/>
     <use xlink:href="#DejaVuSans-Bold-2d" transform="translate(720.263672 0)"/>
     <use xlink:href="#DejaVuSans-Bold-56" transform="translate(754.517578 0)"/>
     <use xlink:href="#DejaVuSans-Bold-65" transform="translate(826.410156 0)"/>
     <use xlink:href="#DejaVuSans-Bold-72" transform="translate(894.232422 0)"/>
     <use xlink:href="#DejaVuSans-Bold-65" transform="translate(943.548828 0)"/>
     <use xlink:href="#DejaVuSans-Bold-69" transform="translate(1011.371094 0)"/>
     <use xlink:href="#DejaVuSans-Bold-6e" transform="translate(1045.648438 0)"/>
     <use xlink:href="#DejaVuSans-Bold-66" transform="translate(1116.839844 0)"/>
     <use xlink:href="#DejaVuSans-Bold-61" transform="translate(1160.345703 0)"/>
     <use xlink:href="#DejaVuSans-Bold-63" transform="translate(1227.826172 0)"/>
     <use xlink:href="#DejaVuSans-Bold-68" transform="translate(1287.103516 0)"/>
     <use xlink:href="#DejaVuSans-Bold-75" transform="translate(1358.294922 0)"/>
     <use xlink:href="#DejaVuSans-Bold-6e" transform="translate(1429.486328 0)"/>
     <use xlink:href="#DejaVuSans-Bold-67" transform="translate(1500.677734 0)"/>
    </g>
    <!-- (3 Transaktionen) -->
    <g transform="translate(532.969338 54.830769) scale(0.11 -0.11)">
     <defs>
      <path id="DejaVuSans-Bold-33" d="M 2981 2516 
Q 3453 2394 3698 2092 
Q 3944 1791 3944 1325 
Q 3944 631 3412 270 
Q 2881 -91 1863 -91 
Q 1503 -91 1142 -33 
Q 781 25 428 141 
L 428 1069 
Q 766 900 1098 814 
Q 1431 728 1753 728 
Q 2231 728 2486 893 
Q 2741 1059 2741 1369 
Q 2741 1688 2480 1852 
Q 2219 2016 1709 2016 
L 1228 2016 
L 1228 2791 
L 1734 2791 
Q 2188 2791 2409 2933 
Q 2631 3075 2631 3366 
Q 2631 3634 2415 3781 
Q 2200 3928 1806 3928 
Q 1516 3928 1219 3862 
Q 922 3797 628 3669 
L 628 4550 
Q 984 4650 1334 4700 
Q 1684 4750 2022 4750 
Q 2931 4750 3382 4451 
Q 3834 4153 3834 3553 
Q 3834 3144 3618 2883 
Q 3403 2622 2981 2516 
z
" transform="scale(0.015625)"/>
     </defs>
     <use xlink:href="#DejaVuSans-Bold-28"/>
     <use xlink:href="#DejaVuSans-Bold-33" transform="translate(45.703125 0)"/>
     <use xlink:href="#DejaVuSans-Bold-20" transform="translate(115.283203 0)"/>
     <use xlink:href="#DejaVuSans-Bold-54" transform="translate(150.097656 0)"/>
     <use xlink:href="#DejaVuSans-Bold-72" transform="translate(207.310547 0)"/>
     <use xlink:href="#DejaVuSans-Bold-61" transform="translate(256.626953 0)"/>
     <use xlink:href="#DejaVuSans-Bold-6e" transform="translate(324.107422 0)"/>
     <use xlink:href="#DejaVuSans-Bold-73" transform="translate(395.298828 0)"/>
     <use xlink:href="#DejaVuSans-Bold-61" transform="translate(454.820312 0)"/>
     <use xlink:href="#DejaVuSans-Bold-6b" transform="translate(522.300781 0)"/>
     <use xlink:href="#DejaVuSans-Bold-74" transform="translate(588.804688 0)"/>
     <use xlink:href="#DejaVuSans-Bold-69" transform="translate(636.607422 0)"/>
     <use xlink:href="#DejaVuSans-Bold-6f" transform="translate(670.884766 0)"/>
     <use xlink:href="#DejaVuSans-Bold-6e" transform="translate(739.585938 0)"/>
     <use xlink:href="#DejaVuSans-Bold-65" transform="translate(810.777344 0)"/>
     <use xlink:href="#DejaVuSans-Bold-6e" transform="translate(878.599609 0)"/>
     <use xlink:href="#DejaVuSans-Bold-29" transform="translate(949.791016 0)"/>
    </g>
   </g>
   <g id="text_15">
    <!-- Alice -->
    <g style="fill: #ffffff" transform="translate(574.067854 303.897837) scale(0.1 -0.1)">
     <use xlink:href="#DejaVuSans-Bold-41"/>
     <use xlink:href="#DejaVuSans-Bold-6c" transform="translate(77.392578 0)"/>
     <use xlink:href="#DejaVuSans-Bold-69" transform="translate(111.669922 0)"/>
     <use xlink:href="#DejaVuSans-Bold-63" transform="translate(145.947266 0)"/>
     <use xlink:href="#DejaVuSans-Bold-65" transform="translate(205.224609 0)"/>
    </g>
   </g>
   <g id="text_16">
    <!-- Bob -->
    <g style="fill: #ffffff" transform="translate(673.019056 207.77476) scale(0.1 -0.1)">
     <use xlink:href="#DejaVuSans-Bold-42"/>
     <use xlink:href="#DejaVuSans-Bold-6f" transform="translate(76.220703 0)"/>
     <use xlink:href="#DejaVuSans-Bold-62" transform="translate(144.921875 0)"/>
    </g>
   </g>
   <g id="text_17">
    <!-- Carol -->
    <g style="fill: #ffffff" transform="translate(573.062385 111.651683) scale(0.1 -0.1)">
     <use xlink:href="#DejaVuSans-Bold-43"/>
     <use xlink:href="#DejaVuSans-Bold-61" transform="translate(73.388672 0)"/>
     <use xlink:href="#DejaVuSans-Bold-72" transform="translate(140.869141 0)"/>
     <use xlink:href="#DejaVuSans-Bold-6f" transform="translate(190.185547 0)"/>
     <use xlink:href="#DejaVuSans-Bold-6c" transform="translate(258.886719 0)"/>
    </g>
   </g>
   <g id="text_18">
    <!-- Dave -->
    <g style="fill: #ffffff" transform="translate(477.422121 207.77476) scale(0.1 -0.1)">
     <use xlink:href="#DejaVuSans-Bold-44"/>
     <use xlink:href="#DejaVuSans-Bold-61" transform="translate(83.007812 0)"/>
     <use xlink:href="#DejaVuSans-Bold-76" transform="translate(150.488281 0)"/>
     <use xlink:href="#DejaVuSans-Bold-65" transform="translate(215.673828 0)"/>
    </g>
   </g>
  </g>
  <g id="text_19">
   <!-- Schuldenausgleich: Greedy Net-Balance-Reduktion -->
   <g transform="translate(182.955063 17.077969) scale(0.13 -0.13)">
    <defs>
     <path id="DejaVuSans-Bold-53" d="M 3834 4519 
L 3834 3531 
Q 3450 3703 3084 3790 
Q 2719 3878 2394 3878 
Q 1963 3878 1756 3759 
Q 1550 3641 1550 3391 
Q 1550 3203 1689 3098 
Q 1828 2994 2194 2919 
L 2706 2816 
Q 3484 2659 3812 2340 
Q 4141 2022 4141 1434 
Q 4141 663 3683 286 
Q 3225 -91 2284 -91 
Q 1841 -91 1394 -6 
Q 947 78 500 244 
L 500 1259 
Q 947 1022 1364 901 
Q 1781 781 2169 781 
Q 2563 781 2772 912 
Q 2981 1044 2981 1288 
Q 2981 1506 2839 1625 
Q 2697 1744 2272 1838 
L 1806 1941 
Q 1106 2091 782 2419 
Q 459 2747 459 3303 
Q 459 4000 909 4375 
Q 1359 4750 2203 4750 
Q 2588 4750 2994 4692 
Q 3400 4634 3834 4519 
z
" transform="scale(0.015625)"/>
     <path id="DejaVuSans-Bold-3a" d="M 716 3500 
L 1844 3500 
L 1844 2291 
L 716 2291 
L 716 3500 
z
M 716 1209 
L 1844 1209 
L 1844 0 
L 716 0 
L 716 1209 
z
" transform="scale(0.015625)"/>
     <path id="DejaVuSans-Bold-52" d="M 2297 2597 
Q 2675 2597 2839 2737 
Q 3003 2878 3003 3200 
Q 3003 3519 2839 3656 
Q 2675 3794 2297 3794 
L 1791 3794 
L 1791 2597 
L 2297 2597 
z
M 1791 1766 
L 1791 0 
L 588 0 
L 588 4666 
L 2425 4666 
Q 3347 4666 3776 4356 
Q 4206 4047 4206 3378 
Q 4206 2916 3982 2619 
Q 3759 2322 3309 2181 
Q 3556 2125 3751 1926 
Q 3947 1728 4147 1325 
L 4800 0 
L 3519 0 
L 2950 1159 
Q 2778 1509 2601 1637 
Q 2425 1766 2131 1766 
L 1791 1766 
z
" transform="scale(0.015625)"/>
    </defs>
    <use xlink:href="#DejaVuSans-Bold-53"/>
    <use xlink:href="#DejaVuSans-Bold-63" transform="translate(72.021484 0)"/>
    <use xlink:href="#DejaVuSans-Bold-68" transform="translate(131.298828 0)"/>
    <use xlink:href="#DejaVuSans-Bold-75" transform="translate(202.490234 0)"/>
    <use xlink:href="#DejaVuSans-Bold-6c" transform="translate(273.681641 0)"/>
    <use xlink:href="#DejaVuSans-Bold-64" transform="translate(307.958984 0)"/>
    <use xlink:href="#DejaVuSans-Bold-65" transform="translate(379.541016 0)"/>
    <use xlink:href="#DejaVuSans-Bold-6e" transform="translate(447.363281 0)"/>
    <use xlink:href="#DejaVuSans-Bold-61" transform="translate(518.554688 0)"/>
    <use xlink:href="#DejaVuSans-Bold-75" transform="translate(586.035156 0)"/>
    <use xlink:href="#DejaVuSans-Bold-73" transform="translate(657.226562 0)"/>
    <use xlink:href="#DejaVuSans-Bold-67" transform="translate(716.748047 0)"/>
    <use xlink:href="#DejaVuSans-Bold-6c" transform="translate(788.330078 0)"/>
    <use xlink:href="#DejaVuSans-Bold-65" transform="translate(822.607422 0)"/>
    <use xlink:href="#DejaVuSans-Bold-69" transform="translate(890.429688 0)"/>
    <use xlink:href="#DejaVuSans-Bold-63" transform="translate(924.707031 0)"/>
    <use xlink:href="#DejaVuSans-Bold-68" transform="translate(983.984375 0)"/>
    <use xlink:href="#DejaVuSans-Bold-3a" transform="translate(1055.175781 0)"/>
    <use xlink:href="#DejaVuSans-Bold-20" transform="translate(1095.166016 0)"/>
    <use xlink:href="#DejaVuSans-Bold-47" transform="translate(1129.980469 0)"/>
    <use xlink:href="#DejaVuSans-Bold-72" transform="translate(1212.060547 0)"/>
    <use xlink:href="#DejaVuSans-Bold-65" transform="translate(1261.376953 0)"/>
    <use xlink:href="#DejaVuSans-Bold-65" transform="translate(1329.199219 0)"/>
    <use xlink:href="#DejaVuSans-Bold-64" transform="translate(1397.021484 0)"/>
    <use xlink:href="#DejaVuSans-Bold-79" transform="translate(1468.603516 0)"/>
    <use xlink:href="#DejaVuSans-Bold-20" transform="translate(1533.789062 0)"/>
    <use xlink:href="#DejaVuSans-Bold-4e" transform="translate(1568.603516 0)"/>
    <use xlink:href="#DejaVuSans-Bold-65" transform="translate(1652.294922 0)"/>
    <use xlink:href="#DejaVuSans-Bold-74" transform="translate(1720.117188 0)"/>
    <use xlink:href="#DejaVuSans-Bold-2d" transform="translate(1767.919922 0)"/>
    <use xlink:href="#DejaVuSans-Bold-42" transform="translate(1809.423828 0)"/>
    <use xlink:href="#DejaVuSans-Bold-61" transform="translate(1885.644531 0)"/>
    <use xlink:href="#DejaVuSans-Bold-6c" transform="translate(1953.125 0)"/>
    <use xlink:href="#DejaVuSans-Bold-61" transform="translate(1987.402344 0)"/>
    <use xlink:href="#DejaVuSans-Bold-6e" transform="translate(2054.882812 0)"/>
    <use xlink:href="#DejaVuSans-Bold-63" transform="translate(2126.074219 0)"/>
    <use xlink:href="#DejaVuSans-Bold-65" transform="translate(2185.351562 0)"/>
    <use xlink:href="#DejaVuSans-Bold-2d" transform="translate(2253.173828 0)"/>
    <use xlink:href="#DejaVuSans-Bold-52" transform="translate(2294.677734 0)"/>
    <use xlink:href="#DejaVuSans-Bold-65" transform="translate(2371.679688 0)"/>
    <use xlink:href="#DejaVuSans-Bold-64" transform="translate(2439.501953 0)"/>
    <use xlink:href="#DejaVuSans-Bold-75" transform="translate(2511.083984 0)"/>
    <use xlink:href="#DejaVuSans-Bold-6b" transform="translate(2582.275391 0)"/>
    <use xlink:href="#DejaVuSans-Bold-74" transform="translate(2648.779297 0)"/>
    <use xlink:href="#DejaVuSans-Bold-69" transform="translate(2696.582031 0)"/>
    <use xlink:href="#DejaVuSans-Bold-6f" transform="translate(2730.859375 0)"/>
    <use xlink:href="#DejaVuSans-Bold-6e" transform="translate(2799.560547 0)"/>
   </g>
  </g>
 </g>
 <defs>
  <clipPath id="pc827b01cee">
   <rect x="7.2" y="60.830769" width="288.369231" height="288.369231"/>
  </clipPath>
  <clipPath id="pad757dafc8">
   <rect x="443.536364" y="60.830769" width="288.369231" height="288.369231"/>
  </clipPath>
 </defs>
</svg>
