<?xml version="1.0" encoding="utf-8" standalone="no"?>
<!DOCTYPE svg PUBLIC "-//W3C//DTD SVG 1.1//EN"
  "http://www.w3.org/Graphics/SVG/1.1/DTD/svg11.dtd">
<svg xmlns:xlink="http://www.w3.org/1999/xlink" width="928.8pt" height="286.179231pt" viewBox="0 0 928.8 286.179231" xmlns="http://www.w3.org/2000/svg" version="1.1">
 <metadata>
  <rdf:RDF xmlns:dc="http://purl.org/dc/elements/1.1/" xmlns:cc="http://creativecommons.org/ns#" xmlns:rdf="http://www.w3.org/1999/02/22-rdf-syntax-ns#">
   <cc:Work>
    <dc:type rdf:resource="http://purl.org/dc/dcmitype/StillImage"/>
    <dc:date>2026-03-19T04:26:29.157344</dc:date>
    <dc:format>image/svg+xml</dc:format>
    <dc:creator>
     <cc:Agent>
      <dc:title>Matplotlib v3.10.8, https://matplotlib.org/</dc:title>
     </cc:Agent>
    </dc:creator>
   </cc:Work>
  </rdf:RDF>
 </metadata>
 <defs>
  <style type="text/css">*{stroke-linejoin: round; stroke-linecap: butt}</style>
 </defs>
 <g id="figure_1">
  <g id="patch_1">
   <path d="M 0 286.179231 
L 928.8 286.179231 
L 928.8 -0 
L 0 -0 
z
" style="fill: #ffffff"/>
  </g>
  <g id="axes_1">
   <g id="patch_2">
    <path d="M 81.81524 171.790337 
Q 117.449874 183.308084 150.956818 172.478121 
" style="fill: none; stroke: #e74c3c; stroke-width: 2; stroke-linecap: round"/>
    <path d="M 146.535591 171.805256 
L 150.956818 172.478121 
L 147.76579 175.611384 
z
" style="fill: #e74c3c; stroke: #e74c3c; stroke-width: 2; stroke-linecap: round"/>
   </g>
   <g id="patch_3">
    <path d="M 153.08476 165.668125 
Q 117.450126 154.150378 83.943182 164.980341 
" style="fill: none; stroke: #e74c3c; stroke-width: 2; stroke-linecap: round"/>
    <path d="M 88.364409 165.653205 
L 83.943182 164.980341 
L 87.13421 161.847078 
z
" style="fill: #e74c3c; stroke: #e74c3c; stroke-width: 2; stroke-linecap: round"/>
   </g>
   <g id="patch_4">
    <path d="M 73.35 179.754231 
C 76.273864 179.754231 79.078368 178.592567 81.145852 176.525083 
C 83.213336 174.457599 84.375 171.653095 84.375 168.729231 
C 84.375 165.805367 83.213336 163.000863 81.145852 160.933379 
C 79.078368 158.865894 76.273864 157.704231 73.35 157.704231 
C 70.426136 157.704231 67.621632 158.865894 65.554148 160.933379 
C 63.486664 163.000863 62.325 165.805367 62.325 168.729231 
C 62.325 171.653095 63.486664 174.457599 65.554148 176.525083 
C 67.621632 178.592567 70.426136 179.754231 73.35 179.754231 
z
" clip-path="url(#p67c7601bbe)" style="fill: #e74c3c; stroke: #e74c3c; stroke-linejoin: miter"/>
   </g>
   <g id="patch_5">
    <path d="M 161.55 179.754231 
C 164.473864 179.754231 167.278368 178.592567 169.345852 176.525083 
C 171.413336 174.457599 172.575 171.653095 172.575 168.729231 
C 172.575 165.805367 171.413336 163.000863 169.345852 160.933379 
C 167.278368 158.865894 164.473864 157.704231 161.55 157.704231 
C 158.626136 157.704231 155.821632 158.865894 153.754148 160.933379 
C 151.686664 163.000863 150.525 165.805367 150.525 168.729231 
C 150.525 171.653095 151.686664 174.457599 153.754148 176.525083 
C 155.821632 178.592567 158.626136 179.754231 161.55 179.754231 
z
" clip-path="url(#p67c7601bbe)" style="fill: #e74c3c; stroke: #e74c3c; stroke-linejoin: miter"/>
   </g>
   <g id="text_1">
    <!-- Wash-Trading -->
    <g transform="translate(75.96625 38.0757) scale(0.11 -0.11)">
     <defs>
      <path id="DejaVuSans-Bold-57" d="M 191 4666 
L 1344 4666 
L 2150 1275 
L 2950 4666 
L 4109 4666 
L 4909 1275 
L 5716 4666 
L 6859 4666 
L 5759 0 
L 4372 0 
L 3525 3547 
L 2688 0 
L 1300 0 
L 191 4666 
z
" transform="scale(0.015625)"/>
      <path id="DejaVuSans-Bold-61" d="M 2106 1575 
Q 1756 1575 1579 1456 
Q 1403 1338 1403 1106 
Q 1403 894 1545 773 
Q 1688 653 1941 653 
Q 2256 653 2472 879 
Q 2688 1106 2688 1447 
L 2688 1575 
L 2106 1575 
z
M 3816 1997 
L 3816 0 
L 2688 0 
L 2688 519 
Q 2463 200 2181 54 
Q 1900 -91 1497 -91 
Q 953 -91 614 226 
Q 275 544 275 1050 
Q 275 1666 698 1953 
Q 1122 2241 2028 2241 
L 2688 2241 
L 2688 2328 
Q 2688 2594 2478 2717 
Q 2269 2841 1825 2841 
Q 1466 2841 1156 2769 
Q 847 2697 581 2553 
L 581 3406 
Q 941 3494 1303 3539 
Q 1666 3584 2028 3584 
Q 2975 3584 3395 3211 
Q 3816 2838 3816 1997 
z
" transform="scale(0.015625)"/>
      <path id="DejaVuSans-Bold-73" d="M 3272 3391 
L 3272 2541 
Q 2913 2691 2578 2766 
Q 2244 2841 1947 2841 
Q 1628 2841 1473 2761 
Q 1319 2681 1319 2516 
Q 1319 2381 1436 2309 
Q 1553 2238 1856 2203 
L 2053 2175 
Q 2913 2066 3209 1816 
Q 3506 1566 3506 1031 
Q 3506 472 3093 190 
Q 2681 -91 1863 -91 
Q 1516 -91 1145 -36 
Q 775 19 384 128 
L 384 978 
Q 719 816 1070 734 
Q 1422 653 1784 653 
Q 2113 653 2278 743 
Q 2444 834 2444 1013 
Q 2444 1163 2330 1236 
Q 2216 1309 1875 1350 
L 1678 1375 
Q 931 1469 631 1722 
Q 331 1975 331 2491 
Q 331 3047 712 3315 
Q 1094 3584 1881 3584 
Q 2191 3584 2531 3537 
Q 2872 3491 3272 3391 
z
" transform="scale(0.015625)"/>
      <path id="DejaVuSans-Bold-68" d="M 4056 2131 
L 4056 0 
L 2931 0 
L 2931 347 
L 2931 1625 
Q 2931 2084 2911 2256 
Q 2891 2428 2841 2509 
Q 2775 2619 2662 2680 
Q 2550 2741 2406 2741 
Q 2056 2741 1856 2470 
Q 1656 2200 1656 1722 
L 1656 0 
L 538 0 
L 538 4863 
L 1656 4863 
L 1656 2988 
Q 1909 3294 2193 3439 
Q 2478 3584 2822 3584 
Q 3428 3584 3742 3212 
Q 4056 2841 4056 2131 
z
" transform="scale(0.015625)"/>
      <path id="DejaVuSans-Bold-2d" d="M 347 2297 
L 2309 2297 
L 2309 1388 
L 347 1388 
L 347 2297 
z
" transform="scale(0.015625)"/>
      <path id="DejaVuSans-Bold-54" d="M 31 4666 
L 4331 4666 
L 4331 3756 
L 2784 3756 
L 2784 0 
L 1581 0 
L 1581 3756 
L 31 3756 
L 31 4666 
z
" transform="scale(0.015625)"/>
      <path id="DejaVuSans-Bold-72" d="M 3138 2547 
Q 2991 2616 2845 2648 
Q 2700 2681 2553 2681 
Q 2122 2681 1889 2404 
Q 1656 2128 1656 1613 
L 1656 0 
L 538 0 
L 538 3500 
L 1656 3500 
L 1656 2925 
Q 1872 3269 2151 3426 
Q 2431 3584 2822 3584 
Q 2878 3584 2943 3579 
Q 3009 3575 3134 3559 
L 3138 2547 
z
" transform="scale(0.015625)"/>
      <path id="DejaVuSans-Bold-64" d="M 2919 2988 
L 2919 4863 
L 4044 4863 
L 4044 0 
L 2919 0 
L 2919 506 
Q 2688 197 2409 53 
Q 2131 -91 1766 -91 
Q 1119 -91 703 423 
Q 288 938 288 1747 
Q 288 2556 703 3070 
Q 1119 3584 1766 3584 
Q 2128 3584 2408 3439 
Q 2688 3294 2919 2988 
z
M 2181 722 
Q 2541 722 2730 984 
Q 2919 1247 2919 1747 
Q 2919 2247 2730 2509 
Q 2541 2772 2181 2772 
Q 1825 2772 1636 2509 
Q 1447 2247 1447 1747 
Q 1447 1247 1636 984 
Q 1825 722 2181 722 
z
" transform="scale(0.015625)"/>
      <path id="DejaVuSans-Bold-69" d="M 538 3500 
L 1656 3500 
L 1656 0 
L 538 0 
L 538 3500 
z
M 538 4863 
L 1656 4863 
L 1656 3950 
L 538 3950 
L 538 4863 
z
" transform="scale(0.015625)"/>
      <path id="DejaVuSans-Bold-6e" d="M 4056 2131 
L 4056 0 
L 2931 0 
L 2931 347 
L 2931 1631 
Q 2931 2084 2911 2256 
Q 2891 2428 2841 2509 
Q 2775 2619 2662 2680 
Q 2550 2741 2406 2741 
Q 2056 2741 1856 2470 
Q 1656 2200 1656 1722 
L 1656 0 
L 538 0 
L 538 3500 
L 1656 3500 
L 1656 2988 
Q 1909 3294 2193 3439 
Q 2478 3584 2822 3584 
Q 3428 3584 3742 3212 
Q 4056 2841 4056 2131 
z
" transform="scale(0.015625)"/>
      <path id="DejaVuSans-Bold-67" d="M 2919 594 
Q 2688 288 2409 144 
Q 2131 0 1766 0 
Q 1125 0 706 504 
Q 288 1009 288 1791 
Q 288 2575 706 3076 
Q 1125 3578 1766 3578 
Q 2131 3578 2409 3434 
Q 2688 3291 2919 2981 
L 2919 3500 
L 4044 3500 
L 4044 353 
Q 4044 -491 3511 -936 
Q 2978 -1381 1966 -1381 
Q 1638 -1381 1331 -1331 
Q 1025 -1281 716 -1178 
L 716 -306 
Q 1009 -475 1290 -558 
Q 1572 -641 1856 -641 
Q 2406 -641 2662 -400 
Q 2919 -159 2919 353 
L 2919 594 
z
M 2181 2772 
Q 1834 2772 1640 2515 
Q 1447 2259 1447 1791 
Q 1447 1309 1634 1061 
Q 1822 813 2181 813 
Q 2531 813 2725 1069 
Q 2919 1325 2919 1791 
Q 2919 2259 2725 2515 
Q 2531 2772 2181 2772 
z
" transform="scale(0.015625)"/>
     </defs>
     <use xlink:href="#DejaVuSans-Bold-57"/>
     <use xlink:href="#DejaVuSans-Bold-61" transform="translate(106.677734 0)"/>
     <use xlink:href="#DejaVuSans-Bold-73" transform="translate(174.158203 0)"/>
     <use xlink:href="#DejaVuSans-Bold-68" transform="translate(233.679688 0)"/>
     <use xlink:href="#DejaVuSans-Bold-2d" transform="translate(304.871094 0)"/>
     <use xlink:href="#DejaVuSans-Bold-54" transform="translate(331.625 0)"/>
     <use xlink:href="#DejaVuSans-Bold-72" transform="translate(388.837891 0)"/>
     <use xlink:href="#DejaVuSans-Bold-61" transform="translate(438.154297 0)"/>
     <use xlink:href="#DejaVuSans-Bold-64" transform="translate(505.634766 0)"/>
     <use xlink:href="#DejaVuSans-Bold-69" transform="translate(577.216797 0)"/>
     <use xlink:href="#DejaVuSans-Bold-6e" transform="translate(611.494141 0)"/>
     <use xlink:href="#DejaVuSans-Bold-67" transform="translate(682.685547 0)"/>
    </g>
    <!-- A → B → A -->
    <g transform="translate(87.868594 50.479231) scale(0.11 -0.11)">
     <defs>
      <path id="DejaVuSans-Bold-41" d="M 3419 850 
L 1538 850 
L 1241 0 
L 31 0 
L 1759 4666 
L 3194 4666 
L 4922 0 
L 3713 0 
L 3419 850 
z
M 1838 1716 
L 3116 1716 
L 2478 3572 
L 1838 1716 
z
" transform="scale(0.015625)"/>
      <path id="DejaVuSans-Bold-20" transform="scale(0.015625)"/>
      <path id="DejaVuSans-Bold-2192" d="M 5050 2225 
L 5050 1788 
L 3822 559 
L 3369 1013 
L 3988 1631 
L 366 1631 
L 366 2381 
L 3988 2381 
L 3369 3000 
L 3822 3453 
L 5050 2225 
z
" transform="scale(0.015625)"/>
      <path id="DejaVuSans-Bold-42" d="M 2456 2859 
Q 2741 2859 2887 2984 
Q 3034 3109 3034 3353 
Q 3034 3594 2887 3720 
Q 2741 3847 2456 3847 
L 1791 3847 
L 1791 2859 
L 2456 2859 
z
M 2497 819 
Q 2859 819 3042 972 
Q 3225 1125 3225 1434 
Q 3225 1738 3044 1889 
Q 2863 2041 2497 2041 
L 1791 2041 
L 1791 819 
L 2497 819 
z
M 3616 2497 
Q 4003 2384 4215 2081 
Q 4428 1778 4428 1338 
Q 4428 663 3972 331 
Q 3516 0 2584 0 
L 588 0 
L 588 4666 
L 2394 4666 
Q 3366 4666 3802 4372 
Q 4238 4078 4238 3431 
Q 4238 3091 4078 2852 
Q 3919 2613 3616 2497 
z
" transform="scale(0.015625)"/>
     </defs>
     <use xlink:href="#DejaVuSans-Bold-41"/>
     <use xlink:href="#DejaVuSans-Bold-20" transform="translate(77.392578 0)"/>
     <use xlink:href="#DejaVuSans-Bold-2192" transform="translate(112.207031 0)"/>
     <use xlink:href="#DejaVuSans-Bold-20" transform="translate(195.996094 0)"/>
     <use xlink:href="#DejaVuSans-Bold-42" transform="translate(230.810547 0)"/>
     <use xlink:href="#DejaVuSans-Bold-20" transform="translate(307.03125 0)"/>
     <use xlink:href="#DejaVuSans-Bold-2192" transform="translate(341.845703 0)"/>
     <use xlink:href="#DejaVuSans-Bold-20" transform="translate(425.634766 0)"/>
     <use xlink:href="#DejaVuSans-Bold-41" transform="translate(460.449219 0)"/>
    </g>
   </g>
   <g id="text_2">
    <!-- A -->
    <g style="fill: #ffffff" transform="translate(69.480469 171.488606) scale(0.1 -0.1)">
     <use xlink:href="#DejaVuSans-Bold-41"/>
    </g>
   </g>
   <g id="text_3">
    <!-- B -->
    <g style="fill: #ffffff" transform="translate(157.739063 171.488606) scale(0.1 -0.1)">
     <use xlink:href="#DejaVuSans-Bold-42"/>
    </g>
   </g>
  </g>
  <g id="axes_2">
   <g id="patch_6">
    <path d="M 341.177887 144.19658 
Q 309.089649 165.818432 288.717238 196.052214 
" style="fill: none; stroke: #e74c3c; stroke-width: 2; stroke-linecap: round"/>
    <path d="M 292.611058 193.852631 
L 288.717238 196.052214 
L 289.293864 191.617408 
z
" style="fill: #e74c3c; stroke: #e74c3c; stroke-width: 2; stroke-linecap: round"/>
   </g>
   <g id="patch_7">
    <path d="M 344.610848 147.322007 
Q 329.847303 177.604273 327.368301 208.959692 
" style="fill: none; stroke: #e74c3c; stroke-width: 2; stroke-linecap: round"/>
    <path d="M 329.677341 205.129766 
L 327.368301 208.959692 
L 325.689784 204.814505 
z
" style="fill: #e74c3c; stroke: #e74c3c; stroke-width: 2; stroke-linecap: round"/>
   </g>
   <g id="patch_8">
    <path d="M 349.241833 148.316731 
Q 351.896544 181.901406 365.679694 210.173876 
" style="fill: none; stroke: #e74c3c; stroke-width: 2; stroke-linecap: round"/>
    <path d="M 365.724596 205.701965 
L 365.679694 210.173876 
L 362.129107 207.454807 
z
" style="fill: #e74c3c; stroke: #e74c3c; stroke-width: 2; stroke-linecap: round"/>
   </g>
   <g id="patch_9">
    <path d="M 353.61735 146.901343 
Q 375.239201 178.989581 405.472984 199.361992 
" style="fill: none; stroke: #e74c3c; stroke-width: 2; stroke-linecap: round"/>
    <path d="M 403.273401 195.468172 
L 405.472984 199.361992 
L 401.038178 198.785367 
z
" style="fill: #e74c3c; stroke: #e74c3c; stroke-width: 2; stroke-linecap: round"/>
   </g>
   <g id="patch_10">
    <path d="M 348.75 150.354231 
C 351.673864 150.354231 354.478368 149.192567 356.545852 147.125083 
C 358.613336 145.057599 359.775 142.253095 359.775 139.329231 
C 359.775 136.405367 358.613336 133.600863 356.545852 131.533379 
C 354.478368 129.465894 351.673864 128.304231 348.75 128.304231 
C 345.826136 128.304231 343.021632 129.465894 340.954148 131.533379 
C 338.886664 133.600863 337.725 136.405367 337.725 139.329231 
C 337.725 142.253095 338.886664 145.057599 340.954148 147.125083 
C 343.021632 149.192567 345.826136 150.354231 348.75 150.354231 
z
" clip-path="url(#p0f3d571d73)" style="fill: #e74c3c; stroke: #e74c3c; stroke-linejoin: miter"/>
   </g>
   <g id="patch_11">
    <path d="M 282.6 216.504231 
C 285.523864 216.504231 288.328368 215.342567 290.395852 213.275083 
C 292.463336 211.207599 293.625 208.403095 293.625 205.479231 
C 293.625 202.555367 292.463336 199.750863 290.395852 197.683379 
C 288.328368 195.615894 285.523864 194.454231 282.6 194.454231 
C 279.676136 194.454231 276.871632 195.615894 274.804148 197.683379 
C 272.736664 199.750863 271.575 202.555367 271.575 205.479231 
C 271.575 208.403095 272.736664 211.207599 274.804148 213.275083 
C 276.871632 215.342567 279.676136 216.504231 282.6 216.504231 
z
" clip-path="url(#p0f3d571d73)" style="fill: #e74c3c; stroke: #e74c3c; stroke-linejoin: miter"/>
   </g>
   <g id="patch_12">
    <path d="M 326.7 231.204231 
C 329.623864 231.204231 332.428368 230.042567 334.495852 227.975083 
C 336.563336 225.907599 337.725 223.103095 337.725 220.179231 
C 337.725 217.255367 336.563336 214.450863 334.495852 212.383379 
C 332.428368 210.315894 329.623864 209.154231 326.7 209.154231 
C 323.776136 209.154231 320.971632 210.315894 318.904148 212.383379 
C 316.836664 214.450863 315.675 217.255367 315.675 220.179231 
C 315.675 223.103095 316.836664 225.907599 318.904148 227.975083 
C 320.971632 230.042567 323.776136 231.204231 326.7 231.204231 
z
" clip-path="url(#p0f3d571d73)" style="fill: #e74c3c; stroke: #e74c3c; stroke-linejoin: miter"/>
   </g>
   <g id="patch_13">
    <path d="M 370.8 231.204231 
C 373.723864 231.204231 376.528368 230.042567 378.595852 227.975083 
C 380.663336 225.907599 381.825 223.103095 381.825 220.179231 
C 381.825 217.255367 380.663336 214.450863 378.595852 212.383379 
C 376.528368 210.315894 373.723864 209.154231 370.8 209.154231 
C 367.876136 209.154231 365.071632 210.315894 363.004148 212.383379 
C 360.936664 214.450863 359.775 217.255367 359.775 220.179231 
C 359.775 223.103095 360.936664 225.907599 363.004148 227.975083 
C 365.071632 230.042567 367.876136 231.204231 370.8 231.204231 
z
" clip-path="url(#p0f3d571d73)" style="fill: #e74c3c; stroke: #e74c3c; stroke-linejoin: miter"/>
   </g>
   <g id="patch_14">
    <path d="M 414.9 216.504231 
C 417.823864 216.504231 420.628368 215.342567 422.695852 213.275083 
C 424.763336 211.207599 425.925 208.403095 425.925 205.479231 
C 425.925 202.555367 424.763336 199.750863 422.695852 197.683379 
C 420.628368 195.615894 417.823864 194.454231 414.9 194.454231 
C 411.976136 194.454231 409.171632 195.615894 407.104148 197.683379 
C 405.036664 199.750863 403.875 202.555367 403.875 205.479231 
C 403.875 208.403095 405.036664 211.207599 407.104148 213.275083 
C 409.171632 215.342567 411.976136 216.504231 414.9 216.504231 
z
" clip-path="url(#p0f3d571d73)" style="fill: #e74c3c; stroke: #e74c3c; stroke-linejoin: miter"/>
   </g>
   <g id="text_4">
    <!-- Smurfing -->
    <g transform="translate(320.300391 38.0757) scale(0.11 -0.11)">
     <defs>
      <path id="DejaVuSans-Bold-53" d="M 3834 4519 
L 3834 3531 
Q 3450 3703 3084 3790 
Q 2719 3878 2394 3878 
Q 1963 3878 1756 3759 
Q 1550 3641 1550 3391 
Q 1550 3203 1689 3098 
Q 1828 2994 2194 2919 
L 2706 2816 
Q 3484 2659 3812 2340 
Q 4141 2022 4141 1434 
Q 4141 663 3683 286 
Q 3225 -91 2284 -91 
Q 1841 -91 1394 -6 
Q 947 78 500 244 
L 500 1259 
Q 947 1022 1364 901 
Q 1781 781 2169 781 
Q 2563 781 2772 912 
Q 2981 1044 2981 1288 
Q 2981 1506 2839 1625 
Q 2697 1744 2272 1838 
L 1806 1941 
Q 1106 2091 782 2419 
Q 459 2747 459 3303 
Q 459 4000 909 4375 
Q 1359 4750 2203 4750 
Q 2588 4750 2994 4692 
Q 3400 4634 3834 4519 
z
" transform="scale(0.015625)"/>
      <path id="DejaVuSans-Bold-6d" d="M 3781 2919 
Q 3994 3244 4286 3414 
Q 4578 3584 4928 3584 
Q 5531 3584 5847 3212 
Q 6163 2841 6163 2131 
L 6163 0 
L 5038 0 
L 5038 1825 
Q 5041 1866 5042 1909 
Q 5044 1953 5044 2034 
Q 5044 2406 4934 2573 
Q 4825 2741 4581 2741 
Q 4263 2741 4089 2478 
Q 3916 2216 3909 1719 
L 3909 0 
L 2784 0 
L 2784 1825 
Q 2784 2406 2684 2573 
Q 2584 2741 2328 2741 
Q 2006 2741 1831 2477 
Q 1656 2213 1656 1722 
L 1656 0 
L 531 0 
L 531 3500 
L 1656 3500 
L 1656 2988 
Q 1863 3284 2130 3434 
Q 2397 3584 2719 3584 
Q 3081 3584 3359 3409 
Q 3638 3234 3781 2919 
z
" transform="scale(0.015625)"/>
      <path id="DejaVuSans-Bold-75" d="M 500 1363 
L 500 3500 
L 1625 3500 
L 1625 3150 
Q 1625 2866 1622 2436 
Q 1619 2006 1619 1863 
Q 1619 1441 1641 1255 
Q 1663 1069 1716 984 
Q 1784 875 1895 815 
Q 2006 756 2150 756 
Q 2500 756 2700 1025 
Q 2900 1294 2900 1772 
L 2900 3500 
L 4019 3500 
L 4019 0 
L 2900 0 
L 2900 506 
Q 2647 200 2364 54 
Q 2081 -91 1741 -91 
Q 1134 -91 817 281 
Q 500 653 500 1363 
z
" transform="scale(0.015625)"/>
      <path id="DejaVuSans-Bold-66" d="M 2841 4863 
L 2841 4128 
L 2222 4128 
Q 1984 4128 1890 4042 
Q 1797 3956 1797 3744 
L 1797 3500 
L 2753 3500 
L 2753 2700 
L 1797 2700 
L 1797 0 
L 678 0 
L 678 2700 
L 122 2700 
L 122 3500 
L 678 3500 
L 678 3744 
Q 678 4316 997 4589 
Q 1316 4863 1984 4863 
L 2841 4863 
z
" transform="scale(0.015625)"/>
     </defs>
     <use xlink:href="#DejaVuSans-Bold-53"/>
     <use xlink:href="#DejaVuSans-Bold-6d" transform="translate(72.021484 0)"/>
     <use xlink:href="#DejaVuSans-Bold-75" transform="translate(176.220703 0)"/>
     <use xlink:href="#DejaVuSans-Bold-72" transform="translate(247.412109 0)"/>
     <use xlink:href="#DejaVuSans-Bold-66" transform="translate(296.728516 0)"/>
     <use xlink:href="#DejaVuSans-Bold-69" transform="translate(340.234375 0)"/>
     <use xlink:href="#DejaVuSans-Bold-6e" transform="translate(374.511719 0)"/>
     <use xlink:href="#DejaVuSans-Bold-67" transform="translate(445.703125 0)"/>
    </g>
    <!-- Stern-Verteilung -->
    <g transform="translate(297.624063 50.479231) scale(0.11 -0.11)">
     <defs>
      <path id="DejaVuSans-Bold-74" d="M 1759 4494 
L 1759 3500 
L 2913 3500 
L 2913 2700 
L 1759 2700 
L 1759 1216 
Q 1759 972 1856 886 
Q 1953 800 2241 800 
L 2816 800 
L 2816 0 
L 1856 0 
Q 1194 0 917 276 
Q 641 553 641 1216 
L 641 2700 
L 84 2700 
L 84 3500 
L 641 3500 
L 641 4494 
L 1759 4494 
z
" transform="scale(0.015625)"/>
      <path id="DejaVuSans-Bold-65" d="M 4031 1759 
L 4031 1441 
L 1416 1441 
Q 1456 1047 1700 850 
Q 1944 653 2381 653 
Q 2734 653 3104 758 
Q 3475 863 3866 1075 
L 3866 213 
Q 3469 63 3072 -14 
Q 2675 -91 2278 -91 
Q 1328 -91 801 392 
Q 275 875 275 1747 
Q 275 2603 792 3093 
Q 1309 3584 2216 3584 
Q 3041 3584 3536 3087 
Q 4031 2591 4031 1759 
z
M 2881 2131 
Q 2881 2450 2695 2645 
Q 2509 2841 2209 2841 
Q 1884 2841 1681 2658 
Q 1478 2475 1428 2131 
L 2881 2131 
z
" transform="scale(0.015625)"/>
      <path id="DejaVuSans-Bold-56" d="M 31 4666 
L 1241 4666 
L 2478 1222 
L 3713 4666 
L 4922 4666 
L 3194 0 
L 1759 0 
L 31 4666 
z
" transform="scale(0.015625)"/>
      <path id="DejaVuSans-Bold-6c" d="M 538 4863 
L 1656 4863 
L 1656 0 
L 538 0 
L 538 4863 
z
" transform="scale(0.015625)"/>
     </defs>
     <use xlink:href="#DejaVuSans-Bold-53"/>
     <use xlink:href="#DejaVuSans-Bold-74" transform="translate(72.021484 0)"/>
     <use xlink:href="#DejaVuSans-Bold-65" transform="translate(119.824219 0)"/>
     <use xlink:href="#DejaVuSans-Bold-72" transform="translate(187.646484 0)"/>
     <use xlink:href="#DejaVuSans-Bold-6e" transform="translate(236.962891 0)"/>
     <use xlink:href="#DejaVuSans-Bold-2d" transform="translate(308.154297 0)"/>
     <use xlink:href="#DejaVuSans-Bold-56" transform="translate(342.408203 0)"/>
     <use xlink:href="#DejaVuSans-Bold-65" transform="translate(414.300781 0)"/>
     <use xlink:href="#DejaVuSans-Bold-72" transform="translate(482.123047 0)"/>
     <use xlink:href="#DejaVuSans-Bold-74" transform="translate(531.439453 0)"/>
     <use xlink:href="#DejaVuSans-Bold-65" transform="translate(579.242188 0)"/>
     <use xlink:href="#DejaVuSans-Bold-69" transform="translate(647.064453 0)"/>
     <use xlink:href="#DejaVuSans-Bold-6c" transform="translate(681.341797 0)"/>
     <use xlink:href="#DejaVuSans-Bold-75" transform="translate(715.619141 0)"/>
     <use xlink:href="#DejaVuSans-Bold-6e" transform="translate(786.810547 0)"/>
     <use xlink:href="#DejaVuSans-Bold-67" transform="translate(858.001953 0)"/>
    </g>
   </g>
   <g id="text_5">
    <!-- S -->
    <g style="fill: #ffffff" transform="translate(345.149219 142.088606) scale(0.1 -0.1)">
     <use xlink:href="#DejaVuSans-Bold-53"/>
    </g>
   </g>
   <g id="text_6">
    <!-- B1 -->
    <g style="fill: #ffffff" transform="translate(275.310156 208.238606) scale(0.1 -0.1)">
     <defs>
      <path id="DejaVuSans-Bold-31" d="M 750 831 
L 1813 831 
L 1813 3847 
L 722 3622 
L 722 4441 
L 1806 4666 
L 2950 4666 
L 2950 831 
L 4013 831 
L 4013 0 
L 750 0 
L 750 831 
z
" transform="scale(0.015625)"/>
     </defs>
     <use xlink:href="#DejaVuSans-Bold-42"/>
     <use xlink:href="#DejaVuSans-Bold-31" transform="translate(76.220703 0)"/>
    </g>
   </g>
   <g id="text_7">
    <!-- B2 -->
    <g style="fill: #ffffff" transform="translate(319.410156 222.938606) scale(0.1 -0.1)">
     <defs>
      <path id="DejaVuSans-Bold-32" d="M 1844 884 
L 3897 884 
L 3897 0 
L 506 0 
L 506 884 
L 2209 2388 
Q 2438 2594 2547 2791 
Q 2656 2988 2656 3200 
Q 2656 3528 2436 3728 
Q 2216 3928 1850 3928 
Q 1569 3928 1234 3808 
Q 900 3688 519 3450 
L 519 4475 
Q 925 4609 1322 4679 
Q 1719 4750 2100 4750 
Q 2938 4750 3402 4381 
Q 3866 4013 3866 3353 
Q 3866 2972 3669 2642 
Q 3472 2313 2841 1759 
L 1844 884 
z
" transform="scale(0.015625)"/>
     </defs>
     <use xlink:href="#DejaVuSans-Bold-42"/>
     <use xlink:href="#DejaVuSans-Bold-32" transform="translate(76.220703 0)"/>
    </g>
   </g>
   <g id="text_8">
    <!-- B3 -->
    <g style="fill: #ffffff" transform="translate(363.510156 222.938606) scale(0.1 -0.1)">
     <defs>
      <path id="DejaVuSans-Bold-33" d="M 2981 2516 
Q 3453 2394 3698 2092 
Q 3944 1791 3944 1325 
Q 3944 631 3412 270 
Q 2881 -91 1863 -91 
Q 1503 -91 1142 -33 
Q 781 25 428 141 
L 428 1069 
Q 766 900 1098 814 
Q 1431 728 1753 728 
Q 2231 728 2486 893 
Q 2741 1059 2741 1369 
Q 2741 1688 2480 1852 
Q 2219 2016 1709 2016 
L 1228 2016 
L 1228 2791 
L 1734 2791 
Q 2188 2791 2409 2933 
Q 2631 3075 2631 3366 
Q 2631 3634 2415 3781 
Q 2200 3928 1806 3928 
Q 1516 3928 1219 3862 
Q 922 3797 628 3669 
L 628 4550 
Q 984 4650 1334 4700 
Q 1684 4750 2022 4750 
Q 2931 4750 3382 4451 
Q 3834 4153 3834 3553 
Q 3834 3144 3618 2883 
Q 3403 2622 2981 2516 
z
" transform="scale(0.015625)"/>
     </defs>
     <use xlink:href="#DejaVuSans-Bold-42"/>
     <use xlink:href="#DejaVuSans-Bold-33" transform="translate(76.220703 0)"/>
    </g>
   </g>
   <g id="text_9">
    <!-- B4 -->
    <g style="fill: #ffffff" transform="translate(407.610156 208.238606) scale(0.1 -0.1)">
     <defs>
      <path id="DejaVuSans-Bold-34" d="M 2356 3675 
L 1038 1722 
L 2356 1722 
L 2356 3675 
z
M 2156 4666 
L 3494 4666 
L 3494 1722 
L 4159 1722 
L 4159 850 
L 3494 850 
L 3494 0 
L 2356 0 
L 2356 850 
L 288 850 
L 288 1881 
L 2156 4666 
z
" transform="scale(0.015625)"/>
     </defs>
     <use xlink:href="#DejaVuSans-Bold-42"/>
     <use xlink:href="#DejaVuSans-Bold-34" transform="translate(76.220703 0)"/>
    </g>
   </g>
  </g>
  <g id="axes_3">
   <g id="patch_15">
    <path d="M 515.377671 170.468084 
Q 531.173091 172.899869 544.758484 170.808172 
" style="fill: none; stroke: #e74c3c; stroke-width: 2; stroke-linecap: round"/>
    <path d="M 540.500722 169.440158 
L 544.758484 170.808172 
L 541.109416 173.393573 
z
" style="fill: #e74c3c; stroke: #e74c3c; stroke-width: 2; stroke-linecap: round"/>
   </g>
   <g id="patch_16">
    <path d="M 564.627112 170.463007 
Q 580.051213 172.816839 593.264846 170.800024 
" style="fill: none; stroke: #e74c3c; stroke-width: 2; stroke-linecap: round"/>
    <path d="M 589.008872 169.426457 
L 593.264846 170.800024 
L 589.612408 173.380663 
z
" style="fill: #e74c3c; stroke: #e74c3c; stroke-width: 2; stroke-linecap: round"/>
   </g>
   <g id="patch_17">
    <path d="M 613.132671 170.468084 
Q 628.928091 172.899869 642.513484 170.808172 
" style="fill: none; stroke: #e74c3c; stroke-width: 2; stroke-linecap: round"/>
    <path d="M 638.255722 169.440158 
L 642.513484 170.808172 
L 638.864416 173.393573 
z
" style="fill: #e74c3c; stroke: #e74c3c; stroke-width: 2; stroke-linecap: round"/>
   </g>
   <g id="patch_18">
    <path d="M 506.55 179.754231 
C 509.473864 179.754231 512.278368 178.592567 514.345852 176.525083 
C 516.413336 174.457599 517.575 171.653095 517.575 168.729231 
C 517.575 165.805367 516.413336 163.000863 514.345852 160.933379 
C 512.278368 158.865894 509.473864 157.704231 506.55 157.704231 
C 503.626136 157.704231 500.821632 158.865894 498.754148 160.933379 
C 496.686664 163.000863 495.525 165.805367 495.525 168.729231 
C 495.525 171.653095 496.686664 174.457599 498.754148 176.525083 
C 500.821632 178.592567 503.626136 179.754231 506.55 179.754231 
z
" clip-path="url(#p9c7e7911e5)" style="fill: #e74c3c; stroke: #e74c3c; stroke-linejoin: miter"/>
   </g>
   <g id="patch_19">
    <path d="M 555.795 179.754231 
C 558.718864 179.754231 561.523368 178.592567 563.590852 176.525083 
C 565.658336 174.457599 566.82 171.653095 566.82 168.729231 
C 566.82 165.805367 565.658336 163.000863 563.590852 160.933379 
C 561.523368 158.865894 558.718864 157.704231 555.795 157.704231 
C 552.871136 157.704231 550.066632 158.865894 547.999148 160.933379 
C 545.931664 163.000863 544.77 165.805367 544.77 168.729231 
C 544.77 171.653095 545.931664 174.457599 547.999148 176.525083 
C 550.066632 178.592567 552.871136 179.754231 555.795 179.754231 
z
" clip-path="url(#p9c7e7911e5)" style="fill: #e74c3c; stroke: #e74c3c; stroke-linejoin: miter"/>
   </g>
   <g id="patch_20">
    <path d="M 604.305 179.754231 
C 607.228864 179.754231 610.033368 178.592567 612.100852 176.525083 
C 614.168336 174.457599 615.33 171.653095 615.33 168.729231 
C 615.33 165.805367 614.168336 163.000863 612.100852 160.933379 
C 610.033368 158.865894 607.228864 157.704231 604.305 157.704231 
C 601.381136 157.704231 598.576632 158.865894 596.509148 160.933379 
C 594.441664 163.000863 593.28 165.805367 593.28 168.729231 
C 593.28 171.653095 594.441664 174.457599 596.509148 176.525083 
C 598.576632 178.592567 601.381136 179.754231 604.305 179.754231 
z
" clip-path="url(#p9c7e7911e5)" style="fill: #e74c3c; stroke: #e74c3c; stroke-linejoin: miter"/>
   </g>
   <g id="patch_21">
    <path d="M 653.55 179.754231 
C 656.473864 179.754231 659.278368 178.592567 661.345852 176.525083 
C 663.413336 174.457599 664.575 171.653095 664.575 168.729231 
C 664.575 165.805367 663.413336 163.000863 661.345852 160.933379 
C 659.278368 158.865894 656.473864 157.704231 653.55 157.704231 
C 650.626136 157.704231 647.821632 158.865894 645.754148 160.933379 
C 643.686664 163.000863 642.525 165.805367 642.525 168.729231 
C 642.525 171.653095 643.686664 174.457599 645.754148 176.525083 
C 647.821632 178.592567 650.626136 179.754231 653.55 179.754231 
z
" clip-path="url(#p9c7e7911e5)" style="fill: #e74c3c; stroke: #e74c3c; stroke-linejoin: miter"/>
   </g>
   <g id="text_10">
    <!-- Layering -->
    <g transform="translate(553.240078 38.0757) scale(0.11 -0.11)">
     <defs>
      <path id="DejaVuSans-Bold-4c" d="M 588 4666 
L 1791 4666 
L 1791 909 
L 3903 909 
L 3903 0 
L 588 0 
L 588 4666 
z
" transform="scale(0.015625)"/>
      <path id="DejaVuSans-Bold-79" d="M 78 3500 
L 1197 3500 
L 2138 1125 
L 2938 3500 
L 4056 3500 
L 2584 -331 
Q 2363 -916 2067 -1148 
Q 1772 -1381 1288 -1381 
L 641 -1381 
L 641 -647 
L 991 -647 
Q 1275 -647 1404 -556 
Q 1534 -466 1606 -231 
L 1638 -134 
L 78 3500 
z
" transform="scale(0.015625)"/>
     </defs>
     <use xlink:href="#DejaVuSans-Bold-4c"/>
     <use xlink:href="#DejaVuSans-Bold-61" transform="translate(63.720703 0)"/>
     <use xlink:href="#DejaVuSans-Bold-79" transform="translate(128.076172 0)"/>
     <use xlink:href="#DejaVuSans-Bold-65" transform="translate(193.261719 0)"/>
     <use xlink:href="#DejaVuSans-Bold-72" transform="translate(261.083984 0)"/>
     <use xlink:href="#DejaVuSans-Bold-69" transform="translate(310.400391 0)"/>
     <use xlink:href="#DejaVuSans-Bold-6e" transform="translate(344.677734 0)"/>
     <use xlink:href="#DejaVuSans-Bold-67" transform="translate(415.869141 0)"/>
    </g>
    <!-- Kettenstruktur -->
    <g transform="translate(533.807031 50.479231) scale(0.11 -0.11)">
     <defs>
      <path id="DejaVuSans-Bold-4b" d="M 588 4666 
L 1791 4666 
L 1791 2963 
L 3525 4666 
L 4922 4666 
L 2675 2456 
L 5153 0 
L 3647 0 
L 1791 1838 
L 1791 0 
L 588 0 
L 588 4666 
z
" transform="scale(0.015625)"/>
      <path id="DejaVuSans-Bold-6b" d="M 538 4863 
L 1656 4863 
L 1656 2216 
L 2944 3500 
L 4244 3500 
L 2534 1894 
L 4378 0 
L 3022 0 
L 1656 1459 
L 1656 0 
L 538 0 
L 538 4863 
z
" transform="scale(0.015625)"/>
     </defs>
     <use xlink:href="#DejaVuSans-Bold-4b"/>
     <use xlink:href="#DejaVuSans-Bold-65" transform="translate(75.740234 0)"/>
     <use xlink:href="#DejaVuSans-Bold-74" transform="translate(143.5625 0)"/>
     <use xlink:href="#DejaVuSans-Bold-74" transform="translate(191.365234 0)"/>
     <use xlink:href="#DejaVuSans-Bold-65" transform="translate(239.167969 0)"/>
     <use xlink:href="#DejaVuSans-Bold-6e" transform="translate(306.990234 0)"/>
     <use xlink:href="#DejaVuSans-Bold-73" transform="translate(378.181641 0)"/>
     <use xlink:href="#DejaVuSans-Bold-74" transform="translate(437.703125 0)"/>
     <use xlink:href="#DejaVuSans-Bold-72" transform="translate(485.505859 0)"/>
     <use xlink:href="#DejaVuSans-Bold-75" transform="translate(534.822266 0)"/>
     <use xlink:href="#DejaVuSans-Bold-6b" transform="translate(606.013672 0)"/>
     <use xlink:href="#DejaVuSans-Bold-74" transform="translate(672.517578 0)"/>
     <use xlink:href="#DejaVuSans-Bold-75" transform="translate(720.320312 0)"/>
     <use xlink:href="#DejaVuSans-Bold-72" transform="translate(791.511719 0)"/>
    </g>
   </g>
   <g id="text_11">
    <!-- A -->
    <g style="fill: #ffffff" transform="translate(502.680469 171.488606) scale(0.1 -0.1)">
     <use xlink:href="#DejaVuSans-Bold-41"/>
    </g>
   </g>
   <g id="text_12">
    <!-- B -->
    <g style="fill: #ffffff" transform="translate(551.984062 171.488606) scale(0.1 -0.1)">
     <use xlink:href="#DejaVuSans-Bold-42"/>
    </g>
   </g>
   <g id="text_13">
    <!-- C -->
    <g style="fill: #ffffff" transform="translate(600.635469 171.488606) scale(0.1 -0.1)">
     <defs>
      <path id="DejaVuSans-Bold-43" d="M 4288 256 
Q 3956 84 3597 -3 
Q 3238 -91 2847 -91 
Q 1681 -91 1000 561 
Q 319 1213 319 2328 
Q 319 3447 1000 4098 
Q 1681 4750 2847 4750 
Q 3238 4750 3597 4662 
Q 3956 4575 4288 4403 
L 4288 3438 
Q 3953 3666 3628 3772 
Q 3303 3878 2944 3878 
Q 2300 3878 1931 3465 
Q 1563 3053 1563 2328 
Q 1563 1606 1931 1193 
Q 2300 781 2944 781 
Q 3303 781 3628 887 
Q 3953 994 4288 1222 
L 4288 256 
z
" transform="scale(0.015625)"/>
     </defs>
     <use xlink:href="#DejaVuSans-Bold-43"/>
    </g>
   </g>
   <g id="text_14">
    <!-- D -->
    <g style="fill: #ffffff" transform="translate(649.399219 171.488606) scale(0.1 -0.1)">
     <defs>
      <path id="DejaVuSans-Bold-44" d="M 1791 3756 
L 1791 909 
L 2222 909 
Q 2959 909 3348 1275 
Q 3738 1641 3738 2338 
Q 3738 3031 3350 3393 
Q 2963 3756 2222 3756 
L 1791 3756 
z
M 588 4666 
L 1856 4666 
Q 2919 4666 3439 4514 
Q 3959 4363 4331 4000 
Q 4659 3684 4818 3271 
Q 4978 2859 4978 2338 
Q 4978 1809 4818 1395 
Q 4659 981 4331 666 
Q 3956 303 3431 151 
Q 2906 0 1856 0 
L 588 0 
L 588 4666 
z
" transform="scale(0.015625)"/>
     </defs>
     <use xlink:href="#DejaVuSans-Bold-44"/>
    </g>
   </g>
  </g>
  <g id="axes_4">
   <g id="patch_22">
    <path d="M 817.39691 213.511679 
Q 841.24093 185.987677 852.424056 153.689295 
" style="fill: none; stroke: #e74c3c; stroke-width: 2; stroke-linecap: round"/>
    <path d="M 849.225389 156.814761 
L 852.424056 153.689295 
L 853.005228 158.123508 
z
" style="fill: #e74c3c; stroke: #e74c3c; stroke-width: 2; stroke-linecap: round"/>
   </g>
   <g id="patch_23">
    <path d="M 847.109283 141.101229 
Q 811.350788 134.213703 777.788006 140.678023 
" style="fill: none; stroke: #e74c3c; stroke-width: 2; stroke-linecap: round"/>
    <path d="M 782.094072 141.885416 
L 777.788006 140.678023 
L 781.33756 137.957607 
z
" style="fill: #e74c3c; stroke: #e74c3c; stroke-width: 2; stroke-linecap: round"/>
   </g>
   <g id="patch_24">
    <path d="M 769.543807 151.574785 
Q 781.458282 185.986312 803.837938 211.820374 
" style="fill: none; stroke: #e74c3c; stroke-width: 2; stroke-linecap: round"/>
    <path d="M 802.730539 207.487515 
L 803.837938 211.820374 
L 799.707212 210.106578 
z
" style="fill: #e74c3c; stroke: #e74c3c; stroke-width: 2; stroke-linecap: round"/>
   </g>
   <g id="patch_25">
    <path d="M 811.35 231.204231 
C 814.273864 231.204231 817.078368 230.042567 819.145852 227.975083 
C 821.213336 225.907599 822.375 223.103095 822.375 220.179231 
C 822.375 217.255367 821.213336 214.450863 819.145852 212.383379 
C 817.078368 210.315894 814.273864 209.154231 811.35 209.154231 
C 808.426136 209.154231 805.621632 210.315894 803.554148 212.383379 
C 801.486664 214.450863 800.325 217.255367 800.325 220.179231 
C 800.325 223.103095 801.486664 225.907599 803.554148 227.975083 
C 805.621632 230.042567 808.426136 231.204231 811.35 231.204231 
z
" clip-path="url(#pd295b55bca)" style="fill: #e74c3c; stroke: #e74c3c; stroke-linejoin: miter"/>
   </g>
   <g id="patch_26">
    <path d="M 855.907007 154.029231 
C 858.830871 154.029231 861.635375 152.867567 863.702859 150.800083 
C 865.770343 148.732599 866.932007 145.928095 866.932007 143.004231 
C 866.932007 140.080367 865.770343 137.275863 863.702859 135.208379 
C 861.635375 133.140894 858.830871 131.979231 855.907007 131.979231 
C 852.983143 131.979231 850.178639 133.140894 848.111155 135.208379 
C 846.043671 137.275863 844.882007 140.080367 844.882007 143.004231 
C 844.882007 145.928095 846.043671 148.732599 848.111155 150.800083 
C 850.178639 152.867567 852.983143 154.029231 855.907007 154.029231 
z
" clip-path="url(#pd295b55bca)" style="fill: #e74c3c; stroke: #e74c3c; stroke-linejoin: miter"/>
   </g>
   <g id="patch_27">
    <path d="M 766.792993 154.029231 
C 769.716857 154.029231 772.521361 152.867567 774.588845 150.800083 
C 776.656329 148.732599 777.817993 145.928095 777.817993 143.004231 
C 777.817993 140.080367 776.656329 137.275863 774.588845 135.208379 
C 772.521361 133.140894 769.716857 131.979231 766.792993 131.979231 
C 763.869129 131.979231 761.064625 133.140894 758.997141 135.208379 
C 756.929657 137.275863 755.767993 140.080367 755.767993 143.004231 
C 755.767993 145.928095 756.929657 148.732599 758.997141 150.800083 
C 761.064625 152.867567 763.869129 154.029231 766.792993 154.029231 
z
" clip-path="url(#pd295b55bca)" style="fill: #e74c3c; stroke: #e74c3c; stroke-linejoin: miter"/>
   </g>
   <g id="text_15">
    <!-- Circular Flow -->
    <g transform="translate(770.813281 38.161637) scale(0.11 -0.11)">
     <defs>
      <path id="DejaVuSans-Bold-63" d="M 3366 3391 
L 3366 2478 
Q 3138 2634 2908 2709 
Q 2678 2784 2431 2784 
Q 1963 2784 1702 2511 
Q 1441 2238 1441 1747 
Q 1441 1256 1702 982 
Q 1963 709 2431 709 
Q 2694 709 2930 787 
Q 3166 866 3366 1019 
L 3366 103 
Q 3103 6 2833 -42 
Q 2563 -91 2291 -91 
Q 1344 -91 809 395 
Q 275 881 275 1747 
Q 275 2613 809 3098 
Q 1344 3584 2291 3584 
Q 2566 3584 2833 3536 
Q 3100 3488 3366 3391 
z
" transform="scale(0.015625)"/>
      <path id="DejaVuSans-Bold-46" d="M 588 4666 
L 3834 4666 
L 3834 3756 
L 1791 3756 
L 1791 2888 
L 3713 2888 
L 3713 1978 
L 1791 1978 
L 1791 0 
L 588 0 
L 588 4666 
z
" transform="scale(0.015625)"/>
      <path id="DejaVuSans-Bold-6f" d="M 2203 2784 
Q 1831 2784 1636 2517 
Q 1441 2250 1441 1747 
Q 1441 1244 1636 976 
Q 1831 709 2203 709 
Q 2569 709 2762 976 
Q 2956 1244 2956 1747 
Q 2956 2250 2762 2517 
Q 2569 2784 2203 2784 
z
M 2203 3584 
Q 3106 3584 3614 3096 
Q 4122 2609 4122 1747 
Q 4122 884 3614 396 
Q 3106 -91 2203 -91 
Q 1297 -91 786 396 
Q 275 884 275 1747 
Q 275 2609 786 3096 
Q 1297 3584 2203 3584 
z
" transform="scale(0.015625)"/>
      <path id="DejaVuSans-Bold-77" d="M 225 3500 
L 1313 3500 
L 1900 1088 
L 2491 3500 
L 3425 3500 
L 4013 1113 
L 4603 3500 
L 5691 3500 
L 4769 0 
L 3547 0 
L 2956 2406 
L 2369 0 
L 1147 0 
L 225 3500 
z
" transform="scale(0.015625)"/>
     </defs>
     <use xlink:href="#DejaVuSans-Bold-43"/>
     <use xlink:href="#DejaVuSans-Bold-69" transform="translate(73.388672 0)"/>
     <use xlink:href="#DejaVuSans-Bold-72" transform="translate(107.666016 0)"/>
     <use xlink:href="#DejaVuSans-Bold-63" transform="translate(156.982422 0)"/>
     <use xlink:href="#DejaVuSans-Bold-75" transform="translate(216.259766 0)"/>
     <use xlink:href="#DejaVuSans-Bold-6c" transform="translate(287.451172 0)"/>
     <use xlink:href="#DejaVuSans-Bold-61" transform="translate(321.728516 0)"/>
     <use xlink:href="#DejaVuSans-Bold-72" transform="translate(389.208984 0)"/>
     <use xlink:href="#DejaVuSans-Bold-20" transform="translate(438.525391 0)"/>
     <use xlink:href="#DejaVuSans-Bold-46" transform="translate(473.339844 0)"/>
     <use xlink:href="#DejaVuSans-Bold-6c" transform="translate(541.650391 0)"/>
     <use xlink:href="#DejaVuSans-Bold-6f" transform="translate(575.927734 0)"/>
     <use xlink:href="#DejaVuSans-Bold-77" transform="translate(644.628906 0)"/>
    </g>
    <!-- Ringstruktur -->
    <g transform="translate(771.933906 50.479231) scale(0.11 -0.11)">
     <defs>
      <path id="DejaVuSans-Bold-52" d="M 2297 2597 
Q 2675 2597 2839 2737 
Q 3003 2878 3003 3200 
Q 3003 3519 2839 3656 
Q 2675 3794 2297 3794 
L 1791 3794 
L 1791 2597 
L 2297 2597 
z
M 1791 1766 
L 1791 0 
L 588 0 
L 588 4666 
L 2425 4666 
Q 3347 4666 3776 4356 
Q 4206 4047 4206 3378 
Q 4206 2916 3982 2619 
Q 3759 2322 3309 2181 
Q 3556 2125 3751 1926 
Q 3947 1728 4147 1325 
L 4800 0 
L 3519 0 
L 2950 1159 
Q 2778 1509 2601 1637 
Q 2425 1766 2131 1766 
L 1791 1766 
z
" transform="scale(0.015625)"/>
     </defs>
     <use xlink:href="#DejaVuSans-Bold-52"/>
     <use xlink:href="#DejaVuSans-Bold-69" transform="translate(77.001953 0)"/>
     <use xlink:href="#DejaVuSans-Bold-6e" transform="translate(111.279297 0)"/>
     <use xlink:href="#DejaVuSans-Bold-67" transform="translate(182.470703 0)"/>
     <use xlink:href="#DejaVuSans-Bold-73" transform="translate(254.052734 0)"/>
     <use xlink:href="#DejaVuSans-Bold-74" transform="translate(313.574219 0)"/>
     <use xlink:href="#DejaVuSans-Bold-72" transform="translate(361.376953 0)"/>
     <use xlink:href="#DejaVuSans-Bold-75" transform="translate(410.693359 0)"/>
     <use xlink:href="#DejaVuSans-Bold-6b" transform="translate(481.884766 0)"/>
     <use xlink:href="#DejaVuSans-Bold-74" transform="translate(548.388672 0)"/>
     <use xlink:href="#DejaVuSans-Bold-75" transform="translate(596.191406 0)"/>
     <use xlink:href="#DejaVuSans-Bold-72" transform="translate(667.382812 0)"/>
    </g>
   </g>
   <g id="text_16">
    <!-- X -->
    <g style="fill: #ffffff" transform="translate(807.495313 222.938606) scale(0.1 -0.1)">
     <defs>
      <path id="DejaVuSans-Bold-58" d="M 3188 2381 
L 4806 0 
L 3553 0 
L 2463 1594 
L 1381 0 
L 122 0 
L 1741 2381 
L 184 4666 
L 1441 4666 
L 2463 3163 
L 3481 4666 
L 4744 4666 
L 3188 2381 
z
" transform="scale(0.015625)"/>
     </defs>
     <use xlink:href="#DejaVuSans-Bold-58"/>
    </g>
   </g>
   <g id="text_17">
    <!-- Y -->
    <g style="fill: #ffffff" transform="translate(852.286695 145.763606) scale(0.1 -0.1)">
     <defs>
      <path id="DejaVuSans-Bold-59" d="M -63 4666 
L 1253 4666 
L 2316 3003 
L 3378 4666 
L 4697 4666 
L 2919 1966 
L 2919 0 
L 1716 0 
L 1716 1966 
L -63 4666 
z
" transform="scale(0.015625)"/>
     </defs>
     <use xlink:href="#DejaVuSans-Bold-59"/>
    </g>
   </g>
   <g id="text_18">
    <!-- Z -->
    <g style="fill: #ffffff" transform="translate(763.167212 145.763606) scale(0.1 -0.1)">
     <defs>
      <path id="DejaVuSans-Bold-5a" d="M 359 4666 
L 4281 4666 
L 4281 3938 
L 1778 909 
L 4353 909 
L 4353 0 
L 288 0 
L 288 728 
L 2791 3756 
L 359 3756 
L 359 4666 
z
" transform="scale(0.015625)"/>
     </defs>
     <use xlink:href="#DejaVuSans-Bold-5a"/>
    </g>
   </g>
  </g>
  <g id="text_19">
   <!-- Referenzgraphen der Betrugsmuster (Adjazenzmatrizen R) -->
   <g transform="translate(248.668047 17.077969) scale(0.13 -0.13)">
    <defs>
     <path id="DejaVuSans-Bold-7a" d="M 366 3500 
L 3419 3500 
L 3419 2719 
L 1575 800 
L 3419 800 
L 3419 0 
L 288 0 
L 288 781 
L 2131 2700 
L 366 2700 
L 366 3500 
z
" transform="scale(0.015625)"/>
     <path id="DejaVuSans-Bold-70" d="M 1656 506 
L 1656 -1331 
L 538 -1331 
L 538 3500 
L 1656 3500 
L 1656 2988 
Q 1888 3294 2169 3439 
Q 2450 3584 2816 3584 
Q 3463 3584 3878 3070 
Q 4294 2556 4294 1747 
Q 4294 938 3878 423 
Q 3463 -91 2816 -91 
Q 2450 -91 2169 54 
Q 1888 200 1656 506 
z
M 2400 2772 
Q 2041 2772 1848 2508 
Q 1656 2244 1656 1747 
Q 1656 1250 1848 986 
Q 2041 722 2400 722 
Q 2759 722 2948 984 
Q 3138 1247 3138 1747 
Q 3138 2247 2948 2509 
Q 2759 2772 2400 2772 
z
" transform="scale(0.015625)"/>
     <path id="DejaVuSans-Bold-28" d="M 2413 -844 
L 1484 -844 
Q 1006 -72 778 623 
Q 550 1319 550 2003 
Q 550 2688 779 3389 
Q 1009 4091 1484 4856 
L 2413 4856 
Q 2013 4116 1813 3408 
Q 1613 2700 1613 2009 
Q 1613 1319 1811 609 
Q 2009 -100 2413 -844 
z
" transform="scale(0.015625)"/>
     <path id="DejaVuSans-Bold-6a" d="M 538 3500 
L 1656 3500 
L 1656 63 
Q 1656 -641 1318 -1011 
Q 981 -1381 341 -1381 
L -213 -1381 
L -213 -647 
L -19 -647 
Q 300 -647 419 -503 
Q 538 -359 538 63 
L 538 3500 
z
M 538 4863 
L 1656 4863 
L 1656 3950 
L 538 3950 
L 538 4863 
z
" transform="scale(0.015625)"/>
     <path id="DejaVuSans-Bold-29" d="M 513 -844 
Q 913 -100 1113 609 
Q 1313 1319 1313 2009 
Q 1313 2700 1113 3408 
Q 913 4116 513 4856 
L 1441 4856 
Q 1916 4091 2145 3389 
Q 2375 2688 2375 2003 
Q 2375 1319 2147 623 
Q 1919 -72 1441 -844 
L 513 -844 
z
" transform="scale(0.015625)"/>
    </defs>
    <use xlink:href="#DejaVuSans-Bold-52"/>
    <use xlink:href="#DejaVuSans-Bold-65" transform="translate(77.001953 0)"/>
    <use xlink:href="#DejaVuSans-Bold-66" transform="translate(144.824219 0)"/>
    <use xlink:href="#DejaVuSans-Bold-65" transform="translate(188.330078 0)"/>
    <use xlink:href="#DejaVuSans-Bold-72" transform="translate(256.152344 0)"/>
    <use xlink:href="#DejaVuSans-Bold-65" transform="translate(305.46875 0)"/>
    <use xlink:href="#DejaVuSans-Bold-6e" transform="translate(373.291016 0)"/>
    <use xlink:href="#DejaVuSans-Bold-7a" transform="translate(444.482422 0)"/>
    <use xlink:href="#DejaVuSans-Bold-67" transform="translate(502.685547 0)"/>
    <use xlink:href="#DejaVuSans-Bold-72" transform="translate(574.267578 0)"/>
    <use xlink:href="#DejaVuSans-Bold-61" transform="translate(623.583984 0)"/>
    <use xlink:href="#DejaVuSans-Bold-70" transform="translate(691.064453 0)"/>
    <use xlink:href="#DejaVuSans-Bold-68" transform="translate(762.646484 0)"/>
    <use xlink:href="#DejaVuSans-Bold-65" transform="translate(833.837891 0)"/>
    <use xlink:href="#DejaVuSans-Bold-6e" transform="translate(901.660156 0)"/>
    <use xlink:href="#DejaVuSans-Bold-20" transform="translate(972.851562 0)"/>
    <use xlink:href="#DejaVuSans-Bold-64" transform="translate(1007.666016 0)"/>
    <use xlink:href="#DejaVuSans-Bold-65" transform="translate(1079.248047 0)"/>
    <use xlink:href="#DejaVuSans-Bold-72" transform="translate(1147.070312 0)"/>
    <use xlink:href="#DejaVuSans-Bold-20" transform="translate(1196.386719 0)"/>
    <use xlink:href="#DejaVuSans-Bold-42" transform="translate(1231.201172 0)"/>
    <use xlink:href="#DejaVuSans-Bold-65" transform="translate(1307.421875 0)"/>
    <use xlink:href="#DejaVuSans-Bold-74" transform="translate(1375.244141 0)"/>
    <use xlink:href="#DejaVuSans-Bold-72" transform="translate(1423.046875 0)"/>
    <use xlink:href="#DejaVuSans-Bold-75" transform="translate(1472.363281 0)"/>
    <use xlink:href="#DejaVuSans-Bold-67" transform="translate(1543.554688 0)"/>
    <use xlink:href="#DejaVuSans-Bold-73" transform="translate(1615.136719 0)"/>
    <use xlink:href="#DejaVuSans-Bold-6d" transform="translate(1674.658203 0)"/>
    <use xlink:href="#DejaVuSans-Bold-75" transform="translate(1778.857422 0)"/>
    <use xlink:href="#DejaVuSans-Bold-73" transform="translate(1850.048828 0)"/>
    <use xlink:href="#DejaVuSans-Bold-74" transform="translate(1909.570312 0)"/>
    <use xlink:href="#DejaVuSans-Bold-65" transform="translate(1957.373047 0)"/>
    <use xlink:href="#DejaVuSans-Bold-72" transform="translate(2025.195312 0)"/>
    <use xlink:href="#DejaVuSans-Bold-20" transform="translate(2074.511719 0)"/>
    <use xlink:href="#DejaVuSans-Bold-28" transform="translate(2109.326172 0)"/>
    <use xlink:href="#DejaVuSans-Bold-41" transform="translate(2155.029297 0)"/>
    <use xlink:href="#DejaVuSans-Bold-64" transform="translate(2232.421875 0)"/>
    <use xlink:href="#DejaVuSans-Bold-6a" transform="translate(2304.003906 0)"/>
    <use xlink:href="#DejaVuSans-Bold-61" transform="translate(2338.28125 0)"/>
    <use xlink:href="#DejaVuSans-Bold-7a" transform="translate(2405.761719 0)"/>
    <use xlink:href="#DejaVuSans-Bold-65" transform="translate(2463.964844 0)"/>
    <use xlink:href="#DejaVuSans-Bold-6e" transform="translate(2531.787109 0)"/>
    <use xlink:href="#DejaVuSans-Bold-7a" transform="translate(2602.978516 0)"/>
    <use xlink:href="#DejaVuSans-Bold-6d" transform="translate(2661.181641 0)"/>
    <use xlink:href="#DejaVuSans-Bold-61" transform="translate(2765.380859 0)"/>
    <use xlink:href="#DejaVuSans-Bold-74" transform="translate(2832.861328 0)"/>
    <use xlink:href="#DejaVuSans-Bold-72" transform="translate(2880.664062 0)"/>
    <use xlink:href="#DejaVuSans-Bold-69" transform="translate(2929.980469 0)"/>
    <use xlink:href="#DejaVuSans-Bold-7a" transform="translate(2964.257812 0)"/>
    <use xlink:href="#DejaVuSans-Bold-65" transform="translate(3022.460938 0)"/>
    <use xlink:href="#DejaVuSans-Bold-6e" transform="translate(3090.283203 0)"/>
    <use xlink:href="#DejaVuSans-Bold-20" transform="translate(3161.474609 0)"/>
    <use xlink:href="#DejaVuSans-Bold-52" transform="translate(3196.289062 0)"/>
    <use xlink:href="#DejaVuSans-Bold-29" transform="translate(3273.291016 0)"/>
   </g>
  </g>
 </g>
 <defs>
  <clipPath id="p67c7601bbe">
   <rect x="7.2" y="58.479231" width="220.5" height="220.5"/>
  </clipPath>
  <clipPath id="p0f3d571d73">
   <rect x="238.5" y="58.479231" width="220.5" height="220.5"/>
  </clipPath>
  <clipPath id="p9c7e7911e5">
   <rect x="469.8" y="58.479231" width="220.5" height="220.5"/>
  </clipPath>
  <clipPath id="pd295b55bca">
   <rect x="701.1" y="58.479231" width="220.5" height="220.5"/>
  </clipPath>
 </defs>
</svg>
