<?xml version="1.0" encoding="utf-8" standalone="no"?>
<!DOCTYPE svg PUBLIC "-//W3C//DTD SVG 1.1//EN"
  "http://www.w3.org/Graphics/SVG/1.1/DTD/svg11.dtd">
<svg xmlns:xlink="http://www.w3.org/1999/xlink" width="409.938462pt" height="425.056587pt" viewBox="0 0 409.938462 425.056587" xmlns="http://www.w3.org/2000/svg" version="1.1">
 <metadata>
  <rdf:RDF xmlns:dc="http://purl.org/dc/elements/1.1/" xmlns:cc="http://creativecommons.org/ns#" xmlns:rdf="http://www.w3.org/1999/02/22-rdf-syntax-ns#">
   <cc:Work>
    <dc:type rdf:resource="http://purl.org/dc/dcmitype/StillImage"/>
    <dc:date>2026-03-19T04:26:27.402782</dc:date>
    <dc:format>image/svg+xml</dc:format>
    <dc:creator>
     <cc:Agent>
      <dc:title>Matplotlib v3.10.8, https://matplotlib.org/</dc:title>
     </cc:Agent>
    </dc:creator>
   </cc:Work>
  </rdf:RDF>
 </metadata>
 <defs>
  <style type="text/css">*{stroke-linejoin: round; stroke-linecap: butt}</style>
 </defs>
 <g id="figure_1">
  <g id="patch_1">
   <path d="M 0 425.056587 
L 409.938462 425.056587 
L 409.938462 0 
L 0 0 
z
" style="fill: #ffffff"/>
  </g>
  <g id="axes_1">
   <g id="line2d_1">
    <path d="M 204.969231 361.351092 
L 327.307215 290.719224 
" clip-path="url(#p3efca151d7)" style="fill: none; stroke: #888888; stroke-width: 2; stroke-linecap: square"/>
   </g>
   <g id="line2d_2">
    <path d="M 204.969231 78.82362 
L 82.631247 149.455488 
" clip-path="url(#p3efca151d7)" style="fill: none; stroke: #888888; stroke-width: 2; stroke-linecap: square"/>
   </g>
   <g id="line2d_3">
    <path d="M 204.969231 361.351092 
L 327.307215 149.455488 
" clip-path="url(#p3efca151d7)" style="fill: none; stroke: #888888; stroke-width: 2; stroke-linecap: square"/>
   </g>
   <g id="line2d_4">
    <path d="M 204.969231 361.351092 
L 82.631247 149.455488 
" clip-path="url(#p3efca151d7)" style="fill: none; stroke: #888888; stroke-width: 2; stroke-linecap: square"/>
   </g>
   <g id="line2d_5">
    <path d="M 327.307215 149.455488 
L 82.631247 290.719224 
" clip-path="url(#p3efca151d7)" style="fill: none; stroke: #888888; stroke-width: 2; stroke-linecap: square"/>
   </g>
   <g id="text_1">
    <g id="patch_2">
     <path d="M 257.788614 328.719924 
L 274.487832 328.719924 
Q 275.612832 328.719924 275.612832 327.594924 
L 275.612832 320.33633 
Q 275.612832 319.21133 274.487832 319.21133 
L 257.788614 319.21133 
Q 256.663614 319.21133 256.663614 320.33633 
L 256.663614 327.594924 
Q 256.663614 328.719924 257.788614 328.719924 
z
" style="fill: #ffffff; opacity: 0.85"/>
    </g>
    <!-- 0.55 -->
    <g transform="translate(257.788614 326.035158) scale(0.075 -0.075)">
     <defs>
      <path id="DejaVuSans-30" d="M 2034 4250 
Q 1547 4250 1301 3770 
Q 1056 3291 1056 2328 
Q 1056 1369 1301 889 
Q 1547 409 2034 409 
Q 2525 409 2770 889 
Q 3016 1369 3016 2328 
Q 3016 3291 2770 3770 
Q 2525 4250 2034 4250 
z
M 2034 4750 
Q 2819 4750 3233 4129 
Q 3647 3509 3647 2328 
Q 3647 1150 3233 529 
Q 2819 -91 2034 -91 
Q 1250 -91 836 529 
Q 422 1150 422 2328 
Q 422 3509 836 4129 
Q 1250 4750 2034 4750 
z
" transform="scale(0.015625)"/>
      <path id="DejaVuSans-2e" d="M 684 794 
L 1344 794 
L 1344 0 
L 684 0 
L 684 794 
z
" transform="scale(0.015625)"/>
      <path id="DejaVuSans-35" d="M 691 4666 
L 3169 4666 
L 3169 4134 
L 1269 4134 
L 1269 2991 
Q 1406 3038 1543 3061 
Q 1681 3084 1819 3084 
Q 2600 3084 3056 2656 
Q 3513 2228 3513 1497 
Q 3513 744 3044 326 
Q 2575 -91 1722 -91 
Q 1428 -91 1123 -41 
Q 819 9 494 109 
L 494 744 
Q 775 591 1075 516 
Q 1375 441 1709 441 
Q 2250 441 2565 725 
Q 2881 1009 2881 1497 
Q 2881 1984 2565 2268 
Q 2250 2553 1709 2553 
Q 1456 2553 1204 2497 
Q 953 2441 691 2322 
L 691 4666 
z
" transform="scale(0.015625)"/>
     </defs>
     <use xlink:href="#DejaVuSans-30"/>
     <use xlink:href="#DejaVuSans-2e" transform="translate(63.623047 0)"/>
     <use xlink:href="#DejaVuSans-35" transform="translate(95.410156 0)"/>
     <use xlink:href="#DejaVuSans-35" transform="translate(159.033203 0)"/>
    </g>
   </g>
   <g id="text_2">
    <g id="patch_3">
     <path d="M 135.450629 116.824319 
L 152.149848 116.824319 
Q 153.274848 116.824319 153.274848 115.699319 
L 153.274848 108.440725 
Q 153.274848 107.315725 152.149848 107.315725 
L 135.450629 107.315725 
Q 134.325629 107.315725 134.325629 108.440725 
L 134.325629 115.699319 
Q 134.325629 116.824319 135.450629 116.824319 
z
" style="fill: #ffffff; opacity: 0.85"/>
    </g>
    <!-- 0.71 -->
    <g transform="translate(135.450629 114.139554) scale(0.075 -0.075)">
     <defs>
      <path id="DejaVuSans-37" d="M 525 4666 
L 3525 4666 
L 3525 4397 
L 1831 0 
L 1172 0 
L 2766 4134 
L 525 4134 
L 525 4666 
z
" transform="scale(0.015625)"/>
      <path id="DejaVuSans-31" d="M 794 531 
L 1825 531 
L 1825 4091 
L 703 3866 
L 703 4441 
L 1819 4666 
L 2450 4666 
L 2450 531 
L 3481 531 
L 3481 0 
L 794 0 
L 794 531 
z
" transform="scale(0.015625)"/>
     </defs>
     <use xlink:href="#DejaVuSans-30"/>
     <use xlink:href="#DejaVuSans-2e" transform="translate(63.623047 0)"/>
     <use xlink:href="#DejaVuSans-37" transform="translate(95.410156 0)"/>
     <use xlink:href="#DejaVuSans-31" transform="translate(159.033203 0)"/>
    </g>
   </g>
   <g id="text_3">
    <g id="patch_4">
     <path d="M 257.788614 258.088055 
L 274.487832 258.088055 
Q 275.612832 258.088055 275.612832 256.963055 
L 275.612832 249.704462 
Q 275.612832 248.579462 274.487832 248.579462 
L 257.788614 248.579462 
Q 256.663614 248.579462 256.663614 249.704462 
L 256.663614 256.963055 
Q 256.663614 258.088055 257.788614 258.088055 
z
" style="fill: #ffffff; opacity: 0.85"/>
    </g>
    <!-- 0.75 -->
    <g transform="translate(257.788614 255.40329) scale(0.075 -0.075)">
     <use xlink:href="#DejaVuSans-30"/>
     <use xlink:href="#DejaVuSans-2e" transform="translate(63.623047 0)"/>
     <use xlink:href="#DejaVuSans-37" transform="translate(95.410156 0)"/>
     <use xlink:href="#DejaVuSans-35" transform="translate(159.033203 0)"/>
    </g>
   </g>
   <g id="text_4">
    <g id="patch_5">
     <path d="M 135.450629 258.088055 
L 152.149848 258.088055 
Q 153.274848 258.088055 153.274848 256.963055 
L 153.274848 249.704462 
Q 153.274848 248.579462 152.149848 248.579462 
L 135.450629 248.579462 
Q 134.325629 248.579462 134.325629 249.704462 
L 134.325629 256.963055 
Q 134.325629 258.088055 135.450629 258.088055 
z
" style="fill: #ffffff; opacity: 0.85"/>
    </g>
    <!-- 1.14 -->
    <g transform="translate(135.450629 255.40329) scale(0.075 -0.075)">
     <defs>
      <path id="DejaVuSans-34" d="M 2419 4116 
L 825 1625 
L 2419 1625 
L 2419 4116 
z
M 2253 4666 
L 3047 4666 
L 3047 1625 
L 3713 1625 
L 3713 1100 
L 3047 1100 
L 3047 0 
L 2419 0 
L 2419 1100 
L 313 1100 
L 313 1709 
L 2253 4666 
z
" transform="scale(0.015625)"/>
     </defs>
     <use xlink:href="#DejaVuSans-31"/>
     <use xlink:href="#DejaVuSans-2e" transform="translate(63.623047 0)"/>
     <use xlink:href="#DejaVuSans-31" transform="translate(95.410156 0)"/>
     <use xlink:href="#DejaVuSans-34" transform="translate(159.033203 0)"/>
    </g>
   </g>
   <g id="text_5">
    <g id="patch_6">
     <path d="M 196.619621 222.772121 
L 213.31884 222.772121 
Q 214.44384 222.772121 214.44384 221.647121 
L 214.44384 214.388528 
Q 214.44384 213.263528 213.31884 213.263528 
L 196.619621 213.263528 
Q 195.494621 213.263528 195.494621 214.388528 
L 195.494621 221.647121 
Q 195.494621 222.772121 196.619621 222.772121 
z
" style="fill: #ffffff; opacity: 0.85"/>
    </g>
    <!-- 1.30 -->
    <g transform="translate(196.619621 220.087356) scale(0.075 -0.075)">
     <defs>
      <path id="DejaVuSans-33" d="M 2597 2516 
Q 3050 2419 3304 2112 
Q 3559 1806 3559 1356 
Q 3559 666 3084 287 
Q 2609 -91 1734 -91 
Q 1441 -91 1130 -33 
Q 819 25 488 141 
L 488 750 
Q 750 597 1062 519 
Q 1375 441 1716 441 
Q 2309 441 2620 675 
Q 2931 909 2931 1356 
Q 2931 1769 2642 2001 
Q 2353 2234 1838 2234 
L 1294 2234 
L 1294 2753 
L 1863 2753 
Q 2328 2753 2575 2939 
Q 2822 3125 2822 3475 
Q 2822 3834 2567 4026 
Q 2313 4219 1838 4219 
Q 1578 4219 1281 4162 
Q 984 4106 628 3988 
L 628 4550 
Q 988 4650 1302 4700 
Q 1616 4750 1894 4750 
Q 2613 4750 3031 4423 
Q 3450 4097 3450 3541 
Q 3450 3153 3228 2886 
Q 3006 2619 2597 2516 
z
" transform="scale(0.015625)"/>
     </defs>
     <use xlink:href="#DejaVuSans-31"/>
     <use xlink:href="#DejaVuSans-2e" transform="translate(63.623047 0)"/>
     <use xlink:href="#DejaVuSans-33" transform="translate(95.410156 0)"/>
     <use xlink:href="#DejaVuSans-30" transform="translate(159.033203 0)"/>
    </g>
   </g>
   <g id="patch_7">
    <path d="M 204.969231 375.477466 
C 208.715589 375.477466 212.30901 373.989022 214.958085 371.339947 
C 217.607161 368.690871 219.095604 365.09745 219.095604 361.351092 
C 219.095604 357.604734 217.607161 354.011313 214.958085 351.362237 
C 212.30901 348.713162 208.715589 347.224718 204.969231 347.224718 
C 201.222873 347.224718 197.629451 348.713162 194.980376 351.362237 
C 192.331301 354.011313 190.842857 357.604734 190.842857 361.351092 
C 190.842857 365.09745 192.331301 368.690871 194.980376 371.339947 
C 197.629451 373.989022 201.222873 375.477466 204.969231 375.477466 
z
" clip-path="url(#p3efca151d7)" style="fill: #3498db; stroke: #3498db; stroke-linejoin: miter"/>
   </g>
   <g id="text_6">
    <!-- MSFT -->
    <g transform="translate(191.106418 338.289813) scale(0.09 -0.09)">
     <defs>
      <path id="DejaVuSans-Bold-4d" d="M 588 4666 
L 2119 4666 
L 3181 2169 
L 4250 4666 
L 5778 4666 
L 5778 0 
L 4641 0 
L 4641 3413 
L 3566 897 
L 2803 897 
L 1728 3413 
L 1728 0 
L 588 0 
L 588 4666 
z
" transform="scale(0.015625)"/>
      <path id="DejaVuSans-Bold-53" d="M 3834 4519 
L 3834 3531 
Q 3450 3703 3084 3790 
Q 2719 3878 2394 3878 
Q 1963 3878 1756 3759 
Q 1550 3641 1550 3391 
Q 1550 3203 1689 3098 
Q 1828 2994 2194 2919 
L 2706 2816 
Q 3484 2659 3812 2340 
Q 4141 2022 4141 1434 
Q 4141 663 3683 286 
Q 3225 -91 2284 -91 
Q 1841 -91 1394 -6 
Q 947 78 500 244 
L 500 1259 
Q 947 1022 1364 901 
Q 1781 781 2169 781 
Q 2563 781 2772 912 
Q 2981 1044 2981 1288 
Q 2981 1506 2839 1625 
Q 2697 1744 2272 1838 
L 1806 1941 
Q 1106 2091 782 2419 
Q 459 2747 459 3303 
Q 459 4000 909 4375 
Q 1359 4750 2203 4750 
Q 2588 4750 2994 4692 
Q 3400 4634 3834 4519 
z
" transform="scale(0.015625)"/>
      <path id="DejaVuSans-Bold-46" d="M 588 4666 
L 3834 4666 
L 3834 3756 
L 1791 3756 
L 1791 2888 
L 3713 2888 
L 3713 1978 
L 1791 1978 
L 1791 0 
L 588 0 
L 588 4666 
z
" transform="scale(0.015625)"/>
      <path id="DejaVuSans-Bold-54" d="M 31 4666 
L 4331 4666 
L 4331 3756 
L 2784 3756 
L 2784 0 
L 1581 0 
L 1581 3756 
L 31 3756 
L 31 4666 
z
" transform="scale(0.015625)"/>
     </defs>
     <use xlink:href="#DejaVuSans-Bold-4d"/>
     <use xlink:href="#DejaVuSans-Bold-53" transform="translate(99.511719 0)"/>
     <use xlink:href="#DejaVuSans-Bold-46" transform="translate(171.533203 0)"/>
     <use xlink:href="#DejaVuSans-Bold-54" transform="translate(239.84375 0)"/>
    </g>
   </g>
   <g id="patch_8">
    <path d="M 327.307215 304.845598 
C 331.053573 304.845598 334.646994 303.357154 337.29607 300.708078 
C 339.945145 298.059003 341.433589 294.465582 341.433589 290.719224 
C 341.433589 286.972866 339.945145 283.379445 337.29607 280.730369 
C 334.646994 278.081294 331.053573 276.59285 327.307215 276.59285 
C 323.560857 276.59285 319.967436 278.081294 317.31836 280.730369 
C 314.669285 283.379445 313.180841 286.972866 313.180841 290.719224 
C 313.180841 294.465582 314.669285 298.059003 317.31836 300.708078 
C 319.967436 303.357154 323.560857 304.845598 327.307215 304.845598 
z
" clip-path="url(#p3efca151d7)" style="fill: #3498db; stroke: #3498db; stroke-linejoin: miter"/>
   </g>
   <g id="text_7">
    <!-- AAPL -->
    <g transform="translate(314.176356 267.657945) scale(0.09 -0.09)">
     <defs>
      <path id="DejaVuSans-Bold-41" d="M 3419 850 
L 1538 850 
L 1241 0 
L 31 0 
L 1759 4666 
L 3194 4666 
L 4922 0 
L 3713 0 
L 3419 850 
z
M 1838 1716 
L 3116 1716 
L 2478 3572 
L 1838 1716 
z
" transform="scale(0.015625)"/>
      <path id="DejaVuSans-Bold-50" d="M 588 4666 
L 2584 4666 
Q 3475 4666 3951 4270 
Q 4428 3875 4428 3144 
Q 4428 2409 3951 2014 
Q 3475 1619 2584 1619 
L 1791 1619 
L 1791 0 
L 588 0 
L 588 4666 
z
M 1791 3794 
L 1791 2491 
L 2456 2491 
Q 2806 2491 2997 2661 
Q 3188 2831 3188 3144 
Q 3188 3456 2997 3625 
Q 2806 3794 2456 3794 
L 1791 3794 
z
" transform="scale(0.015625)"/>
      <path id="DejaVuSans-Bold-4c" d="M 588 4666 
L 1791 4666 
L 1791 909 
L 3903 909 
L 3903 0 
L 588 0 
L 588 4666 
z
" transform="scale(0.015625)"/>
     </defs>
     <use xlink:href="#DejaVuSans-Bold-41"/>
     <use xlink:href="#DejaVuSans-Bold-41" transform="translate(77.392578 0)"/>
     <use xlink:href="#DejaVuSans-Bold-50" transform="translate(154.785156 0)"/>
     <use xlink:href="#DejaVuSans-Bold-4c" transform="translate(228.076172 0)"/>
    </g>
   </g>
   <g id="patch_9">
    <path d="M 327.307215 163.581861 
C 331.053573 163.581861 334.646994 162.093417 337.29607 159.444342 
C 339.945145 156.795267 341.433589 153.201846 341.433589 149.455488 
C 341.433589 145.70913 339.945145 142.115708 337.29607 139.466633 
C 334.646994 136.817558 331.053573 135.329114 327.307215 135.329114 
C 323.560857 135.329114 319.967436 136.817558 317.31836 139.466633 
C 314.669285 142.115708 313.180841 145.70913 313.180841 149.455488 
C 313.180841 153.201846 314.669285 156.795267 317.31836 159.444342 
C 319.967436 162.093417 323.560857 163.581861 327.307215 163.581861 
z
" clip-path="url(#p3efca151d7)" style="fill: #3498db; stroke: #3498db; stroke-linejoin: miter"/>
   </g>
   <g id="text_8">
    <!-- NVDA -->
    <g transform="translate(312.840418 126.394208) scale(0.09 -0.09)">
     <defs>
      <path id="DejaVuSans-Bold-4e" d="M 588 4666 
L 1931 4666 
L 3628 1466 
L 3628 4666 
L 4769 4666 
L 4769 0 
L 3425 0 
L 1728 3200 
L 1728 0 
L 588 0 
L 588 4666 
z
" transform="scale(0.015625)"/>
      <path id="DejaVuSans-Bold-56" d="M 31 4666 
L 1241 4666 
L 2478 1222 
L 3713 4666 
L 4922 4666 
L 3194 0 
L 1759 0 
L 31 4666 
z
" transform="scale(0.015625)"/>
      <path id="DejaVuSans-Bold-44" d="M 1791 3756 
L 1791 909 
L 2222 909 
Q 2959 909 3348 1275 
Q 3738 1641 3738 2338 
Q 3738 3031 3350 3393 
Q 2963 3756 2222 3756 
L 1791 3756 
z
M 588 4666 
L 1856 4666 
Q 2919 4666 3439 4514 
Q 3959 4363 4331 4000 
Q 4659 3684 4818 3271 
Q 4978 2859 4978 2338 
Q 4978 1809 4818 1395 
Q 4659 981 4331 666 
Q 3956 303 3431 151 
Q 2906 0 1856 0 
L 588 0 
L 588 4666 
z
" transform="scale(0.015625)"/>
     </defs>
     <use xlink:href="#DejaVuSans-Bold-4e"/>
     <use xlink:href="#DejaVuSans-Bold-56" transform="translate(83.691406 0)"/>
     <use xlink:href="#DejaVuSans-Bold-44" transform="translate(161.083984 0)"/>
     <use xlink:href="#DejaVuSans-Bold-41" transform="translate(244.091797 0)"/>
    </g>
   </g>
   <g id="patch_10">
    <path d="M 204.969231 92.949993 
C 208.715589 92.949993 212.30901 91.461549 214.958085 88.812474 
C 217.607161 86.163399 219.095604 82.569978 219.095604 78.82362 
C 219.095604 75.077261 217.607161 71.48384 214.958085 68.834765 
C 212.30901 66.18569 208.715589 64.697246 204.969231 64.697246 
C 201.222873 64.697246 197.629451 66.18569 194.980376 68.834765 
C 192.331301 71.48384 190.842857 75.077261 190.842857 78.82362 
C 190.842857 82.569978 192.331301 86.163399 194.980376 88.812474 
C 197.629451 91.461549 201.222873 92.949993 204.969231 92.949993 
z
" clip-path="url(#p3efca151d7)" style="fill: #2ecc71; stroke: #2ecc71; stroke-linejoin: miter"/>
   </g>
   <g id="text_9">
    <!-- EWG.DE -->
    <g transform="translate(184.719231 55.76234) scale(0.09 -0.09)">
     <defs>
      <path id="DejaVuSans-Bold-45" d="M 588 4666 
L 3834 4666 
L 3834 3756 
L 1791 3756 
L 1791 2888 
L 3713 2888 
L 3713 1978 
L 1791 1978 
L 1791 909 
L 3903 909 
L 3903 0 
L 588 0 
L 588 4666 
z
" transform="scale(0.015625)"/>
      <path id="DejaVuSans-Bold-57" d="M 191 4666 
L 1344 4666 
L 2150 1275 
L 2950 4666 
L 4109 4666 
L 4909 1275 
L 5716 4666 
L 6859 4666 
L 5759 0 
L 4372 0 
L 3525 3547 
L 2688 0 
L 1300 0 
L 191 4666 
z
" transform="scale(0.015625)"/>
      <path id="DejaVuSans-Bold-47" d="M 4781 347 
Q 4331 128 3847 18 
Q 3363 -91 2847 -91 
Q 1681 -91 1000 561 
Q 319 1213 319 2328 
Q 319 3456 1012 4103 
Q 1706 4750 2913 4750 
Q 3378 4750 3804 4662 
Q 4231 4575 4609 4403 
L 4609 3438 
Q 4219 3659 3833 3768 
Q 3447 3878 3059 3878 
Q 2341 3878 1952 3476 
Q 1563 3075 1563 2328 
Q 1563 1588 1938 1184 
Q 2313 781 3003 781 
Q 3191 781 3352 804 
Q 3513 828 3641 878 
L 3641 1784 
L 2906 1784 
L 2906 2591 
L 4781 2591 
L 4781 347 
z
" transform="scale(0.015625)"/>
      <path id="DejaVuSans-Bold-2e" d="M 653 1209 
L 1778 1209 
L 1778 0 
L 653 0 
L 653 1209 
z
" transform="scale(0.015625)"/>
     </defs>
     <use xlink:href="#DejaVuSans-Bold-45"/>
     <use xlink:href="#DejaVuSans-Bold-57" transform="translate(68.310547 0)"/>
     <use xlink:href="#DejaVuSans-Bold-47" transform="translate(178.613281 0)"/>
     <use xlink:href="#DejaVuSans-Bold-2e" transform="translate(260.693359 0)"/>
     <use xlink:href="#DejaVuSans-Bold-44" transform="translate(298.681641 0)"/>
     <use xlink:href="#DejaVuSans-Bold-45" transform="translate(381.689453 0)"/>
    </g>
   </g>
   <g id="patch_11">
    <path d="M 82.631247 163.581861 
C 86.377605 163.581861 89.971026 162.093417 92.620101 159.444342 
C 95.269176 156.795267 96.75762 153.201846 96.75762 149.455488 
C 96.75762 145.70913 95.269176 142.115708 92.620101 139.466633 
C 89.971026 136.817558 86.377605 135.329114 82.631247 135.329114 
C 78.884888 135.329114 75.291467 136.817558 72.642392 139.466633 
C 69.993317 142.115708 68.504873 145.70913 68.504873 149.455488 
C 68.504873 153.201846 69.993317 156.795267 72.642392 159.444342 
C 75.291467 162.093417 78.884888 163.581861 82.631247 163.581861 
z
" clip-path="url(#p3efca151d7)" style="fill: #2ecc71; stroke: #2ecc71; stroke-linejoin: miter"/>
   </g>
   <g id="text_10">
    <!-- VWRL.L -->
    <g transform="translate(63.276325 126.394208) scale(0.09 -0.09)">
     <defs>
      <path id="DejaVuSans-Bold-52" d="M 2297 2597 
Q 2675 2597 2839 2737 
Q 3003 2878 3003 3200 
Q 3003 3519 2839 3656 
Q 2675 3794 2297 3794 
L 1791 3794 
L 1791 2597 
L 2297 2597 
z
M 1791 1766 
L 1791 0 
L 588 0 
L 588 4666 
L 2425 4666 
Q 3347 4666 3776 4356 
Q 4206 4047 4206 3378 
Q 4206 2916 3982 2619 
Q 3759 2322 3309 2181 
Q 3556 2125 3751 1926 
Q 3947 1728 4147 1325 
L 4800 0 
L 3519 0 
L 2950 1159 
Q 2778 1509 2601 1637 
Q 2425 1766 2131 1766 
L 1791 1766 
z
" transform="scale(0.015625)"/>
     </defs>
     <use xlink:href="#DejaVuSans-Bold-56"/>
     <use xlink:href="#DejaVuSans-Bold-57" transform="translate(77.392578 0)"/>
     <use xlink:href="#DejaVuSans-Bold-52" transform="translate(187.695312 0)"/>
     <use xlink:href="#DejaVuSans-Bold-4c" transform="translate(264.697266 0)"/>
     <use xlink:href="#DejaVuSans-Bold-2e" transform="translate(328.417969 0)"/>
     <use xlink:href="#DejaVuSans-Bold-4c" transform="translate(366.40625 0)"/>
    </g>
   </g>
   <g id="patch_12">
    <path d="M 82.631247 304.845598 
C 86.377605 304.845598 89.971026 303.357154 92.620101 300.708078 
C 95.269176 298.059003 96.75762 294.465582 96.75762 290.719224 
C 96.75762 286.972866 95.269176 283.379445 92.620101 280.730369 
C 89.971026 278.081294 86.377605 276.59285 82.631247 276.59285 
C 78.884888 276.59285 75.291467 278.081294 72.642392 280.730369 
C 69.993317 283.379445 68.504873 286.972866 68.504873 290.719224 
C 68.504873 294.465582 69.993317 298.059003 72.642392 300.708078 
C 75.291467 303.357154 78.884888 304.845598 82.631247 304.845598 
z
" clip-path="url(#p3efca151d7)" style="fill: #f39c12; stroke: #f39c12; stroke-linejoin: miter"/>
   </g>
   <g id="text_11">
    <!-- BTC -->
    <g transform="translate(72.828981 267.657945) scale(0.09 -0.09)">
     <defs>
      <path id="DejaVuSans-Bold-42" d="M 2456 2859 
Q 2741 2859 2887 2984 
Q 3034 3109 3034 3353 
Q 3034 3594 2887 3720 
Q 2741 3847 2456 3847 
L 1791 3847 
L 1791 2859 
L 2456 2859 
z
M 2497 819 
Q 2859 819 3042 972 
Q 3225 1125 3225 1434 
Q 3225 1738 3044 1889 
Q 2863 2041 2497 2041 
L 1791 2041 
L 1791 819 
L 2497 819 
z
M 3616 2497 
Q 4003 2384 4215 2081 
Q 4428 1778 4428 1338 
Q 4428 663 3972 331 
Q 3516 0 2584 0 
L 588 0 
L 588 4666 
L 2394 4666 
Q 3366 4666 3802 4372 
Q 4238 4078 4238 3431 
Q 4238 3091 4078 2852 
Q 3919 2613 3616 2497 
z
" transform="scale(0.015625)"/>
      <path id="DejaVuSans-Bold-43" d="M 4288 256 
Q 3956 84 3597 -3 
Q 3238 -91 2847 -91 
Q 1681 -91 1000 561 
Q 319 1213 319 2328 
Q 319 3447 1000 4098 
Q 1681 4750 2847 4750 
Q 3238 4750 3597 4662 
Q 3956 4575 4288 4403 
L 4288 3438 
Q 3953 3666 3628 3772 
Q 3303 3878 2944 3878 
Q 2300 3878 1931 3465 
Q 1563 3053 1563 2328 
Q 1563 1606 1931 1193 
Q 2300 781 2944 781 
Q 3303 781 3628 887 
Q 3953 994 4288 1222 
L 4288 256 
z
" transform="scale(0.015625)"/>
     </defs>
     <use xlink:href="#DejaVuSans-Bold-42"/>
     <use xlink:href="#DejaVuSans-Bold-54" transform="translate(76.220703 0)"/>
     <use xlink:href="#DejaVuSans-Bold-43" transform="translate(144.433594 0)"/>
    </g>
   </g>
   <g id="text_12">
    <!-- Portfolio-MST: Diversifikationscluster (Pearson-Distanz) -->
    <g transform="translate(15.277356 16.318125) scale(0.12 -0.12)">
     <defs>
      <path id="DejaVuSans-Bold-6f" d="M 2203 2784 
Q 1831 2784 1636 2517 
Q 1441 2250 1441 1747 
Q 1441 1244 1636 976 
Q 1831 709 2203 709 
Q 2569 709 2762 976 
Q 2956 1244 2956 1747 
Q 2956 2250 2762 2517 
Q 2569 2784 2203 2784 
z
M 2203 3584 
Q 3106 3584 3614 3096 
Q 4122 2609 4122 1747 
Q 4122 884 3614 396 
Q 3106 -91 2203 -91 
Q 1297 -91 786 396 
Q 275 884 275 1747 
Q 275 2609 786 3096 
Q 1297 3584 2203 3584 
z
" transform="scale(0.015625)"/>
      <path id="DejaVuSans-Bold-72" d="M 3138 2547 
Q 2991 2616 2845 2648 
Q 2700 2681 2553 2681 
Q 2122 2681 1889 2404 
Q 1656 2128 1656 1613 
L 1656 0 
L 538 0 
L 538 3500 
L 1656 3500 
L 1656 2925 
Q 1872 3269 2151 3426 
Q 2431 3584 2822 3584 
Q 2878 3584 2943 3579 
Q 3009 3575 3134 3559 
L 3138 2547 
z
" transform="scale(0.015625)"/>
      <path id="DejaVuSans-Bold-74" d="M 1759 4494 
L 1759 3500 
L 2913 3500 
L 2913 2700 
L 1759 2700 
L 1759 1216 
Q 1759 972 1856 886 
Q 1953 800 2241 800 
L 2816 800 
L 2816 0 
L 1856 0 
Q 1194 0 917 276 
Q 641 553 641 1216 
L 641 2700 
L 84 2700 
L 84 3500 
L 641 3500 
L 641 4494 
L 1759 4494 
z
" transform="scale(0.015625)"/>
      <path id="DejaVuSans-Bold-66" d="M 2841 4863 
L 2841 4128 
L 2222 4128 
Q 1984 4128 1890 4042 
Q 1797 3956 1797 3744 
L 1797 3500 
L 2753 3500 
L 2753 2700 
L 1797 2700 
L 1797 0 
L 678 0 
L 678 2700 
L 122 2700 
L 122 3500 
L 678 3500 
L 678 3744 
Q 678 4316 997 4589 
Q 1316 4863 1984 4863 
L 2841 4863 
z
" transform="scale(0.015625)"/>
      <path id="DejaVuSans-Bold-6c" d="M 538 4863 
L 1656 4863 
L 1656 0 
L 538 0 
L 538 4863 
z
" transform="scale(0.015625)"/>
      <path id="DejaVuSans-Bold-69" d="M 538 3500 
L 1656 3500 
L 1656 0 
L 538 0 
L 538 3500 
z
M 538 4863 
L 1656 4863 
L 1656 3950 
L 538 3950 
L 538 4863 
z
" transform="scale(0.015625)"/>
      <path id="DejaVuSans-Bold-2d" d="M 347 2297 
L 2309 2297 
L 2309 1388 
L 347 1388 
L 347 2297 
z
" transform="scale(0.015625)"/>
      <path id="DejaVuSans-Bold-3a" d="M 716 3500 
L 1844 3500 
L 1844 2291 
L 716 2291 
L 716 3500 
z
M 716 1209 
L 1844 1209 
L 1844 0 
L 716 0 
L 716 1209 
z
" transform="scale(0.015625)"/>
      <path id="DejaVuSans-Bold-20" transform="scale(0.015625)"/>
      <path id="DejaVuSans-Bold-76" d="M 97 3500 
L 1216 3500 
L 2088 1081 
L 2956 3500 
L 4078 3500 
L 2700 0 
L 1472 0 
L 97 3500 
z
" transform="scale(0.015625)"/>
      <path id="DejaVuSans-Bold-65" d="M 4031 1759 
L 4031 1441 
L 1416 1441 
Q 1456 1047 1700 850 
Q 1944 653 2381 653 
Q 2734 653 3104 758 
Q 3475 863 3866 1075 
L 3866 213 
Q 3469 63 3072 -14 
Q 2675 -91 2278 -91 
Q 1328 -91 801 392 
Q 275 875 275 1747 
Q 275 2603 792 3093 
Q 1309 3584 2216 3584 
Q 3041 3584 3536 3087 
Q 4031 2591 4031 1759 
z
M 2881 2131 
Q 2881 2450 2695 2645 
Q 2509 2841 2209 2841 
Q 1884 2841 1681 2658 
Q 1478 2475 1428 2131 
L 2881 2131 
z
" transform="scale(0.015625)"/>
      <path id="DejaVuSans-Bold-73" d="M 3272 3391 
L 3272 2541 
Q 2913 2691 2578 2766 
Q 2244 2841 1947 2841 
Q 1628 2841 1473 2761 
Q 1319 2681 1319 2516 
Q 1319 2381 1436 2309 
Q 1553 2238 1856 2203 
L 2053 2175 
Q 2913 2066 3209 1816 
Q 3506 1566 3506 1031 
Q 3506 472 3093 190 
Q 2681 -91 1863 -91 
Q 1516 -91 1145 -36 
Q 775 19 384 128 
L 384 978 
Q 719 816 1070 734 
Q 1422 653 1784 653 
Q 2113 653 2278 743 
Q 2444 834 2444 1013 
Q 2444 1163 2330 1236 
Q 2216 1309 1875 1350 
L 1678 1375 
Q 931 1469 631 1722 
Q 331 1975 331 2491 
Q 331 3047 712 3315 
Q 1094 3584 1881 3584 
Q 2191 3584 2531 3537 
Q 2872 3491 3272 3391 
z
" transform="scale(0.015625)"/>
      <path id="DejaVuSans-Bold-6b" d="M 538 4863 
L 1656 4863 
L 1656 2216 
L 2944 3500 
L 4244 3500 
L 2534 1894 
L 4378 0 
L 3022 0 
L 1656 1459 
L 1656 0 
L 538 0 
L 538 4863 
z
" transform="scale(0.015625)"/>
      <path id="DejaVuSans-Bold-61" d="M 2106 1575 
Q 1756 1575 1579 1456 
Q 1403 1338 1403 1106 
Q 1403 894 1545 773 
Q 1688 653 1941 653 
Q 2256 653 2472 879 
Q 2688 1106 2688 1447 
L 2688 1575 
L 2106 1575 
z
M 3816 1997 
L 3816 0 
L 2688 0 
L 2688 519 
Q 2463 200 2181 54 
Q 1900 -91 1497 -91 
Q 953 -91 614 226 
Q 275 544 275 1050 
Q 275 1666 698 1953 
Q 1122 2241 2028 2241 
L 2688 2241 
L 2688 2328 
Q 2688 2594 2478 2717 
Q 2269 2841 1825 2841 
Q 1466 2841 1156 2769 
Q 847 2697 581 2553 
L 581 3406 
Q 941 3494 1303 3539 
Q 1666 3584 2028 3584 
Q 2975 3584 3395 3211 
Q 3816 2838 3816 1997 
z
" transform="scale(0.015625)"/>
      <path id="DejaVuSans-Bold-6e" d="M 4056 2131 
L 4056 0 
L 2931 0 
L 2931 347 
L 2931 1631 
Q 2931 2084 2911 2256 
Q 2891 2428 2841 2509 
Q 2775 2619 2662 2680 
Q 2550 2741 2406 2741 
Q 2056 2741 1856 2470 
Q 1656 2200 1656 1722 
L 1656 0 
L 538 0 
L 538 3500 
L 1656 3500 
L 1656 2988 
Q 1909 3294 2193 3439 
Q 2478 3584 2822 3584 
Q 3428 3584 3742 3212 
Q 4056 2841 4056 2131 
z
" transform="scale(0.015625)"/>
      <path id="DejaVuSans-Bold-63" d="M 3366 3391 
L 3366 2478 
Q 3138 2634 2908 2709 
Q 2678 2784 2431 2784 
Q 1963 2784 1702 2511 
Q 1441 2238 1441 1747 
Q 1441 1256 1702 982 
Q 1963 709 2431 709 
Q 2694 709 2930 787 
Q 3166 866 3366 1019 
L 3366 103 
Q 3103 6 2833 -42 
Q 2563 -91 2291 -91 
Q 1344 -91 809 395 
Q 275 881 275 1747 
Q 275 2613 809 3098 
Q 1344 3584 2291 3584 
Q 2566 3584 2833 3536 
Q 3100 3488 3366 3391 
z
" transform="scale(0.015625)"/>
      <path id="DejaVuSans-Bold-75" d="M 500 1363 
L 500 3500 
L 1625 3500 
L 1625 3150 
Q 1625 2866 1622 2436 
Q 1619 2006 1619 1863 
Q 1619 1441 1641 1255 
Q 1663 1069 1716 984 
Q 1784 875 1895 815 
Q 2006 756 2150 756 
Q 2500 756 2700 1025 
Q 2900 1294 2900 1772 
L 2900 3500 
L 4019 3500 
L 4019 0 
L 2900 0 
L 2900 506 
Q 2647 200 2364 54 
Q 2081 -91 1741 -91 
Q 1134 -91 817 281 
Q 500 653 500 1363 
z
" transform="scale(0.015625)"/>
      <path id="DejaVuSans-Bold-28" d="M 2413 -844 
L 1484 -844 
Q 1006 -72 778 623 
Q 550 1319 550 2003 
Q 550 2688 779 3389 
Q 1009 4091 1484 4856 
L 2413 4856 
Q 2013 4116 1813 3408 
Q 1613 2700 1613 2009 
Q 1613 1319 1811 609 
Q 2009 -100 2413 -844 
z
" transform="scale(0.015625)"/>
      <path id="DejaVuSans-Bold-7a" d="M 366 3500 
L 3419 3500 
L 3419 2719 
L 1575 800 
L 3419 800 
L 3419 0 
L 288 0 
L 288 781 
L 2131 2700 
L 366 2700 
L 366 3500 
z
" transform="scale(0.015625)"/>
      <path id="DejaVuSans-Bold-29" d="M 513 -844 
Q 913 -100 1113 609 
Q 1313 1319 1313 2009 
Q 1313 2700 1113 3408 
Q 913 4116 513 4856 
L 1441 4856 
Q 1916 4091 2145 3389 
Q 2375 2688 2375 2003 
Q 2375 1319 2147 623 
Q 1919 -72 1441 -844 
L 513 -844 
z
" transform="scale(0.015625)"/>
     </defs>
     <use xlink:href="#DejaVuSans-Bold-50"/>
     <use xlink:href="#DejaVuSans-Bold-6f" transform="translate(73.291016 0)"/>
     <use xlink:href="#DejaVuSans-Bold-72" transform="translate(141.992188 0)"/>
     <use xlink:href="#DejaVuSans-Bold-74" transform="translate(191.308594 0)"/>
     <use xlink:href="#DejaVuSans-Bold-66" transform="translate(239.111328 0)"/>
     <use xlink:href="#DejaVuSans-Bold-6f" transform="translate(282.617188 0)"/>
     <use xlink:href="#DejaVuSans-Bold-6c" transform="translate(351.318359 0)"/>
     <use xlink:href="#DejaVuSans-Bold-69" transform="translate(385.595703 0)"/>
     <use xlink:href="#DejaVuSans-Bold-6f" transform="translate(419.873047 0)"/>
     <use xlink:href="#DejaVuSans-Bold-2d" transform="translate(488.574219 0)"/>
     <use xlink:href="#DejaVuSans-Bold-4d" transform="translate(530.078125 0)"/>
     <use xlink:href="#DejaVuSans-Bold-53" transform="translate(629.589844 0)"/>
     <use xlink:href="#DejaVuSans-Bold-54" transform="translate(701.611328 0)"/>
     <use xlink:href="#DejaVuSans-Bold-3a" transform="translate(764.324219 0)"/>
     <use xlink:href="#DejaVuSans-Bold-20" transform="translate(804.314453 0)"/>
     <use xlink:href="#DejaVuSans-Bold-44" transform="translate(839.128906 0)"/>
     <use xlink:href="#DejaVuSans-Bold-69" transform="translate(922.136719 0)"/>
     <use xlink:href="#DejaVuSans-Bold-76" transform="translate(956.414062 0)"/>
     <use xlink:href="#DejaVuSans-Bold-65" transform="translate(1021.599609 0)"/>
     <use xlink:href="#DejaVuSans-Bold-72" transform="translate(1089.421875 0)"/>
     <use xlink:href="#DejaVuSans-Bold-73" transform="translate(1138.738281 0)"/>
     <use xlink:href="#DejaVuSans-Bold-69" transform="translate(1198.259766 0)"/>
     <use xlink:href="#DejaVuSans-Bold-66" transform="translate(1232.537109 0)"/>
     <use xlink:href="#DejaVuSans-Bold-69" transform="translate(1276.042969 0)"/>
     <use xlink:href="#DejaVuSans-Bold-6b" transform="translate(1310.320312 0)"/>
     <use xlink:href="#DejaVuSans-Bold-61" transform="translate(1376.824219 0)"/>
     <use xlink:href="#DejaVuSans-Bold-74" transform="translate(1444.304688 0)"/>
     <use xlink:href="#DejaVuSans-Bold-69" transform="translate(1492.107422 0)"/>
     <use xlink:href="#DejaVuSans-Bold-6f" transform="translate(1526.384766 0)"/>
     <use xlink:href="#DejaVuSans-Bold-6e" transform="translate(1595.085938 0)"/>
     <use xlink:href="#DejaVuSans-Bold-73" transform="translate(1666.277344 0)"/>
     <use xlink:href="#DejaVuSans-Bold-63" transform="translate(1725.798828 0)"/>
     <use xlink:href="#DejaVuSans-Bold-6c" transform="translate(1785.076172 0)"/>
     <use xlink:href="#DejaVuSans-Bold-75" transform="translate(1819.353516 0)"/>
     <use xlink:href="#DejaVuSans-Bold-73" transform="translate(1890.544922 0)"/>
     <use xlink:href="#DejaVuSans-Bold-74" transform="translate(1950.066406 0)"/>
     <use xlink:href="#DejaVuSans-Bold-65" transform="translate(1997.869141 0)"/>
     <use xlink:href="#DejaVuSans-Bold-72" transform="translate(2065.691406 0)"/>
     <use xlink:href="#DejaVuSans-Bold-20" transform="translate(2115.007812 0)"/>
     <use xlink:href="#DejaVuSans-Bold-28" transform="translate(2149.822266 0)"/>
     <use xlink:href="#DejaVuSans-Bold-50" transform="translate(2195.525391 0)"/>
     <use xlink:href="#DejaVuSans-Bold-65" transform="translate(2268.816406 0)"/>
     <use xlink:href="#DejaVuSans-Bold-61" transform="translate(2336.638672 0)"/>
     <use xlink:href="#DejaVuSans-Bold-72" transform="translate(2404.119141 0)"/>
     <use xlink:href="#DejaVuSans-Bold-73" transform="translate(2453.435547 0)"/>
     <use xlink:href="#DejaVuSans-Bold-6f" transform="translate(2512.957031 0)"/>
     <use xlink:href="#DejaVuSans-Bold-6e" transform="translate(2581.658203 0)"/>
     <use xlink:href="#DejaVuSans-Bold-2d" transform="translate(2652.849609 0)"/>
     <use xlink:href="#DejaVuSans-Bold-44" transform="translate(2694.353516 0)"/>
     <use xlink:href="#DejaVuSans-Bold-69" transform="translate(2777.361328 0)"/>
     <use xlink:href="#DejaVuSans-Bold-73" transform="translate(2811.638672 0)"/>
     <use xlink:href="#DejaVuSans-Bold-74" transform="translate(2871.160156 0)"/>
     <use xlink:href="#DejaVuSans-Bold-61" transform="translate(2918.962891 0)"/>
     <use xlink:href="#DejaVuSans-Bold-6e" transform="translate(2986.443359 0)"/>
     <use xlink:href="#DejaVuSans-Bold-7a" transform="translate(3057.634766 0)"/>
     <use xlink:href="#DejaVuSans-Bold-29" transform="translate(3115.837891 0)"/>
    </g>
   </g>
   <g id="legend_1">
    <g id="patch_13">
     <path d="M 306.815024 412.856587 
L 395.738462 412.856587 
Q 397.738462 412.856587 397.738462 410.856587 
L 397.738462 367.822212 
Q 397.738462 365.822212 395.738462 365.822212 
L 306.815024 365.822212 
Q 304.815024 365.822212 304.815024 367.822212 
L 304.815024 410.856587 
Q 304.815024 412.856587 306.815024 412.856587 
z
" style="fill: #ffffff; opacity: 0.8; stroke: #cccccc; stroke-linejoin: miter"/>
    </g>
    <g id="patch_14">
     <path d="M 308.815024 377.420649 
L 328.815024 377.420649 
L 328.815024 370.420649 
L 308.815024 370.420649 
z
" style="fill: #3498db; stroke: #3498db; stroke-linejoin: miter"/>
    </g>
    <g id="text_13">
     <!-- US-Tech -->
     <g transform="translate(336.815024 377.420649) scale(0.1 -0.1)">
      <defs>
       <path id="DejaVuSans-55" d="M 556 4666 
L 1191 4666 
L 1191 1831 
Q 1191 1081 1462 751 
Q 1734 422 2344 422 
Q 2950 422 3222 751 
Q 3494 1081 3494 1831 
L 3494 4666 
L 4128 4666 
L 4128 1753 
Q 4128 841 3676 375 
Q 3225 -91 2344 -91 
Q 1459 -91 1007 375 
Q 556 841 556 1753 
L 556 4666 
z
" transform="scale(0.015625)"/>
       <path id="DejaVuSans-53" d="M 3425 4513 
L 3425 3897 
Q 3066 4069 2747 4153 
Q 2428 4238 2131 4238 
Q 1616 4238 1336 4038 
Q 1056 3838 1056 3469 
Q 1056 3159 1242 3001 
Q 1428 2844 1947 2747 
L 2328 2669 
Q 3034 2534 3370 2195 
Q 3706 1856 3706 1288 
Q 3706 609 3251 259 
Q 2797 -91 1919 -91 
Q 1588 -91 1214 -16 
Q 841 59 441 206 
L 441 856 
Q 825 641 1194 531 
Q 1563 422 1919 422 
Q 2459 422 2753 634 
Q 3047 847 3047 1241 
Q 3047 1584 2836 1778 
Q 2625 1972 2144 2069 
L 1759 2144 
Q 1053 2284 737 2584 
Q 422 2884 422 3419 
Q 422 4038 858 4394 
Q 1294 4750 2059 4750 
Q 2388 4750 2728 4690 
Q 3069 4631 3425 4513 
z
" transform="scale(0.015625)"/>
       <path id="DejaVuSans-2d" d="M 313 2009 
L 1997 2009 
L 1997 1497 
L 313 1497 
L 313 2009 
z
" transform="scale(0.015625)"/>
       <path id="DejaVuSans-54" d="M -19 4666 
L 3928 4666 
L 3928 4134 
L 2272 4134 
L 2272 0 
L 1638 0 
L 1638 4134 
L -19 4134 
L -19 4666 
z
" transform="scale(0.015625)"/>
       <path id="DejaVuSans-65" d="M 3597 1894 
L 3597 1613 
L 953 1613 
Q 991 1019 1311 708 
Q 1631 397 2203 397 
Q 2534 397 2845 478 
Q 3156 559 3463 722 
L 3463 178 
Q 3153 47 2828 -22 
Q 2503 -91 2169 -91 
Q 1331 -91 842 396 
Q 353 884 353 1716 
Q 353 2575 817 3079 
Q 1281 3584 2069 3584 
Q 2775 3584 3186 3129 
Q 3597 2675 3597 1894 
z
M 3022 2063 
Q 3016 2534 2758 2815 
Q 2500 3097 2075 3097 
Q 1594 3097 1305 2825 
Q 1016 2553 972 2059 
L 3022 2063 
z
" transform="scale(0.015625)"/>
       <path id="DejaVuSans-63" d="M 3122 3366 
L 3122 2828 
Q 2878 2963 2633 3030 
Q 2388 3097 2138 3097 
Q 1578 3097 1268 2742 
Q 959 2388 959 1747 
Q 959 1106 1268 751 
Q 1578 397 2138 397 
Q 2388 397 2633 464 
Q 2878 531 3122 666 
L 3122 134 
Q 2881 22 2623 -34 
Q 2366 -91 2075 -91 
Q 1284 -91 818 406 
Q 353 903 353 1747 
Q 353 2603 823 3093 
Q 1294 3584 2113 3584 
Q 2378 3584 2631 3529 
Q 2884 3475 3122 3366 
z
" transform="scale(0.015625)"/>
       <path id="DejaVuSans-68" d="M 3513 2113 
L 3513 0 
L 2938 0 
L 2938 2094 
Q 2938 2591 2744 2837 
Q 2550 3084 2163 3084 
Q 1697 3084 1428 2787 
Q 1159 2491 1159 1978 
L 1159 0 
L 581 0 
L 581 4863 
L 1159 4863 
L 1159 2956 
Q 1366 3272 1645 3428 
Q 1925 3584 2291 3584 
Q 2894 3584 3203 3211 
Q 3513 2838 3513 2113 
z
" transform="scale(0.015625)"/>
      </defs>
      <use xlink:href="#DejaVuSans-55"/>
      <use xlink:href="#DejaVuSans-53" transform="translate(73.193359 0)"/>
      <use xlink:href="#DejaVuSans-2d" transform="translate(136.669922 0)"/>
      <use xlink:href="#DejaVuSans-54" transform="translate(163.628906 0)"/>
      <use xlink:href="#DejaVuSans-65" transform="translate(207.712891 0)"/>
      <use xlink:href="#DejaVuSans-63" transform="translate(269.236328 0)"/>
      <use xlink:href="#DejaVuSans-68" transform="translate(324.216797 0)"/>
     </g>
    </g>
    <g id="patch_15">
     <path d="M 308.815024 392.098774 
L 328.815024 392.098774 
L 328.815024 385.098774 
L 308.815024 385.098774 
z
" style="fill: #2ecc71; stroke: #2ecc71; stroke-linejoin: miter"/>
    </g>
    <g id="text_14">
     <!-- Europa-ETF -->
     <g transform="translate(336.815024 392.098774) scale(0.1 -0.1)">
      <defs>
       <path id="DejaVuSans-45" d="M 628 4666 
L 3578 4666 
L 3578 4134 
L 1259 4134 
L 1259 2753 
L 3481 2753 
L 3481 2222 
L 1259 2222 
L 1259 531 
L 3634 531 
L 3634 0 
L 628 0 
L 628 4666 
z
" transform="scale(0.015625)"/>
       <path id="DejaVuSans-75" d="M 544 1381 
L 544 3500 
L 1119 3500 
L 1119 1403 
Q 1119 906 1312 657 
Q 1506 409 1894 409 
Q 2359 409 2629 706 
Q 2900 1003 2900 1516 
L 2900 3500 
L 3475 3500 
L 3475 0 
L 2900 0 
L 2900 538 
Q 2691 219 2414 64 
Q 2138 -91 1772 -91 
Q 1169 -91 856 284 
Q 544 659 544 1381 
z
M 1991 3584 
L 1991 3584 
z
" transform="scale(0.015625)"/>
       <path id="DejaVuSans-72" d="M 2631 2963 
Q 2534 3019 2420 3045 
Q 2306 3072 2169 3072 
Q 1681 3072 1420 2755 
Q 1159 2438 1159 1844 
L 1159 0 
L 581 0 
L 581 3500 
L 1159 3500 
L 1159 2956 
Q 1341 3275 1631 3429 
Q 1922 3584 2338 3584 
Q 2397 3584 2469 3576 
Q 2541 3569 2628 3553 
L 2631 2963 
z
" transform="scale(0.015625)"/>
       <path id="DejaVuSans-6f" d="M 1959 3097 
Q 1497 3097 1228 2736 
Q 959 2375 959 1747 
Q 959 1119 1226 758 
Q 1494 397 1959 397 
Q 2419 397 2687 759 
Q 2956 1122 2956 1747 
Q 2956 2369 2687 2733 
Q 2419 3097 1959 3097 
z
M 1959 3584 
Q 2709 3584 3137 3096 
Q 3566 2609 3566 1747 
Q 3566 888 3137 398 
Q 2709 -91 1959 -91 
Q 1206 -91 779 398 
Q 353 888 353 1747 
Q 353 2609 779 3096 
Q 1206 3584 1959 3584 
z
" transform="scale(0.015625)"/>
       <path id="DejaVuSans-70" d="M 1159 525 
L 1159 -1331 
L 581 -1331 
L 581 3500 
L 1159 3500 
L 1159 2969 
Q 1341 3281 1617 3432 
Q 1894 3584 2278 3584 
Q 2916 3584 3314 3078 
Q 3713 2572 3713 1747 
Q 3713 922 3314 415 
Q 2916 -91 2278 -91 
Q 1894 -91 1617 61 
Q 1341 213 1159 525 
z
M 3116 1747 
Q 3116 2381 2855 2742 
Q 2594 3103 2138 3103 
Q 1681 3103 1420 2742 
Q 1159 2381 1159 1747 
Q 1159 1113 1420 752 
Q 1681 391 2138 391 
Q 2594 391 2855 752 
Q 3116 1113 3116 1747 
z
" transform="scale(0.015625)"/>
       <path id="DejaVuSans-61" d="M 2194 1759 
Q 1497 1759 1228 1600 
Q 959 1441 959 1056 
Q 959 750 1161 570 
Q 1363 391 1709 391 
Q 2188 391 2477 730 
Q 2766 1069 2766 1631 
L 2766 1759 
L 2194 1759 
z
M 3341 1997 
L 3341 0 
L 2766 0 
L 2766 531 
Q 2569 213 2275 61 
Q 1981 -91 1556 -91 
Q 1019 -91 701 211 
Q 384 513 384 1019 
Q 384 1609 779 1909 
Q 1175 2209 1959 2209 
L 2766 2209 
L 2766 2266 
Q 2766 2663 2505 2880 
Q 2244 3097 1772 3097 
Q 1472 3097 1187 3025 
Q 903 2953 641 2809 
L 641 3341 
Q 956 3463 1253 3523 
Q 1550 3584 1831 3584 
Q 2591 3584 2966 3190 
Q 3341 2797 3341 1997 
z
" transform="scale(0.015625)"/>
       <path id="DejaVuSans-46" d="M 628 4666 
L 3309 4666 
L 3309 4134 
L 1259 4134 
L 1259 2759 
L 3109 2759 
L 3109 2228 
L 1259 2228 
L 1259 0 
L 628 0 
L 628 4666 
z
" transform="scale(0.015625)"/>
      </defs>
      <use xlink:href="#DejaVuSans-45"/>
      <use xlink:href="#DejaVuSans-75" transform="translate(63.183594 0)"/>
      <use xlink:href="#DejaVuSans-72" transform="translate(126.5625 0)"/>
      <use xlink:href="#DejaVuSans-6f" transform="translate(165.425781 0)"/>
      <use xlink:href="#DejaVuSans-70" transform="translate(226.607422 0)"/>
      <use xlink:href="#DejaVuSans-61" transform="translate(290.083984 0)"/>
      <use xlink:href="#DejaVuSans-2d" transform="translate(351.363281 0)"/>
      <use xlink:href="#DejaVuSans-45" transform="translate(387.447266 0)"/>
      <use xlink:href="#DejaVuSans-54" transform="translate(450.630859 0)"/>
      <use xlink:href="#DejaVuSans-46" transform="translate(511.714844 0)"/>
     </g>
    </g>
    <g id="patch_16">
     <path d="M 308.815024 406.776899 
L 328.815024 406.776899 
L 328.815024 399.776899 
L 308.815024 399.776899 
z
" style="fill: #f39c12; stroke: #f39c12; stroke-linejoin: miter"/>
    </g>
    <g id="text_15">
     <!-- Krypto -->
     <g transform="translate(336.815024 406.776899) scale(0.1 -0.1)">
      <defs>
       <path id="DejaVuSans-4b" d="M 628 4666 
L 1259 4666 
L 1259 2694 
L 3353 4666 
L 4166 4666 
L 1850 2491 
L 4331 0 
L 3500 0 
L 1259 2247 
L 1259 0 
L 628 0 
L 628 4666 
z
" transform="scale(0.015625)"/>
       <path id="DejaVuSans-79" d="M 2059 -325 
Q 1816 -950 1584 -1140 
Q 1353 -1331 966 -1331 
L 506 -1331 
L 506 -850 
L 844 -850 
Q 1081 -850 1212 -737 
Q 1344 -625 1503 -206 
L 1606 56 
L 191 3500 
L 800 3500 
L 1894 763 
L 2988 3500 
L 3597 3500 
L 2059 -325 
z
" transform="scale(0.015625)"/>
       <path id="DejaVuSans-74" d="M 1172 4494 
L 1172 3500 
L 2356 3500 
L 2356 3053 
L 1172 3053 
L 1172 1153 
Q 1172 725 1289 603 
Q 1406 481 1766 481 
L 2356 481 
L 2356 0 
L 1766 0 
Q 1100 0 847 248 
Q 594 497 594 1153 
L 594 3053 
L 172 3053 
L 172 3500 
L 594 3500 
L 594 4494 
L 1172 4494 
z
" transform="scale(0.015625)"/>
      </defs>
      <use xlink:href="#DejaVuSans-4b"/>
      <use xlink:href="#DejaVuSans-72" transform="translate(65.576172 0)"/>
      <use xlink:href="#DejaVuSans-79" transform="translate(106.689453 0)"/>
      <use xlink:href="#DejaVuSans-70" transform="translate(165.869141 0)"/>
      <use xlink:href="#DejaVuSans-74" transform="translate(229.345703 0)"/>
      <use xlink:href="#DejaVuSans-6f" transform="translate(268.554688 0)"/>
     </g>
    </g>
   </g>
  </g>
 </g>
 <defs>
  <clipPath id="p3efca151d7">
   <rect x="7.2" y="22.318125" width="395.538462" height="395.538462"/>
  </clipPath>
 </defs>
</svg>
