<?xml version="1.0" encoding="utf-8" standalone="no"?>
<!DOCTYPE svg PUBLIC "-//W3C//DTD SVG 1.1//EN"
  "http://www.w3.org/Graphics/SVG/1.1/DTD/svg11.dtd">
<svg xmlns:xlink="http://www.w3.org/1999/xlink" width="928.8pt" height="320.003077pt" viewBox="0 0 928.8 320.003077" xmlns="http://www.w3.org/2000/svg" version="1.1">
 <metadata>
  <rdf:RDF xmlns:dc="http://purl.org/dc/elements/1.1/" xmlns:cc="http://creativecommons.org/ns#" xmlns:rdf="http://www.w3.org/1999/02/22-rdf-syntax-ns#">
   <cc:Work>
    <dc:type rdf:resource="http://purl.org/dc/dcmitype/StillImage"/>
    <dc:date>2026-03-19T04:26:30.750392</dc:date>
    <dc:format>image/svg+xml</dc:format>
    <dc:creator>
     <cc:Agent>
      <dc:title>Matplotlib v3.10.8, https://matplotlib.org/</dc:title>
     </cc:Agent>
    </dc:creator>
   </cc:Work>
  </rdf:RDF>
 </metadata>
 <defs>
  <style type="text/css">*{stroke-linejoin: round; stroke-linecap: butt}</style>
 </defs>
 <g id="figure_1">
  <g id="patch_1">
   <path d="M 0 320.003077 
L 928.8 320.003077 
L 928.8 0 
L 0 0 
z
" style="fill: #ffffff"/>
  </g>
  <g id="axes_1">
   <g id="patch_2">
    <path d="M 107.212027 190.023403 
Q 156.000773 206.659937 203.519678 190.455895 
" style="fill: none; stroke: #95a5a6; stroke-width: 1.2; stroke-linecap: round"/>
    <path d="M 199.088239 189.853939 
L 203.519678 190.455895 
L 200.37925 193.639872 
z
" style="fill: #95a5a6; stroke: #95a5a6; stroke-width: 1.2; stroke-linecap: round"/>
   </g>
   <g id="patch_3">
    <path d="M 204.787973 183.767366 
Q 155.999227 167.130832 108.480322 183.334875 
" style="fill: none; stroke: #95a5a6; stroke-width: 1.2; stroke-linecap: round"/>
    <path d="M 112.911761 183.93683 
L 108.480322 183.334875 
L 111.62075 180.150897 
z
" style="fill: #95a5a6; stroke: #95a5a6; stroke-width: 1.2; stroke-linecap: round"/>
   </g>
   <g id="patch_4">
    <path d="M 98.769231 201.775385 
C 102.715453 201.775385 106.500579 200.207534 109.29098 197.417134 
C 112.08138 194.626733 113.649231 190.841607 113.649231 186.895385 
C 113.649231 182.949162 112.08138 179.164036 109.29098 176.373636 
C 106.500579 173.583235 102.715453 172.015385 98.769231 172.015385 
C 94.823009 172.015385 91.037882 173.583235 88.247482 176.373636 
C 85.457081 179.164036 83.889231 182.949162 83.889231 186.895385 
C 83.889231 190.841607 85.457081 194.626733 88.247482 197.417134 
C 91.037882 200.207534 94.823009 201.775385 98.769231 201.775385 
z
" clip-path="url(#pcaf6622356)" style="fill: #3498db; stroke: #3498db; stroke-linejoin: miter"/>
   </g>
   <g id="patch_5">
    <path d="M 213.230769 201.775385 
C 217.176991 201.775385 220.962118 200.207534 223.752518 197.417134 
C 226.542919 194.626733 228.110769 190.841607 228.110769 186.895385 
C 228.110769 182.949162 226.542919 179.164036 223.752518 176.373636 
C 220.962118 173.583235 217.176991 172.015385 213.230769 172.015385 
C 209.284547 172.015385 205.499421 173.583235 202.70902 176.373636 
C 199.91862 179.164036 198.350769 182.949162 198.350769 186.895385 
C 198.350769 190.841607 199.91862 194.626733 202.70902 197.417134 
C 205.499421 200.207534 209.284547 201.775385 213.230769 201.775385 
z
" clip-path="url(#pcaf6622356)" style="fill: #3498db; stroke: #3498db; stroke-linejoin: miter"/>
   </g>
   <g id="text_1">
    <!-- Referenzgraph R -->
    <g transform="translate(108.717969 43.711755) scale(0.1 -0.1)">
     <defs>
      <path id="DejaVuSans-Bold-52" d="M 2297 2597 
Q 2675 2597 2839 2737 
Q 3003 2878 3003 3200 
Q 3003 3519 2839 3656 
Q 2675 3794 2297 3794 
L 1791 3794 
L 1791 2597 
L 2297 2597 
z
M 1791 1766 
L 1791 0 
L 588 0 
L 588 4666 
L 2425 4666 
Q 3347 4666 3776 4356 
Q 4206 4047 4206 3378 
Q 4206 2916 3982 2619 
Q 3759 2322 3309 2181 
Q 3556 2125 3751 1926 
Q 3947 1728 4147 1325 
L 4800 0 
L 3519 0 
L 2950 1159 
Q 2778 1509 2601 1637 
Q 2425 1766 2131 1766 
L 1791 1766 
z
" transform="scale(0.015625)"/>
      <path id="DejaVuSans-Bold-65" d="M 4031 1759 
L 4031 1441 
L 1416 1441 
Q 1456 1047 1700 850 
Q 1944 653 2381 653 
Q 2734 653 3104 758 
Q 3475 863 3866 1075 
L 3866 213 
Q 3469 63 3072 -14 
Q 2675 -91 2278 -91 
Q 1328 -91 801 392 
Q 275 875 275 1747 
Q 275 2603 792 3093 
Q 1309 3584 2216 3584 
Q 3041 3584 3536 3087 
Q 4031 2591 4031 1759 
z
M 2881 2131 
Q 2881 2450 2695 2645 
Q 2509 2841 2209 2841 
Q 1884 2841 1681 2658 
Q 1478 2475 1428 2131 
L 2881 2131 
z
" transform="scale(0.015625)"/>
      <path id="DejaVuSans-Bold-66" d="M 2841 4863 
L 2841 4128 
L 2222 4128 
Q 1984 4128 1890 4042 
Q 1797 3956 1797 3744 
L 1797 3500 
L 2753 3500 
L 2753 2700 
L 1797 2700 
L 1797 0 
L 678 0 
L 678 2700 
L 122 2700 
L 122 3500 
L 678 3500 
L 678 3744 
Q 678 4316 997 4589 
Q 1316 4863 1984 4863 
L 2841 4863 
z
" transform="scale(0.015625)"/>
      <path id="DejaVuSans-Bold-72" d="M 3138 2547 
Q 2991 2616 2845 2648 
Q 2700 2681 2553 2681 
Q 2122 2681 1889 2404 
Q 1656 2128 1656 1613 
L 1656 0 
L 538 0 
L 538 3500 
L 1656 3500 
L 1656 2925 
Q 1872 3269 2151 3426 
Q 2431 3584 2822 3584 
Q 2878 3584 2943 3579 
Q 3009 3575 3134 3559 
L 3138 2547 
z
" transform="scale(0.015625)"/>
      <path id="DejaVuSans-Bold-6e" d="M 4056 2131 
L 4056 0 
L 2931 0 
L 2931 347 
L 2931 1631 
Q 2931 2084 2911 2256 
Q 2891 2428 2841 2509 
Q 2775 2619 2662 2680 
Q 2550 2741 2406 2741 
Q 2056 2741 1856 2470 
Q 1656 2200 1656 1722 
L 1656 0 
L 538 0 
L 538 3500 
L 1656 3500 
L 1656 2988 
Q 1909 3294 2193 3439 
Q 2478 3584 2822 3584 
Q 3428 3584 3742 3212 
Q 4056 2841 4056 2131 
z
" transform="scale(0.015625)"/>
      <path id="DejaVuSans-Bold-7a" d="M 366 3500 
L 3419 3500 
L 3419 2719 
L 1575 800 
L 3419 800 
L 3419 0 
L 288 0 
L 288 781 
L 2131 2700 
L 366 2700 
L 366 3500 
z
" transform="scale(0.015625)"/>
      <path id="DejaVuSans-Bold-67" d="M 2919 594 
Q 2688 288 2409 144 
Q 2131 0 1766 0 
Q 1125 0 706 504 
Q 288 1009 288 1791 
Q 288 2575 706 3076 
Q 1125 3578 1766 3578 
Q 2131 3578 2409 3434 
Q 2688 3291 2919 2981 
L 2919 3500 
L 4044 3500 
L 4044 353 
Q 4044 -491 3511 -936 
Q 2978 -1381 1966 -1381 
Q 1638 -1381 1331 -1331 
Q 1025 -1281 716 -1178 
L 716 -306 
Q 1009 -475 1290 -558 
Q 1572 -641 1856 -641 
Q 2406 -641 2662 -400 
Q 2919 -159 2919 353 
L 2919 594 
z
M 2181 2772 
Q 1834 2772 1640 2515 
Q 1447 2259 1447 1791 
Q 1447 1309 1634 1061 
Q 1822 813 2181 813 
Q 2531 813 2725 1069 
Q 2919 1325 2919 1791 
Q 2919 2259 2725 2515 
Q 2531 2772 2181 2772 
z
" transform="scale(0.015625)"/>
      <path id="DejaVuSans-Bold-61" d="M 2106 1575 
Q 1756 1575 1579 1456 
Q 1403 1338 1403 1106 
Q 1403 894 1545 773 
Q 1688 653 1941 653 
Q 2256 653 2472 879 
Q 2688 1106 2688 1447 
L 2688 1575 
L 2106 1575 
z
M 3816 1997 
L 3816 0 
L 2688 0 
L 2688 519 
Q 2463 200 2181 54 
Q 1900 -91 1497 -91 
Q 953 -91 614 226 
Q 275 544 275 1050 
Q 275 1666 698 1953 
Q 1122 2241 2028 2241 
L 2688 2241 
L 2688 2328 
Q 2688 2594 2478 2717 
Q 2269 2841 1825 2841 
Q 1466 2841 1156 2769 
Q 847 2697 581 2553 
L 581 3406 
Q 941 3494 1303 3539 
Q 1666 3584 2028 3584 
Q 2975 3584 3395 3211 
Q 3816 2838 3816 1997 
z
" transform="scale(0.015625)"/>
      <path id="DejaVuSans-Bold-70" d="M 1656 506 
L 1656 -1331 
L 538 -1331 
L 538 3500 
L 1656 3500 
L 1656 2988 
Q 1888 3294 2169 3439 
Q 2450 3584 2816 3584 
Q 3463 3584 3878 3070 
Q 4294 2556 4294 1747 
Q 4294 938 3878 423 
Q 3463 -91 2816 -91 
Q 2450 -91 2169 54 
Q 1888 200 1656 506 
z
M 2400 2772 
Q 2041 2772 1848 2508 
Q 1656 2244 1656 1747 
Q 1656 1250 1848 986 
Q 2041 722 2400 722 
Q 2759 722 2948 984 
Q 3138 1247 3138 1747 
Q 3138 2247 2948 2509 
Q 2759 2772 2400 2772 
z
" transform="scale(0.015625)"/>
      <path id="DejaVuSans-Bold-68" d="M 4056 2131 
L 4056 0 
L 2931 0 
L 2931 347 
L 2931 1625 
Q 2931 2084 2911 2256 
Q 2891 2428 2841 2509 
Q 2775 2619 2662 2680 
Q 2550 2741 2406 2741 
Q 2056 2741 1856 2470 
Q 1656 2200 1656 1722 
L 1656 0 
L 538 0 
L 538 4863 
L 1656 4863 
L 1656 2988 
Q 1909 3294 2193 3439 
Q 2478 3584 2822 3584 
Q 3428 3584 3742 3212 
Q 4056 2841 4056 2131 
z
" transform="scale(0.015625)"/>
      <path id="DejaVuSans-Bold-20" transform="scale(0.015625)"/>
     </defs>
     <use xlink:href="#DejaVuSans-Bold-52"/>
     <use xlink:href="#DejaVuSans-Bold-65" transform="translate(77.001953 0)"/>
     <use xlink:href="#DejaVuSans-Bold-66" transform="translate(144.824219 0)"/>
     <use xlink:href="#DejaVuSans-Bold-65" transform="translate(188.330078 0)"/>
     <use xlink:href="#DejaVuSans-Bold-72" transform="translate(256.152344 0)"/>
     <use xlink:href="#DejaVuSans-Bold-65" transform="translate(305.46875 0)"/>
     <use xlink:href="#DejaVuSans-Bold-6e" transform="translate(373.291016 0)"/>
     <use xlink:href="#DejaVuSans-Bold-7a" transform="translate(444.482422 0)"/>
     <use xlink:href="#DejaVuSans-Bold-67" transform="translate(502.685547 0)"/>
     <use xlink:href="#DejaVuSans-Bold-72" transform="translate(574.267578 0)"/>
     <use xlink:href="#DejaVuSans-Bold-61" transform="translate(623.583984 0)"/>
     <use xlink:href="#DejaVuSans-Bold-70" transform="translate(691.064453 0)"/>
     <use xlink:href="#DejaVuSans-Bold-68" transform="translate(762.646484 0)"/>
     <use xlink:href="#DejaVuSans-Bold-20" transform="translate(833.837891 0)"/>
     <use xlink:href="#DejaVuSans-Bold-52" transform="translate(868.652344 0)"/>
    </g>
    <!-- (Betrugsmuster: Wash-Trading) -->
    <g transform="translate(67.813281 54.987692) scale(0.1 -0.1)">
     <defs>
      <path id="DejaVuSans-Bold-28" d="M 2413 -844 
L 1484 -844 
Q 1006 -72 778 623 
Q 550 1319 550 2003 
Q 550 2688 779 3389 
Q 1009 4091 1484 4856 
L 2413 4856 
Q 2013 4116 1813 3408 
Q 1613 2700 1613 2009 
Q 1613 1319 1811 609 
Q 2009 -100 2413 -844 
z
" transform="scale(0.015625)"/>
      <path id="DejaVuSans-Bold-42" d="M 2456 2859 
Q 2741 2859 2887 2984 
Q 3034 3109 3034 3353 
Q 3034 3594 2887 3720 
Q 2741 3847 2456 3847 
L 1791 3847 
L 1791 2859 
L 2456 2859 
z
M 2497 819 
Q 2859 819 3042 972 
Q 3225 1125 3225 1434 
Q 3225 1738 3044 1889 
Q 2863 2041 2497 2041 
L 1791 2041 
L 1791 819 
L 2497 819 
z
M 3616 2497 
Q 4003 2384 4215 2081 
Q 4428 1778 4428 1338 
Q 4428 663 3972 331 
Q 3516 0 2584 0 
L 588 0 
L 588 4666 
L 2394 4666 
Q 3366 4666 3802 4372 
Q 4238 4078 4238 3431 
Q 4238 3091 4078 2852 
Q 3919 2613 3616 2497 
z
" transform="scale(0.015625)"/>
      <path id="DejaVuSans-Bold-74" d="M 1759 4494 
L 1759 3500 
L 2913 3500 
L 2913 2700 
L 1759 2700 
L 1759 1216 
Q 1759 972 1856 886 
Q 1953 800 2241 800 
L 2816 800 
L 2816 0 
L 1856 0 
Q 1194 0 917 276 
Q 641 553 641 1216 
L 641 2700 
L 84 2700 
L 84 3500 
L 641 3500 
L 641 4494 
L 1759 4494 
z
" transform="scale(0.015625)"/>
      <path id="DejaVuSans-Bold-75" d="M 500 1363 
L 500 3500 
L 1625 3500 
L 1625 3150 
Q 1625 2866 1622 2436 
Q 1619 2006 1619 1863 
Q 1619 1441 1641 1255 
Q 1663 1069 1716 984 
Q 1784 875 1895 815 
Q 2006 756 2150 756 
Q 2500 756 2700 1025 
Q 2900 1294 2900 1772 
L 2900 3500 
L 4019 3500 
L 4019 0 
L 2900 0 
L 2900 506 
Q 2647 200 2364 54 
Q 2081 -91 1741 -91 
Q 1134 -91 817 281 
Q 500 653 500 1363 
z
" transform="scale(0.015625)"/>
      <path id="DejaVuSans-Bold-73" d="M 3272 3391 
L 3272 2541 
Q 2913 2691 2578 2766 
Q 2244 2841 1947 2841 
Q 1628 2841 1473 2761 
Q 1319 2681 1319 2516 
Q 1319 2381 1436 2309 
Q 1553 2238 1856 2203 
L 2053 2175 
Q 2913 2066 3209 1816 
Q 3506 1566 3506 1031 
Q 3506 472 3093 190 
Q 2681 -91 1863 -91 
Q 1516 -91 1145 -36 
Q 775 19 384 128 
L 384 978 
Q 719 816 1070 734 
Q 1422 653 1784 653 
Q 2113 653 2278 743 
Q 2444 834 2444 1013 
Q 2444 1163 2330 1236 
Q 2216 1309 1875 1350 
L 1678 1375 
Q 931 1469 631 1722 
Q 331 1975 331 2491 
Q 331 3047 712 3315 
Q 1094 3584 1881 3584 
Q 2191 3584 2531 3537 
Q 2872 3491 3272 3391 
z
" transform="scale(0.015625)"/>
      <path id="DejaVuSans-Bold-6d" d="M 3781 2919 
Q 3994 3244 4286 3414 
Q 4578 3584 4928 3584 
Q 5531 3584 5847 3212 
Q 6163 2841 6163 2131 
L 6163 0 
L 5038 0 
L 5038 1825 
Q 5041 1866 5042 1909 
Q 5044 1953 5044 2034 
Q 5044 2406 4934 2573 
Q 4825 2741 4581 2741 
Q 4263 2741 4089 2478 
Q 3916 2216 3909 1719 
L 3909 0 
L 2784 0 
L 2784 1825 
Q 2784 2406 2684 2573 
Q 2584 2741 2328 2741 
Q 2006 2741 1831 2477 
Q 1656 2213 1656 1722 
L 1656 0 
L 531 0 
L 531 3500 
L 1656 3500 
L 1656 2988 
Q 1863 3284 2130 3434 
Q 2397 3584 2719 3584 
Q 3081 3584 3359 3409 
Q 3638 3234 3781 2919 
z
" transform="scale(0.015625)"/>
      <path id="DejaVuSans-Bold-3a" d="M 716 3500 
L 1844 3500 
L 1844 2291 
L 716 2291 
L 716 3500 
z
M 716 1209 
L 1844 1209 
L 1844 0 
L 716 0 
L 716 1209 
z
" transform="scale(0.015625)"/>
      <path id="DejaVuSans-Bold-57" d="M 191 4666 
L 1344 4666 
L 2150 1275 
L 2950 4666 
L 4109 4666 
L 4909 1275 
L 5716 4666 
L 6859 4666 
L 5759 0 
L 4372 0 
L 3525 3547 
L 2688 0 
L 1300 0 
L 191 4666 
z
" transform="scale(0.015625)"/>
      <path id="DejaVuSans-Bold-2d" d="M 347 2297 
L 2309 2297 
L 2309 1388 
L 347 1388 
L 347 2297 
z
" transform="scale(0.015625)"/>
      <path id="DejaVuSans-Bold-54" d="M 31 4666 
L 4331 4666 
L 4331 3756 
L 2784 3756 
L 2784 0 
L 1581 0 
L 1581 3756 
L 31 3756 
L 31 4666 
z
" transform="scale(0.015625)"/>
      <path id="DejaVuSans-Bold-64" d="M 2919 2988 
L 2919 4863 
L 4044 4863 
L 4044 0 
L 2919 0 
L 2919 506 
Q 2688 197 2409 53 
Q 2131 -91 1766 -91 
Q 1119 -91 703 423 
Q 288 938 288 1747 
Q 288 2556 703 3070 
Q 1119 3584 1766 3584 
Q 2128 3584 2408 3439 
Q 2688 3294 2919 2988 
z
M 2181 722 
Q 2541 722 2730 984 
Q 2919 1247 2919 1747 
Q 2919 2247 2730 2509 
Q 2541 2772 2181 2772 
Q 1825 2772 1636 2509 
Q 1447 2247 1447 1747 
Q 1447 1247 1636 984 
Q 1825 722 2181 722 
z
" transform="scale(0.015625)"/>
      <path id="DejaVuSans-Bold-69" d="M 538 3500 
L 1656 3500 
L 1656 0 
L 538 0 
L 538 3500 
z
M 538 4863 
L 1656 4863 
L 1656 3950 
L 538 3950 
L 538 4863 
z
" transform="scale(0.015625)"/>
      <path id="DejaVuSans-Bold-29" d="M 513 -844 
Q 913 -100 1113 609 
Q 1313 1319 1313 2009 
Q 1313 2700 1113 3408 
Q 913 4116 513 4856 
L 1441 4856 
Q 1916 4091 2145 3389 
Q 2375 2688 2375 2003 
Q 2375 1319 2147 623 
Q 1919 -72 1441 -844 
L 513 -844 
z
" transform="scale(0.015625)"/>
     </defs>
     <use xlink:href="#DejaVuSans-Bold-28"/>
     <use xlink:href="#DejaVuSans-Bold-42" transform="translate(45.703125 0)"/>
     <use xlink:href="#DejaVuSans-Bold-65" transform="translate(121.923828 0)"/>
     <use xlink:href="#DejaVuSans-Bold-74" transform="translate(189.746094 0)"/>
     <use xlink:href="#DejaVuSans-Bold-72" transform="translate(237.548828 0)"/>
     <use xlink:href="#DejaVuSans-Bold-75" transform="translate(286.865234 0)"/>
     <use xlink:href="#DejaVuSans-Bold-67" transform="translate(358.056641 0)"/>
     <use xlink:href="#DejaVuSans-Bold-73" transform="translate(429.638672 0)"/>
     <use xlink:href="#DejaVuSans-Bold-6d" transform="translate(489.160156 0)"/>
     <use xlink:href="#DejaVuSans-Bold-75" transform="translate(593.359375 0)"/>
     <use xlink:href="#DejaVuSans-Bold-73" transform="translate(664.550781 0)"/>
     <use xlink:href="#DejaVuSans-Bold-74" transform="translate(724.072266 0)"/>
     <use xlink:href="#DejaVuSans-Bold-65" transform="translate(771.875 0)"/>
     <use xlink:href="#DejaVuSans-Bold-72" transform="translate(839.697266 0)"/>
     <use xlink:href="#DejaVuSans-Bold-3a" transform="translate(889.013672 0)"/>
     <use xlink:href="#DejaVuSans-Bold-20" transform="translate(929.003906 0)"/>
     <use xlink:href="#DejaVuSans-Bold-57" transform="translate(963.818359 0)"/>
     <use xlink:href="#DejaVuSans-Bold-61" transform="translate(1070.496094 0)"/>
     <use xlink:href="#DejaVuSans-Bold-73" transform="translate(1137.976562 0)"/>
     <use xlink:href="#DejaVuSans-Bold-68" transform="translate(1197.498047 0)"/>
     <use xlink:href="#DejaVuSans-Bold-2d" transform="translate(1268.689453 0)"/>
     <use xlink:href="#DejaVuSans-Bold-54" transform="translate(1295.443359 0)"/>
     <use xlink:href="#DejaVuSans-Bold-72" transform="translate(1352.65625 0)"/>
     <use xlink:href="#DejaVuSans-Bold-61" transform="translate(1401.972656 0)"/>
     <use xlink:href="#DejaVuSans-Bold-64" transform="translate(1469.453125 0)"/>
     <use xlink:href="#DejaVuSans-Bold-69" transform="translate(1541.035156 0)"/>
     <use xlink:href="#DejaVuSans-Bold-6e" transform="translate(1575.3125 0)"/>
     <use xlink:href="#DejaVuSans-Bold-67" transform="translate(1646.503906 0)"/>
     <use xlink:href="#DejaVuSans-Bold-29" transform="translate(1718.085938 0)"/>
    </g>
   </g>
   <g id="text_2">
    <!-- A -->
    <g style="fill: #ffffff" transform="translate(95.286653 189.378822) scale(0.09 -0.09)">
     <defs>
      <path id="DejaVuSans-Bold-41" d="M 3419 850 
L 1538 850 
L 1241 0 
L 31 0 
L 1759 4666 
L 3194 4666 
L 4922 0 
L 3713 0 
L 3419 850 
z
M 1838 1716 
L 3116 1716 
L 2478 3572 
L 1838 1716 
z
" transform="scale(0.015625)"/>
     </defs>
     <use xlink:href="#DejaVuSans-Bold-41"/>
    </g>
   </g>
   <g id="text_3">
    <!-- B -->
    <g style="fill: #ffffff" transform="translate(209.800925 189.378822) scale(0.09 -0.09)">
     <use xlink:href="#DejaVuSans-Bold-42"/>
    </g>
   </g>
  </g>
  <g id="axes_2">
   <g id="patch_6">
    <path d="M 404.152599 144.275647 
Q 464.402924 165.417686 523.3873 144.717864 
" style="fill: none; stroke: #95a5a6; stroke-width: 1.2; stroke-linecap: round"/>
    <path d="M 518.950694 144.155253 
L 523.3873 144.717864 
L 520.275247 147.929582 
z
" style="fill: #95a5a6; stroke: #95a5a6; stroke-width: 1.2; stroke-linecap: round"/>
   </g>
   <g id="patch_7">
    <path d="M 524.647401 137.945891 
Q 464.397076 116.803852 405.4127 137.503674 
" style="fill: none; stroke: #95a5a6; stroke-width: 1.2; stroke-linecap: round"/>
    <path d="M 409.849306 138.066286 
L 405.4127 137.503674 
L 408.524753 134.291957 
z
" style="fill: #95a5a6; stroke: #95a5a6; stroke-width: 1.2; stroke-linecap: round"/>
   </g>
   <g id="patch_8">
    <path d="M 526.032255 146.712962 
Q 478.555367 186.230442 466.30051 245.40413 
" style="fill: none; stroke: #95a5a6; stroke-width: 1.2; stroke-linecap: round"/>
    <path d="M 469.070137 241.89284 
L 466.30051 245.40413 
L 465.153253 241.081654 
z
" style="fill: #95a5a6; stroke: #95a5a6; stroke-width: 1.2; stroke-linecap: round"/>
   </g>
   <g id="patch_9">
    <path d="M 456.828181 250.705413 
Q 416.79614 226.557308 371.638526 231.336917 
" style="fill: none; stroke: #95a5a6; stroke-width: 1.2; stroke-linecap: round"/>
    <path d="M 375.826817 232.904788 
L 371.638526 231.336917 
L 375.405797 228.927007 
z
" style="fill: #95a5a6; stroke: #95a5a6; stroke-width: 1.2; stroke-linecap: round"/>
   </g>
   <g id="patch_10">
    <path d="M 367.246306 225.848106 
Q 393.974878 192.678111 395.594557 151.452638 
" style="fill: none; stroke: #95a5a6; stroke-width: 1.2; stroke-linecap: round"/>
    <path d="M 393.439067 155.371038 
L 395.594557 151.452638 
L 397.435983 155.528071 
z
" style="fill: #95a5a6; stroke: #95a5a6; stroke-width: 1.2; stroke-linecap: round"/>
   </g>
   <g id="patch_11">
    <path d="M 395.723077 155.990769 
C 399.669299 155.990769 403.454425 154.422919 406.244826 151.632518 
C 409.035226 148.842118 410.603077 145.056991 410.603077 141.110769 
C 410.603077 137.164547 409.035226 133.379421 406.244826 130.58902 
C 403.454425 127.79862 399.669299 126.230769 395.723077 126.230769 
C 391.776855 126.230769 387.991728 127.79862 385.201328 130.58902 
C 382.410928 133.379421 380.843077 137.164547 380.843077 141.110769 
C 380.843077 145.056991 382.410928 148.842118 385.201328 151.632518 
C 387.991728 154.422919 391.776855 155.990769 395.723077 155.990769 
z
" clip-path="url(#p1acd054541)" style="fill: #3498db; stroke: #3498db; stroke-linejoin: miter"/>
   </g>
   <g id="patch_12">
    <path d="M 533.076923 155.990769 
C 537.023145 155.990769 540.808272 154.422919 543.598672 151.632518 
C 546.389072 148.842118 547.956923 145.056991 547.956923 141.110769 
C 547.956923 137.164547 546.389072 133.379421 543.598672 130.58902 
C 540.808272 127.79862 537.023145 126.230769 533.076923 126.230769 
C 529.130701 126.230769 525.345575 127.79862 522.555174 130.58902 
C 519.764774 133.379421 518.196923 137.164547 518.196923 141.110769 
C 518.196923 145.056991 519.764774 148.842118 522.555174 151.632518 
C 525.345575 154.422919 529.130701 155.990769 533.076923 155.990769 
z
" clip-path="url(#p1acd054541)" style="fill: #3498db; stroke: #3498db; stroke-linejoin: miter"/>
   </g>
   <g id="patch_13">
    <path d="M 464.4 270.452308 
C 468.346222 270.452308 472.131348 268.884457 474.921749 266.094057 
C 477.712149 263.303656 479.28 259.51853 479.28 255.572308 
C 479.28 251.626086 477.712149 247.840959 474.921749 245.050559 
C 472.131348 242.260158 468.346222 240.692308 464.4 240.692308 
C 460.453778 240.692308 456.668652 242.260158 453.878251 245.050559 
C 451.087851 247.840959 449.52 251.626086 449.52 255.572308 
C 449.52 259.51853 451.087851 263.303656 453.878251 266.094057 
C 456.668652 268.884457 460.453778 270.452308 464.4 270.452308 
z
" clip-path="url(#p1acd054541)" style="fill: #3498db; stroke: #3498db; stroke-linejoin: miter"/>
   </g>
   <g id="patch_14">
    <path d="M 361.384615 247.56 
C 365.330838 247.56 369.115964 245.992149 371.906364 243.201749 
C 374.696765 240.411348 376.264615 236.626222 376.264615 232.68 
C 376.264615 228.733778 374.696765 224.948652 371.906364 222.158251 
C 369.115964 219.367851 365.330838 217.8 361.384615 217.8 
C 357.438393 217.8 353.653267 219.367851 350.862866 222.158251 
C 348.072466 224.948652 346.504615 228.733778 346.504615 232.68 
C 346.504615 236.626222 348.072466 240.411348 350.862866 243.201749 
C 353.653267 245.992149 357.438393 247.56 361.384615 247.56 
z
" clip-path="url(#p1acd054541)" style="fill: #3498db; stroke: #3498db; stroke-linejoin: miter"/>
   </g>
   <g id="text_4">
    <!-- Transaktionsgraph G -->
    <g transform="translate(405.989062 43.711755) scale(0.1 -0.1)">
     <defs>
      <path id="DejaVuSans-Bold-6b" d="M 538 4863 
L 1656 4863 
L 1656 2216 
L 2944 3500 
L 4244 3500 
L 2534 1894 
L 4378 0 
L 3022 0 
L 1656 1459 
L 1656 0 
L 538 0 
L 538 4863 
z
" transform="scale(0.015625)"/>
      <path id="DejaVuSans-Bold-6f" d="M 2203 2784 
Q 1831 2784 1636 2517 
Q 1441 2250 1441 1747 
Q 1441 1244 1636 976 
Q 1831 709 2203 709 
Q 2569 709 2762 976 
Q 2956 1244 2956 1747 
Q 2956 2250 2762 2517 
Q 2569 2784 2203 2784 
z
M 2203 3584 
Q 3106 3584 3614 3096 
Q 4122 2609 4122 1747 
Q 4122 884 3614 396 
Q 3106 -91 2203 -91 
Q 1297 -91 786 396 
Q 275 884 275 1747 
Q 275 2609 786 3096 
Q 1297 3584 2203 3584 
z
" transform="scale(0.015625)"/>
      <path id="DejaVuSans-Bold-47" d="M 4781 347 
Q 4331 128 3847 18 
Q 3363 -91 2847 -91 
Q 1681 -91 1000 561 
Q 319 1213 319 2328 
Q 319 3456 1012 4103 
Q 1706 4750 2913 4750 
Q 3378 4750 3804 4662 
Q 4231 4575 4609 4403 
L 4609 3438 
Q 4219 3659 3833 3768 
Q 3447 3878 3059 3878 
Q 2341 3878 1952 3476 
Q 1563 3075 1563 2328 
Q 1563 1588 1938 1184 
Q 2313 781 3003 781 
Q 3191 781 3352 804 
Q 3513 828 3641 878 
L 3641 1784 
L 2906 1784 
L 2906 2591 
L 4781 2591 
L 4781 347 
z
" transform="scale(0.015625)"/>
     </defs>
     <use xlink:href="#DejaVuSans-Bold-54"/>
     <use xlink:href="#DejaVuSans-Bold-72" transform="translate(57.212891 0)"/>
     <use xlink:href="#DejaVuSans-Bold-61" transform="translate(106.529297 0)"/>
     <use xlink:href="#DejaVuSans-Bold-6e" transform="translate(174.009766 0)"/>
     <use xlink:href="#DejaVuSans-Bold-73" transform="translate(245.201172 0)"/>
     <use xlink:href="#DejaVuSans-Bold-61" transform="translate(304.722656 0)"/>
     <use xlink:href="#DejaVuSans-Bold-6b" transform="translate(372.203125 0)"/>
     <use xlink:href="#DejaVuSans-Bold-74" transform="translate(438.707031 0)"/>
     <use xlink:href="#DejaVuSans-Bold-69" transform="translate(486.509766 0)"/>
     <use xlink:href="#DejaVuSans-Bold-6f" transform="translate(520.787109 0)"/>
     <use xlink:href="#DejaVuSans-Bold-6e" transform="translate(589.488281 0)"/>
     <use xlink:href="#DejaVuSans-Bold-73" transform="translate(660.679688 0)"/>
     <use xlink:href="#DejaVuSans-Bold-67" transform="translate(720.201172 0)"/>
     <use xlink:href="#DejaVuSans-Bold-72" transform="translate(791.783203 0)"/>
     <use xlink:href="#DejaVuSans-Bold-61" transform="translate(841.099609 0)"/>
     <use xlink:href="#DejaVuSans-Bold-70" transform="translate(908.580078 0)"/>
     <use xlink:href="#DejaVuSans-Bold-68" transform="translate(980.162109 0)"/>
     <use xlink:href="#DejaVuSans-Bold-20" transform="translate(1051.353516 0)"/>
     <use xlink:href="#DejaVuSans-Bold-47" transform="translate(1086.167969 0)"/>
    </g>
    <!-- (echtes Netzwerk) -->
    <g transform="translate(412.739844 54.987692) scale(0.1 -0.1)">
     <defs>
      <path id="DejaVuSans-Bold-63" d="M 3366 3391 
L 3366 2478 
Q 3138 2634 2908 2709 
Q 2678 2784 2431 2784 
Q 1963 2784 1702 2511 
Q 1441 2238 1441 1747 
Q 1441 1256 1702 982 
Q 1963 709 2431 709 
Q 2694 709 2930 787 
Q 3166 866 3366 1019 
L 3366 103 
Q 3103 6 2833 -42 
Q 2563 -91 2291 -91 
Q 1344 -91 809 395 
Q 275 881 275 1747 
Q 275 2613 809 3098 
Q 1344 3584 2291 3584 
Q 2566 3584 2833 3536 
Q 3100 3488 3366 3391 
z
" transform="scale(0.015625)"/>
      <path id="DejaVuSans-Bold-4e" d="M 588 4666 
L 1931 4666 
L 3628 1466 
L 3628 4666 
L 4769 4666 
L 4769 0 
L 3425 0 
L 1728 3200 
L 1728 0 
L 588 0 
L 588 4666 
z
" transform="scale(0.015625)"/>
      <path id="DejaVuSans-Bold-77" d="M 225 3500 
L 1313 3500 
L 1900 1088 
L 2491 3500 
L 3425 3500 
L 4013 1113 
L 4603 3500 
L 5691 3500 
L 4769 0 
L 3547 0 
L 2956 2406 
L 2369 0 
L 1147 0 
L 225 3500 
z
" transform="scale(0.015625)"/>
     </defs>
     <use xlink:href="#DejaVuSans-Bold-28"/>
     <use xlink:href="#DejaVuSans-Bold-65" transform="translate(45.703125 0)"/>
     <use xlink:href="#DejaVuSans-Bold-63" transform="translate(113.525391 0)"/>
     <use xlink:href="#DejaVuSans-Bold-68" transform="translate(172.802734 0)"/>
     <use xlink:href="#DejaVuSans-Bold-74" transform="translate(243.994141 0)"/>
     <use xlink:href="#DejaVuSans-Bold-65" transform="translate(291.796875 0)"/>
     <use xlink:href="#DejaVuSans-Bold-73" transform="translate(359.619141 0)"/>
     <use xlink:href="#DejaVuSans-Bold-20" transform="translate(419.140625 0)"/>
     <use xlink:href="#DejaVuSans-Bold-4e" transform="translate(453.955078 0)"/>
     <use xlink:href="#DejaVuSans-Bold-65" transform="translate(537.646484 0)"/>
     <use xlink:href="#DejaVuSans-Bold-74" transform="translate(605.46875 0)"/>
     <use xlink:href="#DejaVuSans-Bold-7a" transform="translate(653.271484 0)"/>
     <use xlink:href="#DejaVuSans-Bold-77" transform="translate(711.474609 0)"/>
     <use xlink:href="#DejaVuSans-Bold-65" transform="translate(803.857422 0)"/>
     <use xlink:href="#DejaVuSans-Bold-72" transform="translate(871.679688 0)"/>
     <use xlink:href="#DejaVuSans-Bold-6b" transform="translate(920.996094 0)"/>
     <use xlink:href="#DejaVuSans-Bold-29" transform="translate(987.5 0)"/>
    </g>
   </g>
   <g id="text_5">
    <!-- Alice -->
    <g style="fill: #ffffff" transform="translate(383.435264 143.594207) scale(0.09 -0.09)">
     <defs>
      <path id="DejaVuSans-Bold-6c" d="M 538 4863 
L 1656 4863 
L 1656 0 
L 538 0 
L 538 4863 
z
" transform="scale(0.015625)"/>
     </defs>
     <use xlink:href="#DejaVuSans-Bold-41"/>
     <use xlink:href="#DejaVuSans-Bold-6c" transform="translate(77.392578 0)"/>
     <use xlink:href="#DejaVuSans-Bold-69" transform="translate(111.669922 0)"/>
     <use xlink:href="#DejaVuSans-Bold-63" transform="translate(145.947266 0)"/>
     <use xlink:href="#DejaVuSans-Bold-65" transform="translate(205.224609 0)"/>
    </g>
   </g>
   <g id="text_6">
    <!-- Bob -->
    <g style="fill: #ffffff" transform="translate(523.334423 143.594207) scale(0.09 -0.09)">
     <defs>
      <path id="DejaVuSans-Bold-62" d="M 2400 722 
Q 2759 722 2948 984 
Q 3138 1247 3138 1747 
Q 3138 2247 2948 2509 
Q 2759 2772 2400 2772 
Q 2041 2772 1848 2508 
Q 1656 2244 1656 1747 
Q 1656 1250 1848 986 
Q 2041 722 2400 722 
z
M 1656 2988 
Q 1888 3294 2169 3439 
Q 2450 3584 2816 3584 
Q 3463 3584 3878 3070 
Q 4294 2556 4294 1747 
Q 4294 938 3878 423 
Q 3463 -91 2816 -91 
Q 2450 -91 2169 54 
Q 1888 200 1656 506 
L 1656 0 
L 538 0 
L 538 4863 
L 1656 4863 
L 1656 2988 
z
" transform="scale(0.015625)"/>
     </defs>
     <use xlink:href="#DejaVuSans-Bold-42"/>
     <use xlink:href="#DejaVuSans-Bold-6f" transform="translate(76.220703 0)"/>
     <use xlink:href="#DejaVuSans-Bold-62" transform="translate(144.921875 0)"/>
    </g>
   </g>
   <g id="text_7">
    <!-- Carol -->
    <g style="fill: #ffffff" transform="translate(451.207266 258.055745) scale(0.09 -0.09)">
     <defs>
      <path id="DejaVuSans-Bold-43" d="M 4288 256 
Q 3956 84 3597 -3 
Q 3238 -91 2847 -91 
Q 1681 -91 1000 561 
Q 319 1213 319 2328 
Q 319 3447 1000 4098 
Q 1681 4750 2847 4750 
Q 3238 4750 3597 4662 
Q 3956 4575 4288 4403 
L 4288 3438 
Q 3953 3666 3628 3772 
Q 3303 3878 2944 3878 
Q 2300 3878 1931 3465 
Q 1563 3053 1563 2328 
Q 1563 1606 1931 1193 
Q 2300 781 2944 781 
Q 3303 781 3628 887 
Q 3953 994 4288 1222 
L 4288 256 
z
" transform="scale(0.015625)"/>
     </defs>
     <use xlink:href="#DejaVuSans-Bold-43"/>
     <use xlink:href="#DejaVuSans-Bold-61" transform="translate(73.388672 0)"/>
     <use xlink:href="#DejaVuSans-Bold-72" transform="translate(140.869141 0)"/>
     <use xlink:href="#DejaVuSans-Bold-6f" transform="translate(190.185547 0)"/>
     <use xlink:href="#DejaVuSans-Bold-6c" transform="translate(258.886719 0)"/>
    </g>
   </g>
   <g id="text_8">
    <!-- Dave -->
    <g style="fill: #ffffff" transform="translate(348.626412 235.163437) scale(0.09 -0.09)">
     <defs>
      <path id="DejaVuSans-Bold-44" d="M 1791 3756 
L 1791 909 
L 2222 909 
Q 2959 909 3348 1275 
Q 3738 1641 3738 2338 
Q 3738 3031 3350 3393 
Q 2963 3756 2222 3756 
L 1791 3756 
z
M 588 4666 
L 1856 4666 
Q 2919 4666 3439 4514 
Q 3959 4363 4331 4000 
Q 4659 3684 4818 3271 
Q 4978 2859 4978 2338 
Q 4978 1809 4818 1395 
Q 4659 981 4331 666 
Q 3956 303 3431 151 
Q 2906 0 1856 0 
L 588 0 
L 588 4666 
z
" transform="scale(0.015625)"/>
      <path id="DejaVuSans-Bold-76" d="M 97 3500 
L 1216 3500 
L 2088 1081 
L 2956 3500 
L 4078 3500 
L 2700 0 
L 1472 0 
L 97 3500 
z
" transform="scale(0.015625)"/>
     </defs>
     <use xlink:href="#DejaVuSans-Bold-44"/>
     <use xlink:href="#DejaVuSans-Bold-61" transform="translate(83.007812 0)"/>
     <use xlink:href="#DejaVuSans-Bold-76" transform="translate(150.488281 0)"/>
     <use xlink:href="#DejaVuSans-Bold-65" transform="translate(215.673828 0)"/>
    </g>
   </g>
  </g>
  <g id="axes_3">
   <g id="patch_15">
    <path d="M 712.552599 144.275647 
Q 772.802924 165.417686 830.415856 145.199155 
" style="fill: none; stroke: #e74c3c; stroke-width: 2.5; stroke-linecap: round"/>
    <path d="M 825.97925 144.636544 
L 830.415856 145.199155 
L 827.303803 148.410873 
z
" style="fill: #e74c3c; stroke: #e74c3c; stroke-width: 2.5; stroke-linecap: round"/>
   </g>
   <g id="patch_16">
    <path d="M 833.047401 137.945891 
Q 772.797076 116.803852 715.184144 137.022383 
" style="fill: none; stroke: #e74c3c; stroke-width: 2.5; stroke-linecap: round"/>
    <path d="M 719.62075 137.584995 
L 715.184144 137.022383 
L 718.296197 133.810666 
z
" style="fill: #e74c3c; stroke: #e74c3c; stroke-width: 2.5; stroke-linecap: round"/>
   </g>
   <g id="patch_17">
    <path d="M 834.432255 146.712962 
Q 786.955367 186.230442 774.70051 245.40413 
" style="fill: none; stroke: #95a5a6; stroke-width: 1.2; stroke-linecap: round"/>
    <path d="M 777.470137 241.89284 
L 774.70051 245.40413 
L 773.553253 241.081654 
z
" style="fill: #95a5a6; stroke: #95a5a6; stroke-width: 1.2; stroke-linecap: round"/>
   </g>
   <g id="patch_18">
    <path d="M 765.228181 250.705413 
Q 725.19614 226.557308 680.038526 231.336917 
" style="fill: none; stroke: #95a5a6; stroke-width: 1.2; stroke-linecap: round"/>
    <path d="M 684.226817 232.904788 
L 680.038526 231.336917 
L 683.805797 228.927007 
z
" style="fill: #95a5a6; stroke: #95a5a6; stroke-width: 1.2; stroke-linecap: round"/>
   </g>
   <g id="patch_19">
    <path d="M 675.646306 225.848106 
Q 702.374878 192.678111 703.994557 151.452638 
" style="fill: none; stroke: #95a5a6; stroke-width: 1.2; stroke-linecap: round"/>
    <path d="M 701.839067 155.371038 
L 703.994557 151.452638 
L 705.835983 155.528071 
z
" style="fill: #95a5a6; stroke: #95a5a6; stroke-width: 1.2; stroke-linecap: round"/>
   </g>
   <g id="patch_20">
    <path d="M 704.123077 155.990769 
C 708.069299 155.990769 711.854425 154.422919 714.644826 151.632518 
C 717.435226 148.842118 719.003077 145.056991 719.003077 141.110769 
C 719.003077 137.164547 717.435226 133.379421 714.644826 130.58902 
C 711.854425 127.79862 708.069299 126.230769 704.123077 126.230769 
C 700.176855 126.230769 696.391728 127.79862 693.601328 130.58902 
C 690.810928 133.379421 689.243077 137.164547 689.243077 141.110769 
C 689.243077 145.056991 690.810928 148.842118 693.601328 151.632518 
C 696.391728 154.422919 700.176855 155.990769 704.123077 155.990769 
z
" clip-path="url(#p013edabc43)" style="fill: #e74c3c; stroke: #e74c3c; stroke-linejoin: miter"/>
   </g>
   <g id="patch_21">
    <path d="M 841.476923 155.990769 
C 845.423145 155.990769 849.208272 154.422919 851.998672 151.632518 
C 854.789072 148.842118 856.356923 145.056991 856.356923 141.110769 
C 856.356923 137.164547 854.789072 133.379421 851.998672 130.58902 
C 849.208272 127.79862 845.423145 126.230769 841.476923 126.230769 
C 837.530701 126.230769 833.745575 127.79862 830.955174 130.58902 
C 828.164774 133.379421 826.596923 137.164547 826.596923 141.110769 
C 826.596923 145.056991 828.164774 148.842118 830.955174 151.632518 
C 833.745575 154.422919 837.530701 155.990769 841.476923 155.990769 
z
" clip-path="url(#p013edabc43)" style="fill: #e74c3c; stroke: #e74c3c; stroke-linejoin: miter"/>
   </g>
   <g id="patch_22">
    <path d="M 772.8 270.452308 
C 776.746222 270.452308 780.531348 268.884457 783.321749 266.094057 
C 786.112149 263.303656 787.68 259.51853 787.68 255.572308 
C 787.68 251.626086 786.112149 247.840959 783.321749 245.050559 
C 780.531348 242.260158 776.746222 240.692308 772.8 240.692308 
C 768.853778 240.692308 765.068652 242.260158 762.278251 245.050559 
C 759.487851 247.840959 757.92 251.626086 757.92 255.572308 
C 757.92 259.51853 759.487851 263.303656 762.278251 266.094057 
C 765.068652 268.884457 768.853778 270.452308 772.8 270.452308 
z
" clip-path="url(#p013edabc43)" style="fill: #3498db; stroke: #3498db; stroke-linejoin: miter"/>
   </g>
   <g id="patch_23">
    <path d="M 669.784615 247.56 
C 673.730838 247.56 677.515964 245.992149 680.306364 243.201749 
C 683.096765 240.411348 684.664615 236.626222 684.664615 232.68 
C 684.664615 228.733778 683.096765 224.948652 680.306364 222.158251 
C 677.515964 219.367851 673.730838 217.8 669.784615 217.8 
C 665.838393 217.8 662.053267 219.367851 659.262866 222.158251 
C 656.472466 224.948652 654.904615 228.733778 654.904615 232.68 
C 654.904615 236.626222 656.472466 240.411348 659.262866 243.201749 
C 662.053267 245.992149 665.838393 247.56 669.784615 247.56 
z
" clip-path="url(#p013edabc43)" style="fill: #3498db; stroke: #3498db; stroke-linejoin: miter"/>
   </g>
   <g id="text_9">
    <!-- Ergebnis: R ⊆ G -->
    <g transform="translate(728.755469 43.711755) scale(0.1 -0.1)">
     <defs>
      <path id="DejaVuSans-Bold-45" d="M 588 4666 
L 3834 4666 
L 3834 3756 
L 1791 3756 
L 1791 2888 
L 3713 2888 
L 3713 1978 
L 1791 1978 
L 1791 909 
L 3903 909 
L 3903 0 
L 588 0 
L 588 4666 
z
" transform="scale(0.015625)"/>
      <path id="DejaVuSans-Bold-2286" d="M 800 653 
L 4725 653 
L 4725 0 
L 800 0 
L 800 653 
z
M 2156 4069 
L 4725 4069 
L 4725 3366 
L 2156 3366 
Q 1813 3366 1575 3125 
Q 1338 2884 1338 2544 
Q 1338 2197 1575 1963 
Q 1819 1722 2156 1722 
L 4725 1722 
L 4725 1019 
L 2163 1019 
Q 1519 1019 1081 1463 
Q 638 1913 638 2544 
Q 638 3175 1081 3625 
Q 1519 4069 2156 4069 
z
" transform="scale(0.015625)"/>
     </defs>
     <use xlink:href="#DejaVuSans-Bold-45"/>
     <use xlink:href="#DejaVuSans-Bold-72" transform="translate(68.310547 0)"/>
     <use xlink:href="#DejaVuSans-Bold-67" transform="translate(117.626953 0)"/>
     <use xlink:href="#DejaVuSans-Bold-65" transform="translate(189.208984 0)"/>
     <use xlink:href="#DejaVuSans-Bold-62" transform="translate(257.03125 0)"/>
     <use xlink:href="#DejaVuSans-Bold-6e" transform="translate(328.613281 0)"/>
     <use xlink:href="#DejaVuSans-Bold-69" transform="translate(399.804688 0)"/>
     <use xlink:href="#DejaVuSans-Bold-73" transform="translate(434.082031 0)"/>
     <use xlink:href="#DejaVuSans-Bold-3a" transform="translate(493.603516 0)"/>
     <use xlink:href="#DejaVuSans-Bold-20" transform="translate(533.59375 0)"/>
     <use xlink:href="#DejaVuSans-Bold-52" transform="translate(568.408203 0)"/>
     <use xlink:href="#DejaVuSans-Bold-20" transform="translate(645.410156 0)"/>
     <use xlink:href="#DejaVuSans-Bold-2286" transform="translate(680.224609 0)"/>
     <use xlink:href="#DejaVuSans-Bold-20" transform="translate(764.013672 0)"/>
     <use xlink:href="#DejaVuSans-Bold-47" transform="translate(798.828125 0)"/>
    </g>
    <!-- (Muster erkannt!) -->
    <g transform="translate(722.385937 54.987692) scale(0.1 -0.1)">
     <defs>
      <path id="DejaVuSans-Bold-4d" d="M 588 4666 
L 2119 4666 
L 3181 2169 
L 4250 4666 
L 5778 4666 
L 5778 0 
L 4641 0 
L 4641 3413 
L 3566 897 
L 2803 897 
L 1728 3413 
L 1728 0 
L 588 0 
L 588 4666 
z
" transform="scale(0.015625)"/>
      <path id="DejaVuSans-Bold-21" d="M 897 4666 
L 2022 4666 
L 2022 2875 
L 1863 1569 
L 1056 1569 
L 897 2875 
L 897 4666 
z
M 897 1113 
L 2022 1113 
L 2022 0 
L 897 0 
L 897 1113 
z
" transform="scale(0.015625)"/>
     </defs>
     <use xlink:href="#DejaVuSans-Bold-28"/>
     <use xlink:href="#DejaVuSans-Bold-4d" transform="translate(45.703125 0)"/>
     <use xlink:href="#DejaVuSans-Bold-75" transform="translate(145.214844 0)"/>
     <use xlink:href="#DejaVuSans-Bold-73" transform="translate(216.40625 0)"/>
     <use xlink:href="#DejaVuSans-Bold-74" transform="translate(275.927734 0)"/>
     <use xlink:href="#DejaVuSans-Bold-65" transform="translate(323.730469 0)"/>
     <use xlink:href="#DejaVuSans-Bold-72" transform="translate(391.552734 0)"/>
     <use xlink:href="#DejaVuSans-Bold-20" transform="translate(440.869141 0)"/>
     <use xlink:href="#DejaVuSans-Bold-65" transform="translate(475.683594 0)"/>
     <use xlink:href="#DejaVuSans-Bold-72" transform="translate(543.505859 0)"/>
     <use xlink:href="#DejaVuSans-Bold-6b" transform="translate(592.822266 0)"/>
     <use xlink:href="#DejaVuSans-Bold-61" transform="translate(659.326172 0)"/>
     <use xlink:href="#DejaVuSans-Bold-6e" transform="translate(726.806641 0)"/>
     <use xlink:href="#DejaVuSans-Bold-6e" transform="translate(797.998047 0)"/>
     <use xlink:href="#DejaVuSans-Bold-74" transform="translate(869.189453 0)"/>
     <use xlink:href="#DejaVuSans-Bold-21" transform="translate(916.992188 0)"/>
     <use xlink:href="#DejaVuSans-Bold-29" transform="translate(962.597656 0)"/>
    </g>
   </g>
   <g id="text_10">
    <!-- Alice -->
    <g style="fill: #ffffff" transform="translate(691.835264 143.594207) scale(0.09 -0.09)">
     <use xlink:href="#DejaVuSans-Bold-41"/>
     <use xlink:href="#DejaVuSans-Bold-6c" transform="translate(77.392578 0)"/>
     <use xlink:href="#DejaVuSans-Bold-69" transform="translate(111.669922 0)"/>
     <use xlink:href="#DejaVuSans-Bold-63" transform="translate(145.947266 0)"/>
     <use xlink:href="#DejaVuSans-Bold-65" transform="translate(205.224609 0)"/>
    </g>
   </g>
   <g id="text_11">
    <!-- Bob -->
    <g style="fill: #ffffff" transform="translate(831.734423 143.594207) scale(0.09 -0.09)">
     <use xlink:href="#DejaVuSans-Bold-42"/>
     <use xlink:href="#DejaVuSans-Bold-6f" transform="translate(76.220703 0)"/>
     <use xlink:href="#DejaVuSans-Bold-62" transform="translate(144.921875 0)"/>
    </g>
   </g>
   <g id="text_12">
    <!-- Carol -->
    <g style="fill: #ffffff" transform="translate(759.607266 258.055745) scale(0.09 -0.09)">
     <use xlink:href="#DejaVuSans-Bold-43"/>
     <use xlink:href="#DejaVuSans-Bold-61" transform="translate(73.388672 0)"/>
     <use xlink:href="#DejaVuSans-Bold-72" transform="translate(140.869141 0)"/>
     <use xlink:href="#DejaVuSans-Bold-6f" transform="translate(190.185547 0)"/>
     <use xlink:href="#DejaVuSans-Bold-6c" transform="translate(258.886719 0)"/>
    </g>
   </g>
   <g id="text_13">
    <!-- Dave -->
    <g style="fill: #ffffff" transform="translate(657.026412 235.163437) scale(0.09 -0.09)">
     <use xlink:href="#DejaVuSans-Bold-44"/>
     <use xlink:href="#DejaVuSans-Bold-61" transform="translate(83.007812 0)"/>
     <use xlink:href="#DejaVuSans-Bold-76" transform="translate(150.488281 0)"/>
     <use xlink:href="#DejaVuSans-Bold-65" transform="translate(215.673828 0)"/>
    </g>
   </g>
  </g>
  <g id="text_14">
   <!-- ?  ⊆  ? -->
   <g style="fill: #2c3e50" transform="translate(298.63375 182.16) scale(0.16 -0.16)">
    <defs>
     <path id="DejaVuSans-3f" d="M 1222 794 
L 1856 794 
L 1856 0 
L 1222 0 
L 1222 794 
z
M 1838 1253 
L 1241 1253 
L 1241 1734 
Q 1241 2050 1328 2253 
Q 1416 2456 1697 2725 
L 1978 3003 
Q 2156 3169 2236 3316 
Q 2316 3463 2316 3616 
Q 2316 3894 2111 4066 
Q 1906 4238 1569 4238 
Q 1322 4238 1042 4128 
Q 763 4019 459 3809 
L 459 4397 
Q 753 4575 1054 4662 
Q 1356 4750 1678 4750 
Q 2253 4750 2601 4447 
Q 2950 4144 2950 3647 
Q 2950 3409 2837 3195 
Q 2725 2981 2444 2713 
L 2169 2444 
Q 2022 2297 1961 2214 
Q 1900 2131 1875 2053 
Q 1856 1988 1847 1894 
Q 1838 1800 1838 1638 
L 1838 1253 
z
" transform="scale(0.015625)"/>
     <path id="DejaVuSans-20" transform="scale(0.015625)"/>
     <path id="DejaVuSans-2286" d="M 756 469 
L 4684 469 
L 4684 0 
L 756 0 
L 756 469 
z
M 4684 938 
L 2088 938 
Q 1459 938 1028 1372 
Q 594 1806 594 2431 
Q 594 3050 1028 3491 
Q 1459 3925 2084 3925 
L 4684 3925 
L 4684 3456 
L 2084 3456 
Q 1656 3456 1359 3156 
Q 1063 2856 1063 2431 
Q 1063 2000 1359 1706 
Q 1659 1406 2084 1406 
L 4684 1406 
L 4684 938 
z
" transform="scale(0.015625)"/>
    </defs>
    <use xlink:href="#DejaVuSans-3f"/>
    <use xlink:href="#DejaVuSans-20" transform="translate(53.076172 0)"/>
    <use xlink:href="#DejaVuSans-20" transform="translate(84.863281 0)"/>
    <use xlink:href="#DejaVuSans-2286" transform="translate(116.650391 0)"/>
    <use xlink:href="#DejaVuSans-20" transform="translate(200.439453 0)"/>
    <use xlink:href="#DejaVuSans-20" transform="translate(232.226562 0)"/>
    <use xlink:href="#DejaVuSans-3f" transform="translate(264.013672 0)"/>
   </g>
  </g>
  <g id="text_15">
   <!-- ✓  erkannt -->
   <g style="fill: #27ae60" transform="translate(584.863281 182.16) scale(0.13 -0.13)">
    <defs>
     <path id="DejaVuSans-Bold-2713" d="M 1416 2044 
Q 1538 2044 1600 1844 
Q 1725 1469 1778 1469 
Q 1819 1469 1863 1531 
Q 2741 2938 3488 3806 
Q 3681 4031 4103 4031 
Q 4203 4031 4237 4012 
Q 4272 3994 4272 3966 
Q 4272 3922 4169 3794 
Q 2963 2344 1931 731 
Q 1859 619 1638 619 
Q 1413 619 1372 638 
Q 1266 684 1122 1116 
Q 959 1594 959 1716 
Q 959 1847 1178 1969 
Q 1313 2044 1416 2044 
z
" transform="scale(0.015625)"/>
    </defs>
    <use xlink:href="#DejaVuSans-Bold-2713"/>
    <use xlink:href="#DejaVuSans-Bold-20" transform="translate(83.789062 0)"/>
    <use xlink:href="#DejaVuSans-Bold-20" transform="translate(118.603516 0)"/>
    <use xlink:href="#DejaVuSans-Bold-65" transform="translate(153.417969 0)"/>
    <use xlink:href="#DejaVuSans-Bold-72" transform="translate(221.240234 0)"/>
    <use xlink:href="#DejaVuSans-Bold-6b" transform="translate(270.556641 0)"/>
    <use xlink:href="#DejaVuSans-Bold-61" transform="translate(337.060547 0)"/>
    <use xlink:href="#DejaVuSans-Bold-6e" transform="translate(404.541016 0)"/>
    <use xlink:href="#DejaVuSans-Bold-6e" transform="translate(475.732422 0)"/>
    <use xlink:href="#DejaVuSans-Bold-74" transform="translate(546.923828 0)"/>
   </g>
  </g>
  <g id="text_16">
   <!-- subgraph_contains(R, G) → decision="keep_B" → Muster erkannt -->
   <g transform="translate(247.314375 16.318125) scale(0.12 -0.12)">
    <defs>
     <path id="DejaVuSans-Bold-5f" d="M 3200 -916 
L 3200 -1509 
L 0 -1509 
L 0 -916 
L 3200 -916 
z
" transform="scale(0.015625)"/>
     <path id="DejaVuSans-Bold-2c" d="M 653 1209 
L 1778 1209 
L 1778 256 
L 1006 -909 
L 341 -909 
L 653 256 
L 653 1209 
z
" transform="scale(0.015625)"/>
     <path id="DejaVuSans-Bold-2192" d="M 5050 2225 
L 5050 1788 
L 3822 559 
L 3369 1013 
L 3988 1631 
L 366 1631 
L 366 2381 
L 3988 2381 
L 3369 3000 
L 3822 3453 
L 5050 2225 
z
" transform="scale(0.015625)"/>
     <path id="DejaVuSans-Bold-3d" d="M 678 3084 
L 4684 3084 
L 4684 2350 
L 678 2350 
L 678 3084 
z
M 678 1663 
L 4684 1663 
L 4684 922 
L 678 922 
L 678 1663 
z
" transform="scale(0.015625)"/>
     <path id="DejaVuSans-Bold-22" d="M 2725 4666 
L 2725 2931 
L 1984 2931 
L 1984 4666 
L 2725 4666 
z
M 1350 4666 
L 1350 2931 
L 609 2931 
L 609 4666 
L 1350 4666 
z
" transform="scale(0.015625)"/>
    </defs>
    <use xlink:href="#DejaVuSans-Bold-73"/>
    <use xlink:href="#DejaVuSans-Bold-75" transform="translate(59.521484 0)"/>
    <use xlink:href="#DejaVuSans-Bold-62" transform="translate(130.712891 0)"/>
    <use xlink:href="#DejaVuSans-Bold-67" transform="translate(202.294922 0)"/>
    <use xlink:href="#DejaVuSans-Bold-72" transform="translate(273.876953 0)"/>
    <use xlink:href="#DejaVuSans-Bold-61" transform="translate(323.193359 0)"/>
    <use xlink:href="#DejaVuSans-Bold-70" transform="translate(390.673828 0)"/>
    <use xlink:href="#DejaVuSans-Bold-68" transform="translate(462.255859 0)"/>
    <use xlink:href="#DejaVuSans-Bold-5f" transform="translate(533.447266 0)"/>
    <use xlink:href="#DejaVuSans-Bold-63" transform="translate(583.447266 0)"/>
    <use xlink:href="#DejaVuSans-Bold-6f" transform="translate(642.724609 0)"/>
    <use xlink:href="#DejaVuSans-Bold-6e" transform="translate(711.425781 0)"/>
    <use xlink:href="#DejaVuSans-Bold-74" transform="translate(782.617188 0)"/>
    <use xlink:href="#DejaVuSans-Bold-61" transform="translate(830.419922 0)"/>
    <use xlink:href="#DejaVuSans-Bold-69" transform="translate(897.900391 0)"/>
    <use xlink:href="#DejaVuSans-Bold-6e" transform="translate(932.177734 0)"/>
    <use xlink:href="#DejaVuSans-Bold-73" transform="translate(1003.369141 0)"/>
    <use xlink:href="#DejaVuSans-Bold-28" transform="translate(1062.890625 0)"/>
    <use xlink:href="#DejaVuSans-Bold-52" transform="translate(1108.59375 0)"/>
    <use xlink:href="#DejaVuSans-Bold-2c" transform="translate(1187.470703 0)"/>
    <use xlink:href="#DejaVuSans-Bold-20" transform="translate(1225.458984 0)"/>
    <use xlink:href="#DejaVuSans-Bold-47" transform="translate(1260.273438 0)"/>
    <use xlink:href="#DejaVuSans-Bold-29" transform="translate(1342.353516 0)"/>
    <use xlink:href="#DejaVuSans-Bold-20" transform="translate(1388.056641 0)"/>
    <use xlink:href="#DejaVuSans-Bold-2192" transform="translate(1422.871094 0)"/>
    <use xlink:href="#DejaVuSans-Bold-20" transform="translate(1506.660156 0)"/>
    <use xlink:href="#DejaVuSans-Bold-64" transform="translate(1541.474609 0)"/>
    <use xlink:href="#DejaVuSans-Bold-65" transform="translate(1613.056641 0)"/>
    <use xlink:href="#DejaVuSans-Bold-63" transform="translate(1680.878906 0)"/>
    <use xlink:href="#DejaVuSans-Bold-69" transform="translate(1740.15625 0)"/>
    <use xlink:href="#DejaVuSans-Bold-73" transform="translate(1774.433594 0)"/>
    <use xlink:href="#DejaVuSans-Bold-69" transform="translate(1833.955078 0)"/>
    <use xlink:href="#DejaVuSans-Bold-6f" transform="translate(1868.232422 0)"/>
    <use xlink:href="#DejaVuSans-Bold-6e" transform="translate(1936.933594 0)"/>
    <use xlink:href="#DejaVuSans-Bold-3d" transform="translate(2008.125 0)"/>
    <use xlink:href="#DejaVuSans-Bold-22" transform="translate(2091.914062 0)"/>
    <use xlink:href="#DejaVuSans-Bold-6b" transform="translate(2144.013672 0)"/>
    <use xlink:href="#DejaVuSans-Bold-65" transform="translate(2207.892578 0)"/>
    <use xlink:href="#DejaVuSans-Bold-65" transform="translate(2275.714844 0)"/>
    <use xlink:href="#DejaVuSans-Bold-70" transform="translate(2343.537109 0)"/>
    <use xlink:href="#DejaVuSans-Bold-5f" transform="translate(2415.119141 0)"/>
    <use xlink:href="#DejaVuSans-Bold-42" transform="translate(2465.119141 0)"/>
    <use xlink:href="#DejaVuSans-Bold-22" transform="translate(2541.339844 0)"/>
    <use xlink:href="#DejaVuSans-Bold-20" transform="translate(2593.439453 0)"/>
    <use xlink:href="#DejaVuSans-Bold-2192" transform="translate(2628.253906 0)"/>
    <use xlink:href="#DejaVuSans-Bold-20" transform="translate(2712.042969 0)"/>
    <use xlink:href="#DejaVuSans-Bold-4d" transform="translate(2746.857422 0)"/>
    <use xlink:href="#DejaVuSans-Bold-75" transform="translate(2846.369141 0)"/>
    <use xlink:href="#DejaVuSans-Bold-73" transform="translate(2917.560547 0)"/>
    <use xlink:href="#DejaVuSans-Bold-74" transform="translate(2977.082031 0)"/>
    <use xlink:href="#DejaVuSans-Bold-65" transform="translate(3024.884766 0)"/>
    <use xlink:href="#DejaVuSans-Bold-72" transform="translate(3092.707031 0)"/>
    <use xlink:href="#DejaVuSans-Bold-20" transform="translate(3142.023438 0)"/>
    <use xlink:href="#DejaVuSans-Bold-65" transform="translate(3176.837891 0)"/>
    <use xlink:href="#DejaVuSans-Bold-72" transform="translate(3244.660156 0)"/>
    <use xlink:href="#DejaVuSans-Bold-6b" transform="translate(3293.976562 0)"/>
    <use xlink:href="#DejaVuSans-Bold-61" transform="translate(3360.480469 0)"/>
    <use xlink:href="#DejaVuSans-Bold-6e" transform="translate(3427.960938 0)"/>
    <use xlink:href="#DejaVuSans-Bold-6e" transform="translate(3499.152344 0)"/>
    <use xlink:href="#DejaVuSans-Bold-74" transform="translate(3570.34375 0)"/>
   </g>
  </g>
 </g>
 <defs>
  <clipPath id="pcaf6622356">
   <rect x="7.2" y="60.987692" width="297.6" height="251.815385"/>
  </clipPath>
  <clipPath id="p1acd054541">
   <rect x="315.6" y="60.987692" width="297.6" height="251.815385"/>
  </clipPath>
  <clipPath id="p013edabc43">
   <rect x="624" y="60.987692" width="297.6" height="251.815385"/>
  </clipPath>
 </defs>
</svg>
