<?xml version="1.0" encoding="utf-8" standalone="no"?>
<!DOCTYPE svg PUBLIC "-//W3C//DTD SVG 1.1//EN"
  "http://www.w3.org/Graphics/SVG/1.1/DTD/svg11.dtd">
<svg xmlns:xlink="http://www.w3.org/1999/xlink" width="481.938462pt" height="497.056587pt" viewBox="0 0 481.938462 497.056587" xmlns="http://www.w3.org/2000/svg" version="1.1">
 <metadata>
  <rdf:RDF xmlns:dc="http://purl.org/dc/elements/1.1/" xmlns:cc="http://creativecommons.org/ns#" xmlns:rdf="http://www.w3.org/1999/02/22-rdf-syntax-ns#">
   <cc:Work>
    <dc:type rdf:resource="http://purl.org/dc/dcmitype/StillImage"/>
    <dc:date>2026-03-19T04:26:28.709062</dc:date>
    <dc:format>image/svg+xml</dc:format>
    <dc:creator>
     <cc:Agent>
      <dc:title>Matplotlib v3.10.8, https://matplotlib.org/</dc:title>
     </cc:Agent>
    </dc:creator>
   </cc:Work>
  </rdf:RDF>
 </metadata>
 <defs>
  <style type="text/css">*{stroke-linejoin: round; stroke-linecap: butt}</style>
 </defs>
 <g id="figure_1">
  <g id="patch_1">
   <path d="M 0 497.056587 
L 481.938462 497.056587 
L 481.938462 0 
L 0 0 
z
" style="fill: #ffffff"/>
  </g>
  <g id="axes_1">
   <g id="patch_2">
    <path d="M 249.967063 423.108238 
Q 294.909558 422.103768 328.367385 398.920503 
" style="fill: none; stroke: #e74c3c; stroke-width: 3.8; stroke-linecap: round"/>
    <path d="M 323.940454 399.554761 
L 328.367385 398.920503 
L 326.218632 402.842602 
z
" style="fill: #e74c3c; stroke: #e74c3c; stroke-width: 3.8; stroke-linecap: round"/>
   </g>
   <g id="text_1">
    <g id="patch_3">
     <path d="M 279.703778 410.785786 
L 300.381903 410.785786 
Q 300.901903 410.785786 300.901903 410.265786 
L 300.901903 403.975005 
Q 300.901903 403.455005 300.381903 403.455005 
L 279.703778 403.455005 
Q 279.183778 403.455005 279.183778 403.975005 
L 279.183778 410.265786 
Q 279.183778 410.785786 279.703778 410.785786 
z
" style="fill: #ffffff; opacity: 0.75"/>
    </g>
    <!-- 1500€ -->
    <g transform="translate(279.703778 408.913989) scale(0.065 -0.065)">
     <defs>
      <path id="DejaVuSans-31" d="M 794 531 
L 1825 531 
L 1825 4091 
L 703 3866 
L 703 4441 
L 1819 4666 
L 2450 4666 
L 2450 531 
L 3481 531 
L 3481 0 
L 794 0 
L 794 531 
z
" transform="scale(0.015625)"/>
      <path id="DejaVuSans-35" d="M 691 4666 
L 3169 4666 
L 3169 4134 
L 1269 4134 
L 1269 2991 
Q 1406 3038 1543 3061 
Q 1681 3084 1819 3084 
Q 2600 3084 3056 2656 
Q 3513 2228 3513 1497 
Q 3513 744 3044 326 
Q 2575 -91 1722 -91 
Q 1428 -91 1123 -41 
Q 819 9 494 109 
L 494 744 
Q 775 591 1075 516 
Q 1375 441 1709 441 
Q 2250 441 2565 725 
Q 2881 1009 2881 1497 
Q 2881 1984 2565 2268 
Q 2250 2553 1709 2553 
Q 1456 2553 1204 2497 
Q 953 2441 691 2322 
L 691 4666 
z
" transform="scale(0.015625)"/>
      <path id="DejaVuSans-30" d="M 2034 4250 
Q 1547 4250 1301 3770 
Q 1056 3291 1056 2328 
Q 1056 1369 1301 889 
Q 1547 409 2034 409 
Q 2525 409 2770 889 
Q 3016 1369 3016 2328 
Q 3016 3291 2770 3770 
Q 2525 4250 2034 4250 
z
M 2034 4750 
Q 2819 4750 3233 4129 
Q 3647 3509 3647 2328 
Q 3647 1150 3233 529 
Q 2819 -91 2034 -91 
Q 1250 -91 836 529 
Q 422 1150 422 2328 
Q 422 3509 836 4129 
Q 1250 4750 2034 4750 
z
" transform="scale(0.015625)"/>
      <path id="DejaVuSans-20ac" d="M 3647 4306 
L 3647 3641 
Q 3363 3969 3098 4109 
Q 2834 4250 2516 4250 
Q 2025 4250 1709 3937 
Q 1394 3625 1294 3041 
L 3097 3041 
L 2925 2656 
L 1244 2656 
Q 1238 2581 1236 2509 
Q 1234 2438 1234 2328 
Q 1234 2228 1236 2156 
Q 1238 2084 1244 2009 
L 2638 2009 
L 2463 1625 
L 1294 1625 
Q 1394 1041 1709 725 
Q 2025 409 2516 409 
Q 2834 409 3098 550 
Q 3363 691 3647 1019 
L 3647 359 
Q 3369 134 3080 21 
Q 2791 -91 2491 -91 
Q 1750 -91 1267 362 
Q 784 816 659 1625 
L 0 1625 
L 172 2009 
L 606 2009 
Q 606 2081 604 2154 
Q 603 2228 603 2328 
Q 603 2438 604 2511 
Q 606 2584 606 2656 
L 0 2656 
L 172 3041 
L 659 3041 
Q 784 3844 1268 4297 
Q 1753 4750 2491 4750 
Q 2797 4750 3086 4639 
Q 3375 4528 3647 4306 
z
" transform="scale(0.015625)"/>
     </defs>
     <use xlink:href="#DejaVuSans-31"/>
     <use xlink:href="#DejaVuSans-35" transform="translate(63.623047 0)"/>
     <use xlink:href="#DejaVuSans-30" transform="translate(127.246094 0)"/>
     <use xlink:href="#DejaVuSans-30" transform="translate(190.869141 0)"/>
     <use xlink:href="#DejaVuSans-20ac" transform="translate(254.492188 0)"/>
    </g>
   </g>
   <g id="patch_4">
    <path d="M 346.421041 385.921295 
Q 382.189871 358.692126 396.147901 318.793004 
" style="fill: none; stroke: #e74c3c; stroke-width: 2.4; stroke-linecap: round"/>
    <path d="M 392.939246 321.908214 
L 396.147901 318.793004 
L 396.714876 323.229054 
z
" style="fill: #e74c3c; stroke: #e74c3c; stroke-width: 2.4; stroke-linecap: round"/>
   </g>
   <g id="text_2">
    <g id="patch_5">
     <path d="M 361.174358 353.096298 
L 377.716858 353.096298 
Q 378.236858 353.096298 378.236858 352.576298 
L 378.236858 346.285517 
Q 378.236858 345.765517 377.716858 345.765517 
L 361.174358 345.765517 
Q 360.654358 345.765517 360.654358 346.285517 
L 360.654358 352.576298 
Q 360.654358 353.096298 361.174358 353.096298 
z
" style="fill: #ffffff; opacity: 0.75"/>
    </g>
    <!-- 800€ -->
    <g transform="translate(361.174358 351.224501) scale(0.065 -0.065)">
     <defs>
      <path id="DejaVuSans-38" d="M 2034 2216 
Q 1584 2216 1326 1975 
Q 1069 1734 1069 1313 
Q 1069 891 1326 650 
Q 1584 409 2034 409 
Q 2484 409 2743 651 
Q 3003 894 3003 1313 
Q 3003 1734 2745 1975 
Q 2488 2216 2034 2216 
z
M 1403 2484 
Q 997 2584 770 2862 
Q 544 3141 544 3541 
Q 544 4100 942 4425 
Q 1341 4750 2034 4750 
Q 2731 4750 3128 4425 
Q 3525 4100 3525 3541 
Q 3525 3141 3298 2862 
Q 3072 2584 2669 2484 
Q 3125 2378 3379 2068 
Q 3634 1759 3634 1313 
Q 3634 634 3220 271 
Q 2806 -91 2034 -91 
Q 1263 -91 848 271 
Q 434 634 434 1313 
Q 434 1759 690 2068 
Q 947 2378 1403 2484 
z
M 1172 3481 
Q 1172 3119 1398 2916 
Q 1625 2713 2034 2713 
Q 2441 2713 2670 2916 
Q 2900 3119 2900 3481 
Q 2900 3844 2670 4047 
Q 2441 4250 2034 4250 
Q 1625 4250 1398 4047 
Q 1172 3844 1172 3481 
z
" transform="scale(0.015625)"/>
     </defs>
     <use xlink:href="#DejaVuSans-38"/>
     <use xlink:href="#DejaVuSans-30" transform="translate(63.623047 0)"/>
     <use xlink:href="#DejaVuSans-30" transform="translate(127.246094 0)"/>
     <use xlink:href="#DejaVuSans-20ac" transform="translate(190.869141 0)"/>
    </g>
   </g>
   <g id="patch_6">
    <path d="M 391.167955 310.317211 
Q 301.325279 339.16213 247.830006 413.336895 
" style="fill: none; stroke: #e74c3c; stroke-width: 2.6; stroke-linecap: round"/>
    <path d="M 251.791941 411.262511 
L 247.830006 413.336895 
L 248.54766 408.922716 
z
" style="fill: #e74c3c; stroke: #e74c3c; stroke-width: 2.6; stroke-linecap: round"/>
   </g>
   <g id="text_3">
    <g id="patch_7">
     <path d="M 312.100749 369.041281 
L 328.643249 369.041281 
Q 329.163249 369.041281 329.163249 368.521281 
L 329.163249 362.230499 
Q 329.163249 361.710499 328.643249 361.710499 
L 312.100749 361.710499 
Q 311.580749 361.710499 311.580749 362.230499 
L 311.580749 368.521281 
Q 311.580749 369.041281 312.100749 369.041281 
z
" style="fill: #ffffff; opacity: 0.75"/>
    </g>
    <!-- 900€ -->
    <g transform="translate(312.100749 367.169484) scale(0.065 -0.065)">
     <defs>
      <path id="DejaVuSans-39" d="M 703 97 
L 703 672 
Q 941 559 1184 500 
Q 1428 441 1663 441 
Q 2288 441 2617 861 
Q 2947 1281 2994 2138 
Q 2813 1869 2534 1725 
Q 2256 1581 1919 1581 
Q 1219 1581 811 2004 
Q 403 2428 403 3163 
Q 403 3881 828 4315 
Q 1253 4750 1959 4750 
Q 2769 4750 3195 4129 
Q 3622 3509 3622 2328 
Q 3622 1225 3098 567 
Q 2575 -91 1691 -91 
Q 1453 -91 1209 -44 
Q 966 3 703 97 
z
M 1959 2075 
Q 2384 2075 2632 2365 
Q 2881 2656 2881 3163 
Q 2881 3666 2632 3958 
Q 2384 4250 1959 4250 
Q 1534 4250 1286 3958 
Q 1038 3666 1038 3163 
Q 1038 2656 1286 2365 
Q 1534 2075 1959 2075 
z
" transform="scale(0.015625)"/>
     </defs>
     <use xlink:href="#DejaVuSans-39"/>
     <use xlink:href="#DejaVuSans-30" transform="translate(63.623047 0)"/>
     <use xlink:href="#DejaVuSans-30" transform="translate(127.246094 0)"/>
     <use xlink:href="#DejaVuSans-20ac" transform="translate(190.869141 0)"/>
    </g>
   </g>
   <g id="patch_8">
    <path d="M 248.360184 417.932848 
Q 357.317236 340.621796 396.775737 214.388446 
" style="fill: none; stroke: #95a5a6; stroke-width: 1.2; stroke-linecap: round"/>
    <path d="M 393.673431 217.60958 
L 396.775737 214.388446 
L 397.49126 218.802971 
z
" style="fill: #95a5a6; stroke: #95a5a6; stroke-width: 1.2; stroke-linecap: round"/>
   </g>
   <g id="text_4">
    <g id="patch_9">
     <path d="M 312.100749 317.442234 
L 328.643249 317.442234 
Q 329.163249 317.442234 329.163249 316.922234 
L 329.163249 310.631453 
Q 329.163249 310.111453 328.643249 310.111453 
L 312.100749 310.111453 
Q 311.580749 310.111453 311.580749 310.631453 
L 311.580749 316.922234 
Q 311.580749 317.442234 312.100749 317.442234 
z
" style="fill: #ffffff; opacity: 0.75"/>
    </g>
    <!-- 200€ -->
    <g transform="translate(312.100749 315.570437) scale(0.065 -0.065)">
     <defs>
      <path id="DejaVuSans-32" d="M 1228 531 
L 3431 531 
L 3431 0 
L 469 0 
L 469 531 
Q 828 903 1448 1529 
Q 2069 2156 2228 2338 
Q 2531 2678 2651 2914 
Q 2772 3150 2772 3378 
Q 2772 3750 2511 3984 
Q 2250 4219 1831 4219 
Q 1534 4219 1204 4116 
Q 875 4013 500 3803 
L 500 4441 
Q 881 4594 1212 4672 
Q 1544 4750 1819 4750 
Q 2544 4750 2975 4387 
Q 3406 4025 3406 3419 
Q 3406 3131 3298 2873 
Q 3191 2616 2906 2266 
Q 2828 2175 2409 1742 
Q 1991 1309 1228 531 
z
" transform="scale(0.015625)"/>
     </defs>
     <use xlink:href="#DejaVuSans-32"/>
     <use xlink:href="#DejaVuSans-30" transform="translate(63.623047 0)"/>
     <use xlink:href="#DejaVuSans-30" transform="translate(127.246094 0)"/>
     <use xlink:href="#DejaVuSans-20ac" transform="translate(190.869141 0)"/>
    </g>
   </g>
   <g id="patch_10">
    <path d="M 246.423948 415.907395 
Q 341.584054 288.779958 339.339595 131.227881 
" style="fill: none; stroke: #95a5a6; stroke-width: 1.1; stroke-linecap: round"/>
    <path d="M 337.396775 135.255964 
L 339.339595 131.227881 
L 341.39637 135.198986 
z
" style="fill: #95a5a6; stroke: #95a5a6; stroke-width: 1.1; stroke-linecap: round"/>
   </g>
   <g id="text_5">
    <g id="patch_11">
     <path d="M 281.77159 275.697729 
L 298.31409 275.697729 
Q 298.83409 275.697729 298.83409 275.177729 
L 298.83409 268.886947 
Q 298.83409 268.366947 298.31409 268.366947 
L 281.77159 268.366947 
Q 281.25159 268.366947 281.25159 268.886947 
L 281.25159 275.177729 
Q 281.25159 275.697729 281.77159 275.697729 
z
" style="fill: #ffffff; opacity: 0.75"/>
    </g>
    <!-- 150€ -->
    <g transform="translate(281.77159 273.825932) scale(0.065 -0.065)">
     <use xlink:href="#DejaVuSans-31"/>
     <use xlink:href="#DejaVuSans-35" transform="translate(63.623047 0)"/>
     <use xlink:href="#DejaVuSans-30" transform="translate(127.246094 0)"/>
     <use xlink:href="#DejaVuSans-20ac" transform="translate(190.869141 0)"/>
    </g>
   </g>
   <g id="patch_12">
    <path d="M 243.948644 414.573286 
Q 298.101466 256.08864 244.455617 99.085166 
" style="fill: none; stroke: #95a5a6; stroke-width: 1.4; stroke-linecap: round"/>
    <path d="M 243.856375 103.516972 
L 244.455617 99.085166 
L 247.641517 102.223643 
z
" style="fill: #95a5a6; stroke: #95a5a6; stroke-width: 1.4; stroke-linecap: round"/>
   </g>
   <g id="text_6">
    <g id="patch_13">
     <path d="M 232.697981 259.752746 
L 249.240481 259.752746 
Q 249.760481 259.752746 249.760481 259.232746 
L 249.760481 252.941965 
Q 249.760481 252.421965 249.240481 252.421965 
L 232.697981 252.421965 
Q 232.177981 252.421965 232.177981 252.941965 
L 232.177981 259.232746 
Q 232.177981 259.752746 232.697981 259.752746 
z
" style="fill: #ffffff; opacity: 0.75"/>
    </g>
    <!-- 300€ -->
    <g transform="translate(232.697981 257.88095) scale(0.065 -0.065)">
     <defs>
      <path id="DejaVuSans-33" d="M 2597 2516 
Q 3050 2419 3304 2112 
Q 3559 1806 3559 1356 
Q 3559 666 3084 287 
Q 2609 -91 1734 -91 
Q 1441 -91 1130 -33 
Q 819 25 488 141 
L 488 750 
Q 750 597 1062 519 
Q 1375 441 1716 441 
Q 2309 441 2620 675 
Q 2931 909 2931 1356 
Q 2931 1769 2642 2001 
Q 2353 2234 1838 2234 
L 1294 2234 
L 1294 2753 
L 1863 2753 
Q 2328 2753 2575 2939 
Q 2822 3125 2822 3475 
Q 2822 3834 2567 4026 
Q 2313 4219 1838 4219 
Q 1578 4219 1281 4162 
Q 984 4106 628 3988 
L 628 4550 
Q 988 4650 1302 4700 
Q 1616 4750 1894 4750 
Q 2613 4750 3031 4423 
Q 3450 4097 3450 3541 
Q 3450 3153 3228 2886 
Q 3006 2619 2597 2516 
z
" transform="scale(0.015625)"/>
     </defs>
     <use xlink:href="#DejaVuSans-33"/>
     <use xlink:href="#DejaVuSans-30" transform="translate(63.623047 0)"/>
     <use xlink:href="#DejaVuSans-30" transform="translate(127.246094 0)"/>
     <use xlink:href="#DejaVuSans-20ac" transform="translate(190.869141 0)"/>
    </g>
   </g>
   <g id="patch_14">
    <path d="M 241.174833 414.068246 
Q 243.437343 255.286282 148.947752 129.053728 
" style="fill: none; stroke: #95a5a6; stroke-linecap: round"/>
    <path d="M 149.743626 133.454476 
L 148.947752 129.053728 
L 152.945875 131.057478 
z
" style="fill: #95a5a6; stroke: #95a5a6; stroke-linecap: round"/>
   </g>
   <g id="text_7">
    <g id="patch_15">
     <path d="M 183.624371 275.697729 
L 200.166871 275.697729 
Q 200.686871 275.697729 200.686871 275.177729 
L 200.686871 268.886947 
Q 200.686871 268.366947 200.166871 268.366947 
L 183.624371 268.366947 
Q 183.104371 268.366947 183.104371 268.886947 
L 183.104371 275.177729 
Q 183.104371 275.697729 183.624371 275.697729 
z
" style="fill: #ffffff; opacity: 0.75"/>
    </g>
    <!-- 100€ -->
    <g transform="translate(183.624371 273.825932) scale(0.065 -0.065)">
     <use xlink:href="#DejaVuSans-31"/>
     <use xlink:href="#DejaVuSans-30" transform="translate(63.623047 0)"/>
     <use xlink:href="#DejaVuSans-30" transform="translate(127.246094 0)"/>
     <use xlink:href="#DejaVuSans-20ac" transform="translate(190.869141 0)"/>
    </g>
   </g>
   <g id="patch_16">
    <path d="M 391.28152 201.512503 
Q 240.970053 150.294403 91.886196 201.093643 
" style="fill: none; stroke: #95a5a6; stroke-width: 1.16; stroke-linecap: round"/>
    <path d="M 96.317495 201.696629 
L 91.886196 201.093643 
L 95.027363 197.910396 
z
" style="fill: #95a5a6; stroke: #95a5a6; stroke-width: 1.16; stroke-linecap: round"/>
   </g>
   <g id="text_8">
    <g id="patch_17">
     <path d="M 232.697981 208.1537 
L 249.240481 208.1537 
Q 249.760481 208.1537 249.760481 207.6337 
L 249.760481 201.342919 
Q 249.760481 200.822919 249.240481 200.822919 
L 232.697981 200.822919 
Q 232.177981 200.822919 232.177981 201.342919 
L 232.177981 207.6337 
Q 232.177981 208.1537 232.697981 208.1537 
z
" style="fill: #ffffff; opacity: 0.75"/>
    </g>
    <!-- 180€ -->
    <g transform="translate(232.697981 206.281903) scale(0.065 -0.065)">
     <use xlink:href="#DejaVuSans-31"/>
     <use xlink:href="#DejaVuSans-38" transform="translate(63.623047 0)"/>
     <use xlink:href="#DejaVuSans-30" transform="translate(127.246094 0)"/>
     <use xlink:href="#DejaVuSans-20ac" transform="translate(190.869141 0)"/>
    </g>
   </g>
   <g id="patch_18">
    <path d="M 79.34245 213.032512 
Q 66.409762 256.085762 78.981273 297.939745 
" style="fill: none; stroke: #95a5a6; stroke-width: 1.12; stroke-linecap: round"/>
    <path d="M 79.746055 293.533487 
L 78.981273 297.939745 
L 75.915136 294.684165 
z
" style="fill: #95a5a6; stroke: #95a5a6; stroke-width: 1.12; stroke-linecap: round"/>
   </g>
   <g id="text_9">
    <g id="patch_19">
     <path d="M 73.892445 259.752746 
L 90.434945 259.752746 
Q 90.954945 259.752746 90.954945 259.232746 
L 90.954945 252.941965 
Q 90.954945 252.421965 90.434945 252.421965 
L 73.892445 252.421965 
Q 73.372445 252.421965 73.372445 252.941965 
L 73.372445 259.232746 
Q 73.372445 259.752746 73.892445 259.752746 
z
" style="fill: #ffffff; opacity: 0.75"/>
    </g>
    <!-- 160€ -->
    <g transform="translate(73.892445 257.88095) scale(0.065 -0.065)">
     <defs>
      <path id="DejaVuSans-36" d="M 2113 2584 
Q 1688 2584 1439 2293 
Q 1191 2003 1191 1497 
Q 1191 994 1439 701 
Q 1688 409 2113 409 
Q 2538 409 2786 701 
Q 3034 994 3034 1497 
Q 3034 2003 2786 2293 
Q 2538 2584 2113 2584 
z
M 3366 4563 
L 3366 3988 
Q 3128 4100 2886 4159 
Q 2644 4219 2406 4219 
Q 1781 4219 1451 3797 
Q 1122 3375 1075 2522 
Q 1259 2794 1537 2939 
Q 1816 3084 2150 3084 
Q 2853 3084 3261 2657 
Q 3669 2231 3669 1497 
Q 3669 778 3244 343 
Q 2819 -91 2113 -91 
Q 1303 -91 875 529 
Q 447 1150 447 2328 
Q 447 3434 972 4092 
Q 1497 4750 2381 4750 
Q 2619 4750 2861 4703 
Q 3103 4656 3366 4563 
z
" transform="scale(0.015625)"/>
     </defs>
     <use xlink:href="#DejaVuSans-31"/>
     <use xlink:href="#DejaVuSans-36" transform="translate(63.623047 0)"/>
     <use xlink:href="#DejaVuSans-30" transform="translate(127.246094 0)"/>
     <use xlink:href="#DejaVuSans-20ac" transform="translate(190.869141 0)"/>
    </g>
   </g>
   <g id="patch_20">
    <path d="M 84.903416 316.257094 
Q 99.746717 358.689548 134.554021 385.187872 
" style="fill: none; stroke: #95a5a6; stroke-width: 1.08; stroke-linecap: round"/>
    <path d="M 132.582809 381.173607 
L 134.554021 385.187872 
L 130.159882 384.356282 
z
" style="fill: #95a5a6; stroke: #95a5a6; stroke-width: 1.08; stroke-linecap: round"/>
   </g>
   <g id="text_10">
    <g id="patch_21">
     <path d="M 104.221603 353.096298 
L 120.764103 353.096298 
Q 121.284103 353.096298 121.284103 352.576298 
L 121.284103 346.285517 
Q 121.284103 345.765517 120.764103 345.765517 
L 104.221603 345.765517 
Q 103.701603 345.765517 103.701603 346.285517 
L 103.701603 352.576298 
Q 103.701603 353.096298 104.221603 353.096298 
z
" style="fill: #ffffff; opacity: 0.75"/>
    </g>
    <!-- 140€ -->
    <g transform="translate(104.221603 351.224501) scale(0.065 -0.065)">
     <defs>
      <path id="DejaVuSans-34" d="M 2419 4116 
L 825 1625 
L 2419 1625 
L 2419 4116 
z
M 2253 4666 
L 3047 4666 
L 3047 1625 
L 3713 1625 
L 3713 1100 
L 3047 1100 
L 3047 0 
L 2419 0 
L 2419 1100 
L 313 1100 
L 313 1709 
L 2253 4666 
z
" transform="scale(0.015625)"/>
     </defs>
     <use xlink:href="#DejaVuSans-31"/>
     <use xlink:href="#DejaVuSans-34" transform="translate(63.623047 0)"/>
     <use xlink:href="#DejaVuSans-30" transform="translate(127.246094 0)"/>
     <use xlink:href="#DejaVuSans-20ac" transform="translate(190.869141 0)"/>
    </g>
   </g>
   <g id="patch_22">
    <path d="M 240.969231 437.25851 
C 244.733293 437.25851 248.343696 435.763032 251.005291 433.101438 
C 253.666885 430.439843 255.162363 426.82944 255.162363 423.065378 
C 255.162363 419.301315 253.666885 415.690912 251.005291 413.029318 
C 248.343696 410.367724 244.733293 408.872246 240.969231 408.872246 
C 237.205168 408.872246 233.594765 410.367724 230.933171 413.029318 
C 228.271577 415.690912 226.776099 419.301315 226.776099 423.065378 
C 226.776099 426.82944 228.271577 430.439843 230.933171 433.101438 
C 233.594765 435.763032 237.205168 437.25851 240.969231 437.25851 
z
" clip-path="url(#p5cbb03608f)" style="fill: #e74c3c; stroke: #e74c3c; stroke-linejoin: miter"/>
   </g>
   <g id="patch_23">
    <path d="M 339.11645 405.368545 
C 342.880512 405.368545 346.490915 403.873067 349.152509 401.211473 
C 351.814104 398.549879 353.309581 394.939476 353.309581 391.175413 
C 353.309581 387.411351 351.814104 383.800948 349.152509 381.139353 
C 346.490915 378.477759 342.880512 376.982281 339.11645 376.982281 
C 335.352387 376.982281 331.741984 378.477759 329.08039 381.139353 
C 326.418796 383.800948 324.923318 387.411351 324.923318 391.175413 
C 324.923318 394.939476 326.418796 398.549879 329.08039 401.211473 
C 331.741984 403.873067 335.352387 405.368545 339.11645 405.368545 
z
" clip-path="url(#p5cbb03608f)" style="fill: #e74c3c; stroke: #e74c3c; stroke-linejoin: miter"/>
   </g>
   <g id="patch_24">
    <path d="M 399.774767 321.879534 
C 403.538829 321.879534 407.149232 320.384056 409.810826 317.722462 
C 412.472421 315.060868 413.967899 311.450465 413.967899 307.686402 
C 413.967899 303.92234 412.472421 300.311937 409.810826 297.650342 
C 407.149232 294.988748 403.538829 293.49327 399.774767 293.49327 
C 396.010704 293.49327 392.400301 294.988748 389.738707 297.650342 
C 387.077113 300.311937 385.581635 303.92234 385.581635 307.686402 
C 385.581635 311.450465 387.077113 315.060868 389.738707 317.722462 
C 392.400301 320.384056 396.010704 321.879534 399.774767 321.879534 
z
" clip-path="url(#p5cbb03608f)" style="fill: #e74c3c; stroke: #e74c3c; stroke-linejoin: miter"/>
   </g>
   <g id="patch_25">
    <path d="M 399.774767 218.681441 
C 403.538829 218.681441 407.149232 217.185963 409.810826 214.524369 
C 412.472421 211.862775 413.967899 208.252372 413.967899 204.488309 
C 413.967899 200.724247 412.472421 197.113844 409.810826 194.45225 
C 407.149232 191.790655 403.538829 190.295177 399.774767 190.295177 
C 396.010704 190.295177 392.400301 191.790655 389.738707 194.45225 
C 387.077113 197.113844 385.581635 200.724247 385.581635 204.488309 
C 385.581635 208.252372 387.077113 211.862775 389.738707 214.524369 
C 392.400301 217.185963 396.010704 218.681441 399.774767 218.681441 
z
" clip-path="url(#p5cbb03608f)" style="fill: #3498db; stroke: #3498db; stroke-linejoin: miter"/>
   </g>
   <g id="patch_26">
    <path d="M 339.11645 135.19243 
C 342.880512 135.19243 346.490915 133.696952 349.152509 131.035358 
C 351.814104 128.373764 353.309581 124.763361 353.309581 120.999298 
C 353.309581 117.235236 351.814104 113.624833 349.152509 110.963239 
C 346.490915 108.301644 342.880512 106.806166 339.11645 106.806166 
C 335.352387 106.806166 331.741984 108.301644 329.08039 110.963239 
C 326.418796 113.624833 324.923318 117.235236 324.923318 120.999298 
C 324.923318 124.763361 326.418796 128.373764 329.08039 131.035358 
C 331.741984 133.696952 335.352387 135.19243 339.11645 135.19243 
z
" clip-path="url(#p5cbb03608f)" style="fill: #3498db; stroke: #3498db; stroke-linejoin: miter"/>
   </g>
   <g id="patch_27">
    <path d="M 240.969231 103.302466 
C 244.733293 103.302466 248.343696 101.806988 251.005291 99.145394 
C 253.666885 96.483799 255.162363 92.873396 255.162363 89.109334 
C 255.162363 85.345271 253.666885 81.734868 251.005291 79.073274 
C 248.343696 76.41168 244.733293 74.916202 240.969231 74.916202 
C 237.205168 74.916202 233.594765 76.41168 230.933171 79.073274 
C 228.271577 81.734868 226.776099 85.345271 226.776099 89.109334 
C 226.776099 92.873396 228.271577 96.483799 230.933171 99.145394 
C 233.594765 101.806988 237.205168 103.302466 240.969231 103.302466 
z
" clip-path="url(#p5cbb03608f)" style="fill: #3498db; stroke: #3498db; stroke-linejoin: miter"/>
   </g>
   <g id="patch_28">
    <path d="M 142.822012 135.19243 
C 146.586075 135.19243 150.196478 133.696952 152.858072 131.035358 
C 155.519666 128.373764 157.015144 124.763361 157.015144 120.999298 
C 157.015144 117.235236 155.519666 113.624833 152.858072 110.963239 
C 150.196478 108.301644 146.586075 106.806166 142.822012 106.806166 
C 139.057949 106.806166 135.447546 108.301644 132.785952 110.963239 
C 130.124358 113.624833 128.62888 117.235236 128.62888 120.999298 
C 128.62888 124.763361 130.124358 128.373764 132.785952 131.035358 
C 135.447546 133.696952 139.057949 135.19243 142.822012 135.19243 
z
" clip-path="url(#p5cbb03608f)" style="fill: #3498db; stroke: #3498db; stroke-linejoin: miter"/>
   </g>
   <g id="patch_29">
    <path d="M 82.163695 218.681441 
C 85.927757 218.681441 89.538161 217.185963 92.199755 214.524369 
C 94.861349 211.862775 96.356827 208.252372 96.356827 204.488309 
C 96.356827 200.724247 94.861349 197.113844 92.199755 194.45225 
C 89.538161 191.790655 85.927757 190.295177 82.163695 190.295177 
C 78.399632 190.295177 74.789229 191.790655 72.127635 194.45225 
C 69.466041 197.113844 67.970563 200.724247 67.970563 204.488309 
C 67.970563 208.252372 69.466041 211.862775 72.127635 214.524369 
C 74.789229 217.185963 78.399632 218.681441 82.163695 218.681441 
z
" clip-path="url(#p5cbb03608f)" style="fill: #3498db; stroke: #3498db; stroke-linejoin: miter"/>
   </g>
   <g id="patch_30">
    <path d="M 82.163695 321.879534 
C 85.927757 321.879534 89.538161 320.384056 92.199755 317.722462 
C 94.861349 315.060868 96.356827 311.450465 96.356827 307.686402 
C 96.356827 303.92234 94.861349 300.311937 92.199755 297.650342 
C 89.538161 294.988748 85.927757 293.49327 82.163695 293.49327 
C 78.399632 293.49327 74.789229 294.988748 72.127635 297.650342 
C 69.466041 300.311937 67.970563 303.92234 67.970563 307.686402 
C 67.970563 311.450465 69.466041 315.060868 72.127635 317.722462 
C 74.789229 320.384056 78.399632 321.879534 82.163695 321.879534 
z
" clip-path="url(#p5cbb03608f)" style="fill: #3498db; stroke: #3498db; stroke-linejoin: miter"/>
   </g>
   <g id="patch_31">
    <path d="M 142.822012 405.368545 
C 146.586075 405.368545 150.196478 403.873067 152.858072 401.211473 
C 155.519666 398.549879 157.015144 394.939476 157.015144 391.175413 
C 157.015144 387.411351 155.519666 383.800948 152.858072 381.139353 
C 150.196478 378.477759 146.586075 376.982281 142.822012 376.982281 
C 139.057949 376.982281 135.447546 378.477759 132.785952 381.139353 
C 130.124358 383.800948 128.62888 387.411351 128.62888 391.175413 
C 128.62888 394.939476 130.124358 398.549879 132.785952 401.211473 
C 135.447546 403.873067 139.057949 405.368545 142.822012 405.368545 
z
" clip-path="url(#p5cbb03608f)" style="fill: #3498db; stroke: #3498db; stroke-linejoin: miter"/>
   </g>
   <g id="text_11">
    <!-- Transaktionsnetzwerk – Betrugsmuster erkannt (Subgraph-ISO) -->
    <g transform="translate(25.681731 16.318125) scale(0.12 -0.12)">
     <defs>
      <path id="DejaVuSans-Bold-54" d="M 31 4666 
L 4331 4666 
L 4331 3756 
L 2784 3756 
L 2784 0 
L 1581 0 
L 1581 3756 
L 31 3756 
L 31 4666 
z
" transform="scale(0.015625)"/>
      <path id="DejaVuSans-Bold-72" d="M 3138 2547 
Q 2991 2616 2845 2648 
Q 2700 2681 2553 2681 
Q 2122 2681 1889 2404 
Q 1656 2128 1656 1613 
L 1656 0 
L 538 0 
L 538 3500 
L 1656 3500 
L 1656 2925 
Q 1872 3269 2151 3426 
Q 2431 3584 2822 3584 
Q 2878 3584 2943 3579 
Q 3009 3575 3134 3559 
L 3138 2547 
z
" transform="scale(0.015625)"/>
      <path id="DejaVuSans-Bold-61" d="M 2106 1575 
Q 1756 1575 1579 1456 
Q 1403 1338 1403 1106 
Q 1403 894 1545 773 
Q 1688 653 1941 653 
Q 2256 653 2472 879 
Q 2688 1106 2688 1447 
L 2688 1575 
L 2106 1575 
z
M 3816 1997 
L 3816 0 
L 2688 0 
L 2688 519 
Q 2463 200 2181 54 
Q 1900 -91 1497 -91 
Q 953 -91 614 226 
Q 275 544 275 1050 
Q 275 1666 698 1953 
Q 1122 2241 2028 2241 
L 2688 2241 
L 2688 2328 
Q 2688 2594 2478 2717 
Q 2269 2841 1825 2841 
Q 1466 2841 1156 2769 
Q 847 2697 581 2553 
L 581 3406 
Q 941 3494 1303 3539 
Q 1666 3584 2028 3584 
Q 2975 3584 3395 3211 
Q 3816 2838 3816 1997 
z
" transform="scale(0.015625)"/>
      <path id="DejaVuSans-Bold-6e" d="M 4056 2131 
L 4056 0 
L 2931 0 
L 2931 347 
L 2931 1631 
Q 2931 2084 2911 2256 
Q 2891 2428 2841 2509 
Q 2775 2619 2662 2680 
Q 2550 2741 2406 2741 
Q 2056 2741 1856 2470 
Q 1656 2200 1656 1722 
L 1656 0 
L 538 0 
L 538 3500 
L 1656 3500 
L 1656 2988 
Q 1909 3294 2193 3439 
Q 2478 3584 2822 3584 
Q 3428 3584 3742 3212 
Q 4056 2841 4056 2131 
z
" transform="scale(0.015625)"/>
      <path id="DejaVuSans-Bold-73" d="M 3272 3391 
L 3272 2541 
Q 2913 2691 2578 2766 
Q 2244 2841 1947 2841 
Q 1628 2841 1473 2761 
Q 1319 2681 1319 2516 
Q 1319 2381 1436 2309 
Q 1553 2238 1856 2203 
L 2053 2175 
Q 2913 2066 3209 1816 
Q 3506 1566 3506 1031 
Q 3506 472 3093 190 
Q 2681 -91 1863 -91 
Q 1516 -91 1145 -36 
Q 775 19 384 128 
L 384 978 
Q 719 816 1070 734 
Q 1422 653 1784 653 
Q 2113 653 2278 743 
Q 2444 834 2444 1013 
Q 2444 1163 2330 1236 
Q 2216 1309 1875 1350 
L 1678 1375 
Q 931 1469 631 1722 
Q 331 1975 331 2491 
Q 331 3047 712 3315 
Q 1094 3584 1881 3584 
Q 2191 3584 2531 3537 
Q 2872 3491 3272 3391 
z
" transform="scale(0.015625)"/>
      <path id="DejaVuSans-Bold-6b" d="M 538 4863 
L 1656 4863 
L 1656 2216 
L 2944 3500 
L 4244 3500 
L 2534 1894 
L 4378 0 
L 3022 0 
L 1656 1459 
L 1656 0 
L 538 0 
L 538 4863 
z
" transform="scale(0.015625)"/>
      <path id="DejaVuSans-Bold-74" d="M 1759 4494 
L 1759 3500 
L 2913 3500 
L 2913 2700 
L 1759 2700 
L 1759 1216 
Q 1759 972 1856 886 
Q 1953 800 2241 800 
L 2816 800 
L 2816 0 
L 1856 0 
Q 1194 0 917 276 
Q 641 553 641 1216 
L 641 2700 
L 84 2700 
L 84 3500 
L 641 3500 
L 641 4494 
L 1759 4494 
z
" transform="scale(0.015625)"/>
      <path id="DejaVuSans-Bold-69" d="M 538 3500 
L 1656 3500 
L 1656 0 
L 538 0 
L 538 3500 
z
M 538 4863 
L 1656 4863 
L 1656 3950 
L 538 3950 
L 538 4863 
z
" transform="scale(0.015625)"/>
      <path id="DejaVuSans-Bold-6f" d="M 2203 2784 
Q 1831 2784 1636 2517 
Q 1441 2250 1441 1747 
Q 1441 1244 1636 976 
Q 1831 709 2203 709 
Q 2569 709 2762 976 
Q 2956 1244 2956 1747 
Q 2956 2250 2762 2517 
Q 2569 2784 2203 2784 
z
M 2203 3584 
Q 3106 3584 3614 3096 
Q 4122 2609 4122 1747 
Q 4122 884 3614 396 
Q 3106 -91 2203 -91 
Q 1297 -91 786 396 
Q 275 884 275 1747 
Q 275 2609 786 3096 
Q 1297 3584 2203 3584 
z
" transform="scale(0.015625)"/>
      <path id="DejaVuSans-Bold-65" d="M 4031 1759 
L 4031 1441 
L 1416 1441 
Q 1456 1047 1700 850 
Q 1944 653 2381 653 
Q 2734 653 3104 758 
Q 3475 863 3866 1075 
L 3866 213 
Q 3469 63 3072 -14 
Q 2675 -91 2278 -91 
Q 1328 -91 801 392 
Q 275 875 275 1747 
Q 275 2603 792 3093 
Q 1309 3584 2216 3584 
Q 3041 3584 3536 3087 
Q 4031 2591 4031 1759 
z
M 2881 2131 
Q 2881 2450 2695 2645 
Q 2509 2841 2209 2841 
Q 1884 2841 1681 2658 
Q 1478 2475 1428 2131 
L 2881 2131 
z
" transform="scale(0.015625)"/>
      <path id="DejaVuSans-Bold-7a" d="M 366 3500 
L 3419 3500 
L 3419 2719 
L 1575 800 
L 3419 800 
L 3419 0 
L 288 0 
L 288 781 
L 2131 2700 
L 366 2700 
L 366 3500 
z
" transform="scale(0.015625)"/>
      <path id="DejaVuSans-Bold-77" d="M 225 3500 
L 1313 3500 
L 1900 1088 
L 2491 3500 
L 3425 3500 
L 4013 1113 
L 4603 3500 
L 5691 3500 
L 4769 0 
L 3547 0 
L 2956 2406 
L 2369 0 
L 1147 0 
L 225 3500 
z
" transform="scale(0.015625)"/>
      <path id="DejaVuSans-Bold-20" transform="scale(0.015625)"/>
      <path id="DejaVuSans-Bold-2013" d="M 344 2156 
L 2856 2156 
L 2856 1350 
L 344 1350 
L 344 2156 
z
" transform="scale(0.015625)"/>
      <path id="DejaVuSans-Bold-42" d="M 2456 2859 
Q 2741 2859 2887 2984 
Q 3034 3109 3034 3353 
Q 3034 3594 2887 3720 
Q 2741 3847 2456 3847 
L 1791 3847 
L 1791 2859 
L 2456 2859 
z
M 2497 819 
Q 2859 819 3042 972 
Q 3225 1125 3225 1434 
Q 3225 1738 3044 1889 
Q 2863 2041 2497 2041 
L 1791 2041 
L 1791 819 
L 2497 819 
z
M 3616 2497 
Q 4003 2384 4215 2081 
Q 4428 1778 4428 1338 
Q 4428 663 3972 331 
Q 3516 0 2584 0 
L 588 0 
L 588 4666 
L 2394 4666 
Q 3366 4666 3802 4372 
Q 4238 4078 4238 3431 
Q 4238 3091 4078 2852 
Q 3919 2613 3616 2497 
z
" transform="scale(0.015625)"/>
      <path id="DejaVuSans-Bold-75" d="M 500 1363 
L 500 3500 
L 1625 3500 
L 1625 3150 
Q 1625 2866 1622 2436 
Q 1619 2006 1619 1863 
Q 1619 1441 1641 1255 
Q 1663 1069 1716 984 
Q 1784 875 1895 815 
Q 2006 756 2150 756 
Q 2500 756 2700 1025 
Q 2900 1294 2900 1772 
L 2900 3500 
L 4019 3500 
L 4019 0 
L 2900 0 
L 2900 506 
Q 2647 200 2364 54 
Q 2081 -91 1741 -91 
Q 1134 -91 817 281 
Q 500 653 500 1363 
z
" transform="scale(0.015625)"/>
      <path id="DejaVuSans-Bold-67" d="M 2919 594 
Q 2688 288 2409 144 
Q 2131 0 1766 0 
Q 1125 0 706 504 
Q 288 1009 288 1791 
Q 288 2575 706 3076 
Q 1125 3578 1766 3578 
Q 2131 3578 2409 3434 
Q 2688 3291 2919 2981 
L 2919 3500 
L 4044 3500 
L 4044 353 
Q 4044 -491 3511 -936 
Q 2978 -1381 1966 -1381 
Q 1638 -1381 1331 -1331 
Q 1025 -1281 716 -1178 
L 716 -306 
Q 1009 -475 1290 -558 
Q 1572 -641 1856 -641 
Q 2406 -641 2662 -400 
Q 2919 -159 2919 353 
L 2919 594 
z
M 2181 2772 
Q 1834 2772 1640 2515 
Q 1447 2259 1447 1791 
Q 1447 1309 1634 1061 
Q 1822 813 2181 813 
Q 2531 813 2725 1069 
Q 2919 1325 2919 1791 
Q 2919 2259 2725 2515 
Q 2531 2772 2181 2772 
z
" transform="scale(0.015625)"/>
      <path id="DejaVuSans-Bold-6d" d="M 3781 2919 
Q 3994 3244 4286 3414 
Q 4578 3584 4928 3584 
Q 5531 3584 5847 3212 
Q 6163 2841 6163 2131 
L 6163 0 
L 5038 0 
L 5038 1825 
Q 5041 1866 5042 1909 
Q 5044 1953 5044 2034 
Q 5044 2406 4934 2573 
Q 4825 2741 4581 2741 
Q 4263 2741 4089 2478 
Q 3916 2216 3909 1719 
L 3909 0 
L 2784 0 
L 2784 1825 
Q 2784 2406 2684 2573 
Q 2584 2741 2328 2741 
Q 2006 2741 1831 2477 
Q 1656 2213 1656 1722 
L 1656 0 
L 531 0 
L 531 3500 
L 1656 3500 
L 1656 2988 
Q 1863 3284 2130 3434 
Q 2397 3584 2719 3584 
Q 3081 3584 3359 3409 
Q 3638 3234 3781 2919 
z
" transform="scale(0.015625)"/>
      <path id="DejaVuSans-Bold-28" d="M 2413 -844 
L 1484 -844 
Q 1006 -72 778 623 
Q 550 1319 550 2003 
Q 550 2688 779 3389 
Q 1009 4091 1484 4856 
L 2413 4856 
Q 2013 4116 1813 3408 
Q 1613 2700 1613 2009 
Q 1613 1319 1811 609 
Q 2009 -100 2413 -844 
z
" transform="scale(0.015625)"/>
      <path id="DejaVuSans-Bold-53" d="M 3834 4519 
L 3834 3531 
Q 3450 3703 3084 3790 
Q 2719 3878 2394 3878 
Q 1963 3878 1756 3759 
Q 1550 3641 1550 3391 
Q 1550 3203 1689 3098 
Q 1828 2994 2194 2919 
L 2706 2816 
Q 3484 2659 3812 2340 
Q 4141 2022 4141 1434 
Q 4141 663 3683 286 
Q 3225 -91 2284 -91 
Q 1841 -91 1394 -6 
Q 947 78 500 244 
L 500 1259 
Q 947 1022 1364 901 
Q 1781 781 2169 781 
Q 2563 781 2772 912 
Q 2981 1044 2981 1288 
Q 2981 1506 2839 1625 
Q 2697 1744 2272 1838 
L 1806 1941 
Q 1106 2091 782 2419 
Q 459 2747 459 3303 
Q 459 4000 909 4375 
Q 1359 4750 2203 4750 
Q 2588 4750 2994 4692 
Q 3400 4634 3834 4519 
z
" transform="scale(0.015625)"/>
      <path id="DejaVuSans-Bold-62" d="M 2400 722 
Q 2759 722 2948 984 
Q 3138 1247 3138 1747 
Q 3138 2247 2948 2509 
Q 2759 2772 2400 2772 
Q 2041 2772 1848 2508 
Q 1656 2244 1656 1747 
Q 1656 1250 1848 986 
Q 2041 722 2400 722 
z
M 1656 2988 
Q 1888 3294 2169 3439 
Q 2450 3584 2816 3584 
Q 3463 3584 3878 3070 
Q 4294 2556 4294 1747 
Q 4294 938 3878 423 
Q 3463 -91 2816 -91 
Q 2450 -91 2169 54 
Q 1888 200 1656 506 
L 1656 0 
L 538 0 
L 538 4863 
L 1656 4863 
L 1656 2988 
z
" transform="scale(0.015625)"/>
      <path id="DejaVuSans-Bold-70" d="M 1656 506 
L 1656 -1331 
L 538 -1331 
L 538 3500 
L 1656 3500 
L 1656 2988 
Q 1888 3294 2169 3439 
Q 2450 3584 2816 3584 
Q 3463 3584 3878 3070 
Q 4294 2556 4294 1747 
Q 4294 938 3878 423 
Q 3463 -91 2816 -91 
Q 2450 -91 2169 54 
Q 1888 200 1656 506 
z
M 2400 2772 
Q 2041 2772 1848 2508 
Q 1656 2244 1656 1747 
Q 1656 1250 1848 986 
Q 2041 722 2400 722 
Q 2759 722 2948 984 
Q 3138 1247 3138 1747 
Q 3138 2247 2948 2509 
Q 2759 2772 2400 2772 
z
" transform="scale(0.015625)"/>
      <path id="DejaVuSans-Bold-68" d="M 4056 2131 
L 4056 0 
L 2931 0 
L 2931 347 
L 2931 1625 
Q 2931 2084 2911 2256 
Q 2891 2428 2841 2509 
Q 2775 2619 2662 2680 
Q 2550 2741 2406 2741 
Q 2056 2741 1856 2470 
Q 1656 2200 1656 1722 
L 1656 0 
L 538 0 
L 538 4863 
L 1656 4863 
L 1656 2988 
Q 1909 3294 2193 3439 
Q 2478 3584 2822 3584 
Q 3428 3584 3742 3212 
Q 4056 2841 4056 2131 
z
" transform="scale(0.015625)"/>
      <path id="DejaVuSans-Bold-2d" d="M 347 2297 
L 2309 2297 
L 2309 1388 
L 347 1388 
L 347 2297 
z
" transform="scale(0.015625)"/>
      <path id="DejaVuSans-Bold-49" d="M 588 4666 
L 1791 4666 
L 1791 0 
L 588 0 
L 588 4666 
z
" transform="scale(0.015625)"/>
      <path id="DejaVuSans-Bold-4f" d="M 2719 3878 
Q 2169 3878 1866 3472 
Q 1563 3066 1563 2328 
Q 1563 1594 1866 1187 
Q 2169 781 2719 781 
Q 3272 781 3575 1187 
Q 3878 1594 3878 2328 
Q 3878 3066 3575 3472 
Q 3272 3878 2719 3878 
z
M 2719 4750 
Q 3844 4750 4481 4106 
Q 5119 3463 5119 2328 
Q 5119 1197 4481 553 
Q 3844 -91 2719 -91 
Q 1597 -91 958 553 
Q 319 1197 319 2328 
Q 319 3463 958 4106 
Q 1597 4750 2719 4750 
z
" transform="scale(0.015625)"/>
      <path id="DejaVuSans-Bold-29" d="M 513 -844 
Q 913 -100 1113 609 
Q 1313 1319 1313 2009 
Q 1313 2700 1113 3408 
Q 913 4116 513 4856 
L 1441 4856 
Q 1916 4091 2145 3389 
Q 2375 2688 2375 2003 
Q 2375 1319 2147 623 
Q 1919 -72 1441 -844 
L 513 -844 
z
" transform="scale(0.015625)"/>
     </defs>
     <use xlink:href="#DejaVuSans-Bold-54"/>
     <use xlink:href="#DejaVuSans-Bold-72" transform="translate(57.212891 0)"/>
     <use xlink:href="#DejaVuSans-Bold-61" transform="translate(106.529297 0)"/>
     <use xlink:href="#DejaVuSans-Bold-6e" transform="translate(174.009766 0)"/>
     <use xlink:href="#DejaVuSans-Bold-73" transform="translate(245.201172 0)"/>
     <use xlink:href="#DejaVuSans-Bold-61" transform="translate(304.722656 0)"/>
     <use xlink:href="#DejaVuSans-Bold-6b" transform="translate(372.203125 0)"/>
     <use xlink:href="#DejaVuSans-Bold-74" transform="translate(438.707031 0)"/>
     <use xlink:href="#DejaVuSans-Bold-69" transform="translate(486.509766 0)"/>
     <use xlink:href="#DejaVuSans-Bold-6f" transform="translate(520.787109 0)"/>
     <use xlink:href="#DejaVuSans-Bold-6e" transform="translate(589.488281 0)"/>
     <use xlink:href="#DejaVuSans-Bold-73" transform="translate(660.679688 0)"/>
     <use xlink:href="#DejaVuSans-Bold-6e" transform="translate(720.201172 0)"/>
     <use xlink:href="#DejaVuSans-Bold-65" transform="translate(791.392578 0)"/>
     <use xlink:href="#DejaVuSans-Bold-74" transform="translate(859.214844 0)"/>
     <use xlink:href="#DejaVuSans-Bold-7a" transform="translate(907.017578 0)"/>
     <use xlink:href="#DejaVuSans-Bold-77" transform="translate(965.220703 0)"/>
     <use xlink:href="#DejaVuSans-Bold-65" transform="translate(1057.603516 0)"/>
     <use xlink:href="#DejaVuSans-Bold-72" transform="translate(1125.425781 0)"/>
     <use xlink:href="#DejaVuSans-Bold-6b" transform="translate(1174.742188 0)"/>
     <use xlink:href="#DejaVuSans-Bold-20" transform="translate(1241.246094 0)"/>
     <use xlink:href="#DejaVuSans-Bold-2013" transform="translate(1276.060547 0)"/>
     <use xlink:href="#DejaVuSans-Bold-20" transform="translate(1326.060547 0)"/>
     <use xlink:href="#DejaVuSans-Bold-42" transform="translate(1360.875 0)"/>
     <use xlink:href="#DejaVuSans-Bold-65" transform="translate(1437.095703 0)"/>
     <use xlink:href="#DejaVuSans-Bold-74" transform="translate(1504.917969 0)"/>
     <use xlink:href="#DejaVuSans-Bold-72" transform="translate(1552.720703 0)"/>
     <use xlink:href="#DejaVuSans-Bold-75" transform="translate(1602.037109 0)"/>
     <use xlink:href="#DejaVuSans-Bold-67" transform="translate(1673.228516 0)"/>
     <use xlink:href="#DejaVuSans-Bold-73" transform="translate(1744.810547 0)"/>
     <use xlink:href="#DejaVuSans-Bold-6d" transform="translate(1804.332031 0)"/>
     <use xlink:href="#DejaVuSans-Bold-75" transform="translate(1908.53125 0)"/>
     <use xlink:href="#DejaVuSans-Bold-73" transform="translate(1979.722656 0)"/>
     <use xlink:href="#DejaVuSans-Bold-74" transform="translate(2039.244141 0)"/>
     <use xlink:href="#DejaVuSans-Bold-65" transform="translate(2087.046875 0)"/>
     <use xlink:href="#DejaVuSans-Bold-72" transform="translate(2154.869141 0)"/>
     <use xlink:href="#DejaVuSans-Bold-20" transform="translate(2204.185547 0)"/>
     <use xlink:href="#DejaVuSans-Bold-65" transform="translate(2239 0)"/>
     <use xlink:href="#DejaVuSans-Bold-72" transform="translate(2306.822266 0)"/>
     <use xlink:href="#DejaVuSans-Bold-6b" transform="translate(2356.138672 0)"/>
     <use xlink:href="#DejaVuSans-Bold-61" transform="translate(2422.642578 0)"/>
     <use xlink:href="#DejaVuSans-Bold-6e" transform="translate(2490.123047 0)"/>
     <use xlink:href="#DejaVuSans-Bold-6e" transform="translate(2561.314453 0)"/>
     <use xlink:href="#DejaVuSans-Bold-74" transform="translate(2632.505859 0)"/>
     <use xlink:href="#DejaVuSans-Bold-20" transform="translate(2680.308594 0)"/>
     <use xlink:href="#DejaVuSans-Bold-28" transform="translate(2715.123047 0)"/>
     <use xlink:href="#DejaVuSans-Bold-53" transform="translate(2760.826172 0)"/>
     <use xlink:href="#DejaVuSans-Bold-75" transform="translate(2832.847656 0)"/>
     <use xlink:href="#DejaVuSans-Bold-62" transform="translate(2904.039062 0)"/>
     <use xlink:href="#DejaVuSans-Bold-67" transform="translate(2975.621094 0)"/>
     <use xlink:href="#DejaVuSans-Bold-72" transform="translate(3047.203125 0)"/>
     <use xlink:href="#DejaVuSans-Bold-61" transform="translate(3096.519531 0)"/>
     <use xlink:href="#DejaVuSans-Bold-70" transform="translate(3164 0)"/>
     <use xlink:href="#DejaVuSans-Bold-68" transform="translate(3235.582031 0)"/>
     <use xlink:href="#DejaVuSans-Bold-2d" transform="translate(3306.773438 0)"/>
     <use xlink:href="#DejaVuSans-Bold-49" transform="translate(3348.277344 0)"/>
     <use xlink:href="#DejaVuSans-Bold-53" transform="translate(3385.484375 0)"/>
     <use xlink:href="#DejaVuSans-Bold-4f" transform="translate(3457.505859 0)"/>
     <use xlink:href="#DejaVuSans-Bold-29" transform="translate(3542.515625 0)"/>
    </g>
   </g>
   <g id="text_12">
    <!-- Alice -->
    <g style="fill: #ffffff" transform="translate(230.729387 425.134909) scale(0.075 -0.075)">
     <defs>
      <path id="DejaVuSans-Bold-41" d="M 3419 850 
L 1538 850 
L 1241 0 
L 31 0 
L 1759 4666 
L 3194 4666 
L 4922 0 
L 3713 0 
L 3419 850 
z
M 1838 1716 
L 3116 1716 
L 2478 3572 
L 1838 1716 
z
" transform="scale(0.015625)"/>
      <path id="DejaVuSans-Bold-6c" d="M 538 4863 
L 1656 4863 
L 1656 0 
L 538 0 
L 538 4863 
z
" transform="scale(0.015625)"/>
      <path id="DejaVuSans-Bold-63" d="M 3366 3391 
L 3366 2478 
Q 3138 2634 2908 2709 
Q 2678 2784 2431 2784 
Q 1963 2784 1702 2511 
Q 1441 2238 1441 1747 
Q 1441 1256 1702 982 
Q 1963 709 2431 709 
Q 2694 709 2930 787 
Q 3166 866 3366 1019 
L 3366 103 
Q 3103 6 2833 -42 
Q 2563 -91 2291 -91 
Q 1344 -91 809 395 
Q 275 881 275 1747 
Q 275 2613 809 3098 
Q 1344 3584 2291 3584 
Q 2566 3584 2833 3536 
Q 3100 3488 3366 3391 
z
" transform="scale(0.015625)"/>
     </defs>
     <use xlink:href="#DejaVuSans-Bold-41"/>
     <use xlink:href="#DejaVuSans-Bold-6c" transform="translate(77.392578 0)"/>
     <use xlink:href="#DejaVuSans-Bold-69" transform="translate(111.669922 0)"/>
     <use xlink:href="#DejaVuSans-Bold-63" transform="translate(145.947266 0)"/>
     <use xlink:href="#DejaVuSans-Bold-65" transform="translate(205.224609 0)"/>
    </g>
   </g>
   <g id="text_13">
    <!-- Bob -->
    <g style="fill: #ffffff" transform="translate(330.9977 393.244944) scale(0.075 -0.075)">
     <use xlink:href="#DejaVuSans-Bold-42"/>
     <use xlink:href="#DejaVuSans-Bold-6f" transform="translate(76.220703 0)"/>
     <use xlink:href="#DejaVuSans-Bold-62" transform="translate(144.921875 0)"/>
    </g>
   </g>
   <g id="text_14">
    <!-- Carol -->
    <g style="fill: #ffffff" transform="translate(388.780821 309.755933) scale(0.075 -0.075)">
     <defs>
      <path id="DejaVuSans-Bold-43" d="M 4288 256 
Q 3956 84 3597 -3 
Q 3238 -91 2847 -91 
Q 1681 -91 1000 561 
Q 319 1213 319 2328 
Q 319 3447 1000 4098 
Q 1681 4750 2847 4750 
Q 3238 4750 3597 4662 
Q 3956 4575 4288 4403 
L 4288 3438 
Q 3953 3666 3628 3772 
Q 3303 3878 2944 3878 
Q 2300 3878 1931 3465 
Q 1563 3053 1563 2328 
Q 1563 1606 1931 1193 
Q 2300 781 2944 781 
Q 3303 781 3628 887 
Q 3953 994 4288 1222 
L 4288 256 
z
" transform="scale(0.015625)"/>
     </defs>
     <use xlink:href="#DejaVuSans-Bold-43"/>
     <use xlink:href="#DejaVuSans-Bold-61" transform="translate(73.388672 0)"/>
     <use xlink:href="#DejaVuSans-Bold-72" transform="translate(140.869141 0)"/>
     <use xlink:href="#DejaVuSans-Bold-6f" transform="translate(190.185547 0)"/>
     <use xlink:href="#DejaVuSans-Bold-6c" transform="translate(258.886719 0)"/>
    </g>
   </g>
   <g id="text_15">
    <!-- Dave -->
    <g style="fill: #ffffff" transform="translate(389.142931 206.557841) scale(0.075 -0.075)">
     <defs>
      <path id="DejaVuSans-Bold-44" d="M 1791 3756 
L 1791 909 
L 2222 909 
Q 2959 909 3348 1275 
Q 3738 1641 3738 2338 
Q 3738 3031 3350 3393 
Q 2963 3756 2222 3756 
L 1791 3756 
z
M 588 4666 
L 1856 4666 
Q 2919 4666 3439 4514 
Q 3959 4363 4331 4000 
Q 4659 3684 4818 3271 
Q 4978 2859 4978 2338 
Q 4978 1809 4818 1395 
Q 4659 981 4331 666 
Q 3956 303 3431 151 
Q 2906 0 1856 0 
L 588 0 
L 588 4666 
z
" transform="scale(0.015625)"/>
      <path id="DejaVuSans-Bold-76" d="M 97 3500 
L 1216 3500 
L 2088 1081 
L 2956 3500 
L 4078 3500 
L 2700 0 
L 1472 0 
L 97 3500 
z
" transform="scale(0.015625)"/>
     </defs>
     <use xlink:href="#DejaVuSans-Bold-44"/>
     <use xlink:href="#DejaVuSans-Bold-61" transform="translate(83.007812 0)"/>
     <use xlink:href="#DejaVuSans-Bold-76" transform="translate(150.488281 0)"/>
     <use xlink:href="#DejaVuSans-Bold-65" transform="translate(215.673828 0)"/>
    </g>
   </g>
   <g id="text_16">
    <!-- Eve -->
    <g style="fill: #ffffff" transform="translate(331.566645 123.06883) scale(0.075 -0.075)">
     <defs>
      <path id="DejaVuSans-Bold-45" d="M 588 4666 
L 3834 4666 
L 3834 3756 
L 1791 3756 
L 1791 2888 
L 3713 2888 
L 3713 1978 
L 1791 1978 
L 1791 909 
L 3903 909 
L 3903 0 
L 588 0 
L 588 4666 
z
" transform="scale(0.015625)"/>
     </defs>
     <use xlink:href="#DejaVuSans-Bold-45"/>
     <use xlink:href="#DejaVuSans-Bold-76" transform="translate(68.310547 0)"/>
     <use xlink:href="#DejaVuSans-Bold-65" transform="translate(133.496094 0)"/>
    </g>
   </g>
   <g id="text_17">
    <!-- Frank -->
    <g style="fill: #ffffff" transform="translate(229.10341 91.178865) scale(0.075 -0.075)">
     <defs>
      <path id="DejaVuSans-Bold-46" d="M 588 4666 
L 3834 4666 
L 3834 3756 
L 1791 3756 
L 1791 2888 
L 3713 2888 
L 3713 1978 
L 1791 1978 
L 1791 0 
L 588 0 
L 588 4666 
z
" transform="scale(0.015625)"/>
     </defs>
     <use xlink:href="#DejaVuSans-Bold-46"/>
     <use xlink:href="#DejaVuSans-Bold-72" transform="translate(61.935547 0)"/>
     <use xlink:href="#DejaVuSans-Bold-61" transform="translate(111.251953 0)"/>
     <use xlink:href="#DejaVuSans-Bold-6e" transform="translate(178.732422 0)"/>
     <use xlink:href="#DejaVuSans-Bold-6b" transform="translate(249.923828 0)"/>
    </g>
   </g>
   <g id="text_18">
    <!-- Grace -->
    <g style="fill: #ffffff" transform="translate(130.597598 123.06883) scale(0.075 -0.075)">
     <defs>
      <path id="DejaVuSans-Bold-47" d="M 4781 347 
Q 4331 128 3847 18 
Q 3363 -91 2847 -91 
Q 1681 -91 1000 561 
Q 319 1213 319 2328 
Q 319 3456 1012 4103 
Q 1706 4750 2913 4750 
Q 3378 4750 3804 4662 
Q 4231 4575 4609 4403 
L 4609 3438 
Q 4219 3659 3833 3768 
Q 3447 3878 3059 3878 
Q 2341 3878 1952 3476 
Q 1563 3075 1563 2328 
Q 1563 1588 1938 1184 
Q 2313 781 3003 781 
Q 3191 781 3352 804 
Q 3513 828 3641 878 
L 3641 1784 
L 2906 1784 
L 2906 2591 
L 4781 2591 
L 4781 347 
z
" transform="scale(0.015625)"/>
     </defs>
     <use xlink:href="#DejaVuSans-Bold-47"/>
     <use xlink:href="#DejaVuSans-Bold-72" transform="translate(82.080078 0)"/>
     <use xlink:href="#DejaVuSans-Bold-61" transform="translate(131.396484 0)"/>
     <use xlink:href="#DejaVuSans-Bold-63" transform="translate(198.876953 0)"/>
     <use xlink:href="#DejaVuSans-Bold-65" transform="translate(258.154297 0)"/>
    </g>
   </g>
   <g id="text_19">
    <!-- Heidi -->
    <g style="fill: #ffffff" transform="translate(71.226586 206.557841) scale(0.075 -0.075)">
     <defs>
      <path id="DejaVuSans-Bold-48" d="M 588 4666 
L 1791 4666 
L 1791 2888 
L 3566 2888 
L 3566 4666 
L 4769 4666 
L 4769 0 
L 3566 0 
L 3566 1978 
L 1791 1978 
L 1791 0 
L 588 0 
L 588 4666 
z
" transform="scale(0.015625)"/>
      <path id="DejaVuSans-Bold-64" d="M 2919 2988 
L 2919 4863 
L 4044 4863 
L 4044 0 
L 2919 0 
L 2919 506 
Q 2688 197 2409 53 
Q 2131 -91 1766 -91 
Q 1119 -91 703 423 
Q 288 938 288 1747 
Q 288 2556 703 3070 
Q 1119 3584 1766 3584 
Q 2128 3584 2408 3439 
Q 2688 3294 2919 2988 
z
M 2181 722 
Q 2541 722 2730 984 
Q 2919 1247 2919 1747 
Q 2919 2247 2730 2509 
Q 2541 2772 2181 2772 
Q 1825 2772 1636 2509 
Q 1447 2247 1447 1747 
Q 1447 1247 1636 984 
Q 1825 722 2181 722 
z
" transform="scale(0.015625)"/>
     </defs>
     <use xlink:href="#DejaVuSans-Bold-48"/>
     <use xlink:href="#DejaVuSans-Bold-65" transform="translate(83.691406 0)"/>
     <use xlink:href="#DejaVuSans-Bold-69" transform="translate(151.513672 0)"/>
     <use xlink:href="#DejaVuSans-Bold-64" transform="translate(185.791016 0)"/>
     <use xlink:href="#DejaVuSans-Bold-69" transform="translate(257.373047 0)"/>
    </g>
   </g>
   <g id="text_20">
    <!-- Ivan -->
    <g style="fill: #ffffff" transform="translate(73.123851 309.755933) scale(0.075 -0.075)">
     <use xlink:href="#DejaVuSans-Bold-49"/>
     <use xlink:href="#DejaVuSans-Bold-76" transform="translate(37.207031 0)"/>
     <use xlink:href="#DejaVuSans-Bold-61" transform="translate(102.392578 0)"/>
     <use xlink:href="#DejaVuSans-Bold-6e" transform="translate(169.873047 0)"/>
    </g>
   </g>
   <g id="text_21">
    <!-- Judy -->
    <g style="fill: #ffffff" transform="translate(133.628653 393.215648) scale(0.075 -0.075)">
     <defs>
      <path id="DejaVuSans-Bold-4a" d="M 588 4666 
L 1791 4666 
L 1791 453 
Q 1791 -419 1317 -850 
Q 844 -1281 -116 -1281 
L -359 -1281 
L -359 -372 
L -172 -372 
Q 203 -372 395 -162 
Q 588 47 588 453 
L 588 4666 
z
" transform="scale(0.015625)"/>
      <path id="DejaVuSans-Bold-79" d="M 78 3500 
L 1197 3500 
L 2138 1125 
L 2938 3500 
L 4056 3500 
L 2584 -331 
Q 2363 -916 2067 -1148 
Q 1772 -1381 1288 -1381 
L 641 -1381 
L 641 -647 
L 991 -647 
Q 1275 -647 1404 -556 
Q 1534 -466 1606 -231 
L 1638 -134 
L 78 3500 
z
" transform="scale(0.015625)"/>
     </defs>
     <use xlink:href="#DejaVuSans-Bold-4a"/>
     <use xlink:href="#DejaVuSans-Bold-75" transform="translate(37.207031 0)"/>
     <use xlink:href="#DejaVuSans-Bold-64" transform="translate(108.398438 0)"/>
     <use xlink:href="#DejaVuSans-Bold-79" transform="translate(179.980469 0)"/>
    </g>
   </g>
   <g id="legend_1">
    <g id="patch_32">
     <path d="M 342.361118 55.93875 
L 468.438462 55.93875 
Q 470.238462 55.93875 470.238462 54.13875 
L 470.238462 28.618125 
Q 470.238462 26.818125 468.438462 26.818125 
L 342.361118 26.818125 
Q 340.561118 26.818125 340.561118 28.618125 
L 340.561118 54.13875 
Q 340.561118 55.93875 342.361118 55.93875 
z
" style="fill: #ffffff; opacity: 0.8; stroke: #cccccc; stroke-linejoin: miter"/>
    </g>
    <g id="patch_33">
     <path d="M 344.161118 37.256719 
L 362.161118 37.256719 
L 362.161118 30.956719 
L 344.161118 30.956719 
z
" style="fill: #3498db; stroke: #3498db; stroke-linejoin: miter"/>
    </g>
    <g id="text_22">
     <!-- Normal -->
     <g transform="translate(369.361118 37.256719) scale(0.09 -0.09)">
      <defs>
       <path id="DejaVuSans-4e" d="M 628 4666 
L 1478 4666 
L 3547 763 
L 3547 4666 
L 4159 4666 
L 4159 0 
L 3309 0 
L 1241 3903 
L 1241 0 
L 628 0 
L 628 4666 
z
" transform="scale(0.015625)"/>
       <path id="DejaVuSans-6f" d="M 1959 3097 
Q 1497 3097 1228 2736 
Q 959 2375 959 1747 
Q 959 1119 1226 758 
Q 1494 397 1959 397 
Q 2419 397 2687 759 
Q 2956 1122 2956 1747 
Q 2956 2369 2687 2733 
Q 2419 3097 1959 3097 
z
M 1959 3584 
Q 2709 3584 3137 3096 
Q 3566 2609 3566 1747 
Q 3566 888 3137 398 
Q 2709 -91 1959 -91 
Q 1206 -91 779 398 
Q 353 888 353 1747 
Q 353 2609 779 3096 
Q 1206 3584 1959 3584 
z
" transform="scale(0.015625)"/>
       <path id="DejaVuSans-72" d="M 2631 2963 
Q 2534 3019 2420 3045 
Q 2306 3072 2169 3072 
Q 1681 3072 1420 2755 
Q 1159 2438 1159 1844 
L 1159 0 
L 581 0 
L 581 3500 
L 1159 3500 
L 1159 2956 
Q 1341 3275 1631 3429 
Q 1922 3584 2338 3584 
Q 2397 3584 2469 3576 
Q 2541 3569 2628 3553 
L 2631 2963 
z
" transform="scale(0.015625)"/>
       <path id="DejaVuSans-6d" d="M 3328 2828 
Q 3544 3216 3844 3400 
Q 4144 3584 4550 3584 
Q 5097 3584 5394 3201 
Q 5691 2819 5691 2113 
L 5691 0 
L 5113 0 
L 5113 2094 
Q 5113 2597 4934 2840 
Q 4756 3084 4391 3084 
Q 3944 3084 3684 2787 
Q 3425 2491 3425 1978 
L 3425 0 
L 2847 0 
L 2847 2094 
Q 2847 2600 2669 2842 
Q 2491 3084 2119 3084 
Q 1678 3084 1418 2786 
Q 1159 2488 1159 1978 
L 1159 0 
L 581 0 
L 581 3500 
L 1159 3500 
L 1159 2956 
Q 1356 3278 1631 3431 
Q 1906 3584 2284 3584 
Q 2666 3584 2933 3390 
Q 3200 3197 3328 2828 
z
" transform="scale(0.015625)"/>
       <path id="DejaVuSans-61" d="M 2194 1759 
Q 1497 1759 1228 1600 
Q 959 1441 959 1056 
Q 959 750 1161 570 
Q 1363 391 1709 391 
Q 2188 391 2477 730 
Q 2766 1069 2766 1631 
L 2766 1759 
L 2194 1759 
z
M 3341 1997 
L 3341 0 
L 2766 0 
L 2766 531 
Q 2569 213 2275 61 
Q 1981 -91 1556 -91 
Q 1019 -91 701 211 
Q 384 513 384 1019 
Q 384 1609 779 1909 
Q 1175 2209 1959 2209 
L 2766 2209 
L 2766 2266 
Q 2766 2663 2505 2880 
Q 2244 3097 1772 3097 
Q 1472 3097 1187 3025 
Q 903 2953 641 2809 
L 641 3341 
Q 956 3463 1253 3523 
Q 1550 3584 1831 3584 
Q 2591 3584 2966 3190 
Q 3341 2797 3341 1997 
z
" transform="scale(0.015625)"/>
       <path id="DejaVuSans-6c" d="M 603 4863 
L 1178 4863 
L 1178 0 
L 603 0 
L 603 4863 
z
" transform="scale(0.015625)"/>
      </defs>
      <use xlink:href="#DejaVuSans-4e"/>
      <use xlink:href="#DejaVuSans-6f" transform="translate(74.804688 0)"/>
      <use xlink:href="#DejaVuSans-72" transform="translate(135.986328 0)"/>
      <use xlink:href="#DejaVuSans-6d" transform="translate(175.349609 0)"/>
      <use xlink:href="#DejaVuSans-61" transform="translate(272.761719 0)"/>
      <use xlink:href="#DejaVuSans-6c" transform="translate(334.041016 0)"/>
     </g>
    </g>
    <g id="patch_34">
     <path d="M 344.161118 50.467031 
L 362.161118 50.467031 
L 362.161118 44.167031 
L 344.161118 44.167031 
z
" style="fill: #e74c3c; stroke: #e74c3c; stroke-linejoin: miter"/>
    </g>
    <g id="text_23">
     <!-- Wash-Trading erkannt -->
     <g transform="translate(369.361118 50.467031) scale(0.09 -0.09)">
      <defs>
       <path id="DejaVuSans-57" d="M 213 4666 
L 850 4666 
L 1831 722 
L 2809 4666 
L 3519 4666 
L 4500 722 
L 5478 4666 
L 6119 4666 
L 4947 0 
L 4153 0 
L 3169 4050 
L 2175 0 
L 1381 0 
L 213 4666 
z
" transform="scale(0.015625)"/>
       <path id="DejaVuSans-73" d="M 2834 3397 
L 2834 2853 
Q 2591 2978 2328 3040 
Q 2066 3103 1784 3103 
Q 1356 3103 1142 2972 
Q 928 2841 928 2578 
Q 928 2378 1081 2264 
Q 1234 2150 1697 2047 
L 1894 2003 
Q 2506 1872 2764 1633 
Q 3022 1394 3022 966 
Q 3022 478 2636 193 
Q 2250 -91 1575 -91 
Q 1294 -91 989 -36 
Q 684 19 347 128 
L 347 722 
Q 666 556 975 473 
Q 1284 391 1588 391 
Q 1994 391 2212 530 
Q 2431 669 2431 922 
Q 2431 1156 2273 1281 
Q 2116 1406 1581 1522 
L 1381 1569 
Q 847 1681 609 1914 
Q 372 2147 372 2553 
Q 372 3047 722 3315 
Q 1072 3584 1716 3584 
Q 2034 3584 2315 3537 
Q 2597 3491 2834 3397 
z
" transform="scale(0.015625)"/>
       <path id="DejaVuSans-68" d="M 3513 2113 
L 3513 0 
L 2938 0 
L 2938 2094 
Q 2938 2591 2744 2837 
Q 2550 3084 2163 3084 
Q 1697 3084 1428 2787 
Q 1159 2491 1159 1978 
L 1159 0 
L 581 0 
L 581 4863 
L 1159 4863 
L 1159 2956 
Q 1366 3272 1645 3428 
Q 1925 3584 2291 3584 
Q 2894 3584 3203 3211 
Q 3513 2838 3513 2113 
z
" transform="scale(0.015625)"/>
       <path id="DejaVuSans-2d" d="M 313 2009 
L 1997 2009 
L 1997 1497 
L 313 1497 
L 313 2009 
z
" transform="scale(0.015625)"/>
       <path id="DejaVuSans-54" d="M -19 4666 
L 3928 4666 
L 3928 4134 
L 2272 4134 
L 2272 0 
L 1638 0 
L 1638 4134 
L -19 4134 
L -19 4666 
z
" transform="scale(0.015625)"/>
       <path id="DejaVuSans-64" d="M 2906 2969 
L 2906 4863 
L 3481 4863 
L 3481 0 
L 2906 0 
L 2906 525 
Q 2725 213 2448 61 
Q 2172 -91 1784 -91 
Q 1150 -91 751 415 
Q 353 922 353 1747 
Q 353 2572 751 3078 
Q 1150 3584 1784 3584 
Q 2172 3584 2448 3432 
Q 2725 3281 2906 2969 
z
M 947 1747 
Q 947 1113 1208 752 
Q 1469 391 1925 391 
Q 2381 391 2643 752 
Q 2906 1113 2906 1747 
Q 2906 2381 2643 2742 
Q 2381 3103 1925 3103 
Q 1469 3103 1208 2742 
Q 947 2381 947 1747 
z
" transform="scale(0.015625)"/>
       <path id="DejaVuSans-69" d="M 603 3500 
L 1178 3500 
L 1178 0 
L 603 0 
L 603 3500 
z
M 603 4863 
L 1178 4863 
L 1178 4134 
L 603 4134 
L 603 4863 
z
" transform="scale(0.015625)"/>
       <path id="DejaVuSans-6e" d="M 3513 2113 
L 3513 0 
L 2938 0 
L 2938 2094 
Q 2938 2591 2744 2837 
Q 2550 3084 2163 3084 
Q 1697 3084 1428 2787 
Q 1159 2491 1159 1978 
L 1159 0 
L 581 0 
L 581 3500 
L 1159 3500 
L 1159 2956 
Q 1366 3272 1645 3428 
Q 1925 3584 2291 3584 
Q 2894 3584 3203 3211 
Q 3513 2838 3513 2113 
z
" transform="scale(0.015625)"/>
       <path id="DejaVuSans-67" d="M 2906 1791 
Q 2906 2416 2648 2759 
Q 2391 3103 1925 3103 
Q 1463 3103 1205 2759 
Q 947 2416 947 1791 
Q 947 1169 1205 825 
Q 1463 481 1925 481 
Q 2391 481 2648 825 
Q 2906 1169 2906 1791 
z
M 3481 434 
Q 3481 -459 3084 -895 
Q 2688 -1331 1869 -1331 
Q 1566 -1331 1297 -1286 
Q 1028 -1241 775 -1147 
L 775 -588 
Q 1028 -725 1275 -790 
Q 1522 -856 1778 -856 
Q 2344 -856 2625 -561 
Q 2906 -266 2906 331 
L 2906 616 
Q 2728 306 2450 153 
Q 2172 0 1784 0 
Q 1141 0 747 490 
Q 353 981 353 1791 
Q 353 2603 747 3093 
Q 1141 3584 1784 3584 
Q 2172 3584 2450 3431 
Q 2728 3278 2906 2969 
L 2906 3500 
L 3481 3500 
L 3481 434 
z
" transform="scale(0.015625)"/>
       <path id="DejaVuSans-20" transform="scale(0.015625)"/>
       <path id="DejaVuSans-65" d="M 3597 1894 
L 3597 1613 
L 953 1613 
Q 991 1019 1311 708 
Q 1631 397 2203 397 
Q 2534 397 2845 478 
Q 3156 559 3463 722 
L 3463 178 
Q 3153 47 2828 -22 
Q 2503 -91 2169 -91 
Q 1331 -91 842 396 
Q 353 884 353 1716 
Q 353 2575 817 3079 
Q 1281 3584 2069 3584 
Q 2775 3584 3186 3129 
Q 3597 2675 3597 1894 
z
M 3022 2063 
Q 3016 2534 2758 2815 
Q 2500 3097 2075 3097 
Q 1594 3097 1305 2825 
Q 1016 2553 972 2059 
L 3022 2063 
z
" transform="scale(0.015625)"/>
       <path id="DejaVuSans-6b" d="M 581 4863 
L 1159 4863 
L 1159 1991 
L 2875 3500 
L 3609 3500 
L 1753 1863 
L 3688 0 
L 2938 0 
L 1159 1709 
L 1159 0 
L 581 0 
L 581 4863 
z
" transform="scale(0.015625)"/>
       <path id="DejaVuSans-74" d="M 1172 4494 
L 1172 3500 
L 2356 3500 
L 2356 3053 
L 1172 3053 
L 1172 1153 
Q 1172 725 1289 603 
Q 1406 481 1766 481 
L 2356 481 
L 2356 0 
L 1766 0 
Q 1100 0 847 248 
Q 594 497 594 1153 
L 594 3053 
L 172 3053 
L 172 3500 
L 594 3500 
L 594 4494 
L 1172 4494 
z
" transform="scale(0.015625)"/>
      </defs>
      <use xlink:href="#DejaVuSans-57"/>
      <use xlink:href="#DejaVuSans-61" transform="translate(92.501953 0)"/>
      <use xlink:href="#DejaVuSans-73" transform="translate(153.78125 0)"/>
      <use xlink:href="#DejaVuSans-68" transform="translate(205.880859 0)"/>
      <use xlink:href="#DejaVuSans-2d" transform="translate(269.259766 0)"/>
      <use xlink:href="#DejaVuSans-54" transform="translate(296.21875 0)"/>
      <use xlink:href="#DejaVuSans-72" transform="translate(342.552734 0)"/>
      <use xlink:href="#DejaVuSans-61" transform="translate(383.666016 0)"/>
      <use xlink:href="#DejaVuSans-64" transform="translate(444.945312 0)"/>
      <use xlink:href="#DejaVuSans-69" transform="translate(508.421875 0)"/>
      <use xlink:href="#DejaVuSans-6e" transform="translate(536.205078 0)"/>
      <use xlink:href="#DejaVuSans-67" transform="translate(599.583984 0)"/>
      <use xlink:href="#DejaVuSans-20" transform="translate(663.060547 0)"/>
      <use xlink:href="#DejaVuSans-65" transform="translate(694.847656 0)"/>
      <use xlink:href="#DejaVuSans-72" transform="translate(756.371094 0)"/>
      <use xlink:href="#DejaVuSans-6b" transform="translate(797.484375 0)"/>
      <use xlink:href="#DejaVuSans-61" transform="translate(853.644531 0)"/>
      <use xlink:href="#DejaVuSans-6e" transform="translate(914.923828 0)"/>
      <use xlink:href="#DejaVuSans-6e" transform="translate(978.302734 0)"/>
      <use xlink:href="#DejaVuSans-74" transform="translate(1041.681641 0)"/>
     </g>
    </g>
   </g>
  </g>
 </g>
 <defs>
  <clipPath id="p5cbb03608f">
   <rect x="7.2" y="22.318125" width="467.538462" height="467.538462"/>
  </clipPath>
 </defs>
</svg>
