<?xml version="1.0" encoding="utf-8" standalone="no"?>
<!DOCTYPE svg PUBLIC "-//W3C//DTD SVG 1.1//EN"
  "http://www.w3.org/Graphics/SVG/1.1/DTD/svg11.dtd">
<svg xmlns:xlink="http://www.w3.org/1999/xlink" width="641.034639pt" height="352.888341pt" viewBox="0 0 641.034639 352.888341" xmlns="http://www.w3.org/2000/svg" version="1.1">
 <metadata>
  <rdf:RDF xmlns:dc="http://purl.org/dc/elements/1.1/" xmlns:cc="http://creativecommons.org/ns#" xmlns:rdf="http://www.w3.org/1999/02/22-rdf-syntax-ns#">
   <cc:Work>
    <dc:type rdf:resource="http://purl.org/dc/dcmitype/StillImage"/>
    <dc:date>2026-03-19T04:26:30.301545</dc:date>
    <dc:format>image/svg+xml</dc:format>
    <dc:creator>
     <cc:Agent>
      <dc:title>Matplotlib v3.10.8, https://matplotlib.org/</dc:title>
     </cc:Agent>
    </dc:creator>
   </cc:Work>
  </rdf:RDF>
 </metadata>
 <defs>
  <style type="text/css">*{stroke-linejoin: round; stroke-linecap: butt}</style>
 </defs>
 <g id="figure_1">
  <g id="patch_1">
   <path d="M 0 352.888341 
L 641.034639 352.888341 
L 641.034639 0 
L 0 0 
z
" style="fill: #ffffff"/>
  </g>
  <g id="axes_1">
   <g id="patch_2">
    <path d="M 51.111563 314.364279 
L 633.834639 314.364279 
L 633.834639 22.318125 
L 51.111563 22.318125 
z
" style="fill: #ffffff"/>
   </g>
   <g id="patch_3">
    <path d="M 77.598975 314.364279 
L 86.428113 314.364279 
L 86.428113 312.303989 
L 77.598975 312.303989 
z
" clip-path="url(#pbed378d128)" style="fill: #c0392b; opacity: 0.9; stroke: #ffffff; stroke-width: 0.5; stroke-linejoin: miter"/>
   </g>
   <g id="patch_4">
    <path d="M 86.428113 314.364279 
L 95.25725 314.364279 
L 95.25725 314.364279 
L 86.428113 314.364279 
z
" clip-path="url(#pbed378d128)" style="fill: #c0392b; opacity: 0.9; stroke: #ffffff; stroke-width: 0.5; stroke-linejoin: miter"/>
   </g>
   <g id="patch_5">
    <path d="M 95.25725 314.364279 
L 104.086388 314.364279 
L 104.086388 314.364279 
L 95.25725 314.364279 
z
" clip-path="url(#pbed378d128)" style="fill: #c0392b; opacity: 0.9; stroke: #ffffff; stroke-width: 0.5; stroke-linejoin: miter"/>
   </g>
   <g id="patch_6">
    <path d="M 104.086388 314.364279 
L 112.915525 314.364279 
L 112.915525 314.364279 
L 104.086388 314.364279 
z
" clip-path="url(#pbed378d128)" style="fill: #c0392b; opacity: 0.9; stroke: #ffffff; stroke-width: 0.5; stroke-linejoin: miter"/>
   </g>
   <g id="patch_7">
    <path d="M 112.915525 314.364279 
L 121.744663 314.364279 
L 121.744663 314.364279 
L 112.915525 314.364279 
z
" clip-path="url(#pbed378d128)" style="fill: #c0392b; opacity: 0.9; stroke: #ffffff; stroke-width: 0.5; stroke-linejoin: miter"/>
   </g>
   <g id="patch_8">
    <path d="M 121.744663 314.364279 
L 130.5738 314.364279 
L 130.5738 310.243698 
L 121.744663 310.243698 
z
" clip-path="url(#pbed378d128)" style="fill: #c0392b; opacity: 0.9; stroke: #ffffff; stroke-width: 0.5; stroke-linejoin: miter"/>
   </g>
   <g id="patch_9">
    <path d="M 130.5738 314.364279 
L 139.402938 314.364279 
L 139.402938 304.062827 
L 130.5738 304.062827 
z
" clip-path="url(#pbed378d128)" style="fill: #c0392b; opacity: 0.9; stroke: #ffffff; stroke-width: 0.5; stroke-linejoin: miter"/>
   </g>
   <g id="patch_10">
    <path d="M 139.402938 314.364279 
L 148.232075 314.364279 
L 148.232075 308.183408 
L 139.402938 308.183408 
z
" clip-path="url(#pbed378d128)" style="fill: #c0392b; opacity: 0.9; stroke: #ffffff; stroke-width: 0.5; stroke-linejoin: miter"/>
   </g>
   <g id="patch_11">
    <path d="M 148.232075 314.364279 
L 157.061213 314.364279 
L 157.061213 310.243698 
L 148.232075 310.243698 
z
" clip-path="url(#pbed378d128)" style="fill: #c0392b; opacity: 0.9; stroke: #ffffff; stroke-width: 0.5; stroke-linejoin: miter"/>
   </g>
   <g id="patch_12">
    <path d="M 157.061213 314.364279 
L 165.89035 314.364279 
L 165.89035 308.183408 
L 157.061213 308.183408 
z
" clip-path="url(#pbed378d128)" style="fill: #c0392b; opacity: 0.9; stroke: #ffffff; stroke-width: 0.5; stroke-linejoin: miter"/>
   </g>
   <g id="patch_13">
    <path d="M 165.89035 314.364279 
L 174.719488 314.364279 
L 174.719488 297.881956 
L 165.89035 297.881956 
z
" clip-path="url(#pbed378d128)" style="fill: #c0392b; opacity: 0.9; stroke: #ffffff; stroke-width: 0.5; stroke-linejoin: miter"/>
   </g>
   <g id="patch_14">
    <path d="M 174.719488 314.364279 
L 183.548625 314.364279 
L 183.548625 285.520214 
L 174.719488 285.520214 
z
" clip-path="url(#pbed378d128)" style="fill: #c0392b; opacity: 0.9; stroke: #ffffff; stroke-width: 0.5; stroke-linejoin: miter"/>
   </g>
   <g id="patch_15">
    <path d="M 183.548625 314.364279 
L 192.377763 314.364279 
L 192.377763 287.580505 
L 183.548625 287.580505 
z
" clip-path="url(#pbed378d128)" style="fill: #e74c3c; opacity: 0.75; stroke: #ffffff; stroke-width: 0.5; stroke-linejoin: miter"/>
   </g>
   <g id="patch_16">
    <path d="M 192.377763 314.364279 
L 201.2069 314.364279 
L 201.2069 285.520214 
L 192.377763 285.520214 
z
" clip-path="url(#pbed378d128)" style="fill: #e74c3c; opacity: 0.75; stroke: #ffffff; stroke-width: 0.5; stroke-linejoin: miter"/>
   </g>
   <g id="patch_17">
    <path d="M 201.2069 314.364279 
L 210.036038 314.364279 
L 210.036038 277.279053 
L 201.2069 277.279053 
z
" clip-path="url(#pbed378d128)" style="fill: #e74c3c; opacity: 0.75; stroke: #ffffff; stroke-width: 0.5; stroke-linejoin: miter"/>
   </g>
   <g id="patch_18">
    <path d="M 210.036038 314.364279 
L 218.865176 314.364279 
L 218.865176 266.977601 
L 210.036038 266.977601 
z
" clip-path="url(#pbed378d128)" style="fill: #e74c3c; opacity: 0.75; stroke: #ffffff; stroke-width: 0.5; stroke-linejoin: miter"/>
   </g>
   <g id="patch_19">
    <path d="M 218.865176 314.364279 
L 227.694313 314.364279 
L 227.694313 260.79673 
L 218.865176 260.79673 
z
" clip-path="url(#pbed378d128)" style="fill: #e74c3c; opacity: 0.75; stroke: #ffffff; stroke-width: 0.5; stroke-linejoin: miter"/>
   </g>
   <g id="patch_20">
    <path d="M 227.694313 314.364279 
L 236.523451 314.364279 
L 236.523451 256.67615 
L 227.694313 256.67615 
z
" clip-path="url(#pbed378d128)" style="fill: #3498db; opacity: 0.6; stroke: #ffffff; stroke-width: 0.5; stroke-linejoin: miter"/>
   </g>
   <g id="patch_21">
    <path d="M 236.523451 314.364279 
L 245.352588 314.364279 
L 245.352588 234.012956 
L 236.523451 234.012956 
z
" clip-path="url(#pbed378d128)" style="fill: #3498db; opacity: 0.6; stroke: #ffffff; stroke-width: 0.5; stroke-linejoin: miter"/>
   </g>
   <g id="patch_22">
    <path d="M 245.352588 314.364279 
L 254.181726 314.364279 
L 254.181726 213.410053 
L 245.352588 213.410053 
z
" clip-path="url(#pbed378d128)" style="fill: #3498db; opacity: 0.6; stroke: #ffffff; stroke-width: 0.5; stroke-linejoin: miter"/>
   </g>
   <g id="patch_23">
    <path d="M 254.181726 314.364279 
L 263.010863 314.364279 
L 263.010863 227.832085 
L 254.181726 227.832085 
z
" clip-path="url(#pbed378d128)" style="fill: #3498db; opacity: 0.6; stroke: #ffffff; stroke-width: 0.5; stroke-linejoin: miter"/>
   </g>
   <g id="patch_24">
    <path d="M 263.010863 314.364279 
L 271.840001 314.364279 
L 271.840001 201.048311 
L 263.010863 201.048311 
z
" clip-path="url(#pbed378d128)" style="fill: #3498db; opacity: 0.6; stroke: #ffffff; stroke-width: 0.5; stroke-linejoin: miter"/>
   </g>
   <g id="patch_25">
    <path d="M 271.840001 314.364279 
L 280.669138 314.364279 
L 280.669138 168.083666 
L 271.840001 168.083666 
z
" clip-path="url(#pbed378d128)" style="fill: #3498db; opacity: 0.6; stroke: #ffffff; stroke-width: 0.5; stroke-linejoin: miter"/>
   </g>
   <g id="patch_26">
    <path d="M 280.669138 314.364279 
L 289.498276 314.364279 
L 289.498276 180.445408 
L 280.669138 180.445408 
z
" clip-path="url(#pbed378d128)" style="fill: #3498db; opacity: 0.6; stroke: #ffffff; stroke-width: 0.5; stroke-linejoin: miter"/>
   </g>
   <g id="patch_27">
    <path d="M 289.498276 314.364279 
L 298.327413 314.364279 
L 298.327413 147.480762 
L 289.498276 147.480762 
z
" clip-path="url(#pbed378d128)" style="fill: #3498db; opacity: 0.6; stroke: #ffffff; stroke-width: 0.5; stroke-linejoin: miter"/>
   </g>
   <g id="patch_28">
    <path d="M 298.327413 314.364279 
L 307.156551 314.364279 
L 307.156551 143.360182 
L 298.327413 143.360182 
z
" clip-path="url(#pbed378d128)" style="fill: #3498db; opacity: 0.6; stroke: #ffffff; stroke-width: 0.5; stroke-linejoin: miter"/>
   </g>
   <g id="patch_29">
    <path d="M 307.156551 314.364279 
L 315.985688 314.364279 
L 315.985688 139.239601 
L 307.156551 139.239601 
z
" clip-path="url(#pbed378d128)" style="fill: #3498db; opacity: 0.6; stroke: #ffffff; stroke-width: 0.5; stroke-linejoin: miter"/>
   </g>
   <g id="patch_30">
    <path d="M 315.985688 314.364279 
L 324.814826 314.364279 
L 324.814826 139.239601 
L 315.985688 139.239601 
z
" clip-path="url(#pbed378d128)" style="fill: #3498db; opacity: 0.6; stroke: #ffffff; stroke-width: 0.5; stroke-linejoin: miter"/>
   </g>
   <g id="patch_31">
    <path d="M 324.814826 314.364279 
L 333.643963 314.364279 
L 333.643963 79.491182 
L 324.814826 79.491182 
z
" clip-path="url(#pbed378d128)" style="fill: #3498db; opacity: 0.6; stroke: #ffffff; stroke-width: 0.5; stroke-linejoin: miter"/>
   </g>
   <g id="patch_32">
    <path d="M 333.643963 314.364279 
L 342.473101 314.364279 
L 342.473101 83.611762 
L 333.643963 83.611762 
z
" clip-path="url(#pbed378d128)" style="fill: #3498db; opacity: 0.6; stroke: #ffffff; stroke-width: 0.5; stroke-linejoin: miter"/>
   </g>
   <g id="patch_33">
    <path d="M 342.473101 314.364279 
L 351.302238 314.364279 
L 351.302238 95.973504 
L 342.473101 95.973504 
z
" clip-path="url(#pbed378d128)" style="fill: #3498db; opacity: 0.6; stroke: #ffffff; stroke-width: 0.5; stroke-linejoin: miter"/>
   </g>
   <g id="patch_34">
    <path d="M 351.302238 314.364279 
L 360.131376 314.364279 
L 360.131376 91.852924 
L 351.302238 91.852924 
z
" clip-path="url(#pbed378d128)" style="fill: #3498db; opacity: 0.6; stroke: #ffffff; stroke-width: 0.5; stroke-linejoin: miter"/>
   </g>
   <g id="patch_35">
    <path d="M 360.131376 314.364279 
L 368.960514 314.364279 
L 368.960514 36.225085 
L 360.131376 36.225085 
z
" clip-path="url(#pbed378d128)" style="fill: #3498db; opacity: 0.6; stroke: #ffffff; stroke-width: 0.5; stroke-linejoin: miter"/>
   </g>
   <g id="patch_36">
    <path d="M 368.960514 314.364279 
L 377.789651 314.364279 
L 377.789651 98.033795 
L 368.960514 98.033795 
z
" clip-path="url(#pbed378d128)" style="fill: #3498db; opacity: 0.6; stroke: #ffffff; stroke-width: 0.5; stroke-linejoin: miter"/>
   </g>
   <g id="patch_37">
    <path d="M 377.789651 314.364279 
L 386.618789 314.364279 
L 386.618789 46.526536 
L 377.789651 46.526536 
z
" clip-path="url(#pbed378d128)" style="fill: #3498db; opacity: 0.6; stroke: #ffffff; stroke-width: 0.5; stroke-linejoin: miter"/>
   </g>
   <g id="patch_38">
    <path d="M 386.618789 314.364279 
L 395.447926 314.364279 
L 395.447926 65.069149 
L 386.618789 65.069149 
z
" clip-path="url(#pbed378d128)" style="fill: #3498db; opacity: 0.6; stroke: #ffffff; stroke-width: 0.5; stroke-linejoin: miter"/>
   </g>
   <g id="patch_39">
    <path d="M 395.447926 314.364279 
L 404.277064 314.364279 
L 404.277064 102.154375 
L 395.447926 102.154375 
z
" clip-path="url(#pbed378d128)" style="fill: #3498db; opacity: 0.6; stroke: #ffffff; stroke-width: 0.5; stroke-linejoin: miter"/>
   </g>
   <g id="patch_40">
    <path d="M 404.277064 314.364279 
L 413.106201 314.364279 
L 413.106201 110.395536 
L 404.277064 110.395536 
z
" clip-path="url(#pbed378d128)" style="fill: #3498db; opacity: 0.6; stroke: #ffffff; stroke-width: 0.5; stroke-linejoin: miter"/>
   </g>
   <g id="patch_41">
    <path d="M 413.106201 314.364279 
L 421.935339 314.364279 
L 421.935339 157.782214 
L 413.106201 157.782214 
z
" clip-path="url(#pbed378d128)" style="fill: #3498db; opacity: 0.6; stroke: #ffffff; stroke-width: 0.5; stroke-linejoin: miter"/>
   </g>
   <g id="patch_42">
    <path d="M 421.935339 314.364279 
L 430.764476 314.364279 
L 430.764476 153.661633 
L 421.935339 153.661633 
z
" clip-path="url(#pbed378d128)" style="fill: #3498db; opacity: 0.6; stroke: #ffffff; stroke-width: 0.5; stroke-linejoin: miter"/>
   </g>
   <g id="patch_43">
    <path d="M 430.764476 314.364279 
L 439.593614 314.364279 
L 439.593614 180.445408 
L 430.764476 180.445408 
z
" clip-path="url(#pbed378d128)" style="fill: #3498db; opacity: 0.6; stroke: #ffffff; stroke-width: 0.5; stroke-linejoin: miter"/>
   </g>
   <g id="patch_44">
    <path d="M 439.593614 314.364279 
L 448.422751 314.364279 
L 448.422751 196.92773 
L 439.593614 196.92773 
z
" clip-path="url(#pbed378d128)" style="fill: #3498db; opacity: 0.6; stroke: #ffffff; stroke-width: 0.5; stroke-linejoin: miter"/>
   </g>
   <g id="patch_45">
    <path d="M 448.422751 314.364279 
L 457.251889 314.364279 
L 457.251889 215.470343 
L 448.422751 215.470343 
z
" clip-path="url(#pbed378d128)" style="fill: #3498db; opacity: 0.6; stroke: #ffffff; stroke-width: 0.5; stroke-linejoin: miter"/>
   </g>
   <g id="patch_46">
    <path d="M 457.251889 314.364279 
L 466.081026 314.364279 
L 466.081026 223.711504 
L 457.251889 223.711504 
z
" clip-path="url(#pbed378d128)" style="fill: #3498db; opacity: 0.6; stroke: #ffffff; stroke-width: 0.5; stroke-linejoin: miter"/>
   </g>
   <g id="patch_47">
    <path d="M 466.081026 314.364279 
L 474.910164 314.364279 
L 474.910164 234.012956 
L 466.081026 234.012956 
z
" clip-path="url(#pbed378d128)" style="fill: #3498db; opacity: 0.6; stroke: #ffffff; stroke-width: 0.5; stroke-linejoin: miter"/>
   </g>
   <g id="patch_48">
    <path d="M 474.910164 314.364279 
L 483.739301 314.364279 
L 483.739301 236.073246 
L 474.910164 236.073246 
z
" clip-path="url(#pbed378d128)" style="fill: #3498db; opacity: 0.6; stroke: #ffffff; stroke-width: 0.5; stroke-linejoin: miter"/>
   </g>
   <g id="patch_49">
    <path d="M 483.739301 314.364279 
L 492.568439 314.364279 
L 492.568439 275.218763 
L 483.739301 275.218763 
z
" clip-path="url(#pbed378d128)" style="fill: #3498db; opacity: 0.6; stroke: #ffffff; stroke-width: 0.5; stroke-linejoin: miter"/>
   </g>
   <g id="patch_50">
    <path d="M 492.568439 314.364279 
L 501.397576 314.364279 
L 501.397576 258.73644 
L 492.568439 258.73644 
z
" clip-path="url(#pbed378d128)" style="fill: #3498db; opacity: 0.6; stroke: #ffffff; stroke-width: 0.5; stroke-linejoin: miter"/>
   </g>
   <g id="patch_51">
    <path d="M 501.397576 314.364279 
L 510.226714 314.364279 
L 510.226714 277.279053 
L 501.397576 277.279053 
z
" clip-path="url(#pbed378d128)" style="fill: #3498db; opacity: 0.6; stroke: #ffffff; stroke-width: 0.5; stroke-linejoin: miter"/>
   </g>
   <g id="patch_52">
    <path d="M 510.226714 314.364279 
L 519.055852 314.364279 
L 519.055852 287.580505 
L 510.226714 287.580505 
z
" clip-path="url(#pbed378d128)" style="fill: #3498db; opacity: 0.6; stroke: #ffffff; stroke-width: 0.5; stroke-linejoin: miter"/>
   </g>
   <g id="patch_53">
    <path d="M 519.055852 314.364279 
L 527.884989 314.364279 
L 527.884989 291.701085 
L 519.055852 291.701085 
z
" clip-path="url(#pbed378d128)" style="fill: #3498db; opacity: 0.6; stroke: #ffffff; stroke-width: 0.5; stroke-linejoin: miter"/>
   </g>
   <g id="patch_54">
    <path d="M 527.884989 314.364279 
L 536.714127 314.364279 
L 536.714127 295.821666 
L 527.884989 295.821666 
z
" clip-path="url(#pbed378d128)" style="fill: #3498db; opacity: 0.6; stroke: #ffffff; stroke-width: 0.5; stroke-linejoin: miter"/>
   </g>
   <g id="patch_55">
    <path d="M 536.714127 314.364279 
L 545.543264 314.364279 
L 545.543264 297.881956 
L 536.714127 297.881956 
z
" clip-path="url(#pbed378d128)" style="fill: #3498db; opacity: 0.6; stroke: #ffffff; stroke-width: 0.5; stroke-linejoin: miter"/>
   </g>
   <g id="patch_56">
    <path d="M 545.543264 314.364279 
L 554.372402 314.364279 
L 554.372402 304.062827 
L 545.543264 304.062827 
z
" clip-path="url(#pbed378d128)" style="fill: #3498db; opacity: 0.6; stroke: #ffffff; stroke-width: 0.5; stroke-linejoin: miter"/>
   </g>
   <g id="patch_57">
    <path d="M 554.372402 314.364279 
L 563.201539 314.364279 
L 563.201539 302.002537 
L 554.372402 302.002537 
z
" clip-path="url(#pbed378d128)" style="fill: #3498db; opacity: 0.6; stroke: #ffffff; stroke-width: 0.5; stroke-linejoin: miter"/>
   </g>
   <g id="patch_58">
    <path d="M 563.201539 314.364279 
L 572.030677 314.364279 
L 572.030677 310.243698 
L 563.201539 310.243698 
z
" clip-path="url(#pbed378d128)" style="fill: #3498db; opacity: 0.6; stroke: #ffffff; stroke-width: 0.5; stroke-linejoin: miter"/>
   </g>
   <g id="patch_59">
    <path d="M 572.030677 314.364279 
L 580.859814 314.364279 
L 580.859814 306.123118 
L 572.030677 306.123118 
z
" clip-path="url(#pbed378d128)" style="fill: #3498db; opacity: 0.6; stroke: #ffffff; stroke-width: 0.5; stroke-linejoin: miter"/>
   </g>
   <g id="patch_60">
    <path d="M 580.859814 314.364279 
L 589.688952 314.364279 
L 589.688952 306.123118 
L 580.859814 306.123118 
z
" clip-path="url(#pbed378d128)" style="fill: #3498db; opacity: 0.6; stroke: #ffffff; stroke-width: 0.5; stroke-linejoin: miter"/>
   </g>
   <g id="patch_61">
    <path d="M 589.688952 314.364279 
L 598.518089 314.364279 
L 598.518089 314.364279 
L 589.688952 314.364279 
z
" clip-path="url(#pbed378d128)" style="fill: #3498db; opacity: 0.6; stroke: #ffffff; stroke-width: 0.5; stroke-linejoin: miter"/>
   </g>
   <g id="patch_62">
    <path d="M 598.518089 314.364279 
L 607.347227 314.364279 
L 607.347227 312.303989 
L 598.518089 312.303989 
z
" clip-path="url(#pbed378d128)" style="fill: #3498db; opacity: 0.6; stroke: #ffffff; stroke-width: 0.5; stroke-linejoin: miter"/>
   </g>
   <g id="matplotlib.axis_1">
    <g id="xtick_1">
     <g id="line2d_1">
      <path d="M 112.384984 314.364279 
L 112.384984 22.318125 
" clip-path="url(#pbed378d128)" style="fill: none; stroke: #b0b0b0; stroke-opacity: 0.3; stroke-width: 0.8; stroke-linecap: square"/>
     </g>
     <g id="line2d_2">
      <defs>
       <path id="m3e5de05159" d="M 0 0 
L 0 3.5 
" style="stroke: #000000; stroke-width: 0.8"/>
      </defs>
      <g>
       <use xlink:href="#m3e5de05159" x="112.384984" y="314.364279" style="stroke: #000000; stroke-width: 0.8"/>
      </g>
     </g>
     <g id="text_1">
      <!-- −4 -->
      <g transform="translate(105.013891 328.962716) scale(0.1 -0.1)">
       <defs>
        <path id="DejaVuSans-2212" d="M 678 2272 
L 4684 2272 
L 4684 1741 
L 678 1741 
L 678 2272 
z
" transform="scale(0.015625)"/>
        <path id="DejaVuSans-34" d="M 2419 4116 
L 825 1625 
L 2419 1625 
L 2419 4116 
z
M 2253 4666 
L 3047 4666 
L 3047 1625 
L 3713 1625 
L 3713 1100 
L 3047 1100 
L 3047 0 
L 2419 0 
L 2419 1100 
L 313 1100 
L 313 1709 
L 2253 4666 
z
" transform="scale(0.015625)"/>
       </defs>
       <use xlink:href="#DejaVuSans-2212"/>
       <use xlink:href="#DejaVuSans-34" transform="translate(83.789062 0)"/>
      </g>
     </g>
    </g>
    <g id="xtick_2">
     <g id="line2d_3">
      <path d="M 235.560091 314.364279 
L 235.560091 22.318125 
" clip-path="url(#pbed378d128)" style="fill: none; stroke: #b0b0b0; stroke-opacity: 0.3; stroke-width: 0.8; stroke-linecap: square"/>
     </g>
     <g id="line2d_4">
      <g>
       <use xlink:href="#m3e5de05159" x="235.560091" y="314.364279" style="stroke: #000000; stroke-width: 0.8"/>
      </g>
     </g>
     <g id="text_2">
      <!-- −2 -->
      <g transform="translate(228.188997 328.962716) scale(0.1 -0.1)">
       <defs>
        <path id="DejaVuSans-32" d="M 1228 531 
L 3431 531 
L 3431 0 
L 469 0 
L 469 531 
Q 828 903 1448 1529 
Q 2069 2156 2228 2338 
Q 2531 2678 2651 2914 
Q 2772 3150 2772 3378 
Q 2772 3750 2511 3984 
Q 2250 4219 1831 4219 
Q 1534 4219 1204 4116 
Q 875 4013 500 3803 
L 500 4441 
Q 881 4594 1212 4672 
Q 1544 4750 1819 4750 
Q 2544 4750 2975 4387 
Q 3406 4025 3406 3419 
Q 3406 3131 3298 2873 
Q 3191 2616 2906 2266 
Q 2828 2175 2409 1742 
Q 1991 1309 1228 531 
z
" transform="scale(0.015625)"/>
       </defs>
       <use xlink:href="#DejaVuSans-2212"/>
       <use xlink:href="#DejaVuSans-32" transform="translate(83.789062 0)"/>
      </g>
     </g>
    </g>
    <g id="xtick_3">
     <g id="line2d_5">
      <path d="M 358.735198 314.364279 
L 358.735198 22.318125 
" clip-path="url(#pbed378d128)" style="fill: none; stroke: #b0b0b0; stroke-opacity: 0.3; stroke-width: 0.8; stroke-linecap: square"/>
     </g>
     <g id="line2d_6">
      <g>
       <use xlink:href="#m3e5de05159" x="358.735198" y="314.364279" style="stroke: #000000; stroke-width: 0.8"/>
      </g>
     </g>
     <g id="text_3">
      <!-- 0 -->
      <g transform="translate(355.553948 328.962716) scale(0.1 -0.1)">
       <defs>
        <path id="DejaVuSans-30" d="M 2034 4250 
Q 1547 4250 1301 3770 
Q 1056 3291 1056 2328 
Q 1056 1369 1301 889 
Q 1547 409 2034 409 
Q 2525 409 2770 889 
Q 3016 1369 3016 2328 
Q 3016 3291 2770 3770 
Q 2525 4250 2034 4250 
z
M 2034 4750 
Q 2819 4750 3233 4129 
Q 3647 3509 3647 2328 
Q 3647 1150 3233 529 
Q 2819 -91 2034 -91 
Q 1250 -91 836 529 
Q 422 1150 422 2328 
Q 422 3509 836 4129 
Q 1250 4750 2034 4750 
z
" transform="scale(0.015625)"/>
       </defs>
       <use xlink:href="#DejaVuSans-30"/>
      </g>
     </g>
    </g>
    <g id="xtick_4">
     <g id="line2d_7">
      <path d="M 481.910304 314.364279 
L 481.910304 22.318125 
" clip-path="url(#pbed378d128)" style="fill: none; stroke: #b0b0b0; stroke-opacity: 0.3; stroke-width: 0.8; stroke-linecap: square"/>
     </g>
     <g id="line2d_8">
      <g>
       <use xlink:href="#m3e5de05159" x="481.910304" y="314.364279" style="stroke: #000000; stroke-width: 0.8"/>
      </g>
     </g>
     <g id="text_4">
      <!-- 2 -->
      <g transform="translate(478.729054 328.962716) scale(0.1 -0.1)">
       <use xlink:href="#DejaVuSans-32"/>
      </g>
     </g>
    </g>
    <g id="xtick_5">
     <g id="line2d_9">
      <path d="M 605.085411 314.364279 
L 605.085411 22.318125 
" clip-path="url(#pbed378d128)" style="fill: none; stroke: #b0b0b0; stroke-opacity: 0.3; stroke-width: 0.8; stroke-linecap: square"/>
     </g>
     <g id="line2d_10">
      <g>
       <use xlink:href="#m3e5de05159" x="605.085411" y="314.364279" style="stroke: #000000; stroke-width: 0.8"/>
      </g>
     </g>
     <g id="text_5">
      <!-- 4 -->
      <g transform="translate(601.904161 328.962716) scale(0.1 -0.1)">
       <use xlink:href="#DejaVuSans-34"/>
      </g>
     </g>
    </g>
    <g id="text_6">
     <!-- Tägliche Rendite (%) -->
     <g transform="translate(285.923648 343.400685) scale(0.11 -0.11)">
      <defs>
       <path id="DejaVuSans-54" d="M -19 4666 
L 3928 4666 
L 3928 4134 
L 2272 4134 
L 2272 0 
L 1638 0 
L 1638 4134 
L -19 4134 
L -19 4666 
z
" transform="scale(0.015625)"/>
       <path id="DejaVuSans-e4" d="M 2194 1759 
Q 1497 1759 1228 1600 
Q 959 1441 959 1056 
Q 959 750 1161 570 
Q 1363 391 1709 391 
Q 2188 391 2477 730 
Q 2766 1069 2766 1631 
L 2766 1759 
L 2194 1759 
z
M 3341 1997 
L 3341 0 
L 2766 0 
L 2766 531 
Q 2569 213 2275 61 
Q 1981 -91 1556 -91 
Q 1019 -91 701 211 
Q 384 513 384 1019 
Q 384 1609 779 1909 
Q 1175 2209 1959 2209 
L 2766 2209 
L 2766 2266 
Q 2766 2663 2505 2880 
Q 2244 3097 1772 3097 
Q 1472 3097 1187 3025 
Q 903 2953 641 2809 
L 641 3341 
Q 956 3463 1253 3523 
Q 1550 3584 1831 3584 
Q 2591 3584 2966 3190 
Q 3341 2797 3341 1997 
z
M 2150 4850 
L 2784 4850 
L 2784 4219 
L 2150 4219 
L 2150 4850 
z
M 928 4850 
L 1562 4850 
L 1562 4219 
L 928 4219 
L 928 4850 
z
" transform="scale(0.015625)"/>
       <path id="DejaVuSans-67" d="M 2906 1791 
Q 2906 2416 2648 2759 
Q 2391 3103 1925 3103 
Q 1463 3103 1205 2759 
Q 947 2416 947 1791 
Q 947 1169 1205 825 
Q 1463 481 1925 481 
Q 2391 481 2648 825 
Q 2906 1169 2906 1791 
z
M 3481 434 
Q 3481 -459 3084 -895 
Q 2688 -1331 1869 -1331 
Q 1566 -1331 1297 -1286 
Q 1028 -1241 775 -1147 
L 775 -588 
Q 1028 -725 1275 -790 
Q 1522 -856 1778 -856 
Q 2344 -856 2625 -561 
Q 2906 -266 2906 331 
L 2906 616 
Q 2728 306 2450 153 
Q 2172 0 1784 0 
Q 1141 0 747 490 
Q 353 981 353 1791 
Q 353 2603 747 3093 
Q 1141 3584 1784 3584 
Q 2172 3584 2450 3431 
Q 2728 3278 2906 2969 
L 2906 3500 
L 3481 3500 
L 3481 434 
z
" transform="scale(0.015625)"/>
       <path id="DejaVuSans-6c" d="M 603 4863 
L 1178 4863 
L 1178 0 
L 603 0 
L 603 4863 
z
" transform="scale(0.015625)"/>
       <path id="DejaVuSans-69" d="M 603 3500 
L 1178 3500 
L 1178 0 
L 603 0 
L 603 3500 
z
M 603 4863 
L 1178 4863 
L 1178 4134 
L 603 4134 
L 603 4863 
z
" transform="scale(0.015625)"/>
       <path id="DejaVuSans-63" d="M 3122 3366 
L 3122 2828 
Q 2878 2963 2633 3030 
Q 2388 3097 2138 3097 
Q 1578 3097 1268 2742 
Q 959 2388 959 1747 
Q 959 1106 1268 751 
Q 1578 397 2138 397 
Q 2388 397 2633 464 
Q 2878 531 3122 666 
L 3122 134 
Q 2881 22 2623 -34 
Q 2366 -91 2075 -91 
Q 1284 -91 818 406 
Q 353 903 353 1747 
Q 353 2603 823 3093 
Q 1294 3584 2113 3584 
Q 2378 3584 2631 3529 
Q 2884 3475 3122 3366 
z
" transform="scale(0.015625)"/>
       <path id="DejaVuSans-68" d="M 3513 2113 
L 3513 0 
L 2938 0 
L 2938 2094 
Q 2938 2591 2744 2837 
Q 2550 3084 2163 3084 
Q 1697 3084 1428 2787 
Q 1159 2491 1159 1978 
L 1159 0 
L 581 0 
L 581 4863 
L 1159 4863 
L 1159 2956 
Q 1366 3272 1645 3428 
Q 1925 3584 2291 3584 
Q 2894 3584 3203 3211 
Q 3513 2838 3513 2113 
z
" transform="scale(0.015625)"/>
       <path id="DejaVuSans-65" d="M 3597 1894 
L 3597 1613 
L 953 1613 
Q 991 1019 1311 708 
Q 1631 397 2203 397 
Q 2534 397 2845 478 
Q 3156 559 3463 722 
L 3463 178 
Q 3153 47 2828 -22 
Q 2503 -91 2169 -91 
Q 1331 -91 842 396 
Q 353 884 353 1716 
Q 353 2575 817 3079 
Q 1281 3584 2069 3584 
Q 2775 3584 3186 3129 
Q 3597 2675 3597 1894 
z
M 3022 2063 
Q 3016 2534 2758 2815 
Q 2500 3097 2075 3097 
Q 1594 3097 1305 2825 
Q 1016 2553 972 2059 
L 3022 2063 
z
" transform="scale(0.015625)"/>
       <path id="DejaVuSans-20" transform="scale(0.015625)"/>
       <path id="DejaVuSans-52" d="M 2841 2188 
Q 3044 2119 3236 1894 
Q 3428 1669 3622 1275 
L 4263 0 
L 3584 0 
L 2988 1197 
Q 2756 1666 2539 1819 
Q 2322 1972 1947 1972 
L 1259 1972 
L 1259 0 
L 628 0 
L 628 4666 
L 2053 4666 
Q 2853 4666 3247 4331 
Q 3641 3997 3641 3322 
Q 3641 2881 3436 2590 
Q 3231 2300 2841 2188 
z
M 1259 4147 
L 1259 2491 
L 2053 2491 
Q 2509 2491 2742 2702 
Q 2975 2913 2975 3322 
Q 2975 3731 2742 3939 
Q 2509 4147 2053 4147 
L 1259 4147 
z
" transform="scale(0.015625)"/>
       <path id="DejaVuSans-6e" d="M 3513 2113 
L 3513 0 
L 2938 0 
L 2938 2094 
Q 2938 2591 2744 2837 
Q 2550 3084 2163 3084 
Q 1697 3084 1428 2787 
Q 1159 2491 1159 1978 
L 1159 0 
L 581 0 
L 581 3500 
L 1159 3500 
L 1159 2956 
Q 1366 3272 1645 3428 
Q 1925 3584 2291 3584 
Q 2894 3584 3203 3211 
Q 3513 2838 3513 2113 
z
" transform="scale(0.015625)"/>
       <path id="DejaVuSans-64" d="M 2906 2969 
L 2906 4863 
L 3481 4863 
L 3481 0 
L 2906 0 
L 2906 525 
Q 2725 213 2448 61 
Q 2172 -91 1784 -91 
Q 1150 -91 751 415 
Q 353 922 353 1747 
Q 353 2572 751 3078 
Q 1150 3584 1784 3584 
Q 2172 3584 2448 3432 
Q 2725 3281 2906 2969 
z
M 947 1747 
Q 947 1113 1208 752 
Q 1469 391 1925 391 
Q 2381 391 2643 752 
Q 2906 1113 2906 1747 
Q 2906 2381 2643 2742 
Q 2381 3103 1925 3103 
Q 1469 3103 1208 2742 
Q 947 2381 947 1747 
z
" transform="scale(0.015625)"/>
       <path id="DejaVuSans-74" d="M 1172 4494 
L 1172 3500 
L 2356 3500 
L 2356 3053 
L 1172 3053 
L 1172 1153 
Q 1172 725 1289 603 
Q 1406 481 1766 481 
L 2356 481 
L 2356 0 
L 1766 0 
Q 1100 0 847 248 
Q 594 497 594 1153 
L 594 3053 
L 172 3053 
L 172 3500 
L 594 3500 
L 594 4494 
L 1172 4494 
z
" transform="scale(0.015625)"/>
       <path id="DejaVuSans-28" d="M 1984 4856 
Q 1566 4138 1362 3434 
Q 1159 2731 1159 2009 
Q 1159 1288 1364 580 
Q 1569 -128 1984 -844 
L 1484 -844 
Q 1016 -109 783 600 
Q 550 1309 550 2009 
Q 550 2706 781 3412 
Q 1013 4119 1484 4856 
L 1984 4856 
z
" transform="scale(0.015625)"/>
       <path id="DejaVuSans-25" d="M 4653 2053 
Q 4381 2053 4226 1822 
Q 4072 1591 4072 1178 
Q 4072 772 4226 539 
Q 4381 306 4653 306 
Q 4919 306 5073 539 
Q 5228 772 5228 1178 
Q 5228 1588 5073 1820 
Q 4919 2053 4653 2053 
z
M 4653 2450 
Q 5147 2450 5437 2106 
Q 5728 1763 5728 1178 
Q 5728 594 5436 251 
Q 5144 -91 4653 -91 
Q 4153 -91 3862 251 
Q 3572 594 3572 1178 
Q 3572 1766 3864 2108 
Q 4156 2450 4653 2450 
z
M 1428 4353 
Q 1159 4353 1004 4120 
Q 850 3888 850 3481 
Q 850 3069 1003 2837 
Q 1156 2606 1428 2606 
Q 1700 2606 1854 2837 
Q 2009 3069 2009 3481 
Q 2009 3884 1853 4118 
Q 1697 4353 1428 4353 
z
M 4250 4750 
L 4750 4750 
L 1831 -91 
L 1331 -91 
L 4250 4750 
z
M 1428 4750 
Q 1922 4750 2215 4408 
Q 2509 4066 2509 3481 
Q 2509 2891 2217 2550 
Q 1925 2209 1428 2209 
Q 931 2209 642 2551 
Q 353 2894 353 3481 
Q 353 4063 643 4406 
Q 934 4750 1428 4750 
z
" transform="scale(0.015625)"/>
       <path id="DejaVuSans-29" d="M 513 4856 
L 1013 4856 
Q 1481 4119 1714 3412 
Q 1947 2706 1947 2009 
Q 1947 1309 1714 600 
Q 1481 -109 1013 -844 
L 513 -844 
Q 928 -128 1133 580 
Q 1338 1288 1338 2009 
Q 1338 2731 1133 3434 
Q 928 4138 513 4856 
z
" transform="scale(0.015625)"/>
      </defs>
      <use xlink:href="#DejaVuSans-54"/>
      <use xlink:href="#DejaVuSans-e4" transform="translate(49.458984 0)"/>
      <use xlink:href="#DejaVuSans-67" transform="translate(110.738281 0)"/>
      <use xlink:href="#DejaVuSans-6c" transform="translate(174.214844 0)"/>
      <use xlink:href="#DejaVuSans-69" transform="translate(201.998047 0)"/>
      <use xlink:href="#DejaVuSans-63" transform="translate(229.78125 0)"/>
      <use xlink:href="#DejaVuSans-68" transform="translate(284.761719 0)"/>
      <use xlink:href="#DejaVuSans-65" transform="translate(348.140625 0)"/>
      <use xlink:href="#DejaVuSans-20" transform="translate(409.664062 0)"/>
      <use xlink:href="#DejaVuSans-52" transform="translate(441.451172 0)"/>
      <use xlink:href="#DejaVuSans-65" transform="translate(506.433594 0)"/>
      <use xlink:href="#DejaVuSans-6e" transform="translate(567.957031 0)"/>
      <use xlink:href="#DejaVuSans-64" transform="translate(631.335938 0)"/>
      <use xlink:href="#DejaVuSans-69" transform="translate(694.8125 0)"/>
      <use xlink:href="#DejaVuSans-74" transform="translate(722.595703 0)"/>
      <use xlink:href="#DejaVuSans-65" transform="translate(761.804688 0)"/>
      <use xlink:href="#DejaVuSans-20" transform="translate(823.328125 0)"/>
      <use xlink:href="#DejaVuSans-28" transform="translate(855.115234 0)"/>
      <use xlink:href="#DejaVuSans-25" transform="translate(894.128906 0)"/>
      <use xlink:href="#DejaVuSans-29" transform="translate(989.148438 0)"/>
     </g>
    </g>
   </g>
   <g id="matplotlib.axis_2">
    <g id="ytick_1">
     <g id="line2d_11">
      <path d="M 51.111563 314.364279 
L 633.834639 314.364279 
" clip-path="url(#pbed378d128)" style="fill: none; stroke: #b0b0b0; stroke-opacity: 0.3; stroke-width: 0.8; stroke-linecap: square"/>
     </g>
     <g id="line2d_12">
      <defs>
       <path id="m5f489008e4" d="M 0 0 
L -3.5 0 
" style="stroke: #000000; stroke-width: 0.8"/>
      </defs>
      <g>
       <use xlink:href="#m5f489008e4" x="51.111563" y="314.364279" style="stroke: #000000; stroke-width: 0.8"/>
      </g>
     </g>
     <g id="text_7">
      <!-- 0.00 -->
      <g transform="translate(21.845938 318.163498) scale(0.1 -0.1)">
       <defs>
        <path id="DejaVuSans-2e" d="M 684 794 
L 1344 794 
L 1344 0 
L 684 0 
L 684 794 
z
" transform="scale(0.015625)"/>
       </defs>
       <use xlink:href="#DejaVuSans-30"/>
       <use xlink:href="#DejaVuSans-2e" transform="translate(63.623047 0)"/>
       <use xlink:href="#DejaVuSans-30" transform="translate(95.410156 0)"/>
       <use xlink:href="#DejaVuSans-30" transform="translate(159.033203 0)"/>
      </g>
     </g>
    </g>
    <g id="ytick_2">
     <g id="line2d_13">
      <path d="M 51.111563 277.148741 
L 633.834639 277.148741 
" clip-path="url(#pbed378d128)" style="fill: none; stroke: #b0b0b0; stroke-opacity: 0.3; stroke-width: 0.8; stroke-linecap: square"/>
     </g>
     <g id="line2d_14">
      <g>
       <use xlink:href="#m5f489008e4" x="51.111563" y="277.148741" style="stroke: #000000; stroke-width: 0.8"/>
      </g>
     </g>
     <g id="text_8">
      <!-- 0.05 -->
      <g transform="translate(21.845938 280.94796) scale(0.1 -0.1)">
       <defs>
        <path id="DejaVuSans-35" d="M 691 4666 
L 3169 4666 
L 3169 4134 
L 1269 4134 
L 1269 2991 
Q 1406 3038 1543 3061 
Q 1681 3084 1819 3084 
Q 2600 3084 3056 2656 
Q 3513 2228 3513 1497 
Q 3513 744 3044 326 
Q 2575 -91 1722 -91 
Q 1428 -91 1123 -41 
Q 819 9 494 109 
L 494 744 
Q 775 591 1075 516 
Q 1375 441 1709 441 
Q 2250 441 2565 725 
Q 2881 1009 2881 1497 
Q 2881 1984 2565 2268 
Q 2250 2553 1709 2553 
Q 1456 2553 1204 2497 
Q 953 2441 691 2322 
L 691 4666 
z
" transform="scale(0.015625)"/>
       </defs>
       <use xlink:href="#DejaVuSans-30"/>
       <use xlink:href="#DejaVuSans-2e" transform="translate(63.623047 0)"/>
       <use xlink:href="#DejaVuSans-30" transform="translate(95.410156 0)"/>
       <use xlink:href="#DejaVuSans-35" transform="translate(159.033203 0)"/>
      </g>
     </g>
    </g>
    <g id="ytick_3">
     <g id="line2d_15">
      <path d="M 51.111563 239.933203 
L 633.834639 239.933203 
" clip-path="url(#pbed378d128)" style="fill: none; stroke: #b0b0b0; stroke-opacity: 0.3; stroke-width: 0.8; stroke-linecap: square"/>
     </g>
     <g id="line2d_16">
      <g>
       <use xlink:href="#m5f489008e4" x="51.111563" y="239.933203" style="stroke: #000000; stroke-width: 0.8"/>
      </g>
     </g>
     <g id="text_9">
      <!-- 0.10 -->
      <g transform="translate(21.845938 243.732422) scale(0.1 -0.1)">
       <defs>
        <path id="DejaVuSans-31" d="M 794 531 
L 1825 531 
L 1825 4091 
L 703 3866 
L 703 4441 
L 1819 4666 
L 2450 4666 
L 2450 531 
L 3481 531 
L 3481 0 
L 794 0 
L 794 531 
z
" transform="scale(0.015625)"/>
       </defs>
       <use xlink:href="#DejaVuSans-30"/>
       <use xlink:href="#DejaVuSans-2e" transform="translate(63.623047 0)"/>
       <use xlink:href="#DejaVuSans-31" transform="translate(95.410156 0)"/>
       <use xlink:href="#DejaVuSans-30" transform="translate(159.033203 0)"/>
      </g>
     </g>
    </g>
    <g id="ytick_4">
     <g id="line2d_17">
      <path d="M 51.111563 202.717665 
L 633.834639 202.717665 
" clip-path="url(#pbed378d128)" style="fill: none; stroke: #b0b0b0; stroke-opacity: 0.3; stroke-width: 0.8; stroke-linecap: square"/>
     </g>
     <g id="line2d_18">
      <g>
       <use xlink:href="#m5f489008e4" x="51.111563" y="202.717665" style="stroke: #000000; stroke-width: 0.8"/>
      </g>
     </g>
     <g id="text_10">
      <!-- 0.15 -->
      <g transform="translate(21.845938 206.516884) scale(0.1 -0.1)">
       <use xlink:href="#DejaVuSans-30"/>
       <use xlink:href="#DejaVuSans-2e" transform="translate(63.623047 0)"/>
       <use xlink:href="#DejaVuSans-31" transform="translate(95.410156 0)"/>
       <use xlink:href="#DejaVuSans-35" transform="translate(159.033203 0)"/>
      </g>
     </g>
    </g>
    <g id="ytick_5">
     <g id="line2d_19">
      <path d="M 51.111563 165.502128 
L 633.834639 165.502128 
" clip-path="url(#pbed378d128)" style="fill: none; stroke: #b0b0b0; stroke-opacity: 0.3; stroke-width: 0.8; stroke-linecap: square"/>
     </g>
     <g id="line2d_20">
      <g>
       <use xlink:href="#m5f489008e4" x="51.111563" y="165.502128" style="stroke: #000000; stroke-width: 0.8"/>
      </g>
     </g>
     <g id="text_11">
      <!-- 0.20 -->
      <g transform="translate(21.845938 169.301346) scale(0.1 -0.1)">
       <use xlink:href="#DejaVuSans-30"/>
       <use xlink:href="#DejaVuSans-2e" transform="translate(63.623047 0)"/>
       <use xlink:href="#DejaVuSans-32" transform="translate(95.410156 0)"/>
       <use xlink:href="#DejaVuSans-30" transform="translate(159.033203 0)"/>
      </g>
     </g>
    </g>
    <g id="ytick_6">
     <g id="line2d_21">
      <path d="M 51.111563 128.28659 
L 633.834639 128.28659 
" clip-path="url(#pbed378d128)" style="fill: none; stroke: #b0b0b0; stroke-opacity: 0.3; stroke-width: 0.8; stroke-linecap: square"/>
     </g>
     <g id="line2d_22">
      <g>
       <use xlink:href="#m5f489008e4" x="51.111563" y="128.28659" style="stroke: #000000; stroke-width: 0.8"/>
      </g>
     </g>
     <g id="text_12">
      <!-- 0.25 -->
      <g transform="translate(21.845938 132.085809) scale(0.1 -0.1)">
       <use xlink:href="#DejaVuSans-30"/>
       <use xlink:href="#DejaVuSans-2e" transform="translate(63.623047 0)"/>
       <use xlink:href="#DejaVuSans-32" transform="translate(95.410156 0)"/>
       <use xlink:href="#DejaVuSans-35" transform="translate(159.033203 0)"/>
      </g>
     </g>
    </g>
    <g id="ytick_7">
     <g id="line2d_23">
      <path d="M 51.111563 91.071052 
L 633.834639 91.071052 
" clip-path="url(#pbed378d128)" style="fill: none; stroke: #b0b0b0; stroke-opacity: 0.3; stroke-width: 0.8; stroke-linecap: square"/>
     </g>
     <g id="line2d_24">
      <g>
       <use xlink:href="#m5f489008e4" x="51.111563" y="91.071052" style="stroke: #000000; stroke-width: 0.8"/>
      </g>
     </g>
     <g id="text_13">
      <!-- 0.30 -->
      <g transform="translate(21.845938 94.870271) scale(0.1 -0.1)">
       <defs>
        <path id="DejaVuSans-33" d="M 2597 2516 
Q 3050 2419 3304 2112 
Q 3559 1806 3559 1356 
Q 3559 666 3084 287 
Q 2609 -91 1734 -91 
Q 1441 -91 1130 -33 
Q 819 25 488 141 
L 488 750 
Q 750 597 1062 519 
Q 1375 441 1716 441 
Q 2309 441 2620 675 
Q 2931 909 2931 1356 
Q 2931 1769 2642 2001 
Q 2353 2234 1838 2234 
L 1294 2234 
L 1294 2753 
L 1863 2753 
Q 2328 2753 2575 2939 
Q 2822 3125 2822 3475 
Q 2822 3834 2567 4026 
Q 2313 4219 1838 4219 
Q 1578 4219 1281 4162 
Q 984 4106 628 3988 
L 628 4550 
Q 988 4650 1302 4700 
Q 1616 4750 1894 4750 
Q 2613 4750 3031 4423 
Q 3450 4097 3450 3541 
Q 3450 3153 3228 2886 
Q 3006 2619 2597 2516 
z
" transform="scale(0.015625)"/>
       </defs>
       <use xlink:href="#DejaVuSans-30"/>
       <use xlink:href="#DejaVuSans-2e" transform="translate(63.623047 0)"/>
       <use xlink:href="#DejaVuSans-33" transform="translate(95.410156 0)"/>
       <use xlink:href="#DejaVuSans-30" transform="translate(159.033203 0)"/>
      </g>
     </g>
    </g>
    <g id="ytick_8">
     <g id="line2d_25">
      <path d="M 51.111563 53.855514 
L 633.834639 53.855514 
" clip-path="url(#pbed378d128)" style="fill: none; stroke: #b0b0b0; stroke-opacity: 0.3; stroke-width: 0.8; stroke-linecap: square"/>
     </g>
     <g id="line2d_26">
      <g>
       <use xlink:href="#m5f489008e4" x="51.111563" y="53.855514" style="stroke: #000000; stroke-width: 0.8"/>
      </g>
     </g>
     <g id="text_14">
      <!-- 0.35 -->
      <g transform="translate(21.845938 57.654733) scale(0.1 -0.1)">
       <use xlink:href="#DejaVuSans-30"/>
       <use xlink:href="#DejaVuSans-2e" transform="translate(63.623047 0)"/>
       <use xlink:href="#DejaVuSans-33" transform="translate(95.410156 0)"/>
       <use xlink:href="#DejaVuSans-35" transform="translate(159.033203 0)"/>
      </g>
     </g>
    </g>
    <g id="text_15">
     <!-- Dichte -->
     <g transform="translate(15.558281 186.154327) rotate(-90) scale(0.11 -0.11)">
      <defs>
       <path id="DejaVuSans-44" d="M 1259 4147 
L 1259 519 
L 2022 519 
Q 2988 519 3436 956 
Q 3884 1394 3884 2338 
Q 3884 3275 3436 3711 
Q 2988 4147 2022 4147 
L 1259 4147 
z
M 628 4666 
L 1925 4666 
Q 3281 4666 3915 4102 
Q 4550 3538 4550 2338 
Q 4550 1131 3912 565 
Q 3275 0 1925 0 
L 628 0 
L 628 4666 
z
" transform="scale(0.015625)"/>
      </defs>
      <use xlink:href="#DejaVuSans-44"/>
      <use xlink:href="#DejaVuSans-69" transform="translate(77.001953 0)"/>
      <use xlink:href="#DejaVuSans-63" transform="translate(104.785156 0)"/>
      <use xlink:href="#DejaVuSans-68" transform="translate(159.765625 0)"/>
      <use xlink:href="#DejaVuSans-74" transform="translate(223.144531 0)"/>
      <use xlink:href="#DejaVuSans-65" transform="translate(262.353516 0)"/>
     </g>
    </g>
   </g>
   <g id="line2d_27">
    <path d="M 226.187943 314.364279 
L 226.187943 22.318125 
" clip-path="url(#pbed378d128)" style="fill: none; stroke-dasharray: 7.4,3.2; stroke-dashoffset: 0; stroke: #e74c3c; stroke-width: 2"/>
   </g>
   <g id="line2d_28">
    <path d="M 175.787296 314.364279 
L 175.787296 22.318125 
" clip-path="url(#pbed378d128)" style="fill: none; stroke-dasharray: 12.8,3.2,2,3.2; stroke-dashoffset: 0; stroke: #c0392b; stroke-width: 2"/>
   </g>
   <g id="line2d_29">
    <path d="M 193.617763 314.364279 
L 193.617763 22.318125 
" clip-path="url(#pbed378d128)" style="fill: none; stroke-dasharray: 2,3.3; stroke-dashoffset: 0; stroke: #8e44ad; stroke-width: 2"/>
   </g>
   <g id="patch_63">
    <path d="M 51.111563 314.364279 
L 51.111563 22.318125 
" style="fill: none; stroke: #000000; stroke-width: 0.8; stroke-linejoin: miter; stroke-linecap: square"/>
   </g>
   <g id="patch_64">
    <path d="M 51.111562 314.364279 
L 633.834639 314.364279 
" style="fill: none; stroke: #000000; stroke-width: 0.8; stroke-linejoin: miter; stroke-linecap: square"/>
   </g>
   <g id="text_16">
    <!-- Renditeverteilung: Value-at-Risk und CVaR (Expected Shortfall) -->
    <g transform="translate(127.513726 16.318125) scale(0.12 -0.12)">
     <defs>
      <path id="DejaVuSans-Bold-52" d="M 2297 2597 
Q 2675 2597 2839 2737 
Q 3003 2878 3003 3200 
Q 3003 3519 2839 3656 
Q 2675 3794 2297 3794 
L 1791 3794 
L 1791 2597 
L 2297 2597 
z
M 1791 1766 
L 1791 0 
L 588 0 
L 588 4666 
L 2425 4666 
Q 3347 4666 3776 4356 
Q 4206 4047 4206 3378 
Q 4206 2916 3982 2619 
Q 3759 2322 3309 2181 
Q 3556 2125 3751 1926 
Q 3947 1728 4147 1325 
L 4800 0 
L 3519 0 
L 2950 1159 
Q 2778 1509 2601 1637 
Q 2425 1766 2131 1766 
L 1791 1766 
z
" transform="scale(0.015625)"/>
      <path id="DejaVuSans-Bold-65" d="M 4031 1759 
L 4031 1441 
L 1416 1441 
Q 1456 1047 1700 850 
Q 1944 653 2381 653 
Q 2734 653 3104 758 
Q 3475 863 3866 1075 
L 3866 213 
Q 3469 63 3072 -14 
Q 2675 -91 2278 -91 
Q 1328 -91 801 392 
Q 275 875 275 1747 
Q 275 2603 792 3093 
Q 1309 3584 2216 3584 
Q 3041 3584 3536 3087 
Q 4031 2591 4031 1759 
z
M 2881 2131 
Q 2881 2450 2695 2645 
Q 2509 2841 2209 2841 
Q 1884 2841 1681 2658 
Q 1478 2475 1428 2131 
L 2881 2131 
z
" transform="scale(0.015625)"/>
      <path id="DejaVuSans-Bold-6e" d="M 4056 2131 
L 4056 0 
L 2931 0 
L 2931 347 
L 2931 1631 
Q 2931 2084 2911 2256 
Q 2891 2428 2841 2509 
Q 2775 2619 2662 2680 
Q 2550 2741 2406 2741 
Q 2056 2741 1856 2470 
Q 1656 2200 1656 1722 
L 1656 0 
L 538 0 
L 538 3500 
L 1656 3500 
L 1656 2988 
Q 1909 3294 2193 3439 
Q 2478 3584 2822 3584 
Q 3428 3584 3742 3212 
Q 4056 2841 4056 2131 
z
" transform="scale(0.015625)"/>
      <path id="DejaVuSans-Bold-64" d="M 2919 2988 
L 2919 4863 
L 4044 4863 
L 4044 0 
L 2919 0 
L 2919 506 
Q 2688 197 2409 53 
Q 2131 -91 1766 -91 
Q 1119 -91 703 423 
Q 288 938 288 1747 
Q 288 2556 703 3070 
Q 1119 3584 1766 3584 
Q 2128 3584 2408 3439 
Q 2688 3294 2919 2988 
z
M 2181 722 
Q 2541 722 2730 984 
Q 2919 1247 2919 1747 
Q 2919 2247 2730 2509 
Q 2541 2772 2181 2772 
Q 1825 2772 1636 2509 
Q 1447 2247 1447 1747 
Q 1447 1247 1636 984 
Q 1825 722 2181 722 
z
" transform="scale(0.015625)"/>
      <path id="DejaVuSans-Bold-69" d="M 538 3500 
L 1656 3500 
L 1656 0 
L 538 0 
L 538 3500 
z
M 538 4863 
L 1656 4863 
L 1656 3950 
L 538 3950 
L 538 4863 
z
" transform="scale(0.015625)"/>
      <path id="DejaVuSans-Bold-74" d="M 1759 4494 
L 1759 3500 
L 2913 3500 
L 2913 2700 
L 1759 2700 
L 1759 1216 
Q 1759 972 1856 886 
Q 1953 800 2241 800 
L 2816 800 
L 2816 0 
L 1856 0 
Q 1194 0 917 276 
Q 641 553 641 1216 
L 641 2700 
L 84 2700 
L 84 3500 
L 641 3500 
L 641 4494 
L 1759 4494 
z
" transform="scale(0.015625)"/>
      <path id="DejaVuSans-Bold-76" d="M 97 3500 
L 1216 3500 
L 2088 1081 
L 2956 3500 
L 4078 3500 
L 2700 0 
L 1472 0 
L 97 3500 
z
" transform="scale(0.015625)"/>
      <path id="DejaVuSans-Bold-72" d="M 3138 2547 
Q 2991 2616 2845 2648 
Q 2700 2681 2553 2681 
Q 2122 2681 1889 2404 
Q 1656 2128 1656 1613 
L 1656 0 
L 538 0 
L 538 3500 
L 1656 3500 
L 1656 2925 
Q 1872 3269 2151 3426 
Q 2431 3584 2822 3584 
Q 2878 3584 2943 3579 
Q 3009 3575 3134 3559 
L 3138 2547 
z
" transform="scale(0.015625)"/>
      <path id="DejaVuSans-Bold-6c" d="M 538 4863 
L 1656 4863 
L 1656 0 
L 538 0 
L 538 4863 
z
" transform="scale(0.015625)"/>
      <path id="DejaVuSans-Bold-75" d="M 500 1363 
L 500 3500 
L 1625 3500 
L 1625 3150 
Q 1625 2866 1622 2436 
Q 1619 2006 1619 1863 
Q 1619 1441 1641 1255 
Q 1663 1069 1716 984 
Q 1784 875 1895 815 
Q 2006 756 2150 756 
Q 2500 756 2700 1025 
Q 2900 1294 2900 1772 
L 2900 3500 
L 4019 3500 
L 4019 0 
L 2900 0 
L 2900 506 
Q 2647 200 2364 54 
Q 2081 -91 1741 -91 
Q 1134 -91 817 281 
Q 500 653 500 1363 
z
" transform="scale(0.015625)"/>
      <path id="DejaVuSans-Bold-67" d="M 2919 594 
Q 2688 288 2409 144 
Q 2131 0 1766 0 
Q 1125 0 706 504 
Q 288 1009 288 1791 
Q 288 2575 706 3076 
Q 1125 3578 1766 3578 
Q 2131 3578 2409 3434 
Q 2688 3291 2919 2981 
L 2919 3500 
L 4044 3500 
L 4044 353 
Q 4044 -491 3511 -936 
Q 2978 -1381 1966 -1381 
Q 1638 -1381 1331 -1331 
Q 1025 -1281 716 -1178 
L 716 -306 
Q 1009 -475 1290 -558 
Q 1572 -641 1856 -641 
Q 2406 -641 2662 -400 
Q 2919 -159 2919 353 
L 2919 594 
z
M 2181 2772 
Q 1834 2772 1640 2515 
Q 1447 2259 1447 1791 
Q 1447 1309 1634 1061 
Q 1822 813 2181 813 
Q 2531 813 2725 1069 
Q 2919 1325 2919 1791 
Q 2919 2259 2725 2515 
Q 2531 2772 2181 2772 
z
" transform="scale(0.015625)"/>
      <path id="DejaVuSans-Bold-3a" d="M 716 3500 
L 1844 3500 
L 1844 2291 
L 716 2291 
L 716 3500 
z
M 716 1209 
L 1844 1209 
L 1844 0 
L 716 0 
L 716 1209 
z
" transform="scale(0.015625)"/>
      <path id="DejaVuSans-Bold-20" transform="scale(0.015625)"/>
      <path id="DejaVuSans-Bold-56" d="M 31 4666 
L 1241 4666 
L 2478 1222 
L 3713 4666 
L 4922 4666 
L 3194 0 
L 1759 0 
L 31 4666 
z
" transform="scale(0.015625)"/>
      <path id="DejaVuSans-Bold-61" d="M 2106 1575 
Q 1756 1575 1579 1456 
Q 1403 1338 1403 1106 
Q 1403 894 1545 773 
Q 1688 653 1941 653 
Q 2256 653 2472 879 
Q 2688 1106 2688 1447 
L 2688 1575 
L 2106 1575 
z
M 3816 1997 
L 3816 0 
L 2688 0 
L 2688 519 
Q 2463 200 2181 54 
Q 1900 -91 1497 -91 
Q 953 -91 614 226 
Q 275 544 275 1050 
Q 275 1666 698 1953 
Q 1122 2241 2028 2241 
L 2688 2241 
L 2688 2328 
Q 2688 2594 2478 2717 
Q 2269 2841 1825 2841 
Q 1466 2841 1156 2769 
Q 847 2697 581 2553 
L 581 3406 
Q 941 3494 1303 3539 
Q 1666 3584 2028 3584 
Q 2975 3584 3395 3211 
Q 3816 2838 3816 1997 
z
" transform="scale(0.015625)"/>
      <path id="DejaVuSans-Bold-2d" d="M 347 2297 
L 2309 2297 
L 2309 1388 
L 347 1388 
L 347 2297 
z
" transform="scale(0.015625)"/>
      <path id="DejaVuSans-Bold-73" d="M 3272 3391 
L 3272 2541 
Q 2913 2691 2578 2766 
Q 2244 2841 1947 2841 
Q 1628 2841 1473 2761 
Q 1319 2681 1319 2516 
Q 1319 2381 1436 2309 
Q 1553 2238 1856 2203 
L 2053 2175 
Q 2913 2066 3209 1816 
Q 3506 1566 3506 1031 
Q 3506 472 3093 190 
Q 2681 -91 1863 -91 
Q 1516 -91 1145 -36 
Q 775 19 384 128 
L 384 978 
Q 719 816 1070 734 
Q 1422 653 1784 653 
Q 2113 653 2278 743 
Q 2444 834 2444 1013 
Q 2444 1163 2330 1236 
Q 2216 1309 1875 1350 
L 1678 1375 
Q 931 1469 631 1722 
Q 331 1975 331 2491 
Q 331 3047 712 3315 
Q 1094 3584 1881 3584 
Q 2191 3584 2531 3537 
Q 2872 3491 3272 3391 
z
" transform="scale(0.015625)"/>
      <path id="DejaVuSans-Bold-6b" d="M 538 4863 
L 1656 4863 
L 1656 2216 
L 2944 3500 
L 4244 3500 
L 2534 1894 
L 4378 0 
L 3022 0 
L 1656 1459 
L 1656 0 
L 538 0 
L 538 4863 
z
" transform="scale(0.015625)"/>
      <path id="DejaVuSans-Bold-43" d="M 4288 256 
Q 3956 84 3597 -3 
Q 3238 -91 2847 -91 
Q 1681 -91 1000 561 
Q 319 1213 319 2328 
Q 319 3447 1000 4098 
Q 1681 4750 2847 4750 
Q 3238 4750 3597 4662 
Q 3956 4575 4288 4403 
L 4288 3438 
Q 3953 3666 3628 3772 
Q 3303 3878 2944 3878 
Q 2300 3878 1931 3465 
Q 1563 3053 1563 2328 
Q 1563 1606 1931 1193 
Q 2300 781 2944 781 
Q 3303 781 3628 887 
Q 3953 994 4288 1222 
L 4288 256 
z
" transform="scale(0.015625)"/>
      <path id="DejaVuSans-Bold-28" d="M 2413 -844 
L 1484 -844 
Q 1006 -72 778 623 
Q 550 1319 550 2003 
Q 550 2688 779 3389 
Q 1009 4091 1484 4856 
L 2413 4856 
Q 2013 4116 1813 3408 
Q 1613 2700 1613 2009 
Q 1613 1319 1811 609 
Q 2009 -100 2413 -844 
z
" transform="scale(0.015625)"/>
      <path id="DejaVuSans-Bold-45" d="M 588 4666 
L 3834 4666 
L 3834 3756 
L 1791 3756 
L 1791 2888 
L 3713 2888 
L 3713 1978 
L 1791 1978 
L 1791 909 
L 3903 909 
L 3903 0 
L 588 0 
L 588 4666 
z
" transform="scale(0.015625)"/>
      <path id="DejaVuSans-Bold-78" d="M 1422 1791 
L 159 3500 
L 1344 3500 
L 2059 2463 
L 2784 3500 
L 3969 3500 
L 2706 1797 
L 4031 0 
L 2847 0 
L 2059 1106 
L 1281 0 
L 97 0 
L 1422 1791 
z
" transform="scale(0.015625)"/>
      <path id="DejaVuSans-Bold-70" d="M 1656 506 
L 1656 -1331 
L 538 -1331 
L 538 3500 
L 1656 3500 
L 1656 2988 
Q 1888 3294 2169 3439 
Q 2450 3584 2816 3584 
Q 3463 3584 3878 3070 
Q 4294 2556 4294 1747 
Q 4294 938 3878 423 
Q 3463 -91 2816 -91 
Q 2450 -91 2169 54 
Q 1888 200 1656 506 
z
M 2400 2772 
Q 2041 2772 1848 2508 
Q 1656 2244 1656 1747 
Q 1656 1250 1848 986 
Q 2041 722 2400 722 
Q 2759 722 2948 984 
Q 3138 1247 3138 1747 
Q 3138 2247 2948 2509 
Q 2759 2772 2400 2772 
z
" transform="scale(0.015625)"/>
      <path id="DejaVuSans-Bold-63" d="M 3366 3391 
L 3366 2478 
Q 3138 2634 2908 2709 
Q 2678 2784 2431 2784 
Q 1963 2784 1702 2511 
Q 1441 2238 1441 1747 
Q 1441 1256 1702 982 
Q 1963 709 2431 709 
Q 2694 709 2930 787 
Q 3166 866 3366 1019 
L 3366 103 
Q 3103 6 2833 -42 
Q 2563 -91 2291 -91 
Q 1344 -91 809 395 
Q 275 881 275 1747 
Q 275 2613 809 3098 
Q 1344 3584 2291 3584 
Q 2566 3584 2833 3536 
Q 3100 3488 3366 3391 
z
" transform="scale(0.015625)"/>
      <path id="DejaVuSans-Bold-53" d="M 3834 4519 
L 3834 3531 
Q 3450 3703 3084 3790 
Q 2719 3878 2394 3878 
Q 1963 3878 1756 3759 
Q 1550 3641 1550 3391 
Q 1550 3203 1689 3098 
Q 1828 2994 2194 2919 
L 2706 2816 
Q 3484 2659 3812 2340 
Q 4141 2022 4141 1434 
Q 4141 663 3683 286 
Q 3225 -91 2284 -91 
Q 1841 -91 1394 -6 
Q 947 78 500 244 
L 500 1259 
Q 947 1022 1364 901 
Q 1781 781 2169 781 
Q 2563 781 2772 912 
Q 2981 1044 2981 1288 
Q 2981 1506 2839 1625 
Q 2697 1744 2272 1838 
L 1806 1941 
Q 1106 2091 782 2419 
Q 459 2747 459 3303 
Q 459 4000 909 4375 
Q 1359 4750 2203 4750 
Q 2588 4750 2994 4692 
Q 3400 4634 3834 4519 
z
" transform="scale(0.015625)"/>
      <path id="DejaVuSans-Bold-68" d="M 4056 2131 
L 4056 0 
L 2931 0 
L 2931 347 
L 2931 1625 
Q 2931 2084 2911 2256 
Q 2891 2428 2841 2509 
Q 2775 2619 2662 2680 
Q 2550 2741 2406 2741 
Q 2056 2741 1856 2470 
Q 1656 2200 1656 1722 
L 1656 0 
L 538 0 
L 538 4863 
L 1656 4863 
L 1656 2988 
Q 1909 3294 2193 3439 
Q 2478 3584 2822 3584 
Q 3428 3584 3742 3212 
Q 4056 2841 4056 2131 
z
" transform="scale(0.015625)"/>
      <path id="DejaVuSans-Bold-6f" d="M 2203 2784 
Q 1831 2784 1636 2517 
Q 1441 2250 1441 1747 
Q 1441 1244 1636 976 
Q 1831 709 2203 709 
Q 2569 709 2762 976 
Q 2956 1244 2956 1747 
Q 2956 2250 2762 2517 
Q 2569 2784 2203 2784 
z
M 2203 3584 
Q 3106 3584 3614 3096 
Q 4122 2609 4122 1747 
Q 4122 884 3614 396 
Q 3106 -91 2203 -91 
Q 1297 -91 786 396 
Q 275 884 275 1747 
Q 275 2609 786 3096 
Q 1297 3584 2203 3584 
z
" transform="scale(0.015625)"/>
      <path id="DejaVuSans-Bold-66" d="M 2841 4863 
L 2841 4128 
L 2222 4128 
Q 1984 4128 1890 4042 
Q 1797 3956 1797 3744 
L 1797 3500 
L 2753 3500 
L 2753 2700 
L 1797 2700 
L 1797 0 
L 678 0 
L 678 2700 
L 122 2700 
L 122 3500 
L 678 3500 
L 678 3744 
Q 678 4316 997 4589 
Q 1316 4863 1984 4863 
L 2841 4863 
z
" transform="scale(0.015625)"/>
      <path id="DejaVuSans-Bold-29" d="M 513 -844 
Q 913 -100 1113 609 
Q 1313 1319 1313 2009 
Q 1313 2700 1113 3408 
Q 913 4116 513 4856 
L 1441 4856 
Q 1916 4091 2145 3389 
Q 2375 2688 2375 2003 
Q 2375 1319 2147 623 
Q 1919 -72 1441 -844 
L 513 -844 
z
" transform="scale(0.015625)"/>
     </defs>
     <use xlink:href="#DejaVuSans-Bold-52"/>
     <use xlink:href="#DejaVuSans-Bold-65" transform="translate(77.001953 0)"/>
     <use xlink:href="#DejaVuSans-Bold-6e" transform="translate(144.824219 0)"/>
     <use xlink:href="#DejaVuSans-Bold-64" transform="translate(216.015625 0)"/>
     <use xlink:href="#DejaVuSans-Bold-69" transform="translate(287.597656 0)"/>
     <use xlink:href="#DejaVuSans-Bold-74" transform="translate(321.875 0)"/>
     <use xlink:href="#DejaVuSans-Bold-65" transform="translate(369.677734 0)"/>
     <use xlink:href="#DejaVuSans-Bold-76" transform="translate(437.5 0)"/>
     <use xlink:href="#DejaVuSans-Bold-65" transform="translate(502.685547 0)"/>
     <use xlink:href="#DejaVuSans-Bold-72" transform="translate(570.507812 0)"/>
     <use xlink:href="#DejaVuSans-Bold-74" transform="translate(619.824219 0)"/>
     <use xlink:href="#DejaVuSans-Bold-65" transform="translate(667.626953 0)"/>
     <use xlink:href="#DejaVuSans-Bold-69" transform="translate(735.449219 0)"/>
     <use xlink:href="#DejaVuSans-Bold-6c" transform="translate(769.726562 0)"/>
     <use xlink:href="#DejaVuSans-Bold-75" transform="translate(804.003906 0)"/>
     <use xlink:href="#DejaVuSans-Bold-6e" transform="translate(875.195312 0)"/>
     <use xlink:href="#DejaVuSans-Bold-67" transform="translate(946.386719 0)"/>
     <use xlink:href="#DejaVuSans-Bold-3a" transform="translate(1017.96875 0)"/>
     <use xlink:href="#DejaVuSans-Bold-20" transform="translate(1057.958984 0)"/>
     <use xlink:href="#DejaVuSans-Bold-56" transform="translate(1092.773438 0)"/>
     <use xlink:href="#DejaVuSans-Bold-61" transform="translate(1164.666016 0)"/>
     <use xlink:href="#DejaVuSans-Bold-6c" transform="translate(1232.146484 0)"/>
     <use xlink:href="#DejaVuSans-Bold-75" transform="translate(1266.423828 0)"/>
     <use xlink:href="#DejaVuSans-Bold-65" transform="translate(1337.615234 0)"/>
     <use xlink:href="#DejaVuSans-Bold-2d" transform="translate(1405.4375 0)"/>
     <use xlink:href="#DejaVuSans-Bold-61" transform="translate(1446.941406 0)"/>
     <use xlink:href="#DejaVuSans-Bold-74" transform="translate(1514.421875 0)"/>
     <use xlink:href="#DejaVuSans-Bold-2d" transform="translate(1562.224609 0)"/>
     <use xlink:href="#DejaVuSans-Bold-52" transform="translate(1603.728516 0)"/>
     <use xlink:href="#DejaVuSans-Bold-69" transform="translate(1680.730469 0)"/>
     <use xlink:href="#DejaVuSans-Bold-73" transform="translate(1715.007812 0)"/>
     <use xlink:href="#DejaVuSans-Bold-6b" transform="translate(1774.529297 0)"/>
     <use xlink:href="#DejaVuSans-Bold-20" transform="translate(1841.033203 0)"/>
     <use xlink:href="#DejaVuSans-Bold-75" transform="translate(1875.847656 0)"/>
     <use xlink:href="#DejaVuSans-Bold-6e" transform="translate(1947.039062 0)"/>
     <use xlink:href="#DejaVuSans-Bold-64" transform="translate(2018.230469 0)"/>
     <use xlink:href="#DejaVuSans-Bold-20" transform="translate(2089.8125 0)"/>
     <use xlink:href="#DejaVuSans-Bold-43" transform="translate(2124.626953 0)"/>
     <use xlink:href="#DejaVuSans-Bold-56" transform="translate(2198.015625 0)"/>
     <use xlink:href="#DejaVuSans-Bold-61" transform="translate(2269.908203 0)"/>
     <use xlink:href="#DejaVuSans-Bold-52" transform="translate(2337.388672 0)"/>
     <use xlink:href="#DejaVuSans-Bold-20" transform="translate(2414.390625 0)"/>
     <use xlink:href="#DejaVuSans-Bold-28" transform="translate(2449.205078 0)"/>
     <use xlink:href="#DejaVuSans-Bold-45" transform="translate(2494.908203 0)"/>
     <use xlink:href="#DejaVuSans-Bold-78" transform="translate(2563.21875 0)"/>
     <use xlink:href="#DejaVuSans-Bold-70" transform="translate(2627.720703 0)"/>
     <use xlink:href="#DejaVuSans-Bold-65" transform="translate(2699.302734 0)"/>
     <use xlink:href="#DejaVuSans-Bold-63" transform="translate(2767.125 0)"/>
     <use xlink:href="#DejaVuSans-Bold-74" transform="translate(2826.402344 0)"/>
     <use xlink:href="#DejaVuSans-Bold-65" transform="translate(2874.205078 0)"/>
     <use xlink:href="#DejaVuSans-Bold-64" transform="translate(2942.027344 0)"/>
     <use xlink:href="#DejaVuSans-Bold-20" transform="translate(3013.609375 0)"/>
     <use xlink:href="#DejaVuSans-Bold-53" transform="translate(3048.423828 0)"/>
     <use xlink:href="#DejaVuSans-Bold-68" transform="translate(3120.445312 0)"/>
     <use xlink:href="#DejaVuSans-Bold-6f" transform="translate(3191.636719 0)"/>
     <use xlink:href="#DejaVuSans-Bold-72" transform="translate(3260.337891 0)"/>
     <use xlink:href="#DejaVuSans-Bold-74" transform="translate(3309.654297 0)"/>
     <use xlink:href="#DejaVuSans-Bold-66" transform="translate(3357.457031 0)"/>
     <use xlink:href="#DejaVuSans-Bold-61" transform="translate(3400.962891 0)"/>
     <use xlink:href="#DejaVuSans-Bold-6c" transform="translate(3468.443359 0)"/>
     <use xlink:href="#DejaVuSans-Bold-6c" transform="translate(3502.720703 0)"/>
     <use xlink:href="#DejaVuSans-Bold-29" transform="translate(3536.998047 0)"/>
    </g>
   </g>
   <g id="legend_1">
    <g id="patch_65">
     <path d="M 492.176827 74.3525 
L 626.834639 74.3525 
Q 628.834639 74.3525 628.834639 72.3525 
L 628.834639 29.318125 
Q 628.834639 27.318125 626.834639 27.318125 
L 492.176827 27.318125 
Q 490.176827 27.318125 490.176827 29.318125 
L 490.176827 72.3525 
Q 490.176827 74.3525 492.176827 74.3525 
z
" style="fill: #ffffff; opacity: 0.8; stroke: #cccccc; stroke-linejoin: miter"/>
    </g>
    <g id="line2d_30">
     <path d="M 494.176827 35.416562 
L 504.176827 35.416562 
L 514.176827 35.416562 
" style="fill: none; stroke-dasharray: 7.4,3.2; stroke-dashoffset: 0; stroke: #e74c3c; stroke-width: 2"/>
    </g>
    <g id="text_17">
     <!-- VaR(95%) = 2.15% -->
     <g transform="translate(522.176827 38.916562) scale(0.1 -0.1)">
      <defs>
       <path id="DejaVuSans-56" d="M 1831 0 
L 50 4666 
L 709 4666 
L 2188 738 
L 3669 4666 
L 4325 4666 
L 2547 0 
L 1831 0 
z
" transform="scale(0.015625)"/>
       <path id="DejaVuSans-61" d="M 2194 1759 
Q 1497 1759 1228 1600 
Q 959 1441 959 1056 
Q 959 750 1161 570 
Q 1363 391 1709 391 
Q 2188 391 2477 730 
Q 2766 1069 2766 1631 
L 2766 1759 
L 2194 1759 
z
M 3341 1997 
L 3341 0 
L 2766 0 
L 2766 531 
Q 2569 213 2275 61 
Q 1981 -91 1556 -91 
Q 1019 -91 701 211 
Q 384 513 384 1019 
Q 384 1609 779 1909 
Q 1175 2209 1959 2209 
L 2766 2209 
L 2766 2266 
Q 2766 2663 2505 2880 
Q 2244 3097 1772 3097 
Q 1472 3097 1187 3025 
Q 903 2953 641 2809 
L 641 3341 
Q 956 3463 1253 3523 
Q 1550 3584 1831 3584 
Q 2591 3584 2966 3190 
Q 3341 2797 3341 1997 
z
" transform="scale(0.015625)"/>
       <path id="DejaVuSans-39" d="M 703 97 
L 703 672 
Q 941 559 1184 500 
Q 1428 441 1663 441 
Q 2288 441 2617 861 
Q 2947 1281 2994 2138 
Q 2813 1869 2534 1725 
Q 2256 1581 1919 1581 
Q 1219 1581 811 2004 
Q 403 2428 403 3163 
Q 403 3881 828 4315 
Q 1253 4750 1959 4750 
Q 2769 4750 3195 4129 
Q 3622 3509 3622 2328 
Q 3622 1225 3098 567 
Q 2575 -91 1691 -91 
Q 1453 -91 1209 -44 
Q 966 3 703 97 
z
M 1959 2075 
Q 2384 2075 2632 2365 
Q 2881 2656 2881 3163 
Q 2881 3666 2632 3958 
Q 2384 4250 1959 4250 
Q 1534 4250 1286 3958 
Q 1038 3666 1038 3163 
Q 1038 2656 1286 2365 
Q 1534 2075 1959 2075 
z
" transform="scale(0.015625)"/>
       <path id="DejaVuSans-3d" d="M 678 2906 
L 4684 2906 
L 4684 2381 
L 678 2381 
L 678 2906 
z
M 678 1631 
L 4684 1631 
L 4684 1100 
L 678 1100 
L 678 1631 
z
" transform="scale(0.015625)"/>
      </defs>
      <use xlink:href="#DejaVuSans-56"/>
      <use xlink:href="#DejaVuSans-61" transform="translate(60.658203 0)"/>
      <use xlink:href="#DejaVuSans-52" transform="translate(121.9375 0)"/>
      <use xlink:href="#DejaVuSans-28" transform="translate(191.419922 0)"/>
      <use xlink:href="#DejaVuSans-39" transform="translate(230.433594 0)"/>
      <use xlink:href="#DejaVuSans-35" transform="translate(294.056641 0)"/>
      <use xlink:href="#DejaVuSans-25" transform="translate(357.679688 0)"/>
      <use xlink:href="#DejaVuSans-29" transform="translate(452.699219 0)"/>
      <use xlink:href="#DejaVuSans-20" transform="translate(491.712891 0)"/>
      <use xlink:href="#DejaVuSans-3d" transform="translate(523.5 0)"/>
      <use xlink:href="#DejaVuSans-20" transform="translate(607.289062 0)"/>
      <use xlink:href="#DejaVuSans-32" transform="translate(639.076172 0)"/>
      <use xlink:href="#DejaVuSans-2e" transform="translate(702.699219 0)"/>
      <use xlink:href="#DejaVuSans-31" transform="translate(734.486328 0)"/>
      <use xlink:href="#DejaVuSans-35" transform="translate(798.109375 0)"/>
      <use xlink:href="#DejaVuSans-25" transform="translate(861.732422 0)"/>
     </g>
    </g>
    <g id="line2d_31">
     <path d="M 494.176827 50.094688 
L 504.176827 50.094688 
L 514.176827 50.094688 
" style="fill: none; stroke-dasharray: 12.8,3.2,2,3.2; stroke-dashoffset: 0; stroke: #c0392b; stroke-width: 2"/>
    </g>
    <g id="text_18">
     <!-- VaR(99%) = 2.97% -->
     <g transform="translate(522.176827 53.594688) scale(0.1 -0.1)">
      <defs>
       <path id="DejaVuSans-37" d="M 525 4666 
L 3525 4666 
L 3525 4397 
L 1831 0 
L 1172 0 
L 2766 4134 
L 525 4134 
L 525 4666 
z
" transform="scale(0.015625)"/>
      </defs>
      <use xlink:href="#DejaVuSans-56"/>
      <use xlink:href="#DejaVuSans-61" transform="translate(60.658203 0)"/>
      <use xlink:href="#DejaVuSans-52" transform="translate(121.9375 0)"/>
      <use xlink:href="#DejaVuSans-28" transform="translate(191.419922 0)"/>
      <use xlink:href="#DejaVuSans-39" transform="translate(230.433594 0)"/>
      <use xlink:href="#DejaVuSans-39" transform="translate(294.056641 0)"/>
      <use xlink:href="#DejaVuSans-25" transform="translate(357.679688 0)"/>
      <use xlink:href="#DejaVuSans-29" transform="translate(452.699219 0)"/>
      <use xlink:href="#DejaVuSans-20" transform="translate(491.712891 0)"/>
      <use xlink:href="#DejaVuSans-3d" transform="translate(523.5 0)"/>
      <use xlink:href="#DejaVuSans-20" transform="translate(607.289062 0)"/>
      <use xlink:href="#DejaVuSans-32" transform="translate(639.076172 0)"/>
      <use xlink:href="#DejaVuSans-2e" transform="translate(702.699219 0)"/>
      <use xlink:href="#DejaVuSans-39" transform="translate(734.486328 0)"/>
      <use xlink:href="#DejaVuSans-37" transform="translate(798.109375 0)"/>
      <use xlink:href="#DejaVuSans-25" transform="translate(861.732422 0)"/>
     </g>
    </g>
    <g id="line2d_32">
     <path d="M 494.176827 64.772812 
L 504.176827 64.772812 
L 514.176827 64.772812 
" style="fill: none; stroke-dasharray: 2,3.3; stroke-dashoffset: 0; stroke: #8e44ad; stroke-width: 2"/>
    </g>
    <g id="text_19">
     <!-- CVaR(95%) = 2.68% -->
     <g transform="translate(522.176827 68.272812) scale(0.1 -0.1)">
      <defs>
       <path id="DejaVuSans-43" d="M 4122 4306 
L 4122 3641 
Q 3803 3938 3442 4084 
Q 3081 4231 2675 4231 
Q 1875 4231 1450 3742 
Q 1025 3253 1025 2328 
Q 1025 1406 1450 917 
Q 1875 428 2675 428 
Q 3081 428 3442 575 
Q 3803 722 4122 1019 
L 4122 359 
Q 3791 134 3420 21 
Q 3050 -91 2638 -91 
Q 1578 -91 968 557 
Q 359 1206 359 2328 
Q 359 3453 968 4101 
Q 1578 4750 2638 4750 
Q 3056 4750 3426 4639 
Q 3797 4528 4122 4306 
z
" transform="scale(0.015625)"/>
       <path id="DejaVuSans-36" d="M 2113 2584 
Q 1688 2584 1439 2293 
Q 1191 2003 1191 1497 
Q 1191 994 1439 701 
Q 1688 409 2113 409 
Q 2538 409 2786 701 
Q 3034 994 3034 1497 
Q 3034 2003 2786 2293 
Q 2538 2584 2113 2584 
z
M 3366 4563 
L 3366 3988 
Q 3128 4100 2886 4159 
Q 2644 4219 2406 4219 
Q 1781 4219 1451 3797 
Q 1122 3375 1075 2522 
Q 1259 2794 1537 2939 
Q 1816 3084 2150 3084 
Q 2853 3084 3261 2657 
Q 3669 2231 3669 1497 
Q 3669 778 3244 343 
Q 2819 -91 2113 -91 
Q 1303 -91 875 529 
Q 447 1150 447 2328 
Q 447 3434 972 4092 
Q 1497 4750 2381 4750 
Q 2619 4750 2861 4703 
Q 3103 4656 3366 4563 
z
" transform="scale(0.015625)"/>
       <path id="DejaVuSans-38" d="M 2034 2216 
Q 1584 2216 1326 1975 
Q 1069 1734 1069 1313 
Q 1069 891 1326 650 
Q 1584 409 2034 409 
Q 2484 409 2743 651 
Q 3003 894 3003 1313 
Q 3003 1734 2745 1975 
Q 2488 2216 2034 2216 
z
M 1403 2484 
Q 997 2584 770 2862 
Q 544 3141 544 3541 
Q 544 4100 942 4425 
Q 1341 4750 2034 4750 
Q 2731 4750 3128 4425 
Q 3525 4100 3525 3541 
Q 3525 3141 3298 2862 
Q 3072 2584 2669 2484 
Q 3125 2378 3379 2068 
Q 3634 1759 3634 1313 
Q 3634 634 3220 271 
Q 2806 -91 2034 -91 
Q 1263 -91 848 271 
Q 434 634 434 1313 
Q 434 1759 690 2068 
Q 947 2378 1403 2484 
z
M 1172 3481 
Q 1172 3119 1398 2916 
Q 1625 2713 2034 2713 
Q 2441 2713 2670 2916 
Q 2900 3119 2900 3481 
Q 2900 3844 2670 4047 
Q 2441 4250 2034 4250 
Q 1625 4250 1398 4047 
Q 1172 3844 1172 3481 
z
" transform="scale(0.015625)"/>
      </defs>
      <use xlink:href="#DejaVuSans-43"/>
      <use xlink:href="#DejaVuSans-56" transform="translate(69.824219 0)"/>
      <use xlink:href="#DejaVuSans-61" transform="translate(130.482422 0)"/>
      <use xlink:href="#DejaVuSans-52" transform="translate(191.761719 0)"/>
      <use xlink:href="#DejaVuSans-28" transform="translate(261.244141 0)"/>
      <use xlink:href="#DejaVuSans-39" transform="translate(300.257812 0)"/>
      <use xlink:href="#DejaVuSans-35" transform="translate(363.880859 0)"/>
      <use xlink:href="#DejaVuSans-25" transform="translate(427.503906 0)"/>
      <use xlink:href="#DejaVuSans-29" transform="translate(522.523438 0)"/>
      <use xlink:href="#DejaVuSans-20" transform="translate(561.537109 0)"/>
      <use xlink:href="#DejaVuSans-3d" transform="translate(593.324219 0)"/>
      <use xlink:href="#DejaVuSans-20" transform="translate(677.113281 0)"/>
      <use xlink:href="#DejaVuSans-32" transform="translate(708.900391 0)"/>
      <use xlink:href="#DejaVuSans-2e" transform="translate(772.523438 0)"/>
      <use xlink:href="#DejaVuSans-36" transform="translate(804.310547 0)"/>
      <use xlink:href="#DejaVuSans-38" transform="translate(867.933594 0)"/>
      <use xlink:href="#DejaVuSans-25" transform="translate(931.556641 0)"/>
     </g>
    </g>
   </g>
  </g>
 </g>
 <defs>
  <clipPath id="pbed378d128">
   <rect x="51.111563" y="22.318125" width="582.723077" height="292.046154"/>
  </clipPath>
 </defs>
</svg>
